<svg xmlns="http://www.w3.org/2000/svg" xmlns:oryx="http://oryx-editor.org" id="_CA0CE1E4-196B-46F1-AC35-0CE304237BC6" width="958.0000610351562" height="256.109375" xmlns:xlink="http://www.w3.org/1999/xlink" xmlns:svg="http://www.w3.org/2000/svg"><defs><marker id="_8817BD1F-CA95-41F4-8091-14A4ABD2C9FEstart" refX="1" refY="5" markerUnits="userSpaceOnUse" markerWidth="17" markerHeight="11" orient="auto" fill="#000000" stroke="#000000"> 	  		<path id="_8817BD1F-CA95-41F4-8091-14A4ABD2C9FEconditional" d="M 0 5 L 8 0 L 16 5 L 8 10 L 0 5" fill="white" stroke="#000000" stroke-width="1" display="none"/> 			<path id="_8817BD1F-CA95-41F4-8091-14A4ABD2C9FEdefault" d="M 5 0 L 11 10" fill="white" stroke="#000000" stroke-width="1" display="none"/> 	  	</marker><marker id="_8817BD1F-CA95-41F4-8091-14A4ABD2C9FEend" refX="15" refY="6" markerUnits="userSpaceOnUse" markerWidth="15" markerHeight="12" orient="auto" fill="#000000" stroke="#000000"> 	  		<path id="_8817BD1F-CA95-41F4-8091-14A4ABD2C9FEframe2" d="M 0 1 L 15 6 L 0 11z" fill="#000000" stroke="#000000" stroke-linejoin="round" stroke-width="2"/> 	  	</marker><marker id="_35E1646E-CA39-47AF-B13E-2A2D78D44499start" refX="1" refY="5" markerUnits="userSpaceOnUse" markerWidth="17" markerHeight="11" orient="auto" fill="#000000" stroke="#000000"> 	  		<path id="_35E1646E-CA39-47AF-B13E-2A2D78D44499conditional" d="M 0 5 L 8 0 L 16 5 L 8 10 L 0 5" fill="white" stroke="#000000" stroke-width="1" display="none"/> 			<path id="_35E1646E-CA39-47AF-B13E-2A2D78D44499default" d="M 5 0 L 11 10" fill="white" stroke="#000000" stroke-width="1" display="none"/> 	  	</marker><marker id="_35E1646E-CA39-47AF-B13E-2A2D78D44499end" refX="15" refY="6" markerUnits="userSpaceOnUse" markerWidth="15" markerHeight="12" orient="auto" fill="#000000" stroke="#000000"> 	  		<path id="_35E1646E-CA39-47AF-B13E-2A2D78D44499frame2" d="M 0 1 L 15 6 L 0 11z" fill="#000000" stroke="#000000" stroke-linejoin="round" stroke-width="2"/> 	  	</marker><marker id="_339A787D-9DDC-4DB6-8FD9-D82DAD19868Cstart" refX="1" refY="5" markerUnits="userSpaceOnUse" markerWidth="17" markerHeight="11" orient="auto" fill="#000000" stroke="#000000"> 	  		<path id="_339A787D-9DDC-4DB6-8FD9-D82DAD19868Cconditional" d="M 0 5 L 8 0 L 16 5 L 8 10 L 0 5" fill="white" stroke="#000000" stroke-width="1" display="none"/> 			<path id="_339A787D-9DDC-4DB6-8FD9-D82DAD19868Cdefault" d="M 5 0 L 11 10" fill="white" stroke="#000000" stroke-width="1" display="none"/> 	  	</marker><marker id="_339A787D-9DDC-4DB6-8FD9-D82DAD19868Cend" refX="15" refY="6" markerUnits="userSpaceOnUse" markerWidth="15" markerHeight="12" orient="auto" fill="#000000" stroke="#000000"> 	  		<path id="_339A787D-9DDC-4DB6-8FD9-D82DAD19868Cframe2" d="M 0 1 L 15 6 L 0 11z" fill="#000000" stroke="#000000" stroke-linejoin="round" stroke-width="2"/> 	  	</marker></defs><g stroke="none" font-family="Verdana, sans-serif" font-size-adjust="none" font-style="normal" font-variant="normal" font-weight="normal" line-heigth="normal" font-size="12"><g class="stencils" transform="translate(15, 16.109375)"><g class="me"/><g class="children"><g id="_99AE692D-36CE-4213-BA13-898FA2426586" bpmn2nodeid="processStartEvent"><g class="stencils" transform="translate(75, 165)"><g class="me"><g pointer-events="fill" id="_99AE692D-36CE-4213-BA13-898FA2426586">        <defs id="_99AE692D-36CE-4213-BA13-898FA2426586__99AE692D-36CE-4213-BA13-898FA2426586_5"> 		<radialGradient id="_99AE692D-36CE-4213-BA13-898FA2426586background" cx="10%" cy="10%" r="100%" fx="10%" fy="10%"> 			<stop offset="0%" stop-color="#ffffff" stop-opacity="1" id="_99AE692D-36CE-4213-BA13-898FA2426586__99AE692D-36CE-4213-BA13-898FA2426586_6"/> 			<stop id="_99AE692D-36CE-4213-BA13-898FA2426586fill_el" offset="100%" stop-color="#9acd32" stop-opacity="1"/> 		</radialGradient> 	</defs> 	     <circle id="_99AE692D-36CE-4213-BA13-898FA2426586bg_frame" cx="15" cy="15" r="15" stroke="#000000" fill="url(#_99AE692D-36CE-4213-BA13-898FA2426586background) white" stroke-width="1" style="stroke-dasharray: 5.5, 3"/>      <circle id="_99AE692D-36CE-4213-BA13-898FA2426586frame" cx="15" cy="15" r="15" stroke="#000000" fill="none" stroke-width="1" display="inherit"/>  	<text font-size="11" id="_99AE692D-36CE-4213-BA13-898FA2426586text_name" x="15" y="32" oryx:align="top center" stroke="black" stroke-width="0pt" letter-spacing="-0.01px" fill="#000000" text-anchor="middle" transform="rotate(0 15 32)" visibility="inherit" oryx:fontSize="11"/>   </g></g><g class="children" style="overflow:hidden"/><g class="edge"/></g><g class="controls"><g class="dockers"/><g class="magnets" transform="translate(75, 165)"><g pointer-events="all" display="none" transform="translate(7, 7)"><circle cx="8" cy="8" r="4" stroke="none" fill="red" fill-opacity="0.3"/></g></g></g></g><g id="_D6E33E17-F4E4-48CF-BCC5-8CE061BE5704" bpmn2nodeid="_819C914A-3FCF-4630-82CB-CBEA275494D1"><g class="stencils" transform="translate(120.00000000000001, 135.00000000000003)"><g class="me"><g pointer-events="fill" oryx:minimumSize="50 40" id="_D6E33E17-F4E4-48CF-BCC5-8CE061BE5704">   	<defs id="_D6E33E17-F4E4-48CF-BCC5-8CE061BE5704__D6E33E17-F4E4-48CF-BCC5-8CE061BE5704_17"> 		<radialGradient id="_D6E33E17-F4E4-48CF-BCC5-8CE061BE5704background" cx="10%" cy="10%" r="100%" fx="10%" fy="10%"> 			<stop offset="0%" stop-color="#ffffff" stop-opacity="1" id="_D6E33E17-F4E4-48CF-BCC5-8CE061BE5704__D6E33E17-F4E4-48CF-BCC5-8CE061BE5704_18"/> 			<stop id="_D6E33E17-F4E4-48CF-BCC5-8CE061BE5704fill_el" offset="100%" stop-color="#fafad2" stop-opacity="1"/> 		</radialGradient> 		<radialGradient id="_D6E33E17-F4E4-48CF-BCC5-8CE061BE5704borderbackground" cx="10%" cy="10%" r="100%" fx="10%" fy="10%"> 			<stop offset="0%" stop-color="#ffffff" stop-opacity="1" id="_D6E33E17-F4E4-48CF-BCC5-8CE061BE5704__D6E33E17-F4E4-48CF-BCC5-8CE061BE5704_19"/> 			<stop id="_D6E33E17-F4E4-48CF-BCC5-8CE061BE5704fill_border" offset="100%" stop-color="#000000" stop-opacity="1" stroke="#000000"/> 		</radialGradient> 	</defs> 	 	<rect id="_D6E33E17-F4E4-48CF-BCC5-8CE061BE5704text_frame" oryx:anchors="bottom top right left" x="1" y="1" width="109" height="79" rx="10" ry="10" stroke="none" stroke-width="0" fill="none"/> 	<rect id="_D6E33E17-F4E4-48CF-BCC5-8CE061BE5704bg_frame" oryx:resize="vertical horizontal" x="0" y="0" width="114.99999999999999" height="80" rx="10" ry="10" stroke="#000000" stroke-width="1" fill="url(#_D6E33E17-F4E4-48CF-BCC5-8CE061BE5704background) #ffffcc"/> 		<text font-size="12" id="_D6E33E17-F4E4-48CF-BCC5-8CE061BE5704text_name" x="57.49999999999999" y="40" oryx:align="middle center" oryx:fittoelem="text_frame" stroke="black" text-anchor="middle" stroke-width="0pt" letter-spacing="-0.01px" fill="#000000" transform="rotate(0 57.49999999999999 40)" visibility="inherit" oryx:fontSize="12"><tspan x="57.49999999999999" y="40" dy="5">Init Data</tspan></text>     <g id="_D6E33E17-F4E4-48CF-BCC5-8CE061BE5704manualTask" transform="scale(0.7,0.7) translate(8,8)" display="none">     	<path oryx:anchors="top left" id="_D6E33E17-F4E4-48CF-BCC5-8CE061BE5704frame" style="opacity:1;fill:none;fill-opacity:1;stroke-width:1" d="M0.5,3.751l4.083-3.25c0,0,11.166,0.083,12.083,0.083s-2.417,2.917-1.5,2.917     s11.667,0,12.584,0c1.166,1.708-0.168,3.167-0.834,3.667s0.875,1.917-1,4.417c-0.75,0.25,0.75,1.875-1.333,3.333     c-1.167,0.583,0.583,1.542-1.25,2.833c-1.167,0-20.833,0.083-20.833,0.083l-2-1.333V3.751z" stroke="#000000"/> 		<path id="_D6E33E17-F4E4-48CF-BCC5-8CE061BE5704frame2" oryx:anchors="top left" style="opacity:1;fill:none;stroke-width:2" d="M 13.5 7 L 27 7" stroke="#000000"/> 		<path id="_D6E33E17-F4E4-48CF-BCC5-8CE061BE5704frame3" oryx:anchors="top left" style="opacity:1;fill:none;stroke-width:2" d="M 13.5 11 L 26 11" stroke="#000000"/> 		<path id="_D6E33E17-F4E4-48CF-BCC5-8CE061BE5704frame4" oryx:anchors="top left" style="opacity:1;fill:none;stroke-width:1.5" d="M 14 14.5 L 25 14.5" stroke="#000000"/> 		<path id="_D6E33E17-F4E4-48CF-BCC5-8CE061BE5704frame5" oryx:anchors="top left" style="opacity:1;fill:none;stroke-width:1.5" d="M 8.2 3.1 L 15 3.1" stroke="#000000"/> 	</g> 	 	<g id="_D6E33E17-F4E4-48CF-BCC5-8CE061BE5704businessRuleTask" transform="scale(0.7,0.7) translate(8,8)" display="inherit"> 		<rect id="_D6E33E17-F4E4-48CF-BCC5-8CE061BE5704frame6" oryx:anchors="top left" x="0" y="0" width="22" height="4" style="opacity:1;fill:#B3B1B3;fill-opacity:1;" stroke="#000000"/> 		<rect id="_D6E33E17-F4E4-48CF-BCC5-8CE061BE5704frame7" oryx:anchors="top left" x="0" y="4" style="opacity:1;fill:none;" width="22" height="12" stroke="#000000"/> 		<path id="_D6E33E17-F4E4-48CF-BCC5-8CE061BE5704frame8" oryx:anchors="top left" style="opacity:1;fill:none;" d="M 0 10 L 22 10" stroke="#000000"/> 		<path id="_D6E33E17-F4E4-48CF-BCC5-8CE061BE5704frame9" oryx:anchors="top left" style="opacity:1; fill:none;" d="M 7 4 L 7 16" stroke="#000000"/> 	</g> 	 	<g id="_D6E33E17-F4E4-48CF-BCC5-8CE061BE5704scriptTask" transform="scale(0.7,0.7) translate(8,8)" display="none"> 		<path oryx:anchors="top left" id="_D6E33E17-F4E4-48CF-BCC5-8CE061BE5704frame10" style="opacity:1;fill:none;" stroke="#000000" d="M6.402,0.5h14.5c0,0-5.833,2.833-5.833,5.583s4.417,6,4.417,9.167    s-4.167,5.083-4.167,5.083H0.235c0,0,5-2.667,5-5s-4.583-6.75-4.583-9.25S6.402,0.5,6.402,0.5z"/> 		<path oryx:anchors="top left" id="_D6E33E17-F4E4-48CF-BCC5-8CE061BE5704frame11" style="opacity:1;fill:none;stroke-width:1.5" d="M 3.5 4.5 L 13.5 4.5" stroke="#000000"/> 		<path oryx:anchors="top left" id="_D6E33E17-F4E4-48CF-BCC5-8CE061BE5704frame12" style="opacity:1;fill:none;stroke-width:1.5" d="M 3.8 8.5 L 13.8 8.5" stroke="#000000"/> 		<path oryx:anchors="top left" id="_D6E33E17-F4E4-48CF-BCC5-8CE061BE5704frame13" style="opacity:1;fill:none;stroke-width:1.5" d="M 6.3 12.5 L 16.3 12.5" stroke="#000000"/> 		<path oryx:anchors="top left" id="_D6E33E17-F4E4-48CF-BCC5-8CE061BE5704frame14" style="opacity:1;fill:none;stroke-width:1.5" d="M 6.5 16.5 L 16.5 16.5" stroke="#000000"/> 	</g> 	 	<g id="_D6E33E17-F4E4-48CF-BCC5-8CE061BE5704userTask" transform="scale(0.7,0.7) translate(8,8)" display="none"> 		<path id="_D6E33E17-F4E4-48CF-BCC5-8CE061BE5704frame15" oryx:anchors="top left" style="opacity:1;fill:#F4F6F7" stroke="#000000" d="M0.585,24.167h24.083v-7.833c0,0-2.333-3.917-7.083-5.167h-9.25    c-4.417,1.333-7.833,5.75-7.833,5.75L0.585,24.167z"/> 		<path id="_D6E33E17-F4E4-48CF-BCC5-8CE061BE5704frame16" oryx:anchors="top left" style="opacity:1;fill:none" d="M 6 20 L 6 24" stroke="#000000"/> 		<path id="_D6E33E17-F4E4-48CF-BCC5-8CE061BE5704frame17" oryx:anchors="top left" style="opacity:1;fill:none" d="M 20 20 L 20 24" stroke="#000000"/> 		<circle id="_D6E33E17-F4E4-48CF-BCC5-8CE061BE5704frame18" oryx:anchors="top left" fill="black" cx="13.002" cy="5.916" r="5.417" stroke="#000000"/> 		<path id="_D6E33E17-F4E4-48CF-BCC5-8CE061BE5704frame19" oryx:anchors="top left" style="opacity:1;fill:#F0EFF0;" stroke="#000000" d="M8.043,7.083c0,0,2.814-2.426,5.376-1.807s4.624-0.693,4.624-0.693    c0.25,1.688,0.042,3.75-1.458,5.584c0,0,1.083,0.75,1.083,1.5s0.125,1.875-1,3s-5.5,1.25-6.75,0S8.668,12.834,8.668,12    s0.583-1.25,1.25-1.917C8.835,9.5,7.419,7.708,8.043,7.083z"/> 	</g> 	 	<g id="_D6E33E17-F4E4-48CF-BCC5-8CE061BE5704serviceTask" transform="scale(0.7,0.7) translate(8,8)" display="none"> 		<polygon oryx:anchors="top left" id="_D6E33E17-F4E4-48CF-BCC5-8CE061BE5704frame20" style="opacity:1;fill:#ffffff" stroke="#000000" points="15.392,5.064 17.954,2.502 20.347,4.895 17.786,7.455     18.729,9.732 22.353,9.732 22.353,13.115 18.731,13.115 17.788,15.392 20.351,17.955 17.958,20.347 15.397,17.786 13.12,18.729     13.12,22.353 9.737,22.353 9.737,18.731 7.46,17.788 4.897,20.35 2.506,17.958 5.066,15.397 4.124,13.12 0.5,13.12 0.5,9.737     4.121,9.737 5.065,7.461 2.503,4.898 4.895,2.506 7.455,5.066 9.732,4.125 9.732,0.5 13.116,0.5 13.116,4.121 "/> 		<circle oryx:anchors="top left" id="_D6E33E17-F4E4-48CF-BCC5-8CE061BE5704frame21" style="opacity:1;fill:none" stroke="#000000" cx="11.427" cy="11.426" r="3.714"/> 		<polygon oryx:anchors="top left" id="_D6E33E17-F4E4-48CF-BCC5-8CE061BE5704frame22" style="opacity:1;fill:#ffffff" stroke="#000000" points="21.392,11.064 23.954,8.502 26.347,10.895 23.786,13.455     24.729,15.732 28.353,15.732 28.353,19.115 24.731,19.115 23.788,21.392 26.351,23.955 23.958,26.347 21.397,23.786 19.12,24.729     19.12,28.353 15.737,28.353 15.737,24.731 13.46,23.788 10.897,26.35 8.506,23.958 11.066,21.397 10.124,19.12 6.5,19.12     6.5,15.737 10.121,15.737 11.065,13.461 8.503,10.898 10.895,8.506 13.455,11.066 15.732,10.125 15.732,6.5 19.116,6.5     19.116,10.121 "/> 		<circle oryx:anchors="top left" id="_D6E33E17-F4E4-48CF-BCC5-8CE061BE5704frame23" style="opacity:1;fill:none;" stroke="#000000" cx="17.427" cy="17.426" r="3.714"/> 	</g> 	 	<g id="_D6E33E17-F4E4-48CF-BCC5-8CE061BE5704sendTask" display="none"> 		<path id="_D6E33E17-F4E4-48CF-BCC5-8CE061BE5704stframe24" oryx:anchors="left top" stroke="#FFFFFF" fill="black" stroke-width="1" d="M8,11 L8,21 L24,21 L24,11 L16,17z"/> 		<path id="_D6E33E17-F4E4-48CF-BCC5-8CE061BE5704stframe25" oryx:anchors="left top" stroke="#FFFFFF" fill="black" stroke-width="1" d="M7,10 L16,17 L25 10z"/> 	</g> 	 	<g id="_D6E33E17-F4E4-48CF-BCC5-8CE061BE5704receiveTask" display="none"> 		<path id="_D6E33E17-F4E4-48CF-BCC5-8CE061BE5704frame26" oryx:anchors="left top" stroke="#000000" fill="none" stroke-width="1" d="M8,11 L8,21 L24,21 L24,11z M8,11 L16,17 L24,11"/> 	</g> 	 	<g id="_D6E33E17-F4E4-48CF-BCC5-8CE061BE5704none" display="inherit"/>  	<g id="_D6E33E17-F4E4-48CF-BCC5-8CE061BE5704sequential" display="none">         <path oryx:anchors="bottom" fill="none" stroke="#000000" stroke-width="2" d=" M53.65 76  h10  M53.65 72  h10  M53.65 68  h10 " id="_D6E33E17-F4E4-48CF-BCC5-8CE061BE5704__D6E33E17-F4E4-48CF-BCC5-8CE061BE5704_20"/>     </g>   </g></g><g class="children" style="overflow:hidden"/><g class="edge"/></g><g class="controls"><g class="dockers"/><g class="magnets" transform="translate(120.00000000000001, 135.00000000000003)"><g pointer-events="all" display="none" transform="translate(-7, 12)"><circle cx="8" cy="8" r="4" stroke="none" fill="red" fill-opacity="0.3"/></g><g pointer-events="all" display="none" transform="translate(-7, 32)"><circle cx="8" cy="8" r="4" stroke="none" fill="red" fill-opacity="0.3"/></g><g pointer-events="all" display="none" transform="translate(-7, 52)"><circle cx="8" cy="8" r="4" stroke="none" fill="red" fill-opacity="0.3"/></g><g pointer-events="all" display="none" transform="translate(20.749999999999996, 71)"><circle cx="8" cy="8" r="4" stroke="none" fill="red" fill-opacity="0.3"/></g><g pointer-events="all" display="none" transform="translate(49.49999999999999, 71)"><circle cx="8" cy="8" r="4" stroke="none" fill="red" fill-opacity="0.3"/></g><g pointer-events="all" display="none" transform="translate(78.25, 71)"><circle cx="8" cy="8" r="4" stroke="none" fill="red" fill-opacity="0.3"/></g><g pointer-events="all" display="none" transform="translate(106, 12)"><circle cx="8" cy="8" r="4" stroke="none" fill="red" fill-opacity="0.3"/></g><g pointer-events="all" display="none" transform="translate(106, 32)"><circle cx="8" cy="8" r="4" stroke="none" fill="red" fill-opacity="0.3"/></g><g pointer-events="all" display="none" transform="translate(106, 52)"><circle cx="8" cy="8" r="4" stroke="none" fill="red" fill-opacity="0.3"/></g><g pointer-events="all" display="none" transform="translate(20.749999999999996, -7)"><circle cx="8" cy="8" r="4" stroke="none" fill="red" fill-opacity="0.3"/></g><g pointer-events="all" display="none" transform="translate(49.49999999999999, -7)"><circle cx="8" cy="8" r="4" stroke="none" fill="red" fill-opacity="0.3"/></g><g pointer-events="all" display="none" transform="translate(78.25, -7)"><circle cx="8" cy="8" r="4" stroke="none" fill="red" fill-opacity="0.3"/></g><g pointer-events="all" display="none" transform="translate(49.49999999999999, 32)"><circle cx="8" cy="8" r="4" stroke="none" fill="red" fill-opacity="0.3"/></g></g></g></g><g id="_B96680AF-CBB5-4367-B226-E2051CA44099" bpmn2nodeid="_DEA549AB-0318-43CE-91E0-695BD0BDF6DD"><g class="stencils" transform="translate(435.00000000000006, 120.00000000000001)"><g class="me"><g pointer-events="fill" oryx:minimumSize="50 40" id="_B96680AF-CBB5-4367-B226-E2051CA44099">   	<defs id="_B96680AF-CBB5-4367-B226-E2051CA44099__B96680AF-CBB5-4367-B226-E2051CA44099_17"> 		<radialGradient id="_B96680AF-CBB5-4367-B226-E2051CA44099background" cx="10%" cy="10%" r="100%" fx="10%" fy="10%"> 			<stop offset="0%" stop-color="#ffffff" stop-opacity="1" id="_B96680AF-CBB5-4367-B226-E2051CA44099__B96680AF-CBB5-4367-B226-E2051CA44099_18"/> 			<stop id="_B96680AF-CBB5-4367-B226-E2051CA44099fill_el" offset="100%" stop-color="#fafad2" stop-opacity="1"/> 		</radialGradient> 		<radialGradient id="_B96680AF-CBB5-4367-B226-E2051CA44099borderbackground" cx="10%" cy="10%" r="100%" fx="10%" fy="10%"> 			<stop offset="0%" stop-color="#ffffff" stop-opacity="1" id="_B96680AF-CBB5-4367-B226-E2051CA44099__B96680AF-CBB5-4367-B226-E2051CA44099_19"/> 			<stop id="_B96680AF-CBB5-4367-B226-E2051CA44099fill_border" offset="100%" stop-color="#000000" stop-opacity="1" stroke="#000000"/> 		</radialGradient> 	</defs> 	 	<rect id="_B96680AF-CBB5-4367-B226-E2051CA44099text_frame" oryx:anchors="bottom top right left" x="1" y="1" width="94" height="79" rx="10" ry="10" stroke="none" stroke-width="0" fill="none"/> 	<rect id="_B96680AF-CBB5-4367-B226-E2051CA44099bg_frame" oryx:resize="vertical horizontal" x="0" y="0" width="100" height="80" rx="10" ry="10" stroke="#000000" stroke-width="1" fill="url(#_B96680AF-CBB5-4367-B226-E2051CA44099background) #ffffcc"/> 		<text font-size="12" id="_B96680AF-CBB5-4367-B226-E2051CA44099text_name" x="50" y="40" oryx:align="middle center" oryx:fittoelem="text_frame" stroke="black" text-anchor="middle" stroke-width="0pt" letter-spacing="-0.01px" fill="#000000" transform="rotate(0 50 40)" visibility="inherit" oryx:fontSize="12"><tspan x="50" y="40" dy="5" id="ext-gen705">Promotion</tspan></text>     <g id="_B96680AF-CBB5-4367-B226-E2051CA44099manualTask" transform="scale(0.7,0.7) translate(8,8)" display="none">     	<path oryx:anchors="top left" id="_B96680AF-CBB5-4367-B226-E2051CA44099frame" style="opacity:1;fill:none;fill-opacity:1;stroke-width:1" d="M0.5,3.751l4.083-3.25c0,0,11.166,0.083,12.083,0.083s-2.417,2.917-1.5,2.917     s11.667,0,12.584,0c1.166,1.708-0.168,3.167-0.834,3.667s0.875,1.917-1,4.417c-0.75,0.25,0.75,1.875-1.333,3.333     c-1.167,0.583,0.583,1.542-1.25,2.833c-1.167,0-20.833,0.083-20.833,0.083l-2-1.333V3.751z" stroke="#000000"/> 		<path id="_B96680AF-CBB5-4367-B226-E2051CA44099frame2" oryx:anchors="top left" style="opacity:1;fill:none;stroke-width:2" d="M 13.5 7 L 27 7" stroke="#000000"/> 		<path id="_B96680AF-CBB5-4367-B226-E2051CA44099frame3" oryx:anchors="top left" style="opacity:1;fill:none;stroke-width:2" d="M 13.5 11 L 26 11" stroke="#000000"/> 		<path id="_B96680AF-CBB5-4367-B226-E2051CA44099frame4" oryx:anchors="top left" style="opacity:1;fill:none;stroke-width:1.5" d="M 14 14.5 L 25 14.5" stroke="#000000"/> 		<path id="_B96680AF-CBB5-4367-B226-E2051CA44099frame5" oryx:anchors="top left" style="opacity:1;fill:none;stroke-width:1.5" d="M 8.2 3.1 L 15 3.1" stroke="#000000"/> 	</g> 	 	<g id="_B96680AF-CBB5-4367-B226-E2051CA44099businessRuleTask" transform="scale(0.7,0.7) translate(8,8)" display="inherit"> 		<rect id="_B96680AF-CBB5-4367-B226-E2051CA44099frame6" oryx:anchors="top left" x="0" y="0" width="22" height="4" style="opacity:1;fill:#B3B1B3;fill-opacity:1;" stroke="#000000"/> 		<rect id="_B96680AF-CBB5-4367-B226-E2051CA44099frame7" oryx:anchors="top left" x="0" y="4" style="opacity:1;fill:none;" width="22" height="12" stroke="#000000"/> 		<path id="_B96680AF-CBB5-4367-B226-E2051CA44099frame8" oryx:anchors="top left" style="opacity:1;fill:none;" d="M 0 10 L 22 10" stroke="#000000"/> 		<path id="_B96680AF-CBB5-4367-B226-E2051CA44099frame9" oryx:anchors="top left" style="opacity:1; fill:none;" d="M 7 4 L 7 16" stroke="#000000"/> 	</g> 	 	<g id="_B96680AF-CBB5-4367-B226-E2051CA44099scriptTask" transform="scale(0.7,0.7) translate(8,8)" display="none"> 		<path oryx:anchors="top left" id="_B96680AF-CBB5-4367-B226-E2051CA44099frame10" style="opacity:1;fill:none;" stroke="#000000" d="M6.402,0.5h14.5c0,0-5.833,2.833-5.833,5.583s4.417,6,4.417,9.167    s-4.167,5.083-4.167,5.083H0.235c0,0,5-2.667,5-5s-4.583-6.75-4.583-9.25S6.402,0.5,6.402,0.5z"/> 		<path oryx:anchors="top left" id="_B96680AF-CBB5-4367-B226-E2051CA44099frame11" style="opacity:1;fill:none;stroke-width:1.5" d="M 3.5 4.5 L 13.5 4.5" stroke="#000000"/> 		<path oryx:anchors="top left" id="_B96680AF-CBB5-4367-B226-E2051CA44099frame12" style="opacity:1;fill:none;stroke-width:1.5" d="M 3.8 8.5 L 13.8 8.5" stroke="#000000"/> 		<path oryx:anchors="top left" id="_B96680AF-CBB5-4367-B226-E2051CA44099frame13" style="opacity:1;fill:none;stroke-width:1.5" d="M 6.3 12.5 L 16.3 12.5" stroke="#000000"/> 		<path oryx:anchors="top left" id="_B96680AF-CBB5-4367-B226-E2051CA44099frame14" style="opacity:1;fill:none;stroke-width:1.5" d="M 6.5 16.5 L 16.5 16.5" stroke="#000000"/> 	</g> 	 	<g id="_B96680AF-CBB5-4367-B226-E2051CA44099userTask" transform="scale(0.7,0.7) translate(8,8)" display="none"> 		<path id="_B96680AF-CBB5-4367-B226-E2051CA44099frame15" oryx:anchors="top left" style="opacity:1;fill:#F4F6F7" stroke="#000000" d="M0.585,24.167h24.083v-7.833c0,0-2.333-3.917-7.083-5.167h-9.25    c-4.417,1.333-7.833,5.75-7.833,5.75L0.585,24.167z"/> 		<path id="_B96680AF-CBB5-4367-B226-E2051CA44099frame16" oryx:anchors="top left" style="opacity:1;fill:none" d="M 6 20 L 6 24" stroke="#000000"/> 		<path id="_B96680AF-CBB5-4367-B226-E2051CA44099frame17" oryx:anchors="top left" style="opacity:1;fill:none" d="M 20 20 L 20 24" stroke="#000000"/> 		<circle id="_B96680AF-CBB5-4367-B226-E2051CA44099frame18" oryx:anchors="top left" fill="black" cx="13.002" cy="5.916" r="5.417" stroke="#000000"/> 		<path id="_B96680AF-CBB5-4367-B226-E2051CA44099frame19" oryx:anchors="top left" style="opacity:1;fill:#F0EFF0;" stroke="#000000" d="M8.043,7.083c0,0,2.814-2.426,5.376-1.807s4.624-0.693,4.624-0.693    c0.25,1.688,0.042,3.75-1.458,5.584c0,0,1.083,0.75,1.083,1.5s0.125,1.875-1,3s-5.5,1.25-6.75,0S8.668,12.834,8.668,12    s0.583-1.25,1.25-1.917C8.835,9.5,7.419,7.708,8.043,7.083z"/> 	</g> 	 	<g id="_B96680AF-CBB5-4367-B226-E2051CA44099serviceTask" transform="scale(0.7,0.7) translate(8,8)" display="none"> 		<polygon oryx:anchors="top left" id="_B96680AF-CBB5-4367-B226-E2051CA44099frame20" style="opacity:1;fill:#ffffff" stroke="#000000" points="15.392,5.064 17.954,2.502 20.347,4.895 17.786,7.455     18.729,9.732 22.353,9.732 22.353,13.115 18.731,13.115 17.788,15.392 20.351,17.955 17.958,20.347 15.397,17.786 13.12,18.729     13.12,22.353 9.737,22.353 9.737,18.731 7.46,17.788 4.897,20.35 2.506,17.958 5.066,15.397 4.124,13.12 0.5,13.12 0.5,9.737     4.121,9.737 5.065,7.461 2.503,4.898 4.895,2.506 7.455,5.066 9.732,4.125 9.732,0.5 13.116,0.5 13.116,4.121 "/> 		<circle oryx:anchors="top left" id="_B96680AF-CBB5-4367-B226-E2051CA44099frame21" style="opacity:1;fill:none" stroke="#000000" cx="11.427" cy="11.426" r="3.714"/> 		<polygon oryx:anchors="top left" id="_B96680AF-CBB5-4367-B226-E2051CA44099frame22" style="opacity:1;fill:#ffffff" stroke="#000000" points="21.392,11.064 23.954,8.502 26.347,10.895 23.786,13.455     24.729,15.732 28.353,15.732 28.353,19.115 24.731,19.115 23.788,21.392 26.351,23.955 23.958,26.347 21.397,23.786 19.12,24.729     19.12,28.353 15.737,28.353 15.737,24.731 13.46,23.788 10.897,26.35 8.506,23.958 11.066,21.397 10.124,19.12 6.5,19.12     6.5,15.737 10.121,15.737 11.065,13.461 8.503,10.898 10.895,8.506 13.455,11.066 15.732,10.125 15.732,6.5 19.116,6.5     19.116,10.121 "/> 		<circle oryx:anchors="top left" id="_B96680AF-CBB5-4367-B226-E2051CA44099frame23" style="opacity:1;fill:none;" stroke="#000000" cx="17.427" cy="17.426" r="3.714"/> 	</g> 	 	<g id="_B96680AF-CBB5-4367-B226-E2051CA44099sendTask" display="none"> 		<path id="_B96680AF-CBB5-4367-B226-E2051CA44099stframe24" oryx:anchors="left top" stroke="#FFFFFF" fill="black" stroke-width="1" d="M8,11 L8,21 L24,21 L24,11 L16,17z"/> 		<path id="_B96680AF-CBB5-4367-B226-E2051CA44099stframe25" oryx:anchors="left top" stroke="#FFFFFF" fill="black" stroke-width="1" d="M7,10 L16,17 L25 10z"/> 	</g> 	 	<g id="_B96680AF-CBB5-4367-B226-E2051CA44099receiveTask" display="none"> 		<path id="_B96680AF-CBB5-4367-B226-E2051CA44099frame26" oryx:anchors="left top" stroke="#000000" fill="none" stroke-width="1" d="M8,11 L8,21 L24,21 L24,11z M8,11 L16,17 L24,11"/> 	</g> 	 	<g id="_B96680AF-CBB5-4367-B226-E2051CA44099none" display="inherit"/>  	<g id="_B96680AF-CBB5-4367-B226-E2051CA44099sequential" display="none">         <path oryx:anchors="bottom" fill="none" stroke="#000000" stroke-width="2" d="M46,76h10M46,72h10 M46,68h10" id="_B96680AF-CBB5-4367-B226-E2051CA44099__B96680AF-CBB5-4367-B226-E2051CA44099_20"/>     </g>   </g></g><g class="children" style="overflow:hidden"/><g class="edge"/></g><g class="controls"><g class="dockers"/><g class="magnets" transform="translate(435.00000000000006, 120.00000000000001)"><g pointer-events="all" display="none" transform="translate(-7, 12)"><circle cx="8" cy="8" r="4" stroke="none" fill="red" fill-opacity="0.3"/></g><g pointer-events="all" display="none" transform="translate(-7, 32)"><circle cx="8" cy="8" r="4" stroke="none" fill="red" fill-opacity="0.3"/></g><g pointer-events="all" display="none" transform="translate(-7, 52)"><circle cx="8" cy="8" r="4" stroke="none" fill="red" fill-opacity="0.3"/></g><g pointer-events="all" display="none" transform="translate(17, 71)"><circle cx="8" cy="8" r="4" stroke="none" fill="red" fill-opacity="0.3"/></g><g pointer-events="all" display="none" transform="translate(42, 71)"><circle cx="8" cy="8" r="4" stroke="none" fill="red" fill-opacity="0.3"/></g><g pointer-events="all" display="none" transform="translate(67, 71)"><circle cx="8" cy="8" r="4" stroke="none" fill="red" fill-opacity="0.3"/></g><g pointer-events="all" display="none" transform="translate(91, 12)"><circle cx="8" cy="8" r="4" stroke="none" fill="red" fill-opacity="0.3"/></g><g pointer-events="all" display="none" transform="translate(91, 32)"><circle cx="8" cy="8" r="4" stroke="none" fill="red" fill-opacity="0.3"/></g><g pointer-events="all" display="none" transform="translate(91, 52)"><circle cx="8" cy="8" r="4" stroke="none" fill="red" fill-opacity="0.3"/></g><g pointer-events="all" display="none" transform="translate(17, -7)"><circle cx="8" cy="8" r="4" stroke="none" fill="red" fill-opacity="0.3"/></g><g pointer-events="all" display="none" transform="translate(42, -7)"><circle cx="8" cy="8" r="4" stroke="none" fill="red" fill-opacity="0.3"/></g><g pointer-events="all" display="none" transform="translate(67, -7)"><circle cx="8" cy="8" r="4" stroke="none" fill="red" fill-opacity="0.3"/></g><g pointer-events="all" display="none" transform="translate(42, 32)"><circle cx="8" cy="8" r="4" stroke="none" fill="red" fill-opacity="0.3"/></g></g></g></g><g id="_7A7D83DD-3862-4D03-BA92-1AFE66CA9F80" bpmn2nodeid="_8C71584D-7F11-455F-A27C-BC78B6EE3392"><g class="stencils" transform="translate(890, 161)"><g class="me"><g pointer-events="fill" id="_7A7D83DD-3862-4D03-BA92-1AFE66CA9F80">      <defs id="_7A7D83DD-3862-4D03-BA92-1AFE66CA9F80__7A7D83DD-3862-4D03-BA92-1AFE66CA9F80_5"> 		<radialGradient id="_7A7D83DD-3862-4D03-BA92-1AFE66CA9F80background" cx="10%" cy="10%" r="100%" fx="10%" fy="10%"> 			<stop offset="0%" stop-color="#ffffff" stop-opacity="1" id="_7A7D83DD-3862-4D03-BA92-1AFE66CA9F80__7A7D83DD-3862-4D03-BA92-1AFE66CA9F80_6"/> 			<stop id="_7A7D83DD-3862-4D03-BA92-1AFE66CA9F80fill_el" offset="100%" stop-color="#ff6347" stop-opacity="1"/> 		</radialGradient> 	</defs> 	     <circle id="_7A7D83DD-3862-4D03-BA92-1AFE66CA9F80bg_frame" cx="14" cy="14" r="14" stroke="#000000" fill="url(#_7A7D83DD-3862-4D03-BA92-1AFE66CA9F80background) white" stroke-width="3"/> 	<text font-size="11" id="_7A7D83DD-3862-4D03-BA92-1AFE66CA9F80text_name" x="14" y="30" oryx:align="top center" stroke="black" stroke-width="0pt" letter-spacing="-0.01px" fill="#000000" text-anchor="middle" transform="rotate(0 14 30)" visibility="inherit" oryx:fontSize="11"/>   </g></g><g class="children" style="overflow:hidden"/><g class="edge"/></g><g class="controls"><g class="dockers"/><g class="magnets" transform="translate(890, 161)"><g pointer-events="all" display="none" transform="translate(6, 6)"><circle cx="8" cy="8" r="4" stroke="none" fill="red" fill-opacity="0.3"/></g></g></g></g></g><g class="edge"><g id="_8817BD1F-CA95-41F4-8091-14A4ABD2C9FE" bpmn2nodeid="_6E8A7C56-B636-4DBE-83BB-3302D431CB2B"><g class="stencils"><g class="me"><g pointer-events="painted" bpmn2nodeid="_1C534BAD-CE98-40E9-817C-28B52D981CC3"><path id="_8817BD1F-CA95-41F4-8091-14A4ABD2C9FE_1" d="M105.35384008442398 179.1226377094615L119.07975366557602 178.3382997905385 " stroke="#000000" fill="none" stroke-width="2" stroke-linecap="round" stroke-linejoin="round" marker-start="url(#_8817BD1F-CA95-41F4-8091-14A4ABD2C9FEstart)" marker-end="url(#_8817BD1F-CA95-41F4-8091-14A4ABD2C9FEend)"/></g><text id="_8817BD1F-CA95-41F4-8091-14A4ABD2C9FEtext_name" font-size="12" x="119.35384008442398" y="165.1226377094615" oryx:edgePosition="startTop" stroke-width="0pt" letter-spacing="-0.01px" fill="#000000" text-anchor="start" transform="rotate(356.72951207681643 105.35384008442398 179.1226377094615)" visibility="inherit" oryx:fontSize="12"/></g><g class="children" style="overflow:hidden"/><g class="edge"/></g><g class="controls"><g class="dockers"/><g class="magnets"/></g></g><g id="_35E1646E-CA39-47AF-B13E-2A2D78D44499" bpmn2nodeid="_2145555C-DD1D-412F-8BA0-3F8A11D9F619"><g class="stencils"><g class="me"><g pointer-events="painted" bpmn2nodeid="_2145555C-DD1D-412F-8BA0-3F8A11D9F619"><path id="_35E1646E-CA39-47AF-B13E-2A2D78D44499_1" d="M235.55447641362488 172.16807432128658L434.7531407738751 162.45106630371342 " stroke="#000000" fill="none" stroke-width="2" stroke-linecap="round" stroke-linejoin="round" marker-start="url(#_35E1646E-CA39-47AF-B13E-2A2D78D44499start)" marker-end="url(#_35E1646E-CA39-47AF-B13E-2A2D78D44499end)"/></g><text id="_35E1646E-CA39-47AF-B13E-2A2D78D44499text_name" font-size="12" x="249.55447641362488" y="158.16807432128658" oryx:edgePosition="startTop" stroke-width="0pt" letter-spacing="-0.01px" fill="#000000" text-anchor="start" transform="rotate(357.2072976342867 235.55447641362488 172.16807432128658)" visibility="inherit" oryx:fontSize="12"/></g><g class="children" style="overflow:hidden"/><g class="edge"/></g><g class="controls"><g class="dockers"/><g class="magnets"/></g></g><g id="_339A787D-9DDC-4DB6-8FD9-D82DAD19868C" bpmn2nodeid="_41545CDE-4C3C-4CA4-962A-F7A67C206C84"><g class="stencils"><g class="me"><g pointer-events="painted" bpmn2nodeid="_41545CDE-4C3C-4CA4-962A-F7A67C206C84"><path id="_339A787D-9DDC-4DB6-8FD9-D82DAD19868C_1" d="M535.1009223123737 161.7935891042616L889.9068901876263 174.4954733957384 " stroke="#000000" fill="none" stroke-width="2" stroke-linecap="round" stroke-linejoin="round" marker-start="url(#_339A787D-9DDC-4DB6-8FD9-D82DAD19868Cstart)" marker-end="url(#_339A787D-9DDC-4DB6-8FD9-D82DAD19868Cend)"/></g><text id="_339A787D-9DDC-4DB6-8FD9-D82DAD19868Ctext_name" font-size="12" x="549.1009223123737" y="147.7935891042616" oryx:edgePosition="startTop" stroke-width="0pt" letter-spacing="-0.01px" fill="#000000" text-anchor="start" transform="rotate(2.0502859707442553 535.1009223123737 161.7935891042616)" visibility="inherit" oryx:fontSize="12"/></g><g class="children" style="overflow:hidden"/><g class="edge"/></g><g class="controls"><g class="dockers"/><g class="magnets"/></g></g></g><text id="_A8952E0A-CD0E-4E1D-944C-42F61DA35CCF" style="stroke-width:1;fill:rgb(177,194,214);font-family:arial;font-weight:bold" font-size="12" onclick="ORYX.Plugins.CanvasTitle.openTextualAnalysis()" onmouseover="ORYX.Plugins.CanvasTitle.addToolTip('_A8952E0A-CD0E-4E1D-944C-42F61DA35CCF')" transform="translate(10, 20)">P0000 v.1.0 (src.101010)</text></g></g></svg>