<svg xmlns="http://www.w3.org/2000/svg" xmlns:oryx="http://oryx-editor.org" id="_77525856-4046-4A09-9263-972C5FADD23E" width="801.0034790039062" height="385.109375" xmlns:xlink="http://www.w3.org/1999/xlink" xmlns:svg="http://www.w3.org/2000/svg"><defs><marker id="_945DB6E7-E601-41D1-9672-74FCB10AED9Astart" refX="1" refY="5" markerUnits="userSpaceOnUse" markerWidth="17" markerHeight="11" orient="auto" fill="#000000" stroke="#000000"> 	  		<path id="_945DB6E7-E601-41D1-9672-74FCB10AED9Aconditional" d="M 0 5 L 8 0 L 16 5 L 8 10 L 0 5" fill="white" stroke="#000000" stroke-width="1" display="none"/> 			<path id="_945DB6E7-E601-41D1-9672-74FCB10AED9Adefault" d="M 5 0 L 11 10" fill="white" stroke="#000000" stroke-width="1" display="none"/> 	  	</marker><marker id="_945DB6E7-E601-41D1-9672-74FCB10AED9Aend" refX="15" refY="6" markerUnits="userSpaceOnUse" markerWidth="15" markerHeight="12" orient="auto" fill="#000000" stroke="#000000"> 	  		<path id="_945DB6E7-E601-41D1-9672-74FCB10AED9Aframe2" d="M 0 1 L 15 6 L 0 11z" fill="#000000" stroke="#000000" stroke-linejoin="round" stroke-width="2"/> 	  	</marker><marker id="_828DC662-6678-4C84-9F7B-2DC914A22A9Bstart" refX="1" refY="5" markerUnits="userSpaceOnUse" markerWidth="17" markerHeight="11" orient="auto" fill="#000000" stroke="#000000"> 	  		<path id="_828DC662-6678-4C84-9F7B-2DC914A22A9Bconditional" d="M 0 5 L 8 0 L 16 5 L 8 10 L 0 5" fill="white" stroke="#000000" stroke-width="1" display="none"/> 			<path id="_828DC662-6678-4C84-9F7B-2DC914A22A9Bdefault" d="M 5 0 L 11 10" fill="white" stroke="#000000" stroke-width="1" display="none"/> 	  	</marker><marker id="_828DC662-6678-4C84-9F7B-2DC914A22A9Bend" refX="15" refY="6" markerUnits="userSpaceOnUse" markerWidth="15" markerHeight="12" orient="auto" fill="#000000" stroke="#000000"> 	  		<path id="_828DC662-6678-4C84-9F7B-2DC914A22A9Bframe2" d="M 0 1 L 15 6 L 0 11z" fill="#000000" stroke="#000000" stroke-linejoin="round" stroke-width="2"/> 	  	</marker><marker id="_A9527942-0398-4939-A7AD-9F97221EC81Astart" refX="1" refY="5" markerUnits="userSpaceOnUse" markerWidth="17" markerHeight="11" orient="auto" fill="#000000" stroke="#000000"> 	  		<path id="_A9527942-0398-4939-A7AD-9F97221EC81Aconditional" d="M 0 5 L 8 0 L 16 5 L 8 10 L 0 5" fill="white" stroke="#000000" stroke-width="1" display="none"/> 			<path id="_A9527942-0398-4939-A7AD-9F97221EC81Adefault" d="M 5 0 L 11 10" fill="white" stroke="#000000" stroke-width="1" display="none"/> 	  	</marker><marker id="_A9527942-0398-4939-A7AD-9F97221EC81Aend" refX="15" refY="6" markerUnits="userSpaceOnUse" markerWidth="15" markerHeight="12" orient="auto" fill="#000000" stroke="#000000"> 	  		<path id="_A9527942-0398-4939-A7AD-9F97221EC81Aframe2" d="M 0 1 L 15 6 L 0 11z" fill="#000000" stroke="#000000" stroke-linejoin="round" stroke-width="2"/> 	  	</marker><marker id="_81C6C171-F673-4E68-B3F7-A3665BAB9431start" refX="1" refY="5" markerUnits="userSpaceOnUse" markerWidth="17" markerHeight="11" orient="auto" fill="#000000" stroke="#000000"> 	  		<path id="_81C6C171-F673-4E68-B3F7-A3665BAB9431conditional" d="M 0 5 L 8 0 L 16 5 L 8 10 L 0 5" fill="white" stroke="#000000" stroke-width="1" display="none"/> 			<path id="_81C6C171-F673-4E68-B3F7-A3665BAB9431default" d="M 5 0 L 11 10" fill="white" stroke="#000000" stroke-width="1" display="none"/> 	  	</marker><marker id="_81C6C171-F673-4E68-B3F7-A3665BAB9431end" refX="15" refY="6" markerUnits="userSpaceOnUse" markerWidth="15" markerHeight="12" orient="auto" fill="#000000" stroke="#000000"> 	  		<path id="_81C6C171-F673-4E68-B3F7-A3665BAB9431frame2" d="M 0 1 L 15 6 L 0 11z" fill="#000000" stroke="#000000" stroke-linejoin="round" stroke-width="2"/> 	  	</marker></defs><g stroke="none" font-family="Verdana, sans-serif" font-size-adjust="none" font-style="normal" font-variant="normal" font-weight="normal" line-heigth="normal" font-size="12"><g class="stencils" transform="translate(15, 16.109375)"><g class="me"/><g class="children"><g id="_95111D9D-E991-409E-A516-C7AC7C390A91" bpmn2nodeid="processStartEvent"><g class="stencils" transform="translate(45, 285)"><g class="me"><g pointer-events="fill" id="_95111D9D-E991-409E-A516-C7AC7C390A91">        <defs id="_95111D9D-E991-409E-A516-C7AC7C390A91__95111D9D-E991-409E-A516-C7AC7C390A91_5"> 		<radialGradient id="_95111D9D-E991-409E-A516-C7AC7C390A91background" cx="10%" cy="10%" r="100%" fx="10%" fy="10%"> 			<stop offset="0%" stop-color="#ffffff" stop-opacity="1" id="_95111D9D-E991-409E-A516-C7AC7C390A91__95111D9D-E991-409E-A516-C7AC7C390A91_6"/> 			<stop id="_95111D9D-E991-409E-A516-C7AC7C390A91fill_el" offset="100%" stop-color="#9acd32" stop-opacity="1"/> 		</radialGradient> 	</defs> 	     <circle id="_95111D9D-E991-409E-A516-C7AC7C390A91bg_frame" cx="15" cy="15" r="15" stroke="#000000" fill="url(#_95111D9D-E991-409E-A516-C7AC7C390A91background) white" stroke-width="1" style="stroke-dasharray: 5.5, 3"/>      <circle id="_95111D9D-E991-409E-A516-C7AC7C390A91frame" cx="15" cy="15" r="15" stroke="#000000" fill="none" stroke-width="1" display="inherit"/>  	<text font-size="11" id="_95111D9D-E991-409E-A516-C7AC7C390A91text_name" x="15" y="32" oryx:align="top center" stroke="black" stroke-width="0pt" letter-spacing="-0.01px" fill="#000000" text-anchor="middle" transform="rotate(0 15 32)" visibility="inherit" oryx:fontSize="11"/>   </g></g><g class="children" style="overflow:hidden"/><g class="edge"/></g><g class="controls"><g class="dockers"/><g class="magnets" transform="translate(45, 285)"><g pointer-events="all" display="none" transform="translate(7, 7)"><circle cx="8" cy="8" r="4" stroke="none" fill="red" fill-opacity="0.3"/></g></g></g></g><g id="_72F94D5E-EA81-48D5-89CA-2E38EE0BE4D4" bpmn2nodeid="_2D2647F3-2BF3-4793-A6CC-15DD723CDA5B"><g class="stencils" transform="translate(165, 260)"><g class="me"><g pointer-events="fill" oryx:minimumSize="50 40" id="_72F94D5E-EA81-48D5-89CA-2E38EE0BE4D4">   	<defs id="_72F94D5E-EA81-48D5-89CA-2E38EE0BE4D4__72F94D5E-EA81-48D5-89CA-2E38EE0BE4D4_17"> 		<radialGradient id="_72F94D5E-EA81-48D5-89CA-2E38EE0BE4D4background" cx="10%" cy="10%" r="100%" fx="10%" fy="10%"> 			<stop offset="0%" stop-color="#ffffff" stop-opacity="1" id="_72F94D5E-EA81-48D5-89CA-2E38EE0BE4D4__72F94D5E-EA81-48D5-89CA-2E38EE0BE4D4_18"/> 			<stop id="_72F94D5E-EA81-48D5-89CA-2E38EE0BE4D4fill_el" offset="100%" stop-color="#fafad2" stop-opacity="1"/> 		</radialGradient> 		<radialGradient id="_72F94D5E-EA81-48D5-89CA-2E38EE0BE4D4borderbackground" cx="10%" cy="10%" r="100%" fx="10%" fy="10%"> 			<stop offset="0%" stop-color="#ffffff" stop-opacity="1" id="_72F94D5E-EA81-48D5-89CA-2E38EE0BE4D4__72F94D5E-EA81-48D5-89CA-2E38EE0BE4D4_19"/> 			<stop id="_72F94D5E-EA81-48D5-89CA-2E38EE0BE4D4fill_border" offset="100%" stop-color="#000000" stop-opacity="1" stroke="#000000"/> 		</radialGradient> 	</defs> 	 	<rect id="_72F94D5E-EA81-48D5-89CA-2E38EE0BE4D4text_frame" oryx:anchors="bottom top right left" x="1" y="1" width="94" height="79" rx="10" ry="10" stroke="none" stroke-width="0" fill="none"/> 	<rect id="_72F94D5E-EA81-48D5-89CA-2E38EE0BE4D4bg_frame" oryx:resize="vertical horizontal" x="0" y="0" width="100" height="80" rx="10" ry="10" stroke="#000000" stroke-width="1" fill="url(#_72F94D5E-EA81-48D5-89CA-2E38EE0BE4D4background) #ffffcc"/> 		<text font-size="12" id="_72F94D5E-EA81-48D5-89CA-2E38EE0BE4D4text_name" x="50" y="40" oryx:align="middle center" oryx:fittoelem="text_frame" stroke="black" text-anchor="middle" stroke-width="0pt" letter-spacing="-0.01px" fill="#000000" transform="rotate(0 50 40)" visibility="inherit" oryx:fontSize="12"><tspan x="50" y="40" dy="5">Promotion</tspan></text>     <g id="_72F94D5E-EA81-48D5-89CA-2E38EE0BE4D4manualTask" transform="scale(0.7,0.7) translate(8,8)" display="none">     	<path oryx:anchors="top left" id="_72F94D5E-EA81-48D5-89CA-2E38EE0BE4D4frame" style="opacity:1;fill:none;fill-opacity:1;stroke-width:1" d="M0.5,3.751l4.083-3.25c0,0,11.166,0.083,12.083,0.083s-2.417,2.917-1.5,2.917     s11.667,0,12.584,0c1.166,1.708-0.168,3.167-0.834,3.667s0.875,1.917-1,4.417c-0.75,0.25,0.75,1.875-1.333,3.333     c-1.167,0.583,0.583,1.542-1.25,2.833c-1.167,0-20.833,0.083-20.833,0.083l-2-1.333V3.751z" stroke="#000000"/> 		<path id="_72F94D5E-EA81-48D5-89CA-2E38EE0BE4D4frame2" oryx:anchors="top left" style="opacity:1;fill:none;stroke-width:2" d="M 13.5 7 L 27 7" stroke="#000000"/> 		<path id="_72F94D5E-EA81-48D5-89CA-2E38EE0BE4D4frame3" oryx:anchors="top left" style="opacity:1;fill:none;stroke-width:2" d="M 13.5 11 L 26 11" stroke="#000000"/> 		<path id="_72F94D5E-EA81-48D5-89CA-2E38EE0BE4D4frame4" oryx:anchors="top left" style="opacity:1;fill:none;stroke-width:1.5" d="M 14 14.5 L 25 14.5" stroke="#000000"/> 		<path id="_72F94D5E-EA81-48D5-89CA-2E38EE0BE4D4frame5" oryx:anchors="top left" style="opacity:1;fill:none;stroke-width:1.5" d="M 8.2 3.1 L 15 3.1" stroke="#000000"/> 	</g> 	 	<g id="_72F94D5E-EA81-48D5-89CA-2E38EE0BE4D4businessRuleTask" transform="scale(0.7,0.7) translate(8,8)" display="inherit"> 		<rect id="_72F94D5E-EA81-48D5-89CA-2E38EE0BE4D4frame6" oryx:anchors="top left" x="0" y="0" width="22" height="4" style="opacity:1;fill:#B3B1B3;fill-opacity:1;" stroke="#000000"/> 		<rect id="_72F94D5E-EA81-48D5-89CA-2E38EE0BE4D4frame7" oryx:anchors="top left" x="0" y="4" style="opacity:1;fill:none;" width="22" height="12" stroke="#000000"/> 		<path id="_72F94D5E-EA81-48D5-89CA-2E38EE0BE4D4frame8" oryx:anchors="top left" style="opacity:1;fill:none;" d="M 0 10 L 22 10" stroke="#000000"/> 		<path id="_72F94D5E-EA81-48D5-89CA-2E38EE0BE4D4frame9" oryx:anchors="top left" style="opacity:1; fill:none;" d="M 7 4 L 7 16" stroke="#000000"/> 	</g> 	 	<g id="_72F94D5E-EA81-48D5-89CA-2E38EE0BE4D4scriptTask" transform="scale(0.7,0.7) translate(8,8)" display="none"> 		<path oryx:anchors="top left" id="_72F94D5E-EA81-48D5-89CA-2E38EE0BE4D4frame10" style="opacity:1;fill:none;" stroke="#000000" d="M6.402,0.5h14.5c0,0-5.833,2.833-5.833,5.583s4.417,6,4.417,9.167    s-4.167,5.083-4.167,5.083H0.235c0,0,5-2.667,5-5s-4.583-6.75-4.583-9.25S6.402,0.5,6.402,0.5z"/> 		<path oryx:anchors="top left" id="_72F94D5E-EA81-48D5-89CA-2E38EE0BE4D4frame11" style="opacity:1;fill:none;stroke-width:1.5" d="M 3.5 4.5 L 13.5 4.5" stroke="#000000"/> 		<path oryx:anchors="top left" id="_72F94D5E-EA81-48D5-89CA-2E38EE0BE4D4frame12" style="opacity:1;fill:none;stroke-width:1.5" d="M 3.8 8.5 L 13.8 8.5" stroke="#000000"/> 		<path oryx:anchors="top left" id="_72F94D5E-EA81-48D5-89CA-2E38EE0BE4D4frame13" style="opacity:1;fill:none;stroke-width:1.5" d="M 6.3 12.5 L 16.3 12.5" stroke="#000000"/> 		<path oryx:anchors="top left" id="_72F94D5E-EA81-48D5-89CA-2E38EE0BE4D4frame14" style="opacity:1;fill:none;stroke-width:1.5" d="M 6.5 16.5 L 16.5 16.5" stroke="#000000"/> 	</g> 	 	<g id="_72F94D5E-EA81-48D5-89CA-2E38EE0BE4D4userTask" transform="scale(0.7,0.7) translate(8,8)" display="none"> 		<path id="_72F94D5E-EA81-48D5-89CA-2E38EE0BE4D4frame15" oryx:anchors="top left" style="opacity:1;fill:#F4F6F7" stroke="#000000" d="M0.585,24.167h24.083v-7.833c0,0-2.333-3.917-7.083-5.167h-9.25    c-4.417,1.333-7.833,5.75-7.833,5.75L0.585,24.167z"/> 		<path id="_72F94D5E-EA81-48D5-89CA-2E38EE0BE4D4frame16" oryx:anchors="top left" style="opacity:1;fill:none" d="M 6 20 L 6 24" stroke="#000000"/> 		<path id="_72F94D5E-EA81-48D5-89CA-2E38EE0BE4D4frame17" oryx:anchors="top left" style="opacity:1;fill:none" d="M 20 20 L 20 24" stroke="#000000"/> 		<circle id="_72F94D5E-EA81-48D5-89CA-2E38EE0BE4D4frame18" oryx:anchors="top left" fill="black" cx="13.002" cy="5.916" r="5.417" stroke="#000000"/> 		<path id="_72F94D5E-EA81-48D5-89CA-2E38EE0BE4D4frame19" oryx:anchors="top left" style="opacity:1;fill:#F0EFF0;" stroke="#000000" d="M8.043,7.083c0,0,2.814-2.426,5.376-1.807s4.624-0.693,4.624-0.693    c0.25,1.688,0.042,3.75-1.458,5.584c0,0,1.083,0.75,1.083,1.5s0.125,1.875-1,3s-5.5,1.25-6.75,0S8.668,12.834,8.668,12    s0.583-1.25,1.25-1.917C8.835,9.5,7.419,7.708,8.043,7.083z"/> 	</g> 	 	<g id="_72F94D5E-EA81-48D5-89CA-2E38EE0BE4D4serviceTask" transform="scale(0.7,0.7) translate(8,8)" display="none"> 		<polygon oryx:anchors="top left" id="_72F94D5E-EA81-48D5-89CA-2E38EE0BE4D4frame20" style="opacity:1;fill:#ffffff" stroke="#000000" points="15.392,5.064 17.954,2.502 20.347,4.895 17.786,7.455     18.729,9.732 22.353,9.732 22.353,13.115 18.731,13.115 17.788,15.392 20.351,17.955 17.958,20.347 15.397,17.786 13.12,18.729     13.12,22.353 9.737,22.353 9.737,18.731 7.46,17.788 4.897,20.35 2.506,17.958 5.066,15.397 4.124,13.12 0.5,13.12 0.5,9.737     4.121,9.737 5.065,7.461 2.503,4.898 4.895,2.506 7.455,5.066 9.732,4.125 9.732,0.5 13.116,0.5 13.116,4.121 "/> 		<circle oryx:anchors="top left" id="_72F94D5E-EA81-48D5-89CA-2E38EE0BE4D4frame21" style="opacity:1;fill:none" stroke="#000000" cx="11.427" cy="11.426" r="3.714"/> 		<polygon oryx:anchors="top left" id="_72F94D5E-EA81-48D5-89CA-2E38EE0BE4D4frame22" style="opacity:1;fill:#ffffff" stroke="#000000" points="21.392,11.064 23.954,8.502 26.347,10.895 23.786,13.455     24.729,15.732 28.353,15.732 28.353,19.115 24.731,19.115 23.788,21.392 26.351,23.955 23.958,26.347 21.397,23.786 19.12,24.729     19.12,28.353 15.737,28.353 15.737,24.731 13.46,23.788 10.897,26.35 8.506,23.958 11.066,21.397 10.124,19.12 6.5,19.12     6.5,15.737 10.121,15.737 11.065,13.461 8.503,10.898 10.895,8.506 13.455,11.066 15.732,10.125 15.732,6.5 19.116,6.5     19.116,10.121 "/> 		<circle oryx:anchors="top left" id="_72F94D5E-EA81-48D5-89CA-2E38EE0BE4D4frame23" style="opacity:1;fill:none;" stroke="#000000" cx="17.427" cy="17.426" r="3.714"/> 	</g> 	 	<g id="_72F94D5E-EA81-48D5-89CA-2E38EE0BE4D4sendTask" display="none"> 		<path id="_72F94D5E-EA81-48D5-89CA-2E38EE0BE4D4stframe24" oryx:anchors="left top" stroke="#FFFFFF" fill="black" stroke-width="1" d="M8,11 L8,21 L24,21 L24,11 L16,17z"/> 		<path id="_72F94D5E-EA81-48D5-89CA-2E38EE0BE4D4stframe25" oryx:anchors="left top" stroke="#FFFFFF" fill="black" stroke-width="1" d="M7,10 L16,17 L25 10z"/> 	</g> 	 	<g id="_72F94D5E-EA81-48D5-89CA-2E38EE0BE4D4receiveTask" display="none"> 		<path id="_72F94D5E-EA81-48D5-89CA-2E38EE0BE4D4frame26" oryx:anchors="left top" stroke="#000000" fill="none" stroke-width="1" d="M8,11 L8,21 L24,21 L24,11z M8,11 L16,17 L24,11"/> 	</g> 	 	<g id="_72F94D5E-EA81-48D5-89CA-2E38EE0BE4D4none" display="inherit"/>  	<g id="_72F94D5E-EA81-48D5-89CA-2E38EE0BE4D4sequential" display="none">         <path oryx:anchors="bottom" fill="none" stroke="#000000" stroke-width="2" d="M46,76h10M46,72h10 M46,68h10" id="_72F94D5E-EA81-48D5-89CA-2E38EE0BE4D4__72F94D5E-EA81-48D5-89CA-2E38EE0BE4D4_20"/>     </g>   </g></g><g class="children" style="overflow:hidden"/><g class="edge"/></g><g class="controls"><g class="dockers"/><g class="magnets" transform="translate(165, 260)"><g pointer-events="all" display="none" transform="translate(-7, 12)"><circle cx="8" cy="8" r="4" stroke="none" fill="red" fill-opacity="0.3"/></g><g pointer-events="all" display="none" transform="translate(-7, 32)"><circle cx="8" cy="8" r="4" stroke="none" fill="red" fill-opacity="0.3"/></g><g pointer-events="all" display="none" transform="translate(-7, 52)"><circle cx="8" cy="8" r="4" stroke="none" fill="red" fill-opacity="0.3"/></g><g pointer-events="all" display="none" transform="translate(17, 71)"><circle cx="8" cy="8" r="4" stroke="none" fill="red" fill-opacity="0.3"/></g><g pointer-events="all" display="none" transform="translate(42, 71)"><circle cx="8" cy="8" r="4" stroke="none" fill="red" fill-opacity="0.3"/></g><g pointer-events="all" display="none" transform="translate(67, 71)"><circle cx="8" cy="8" r="4" stroke="none" fill="red" fill-opacity="0.3"/></g><g pointer-events="all" display="none" transform="translate(91, 12)"><circle cx="8" cy="8" r="4" stroke="none" fill="red" fill-opacity="0.3"/></g><g pointer-events="all" display="none" transform="translate(91, 32)"><circle cx="8" cy="8" r="4" stroke="none" fill="red" fill-opacity="0.3"/></g><g pointer-events="all" display="none" transform="translate(91, 52)"><circle cx="8" cy="8" r="4" stroke="none" fill="red" fill-opacity="0.3"/></g><g pointer-events="all" display="none" transform="translate(17, -7)"><circle cx="8" cy="8" r="4" stroke="none" fill="red" fill-opacity="0.3"/></g><g pointer-events="all" display="none" transform="translate(42, -7)"><circle cx="8" cy="8" r="4" stroke="none" fill="red" fill-opacity="0.3"/></g><g pointer-events="all" display="none" transform="translate(67, -7)"><circle cx="8" cy="8" r="4" stroke="none" fill="red" fill-opacity="0.3"/></g><g pointer-events="all" display="none" transform="translate(42, 32)"><circle cx="8" cy="8" r="4" stroke="none" fill="red" fill-opacity="0.3"/></g></g></g></g><g id="_5DEA3643-E28C-4746-8C25-680D3C2CCBAB" bpmn2nodeid="_DE5332FE-AEA6-4296-B118-D1346F657BE1"><g class="stencils" transform="translate(375, 255)"><g class="me"><g pointer-events="fill" oryx:minimumSize="50 40" id="_5DEA3643-E28C-4746-8C25-680D3C2CCBAB">   	<defs id="_5DEA3643-E28C-4746-8C25-680D3C2CCBAB__5DEA3643-E28C-4746-8C25-680D3C2CCBAB_17"> 		<radialGradient id="_5DEA3643-E28C-4746-8C25-680D3C2CCBABbackground" cx="10%" cy="10%" r="100%" fx="10%" fy="10%"> 			<stop offset="0%" stop-color="#ffffff" stop-opacity="1" id="_5DEA3643-E28C-4746-8C25-680D3C2CCBAB__5DEA3643-E28C-4746-8C25-680D3C2CCBAB_18"/> 			<stop id="_5DEA3643-E28C-4746-8C25-680D3C2CCBABfill_el" offset="100%" stop-color="#fafad2" stop-opacity="1"/> 		</radialGradient> 		<radialGradient id="_5DEA3643-E28C-4746-8C25-680D3C2CCBABborderbackground" cx="10%" cy="10%" r="100%" fx="10%" fy="10%"> 			<stop offset="0%" stop-color="#ffffff" stop-opacity="1" id="_5DEA3643-E28C-4746-8C25-680D3C2CCBAB__5DEA3643-E28C-4746-8C25-680D3C2CCBAB_19"/> 			<stop id="_5DEA3643-E28C-4746-8C25-680D3C2CCBABfill_border" offset="100%" stop-color="#000000" stop-opacity="1" stroke="#000000"/> 		</radialGradient> 	</defs> 	 	<rect id="_5DEA3643-E28C-4746-8C25-680D3C2CCBABtext_frame" oryx:anchors="bottom top right left" x="1" y="1" width="94" height="79" rx="10" ry="10" stroke="none" stroke-width="0" fill="none"/> 	<rect id="_5DEA3643-E28C-4746-8C25-680D3C2CCBABbg_frame" oryx:resize="vertical horizontal" x="0" y="0" width="100" height="80" rx="10" ry="10" stroke="#000000" stroke-width="1" fill="url(#_5DEA3643-E28C-4746-8C25-680D3C2CCBABbackground) #ffffcc"/> 		<text font-size="12" id="_5DEA3643-E28C-4746-8C25-680D3C2CCBABtext_name" x="50" y="40" oryx:align="middle center" oryx:fittoelem="text_frame" stroke="black" text-anchor="middle" stroke-width="0pt" letter-spacing="-0.01px" fill="#000000" transform="rotate(0 50 40)" visibility="inherit" oryx:fontSize="12"><tspan x="50" y="40" dy="5" id="ext-gen659">Init</tspan></text>     <g id="_5DEA3643-E28C-4746-8C25-680D3C2CCBABmanualTask" transform="scale(0.7,0.7) translate(8,8)" display="none">     	<path oryx:anchors="top left" id="_5DEA3643-E28C-4746-8C25-680D3C2CCBABframe" style="opacity:1;fill:none;fill-opacity:1;stroke-width:1" d="M0.5,3.751l4.083-3.25c0,0,11.166,0.083,12.083,0.083s-2.417,2.917-1.5,2.917     s11.667,0,12.584,0c1.166,1.708-0.168,3.167-0.834,3.667s0.875,1.917-1,4.417c-0.75,0.25,0.75,1.875-1.333,3.333     c-1.167,0.583,0.583,1.542-1.25,2.833c-1.167,0-20.833,0.083-20.833,0.083l-2-1.333V3.751z" stroke="#000000"/> 		<path id="_5DEA3643-E28C-4746-8C25-680D3C2CCBABframe2" oryx:anchors="top left" style="opacity:1;fill:none;stroke-width:2" d="M 13.5 7 L 27 7" stroke="#000000"/> 		<path id="_5DEA3643-E28C-4746-8C25-680D3C2CCBABframe3" oryx:anchors="top left" style="opacity:1;fill:none;stroke-width:2" d="M 13.5 11 L 26 11" stroke="#000000"/> 		<path id="_5DEA3643-E28C-4746-8C25-680D3C2CCBABframe4" oryx:anchors="top left" style="opacity:1;fill:none;stroke-width:1.5" d="M 14 14.5 L 25 14.5" stroke="#000000"/> 		<path id="_5DEA3643-E28C-4746-8C25-680D3C2CCBABframe5" oryx:anchors="top left" style="opacity:1;fill:none;stroke-width:1.5" d="M 8.2 3.1 L 15 3.1" stroke="#000000"/> 	</g> 	 	<g id="_5DEA3643-E28C-4746-8C25-680D3C2CCBABbusinessRuleTask" transform="scale(0.7,0.7) translate(8,8)" display="inherit"> 		<rect id="_5DEA3643-E28C-4746-8C25-680D3C2CCBABframe6" oryx:anchors="top left" x="0" y="0" width="22" height="4" style="opacity:1;fill:#B3B1B3;fill-opacity:1;" stroke="#000000"/> 		<rect id="_5DEA3643-E28C-4746-8C25-680D3C2CCBABframe7" oryx:anchors="top left" x="0" y="4" style="opacity:1;fill:none;" width="22" height="12" stroke="#000000"/> 		<path id="_5DEA3643-E28C-4746-8C25-680D3C2CCBABframe8" oryx:anchors="top left" style="opacity:1;fill:none;" d="M 0 10 L 22 10" stroke="#000000"/> 		<path id="_5DEA3643-E28C-4746-8C25-680D3C2CCBABframe9" oryx:anchors="top left" style="opacity:1; fill:none;" d="M 7 4 L 7 16" stroke="#000000"/> 	</g> 	 	<g id="_5DEA3643-E28C-4746-8C25-680D3C2CCBABscriptTask" transform="scale(0.7,0.7) translate(8,8)" display="none"> 		<path oryx:anchors="top left" id="_5DEA3643-E28C-4746-8C25-680D3C2CCBABframe10" style="opacity:1;fill:none;" stroke="#000000" d="M6.402,0.5h14.5c0,0-5.833,2.833-5.833,5.583s4.417,6,4.417,9.167    s-4.167,5.083-4.167,5.083H0.235c0,0,5-2.667,5-5s-4.583-6.75-4.583-9.25S6.402,0.5,6.402,0.5z"/> 		<path oryx:anchors="top left" id="_5DEA3643-E28C-4746-8C25-680D3C2CCBABframe11" style="opacity:1;fill:none;stroke-width:1.5" d="M 3.5 4.5 L 13.5 4.5" stroke="#000000"/> 		<path oryx:anchors="top left" id="_5DEA3643-E28C-4746-8C25-680D3C2CCBABframe12" style="opacity:1;fill:none;stroke-width:1.5" d="M 3.8 8.5 L 13.8 8.5" stroke="#000000"/> 		<path oryx:anchors="top left" id="_5DEA3643-E28C-4746-8C25-680D3C2CCBABframe13" style="opacity:1;fill:none;stroke-width:1.5" d="M 6.3 12.5 L 16.3 12.5" stroke="#000000"/> 		<path oryx:anchors="top left" id="_5DEA3643-E28C-4746-8C25-680D3C2CCBABframe14" style="opacity:1;fill:none;stroke-width:1.5" d="M 6.5 16.5 L 16.5 16.5" stroke="#000000"/> 	</g> 	 	<g id="_5DEA3643-E28C-4746-8C25-680D3C2CCBABuserTask" transform="scale(0.7,0.7) translate(8,8)" display="none"> 		<path id="_5DEA3643-E28C-4746-8C25-680D3C2CCBABframe15" oryx:anchors="top left" style="opacity:1;fill:#F4F6F7" stroke="#000000" d="M0.585,24.167h24.083v-7.833c0,0-2.333-3.917-7.083-5.167h-9.25    c-4.417,1.333-7.833,5.75-7.833,5.75L0.585,24.167z"/> 		<path id="_5DEA3643-E28C-4746-8C25-680D3C2CCBABframe16" oryx:anchors="top left" style="opacity:1;fill:none" d="M 6 20 L 6 24" stroke="#000000"/> 		<path id="_5DEA3643-E28C-4746-8C25-680D3C2CCBABframe17" oryx:anchors="top left" style="opacity:1;fill:none" d="M 20 20 L 20 24" stroke="#000000"/> 		<circle id="_5DEA3643-E28C-4746-8C25-680D3C2CCBABframe18" oryx:anchors="top left" fill="black" cx="13.002" cy="5.916" r="5.417" stroke="#000000"/> 		<path id="_5DEA3643-E28C-4746-8C25-680D3C2CCBABframe19" oryx:anchors="top left" style="opacity:1;fill:#F0EFF0;" stroke="#000000" d="M8.043,7.083c0,0,2.814-2.426,5.376-1.807s4.624-0.693,4.624-0.693    c0.25,1.688,0.042,3.75-1.458,5.584c0,0,1.083,0.75,1.083,1.5s0.125,1.875-1,3s-5.5,1.25-6.75,0S8.668,12.834,8.668,12    s0.583-1.25,1.25-1.917C8.835,9.5,7.419,7.708,8.043,7.083z"/> 	</g> 	 	<g id="_5DEA3643-E28C-4746-8C25-680D3C2CCBABserviceTask" transform="scale(0.7,0.7) translate(8,8)" display="none"> 		<polygon oryx:anchors="top left" id="_5DEA3643-E28C-4746-8C25-680D3C2CCBABframe20" style="opacity:1;fill:#ffffff" stroke="#000000" points="15.392,5.064 17.954,2.502 20.347,4.895 17.786,7.455     18.729,9.732 22.353,9.732 22.353,13.115 18.731,13.115 17.788,15.392 20.351,17.955 17.958,20.347 15.397,17.786 13.12,18.729     13.12,22.353 9.737,22.353 9.737,18.731 7.46,17.788 4.897,20.35 2.506,17.958 5.066,15.397 4.124,13.12 0.5,13.12 0.5,9.737     4.121,9.737 5.065,7.461 2.503,4.898 4.895,2.506 7.455,5.066 9.732,4.125 9.732,0.5 13.116,0.5 13.116,4.121 "/> 		<circle oryx:anchors="top left" id="_5DEA3643-E28C-4746-8C25-680D3C2CCBABframe21" style="opacity:1;fill:none" stroke="#000000" cx="11.427" cy="11.426" r="3.714"/> 		<polygon oryx:anchors="top left" id="_5DEA3643-E28C-4746-8C25-680D3C2CCBABframe22" style="opacity:1;fill:#ffffff" stroke="#000000" points="21.392,11.064 23.954,8.502 26.347,10.895 23.786,13.455     24.729,15.732 28.353,15.732 28.353,19.115 24.731,19.115 23.788,21.392 26.351,23.955 23.958,26.347 21.397,23.786 19.12,24.729     19.12,28.353 15.737,28.353 15.737,24.731 13.46,23.788 10.897,26.35 8.506,23.958 11.066,21.397 10.124,19.12 6.5,19.12     6.5,15.737 10.121,15.737 11.065,13.461 8.503,10.898 10.895,8.506 13.455,11.066 15.732,10.125 15.732,6.5 19.116,6.5     19.116,10.121 "/> 		<circle oryx:anchors="top left" id="_5DEA3643-E28C-4746-8C25-680D3C2CCBABframe23" style="opacity:1;fill:none;" stroke="#000000" cx="17.427" cy="17.426" r="3.714"/> 	</g> 	 	<g id="_5DEA3643-E28C-4746-8C25-680D3C2CCBABsendTask" display="none"> 		<path id="_5DEA3643-E28C-4746-8C25-680D3C2CCBABstframe24" oryx:anchors="left top" stroke="#FFFFFF" fill="black" stroke-width="1" d="M8,11 L8,21 L24,21 L24,11 L16,17z"/> 		<path id="_5DEA3643-E28C-4746-8C25-680D3C2CCBABstframe25" oryx:anchors="left top" stroke="#FFFFFF" fill="black" stroke-width="1" d="M7,10 L16,17 L25 10z"/> 	</g> 	 	<g id="_5DEA3643-E28C-4746-8C25-680D3C2CCBABreceiveTask" display="none"> 		<path id="_5DEA3643-E28C-4746-8C25-680D3C2CCBABframe26" oryx:anchors="left top" stroke="#000000" fill="none" stroke-width="1" d="M8,11 L8,21 L24,21 L24,11z M8,11 L16,17 L24,11"/> 	</g> 	 	<g id="_5DEA3643-E28C-4746-8C25-680D3C2CCBABnone" display="inherit"/>  	<g id="_5DEA3643-E28C-4746-8C25-680D3C2CCBABsequential" display="none">         <path oryx:anchors="bottom" fill="none" stroke="#000000" stroke-width="2" d="M46,76h10M46,72h10 M46,68h10" id="_5DEA3643-E28C-4746-8C25-680D3C2CCBAB__5DEA3643-E28C-4746-8C25-680D3C2CCBAB_20"/>     </g>   </g></g><g class="children" style="overflow:hidden"/><g class="edge"/></g><g class="controls"><g class="dockers"/><g class="magnets" transform="translate(375, 255)"><g pointer-events="all" display="none" transform="translate(-7, 12)"><circle cx="8" cy="8" r="4" stroke="none" fill="red" fill-opacity="0.3"/></g><g pointer-events="all" display="none" transform="translate(-7, 32)"><circle cx="8" cy="8" r="4" stroke="none" fill="red" fill-opacity="0.3"/></g><g pointer-events="all" display="none" transform="translate(-7, 52)"><circle cx="8" cy="8" r="4" stroke="none" fill="red" fill-opacity="0.3"/></g><g pointer-events="all" display="none" transform="translate(17, 71)"><circle cx="8" cy="8" r="4" stroke="none" fill="red" fill-opacity="0.3"/></g><g pointer-events="all" display="none" transform="translate(42, 71)"><circle cx="8" cy="8" r="4" stroke="none" fill="red" fill-opacity="0.3"/></g><g pointer-events="all" display="none" transform="translate(67, 71)"><circle cx="8" cy="8" r="4" stroke="none" fill="red" fill-opacity="0.3"/></g><g pointer-events="all" display="none" transform="translate(91, 12)"><circle cx="8" cy="8" r="4" stroke="none" fill="red" fill-opacity="0.3"/></g><g pointer-events="all" display="none" transform="translate(91, 32)"><circle cx="8" cy="8" r="4" stroke="none" fill="red" fill-opacity="0.3"/></g><g pointer-events="all" display="none" transform="translate(91, 52)"><circle cx="8" cy="8" r="4" stroke="none" fill="red" fill-opacity="0.3"/></g><g pointer-events="all" display="none" transform="translate(17, -7)"><circle cx="8" cy="8" r="4" stroke="none" fill="red" fill-opacity="0.3"/></g><g pointer-events="all" display="none" transform="translate(42, -7)"><circle cx="8" cy="8" r="4" stroke="none" fill="red" fill-opacity="0.3"/></g><g pointer-events="all" display="none" transform="translate(67, -7)"><circle cx="8" cy="8" r="4" stroke="none" fill="red" fill-opacity="0.3"/></g><g pointer-events="all" display="none" transform="translate(42, 32)"><circle cx="8" cy="8" r="4" stroke="none" fill="red" fill-opacity="0.3"/></g></g></g></g><g id="_64DF2771-F8F7-41D2-84DA-07D2EF9D61A5" bpmn2nodeid="_C21429E9-02AE-4535-A00E-763C4C7C0617"><g class="stencils" transform="translate(540.0000000000001, 240.00000000000003)"><g class="me"><g pointer-events="fill" oryx:minimumSize="50 40" id="_64DF2771-F8F7-41D2-84DA-07D2EF9D61A5">   	<defs id="_64DF2771-F8F7-41D2-84DA-07D2EF9D61A5__64DF2771-F8F7-41D2-84DA-07D2EF9D61A5_17"> 		<radialGradient id="_64DF2771-F8F7-41D2-84DA-07D2EF9D61A5background" cx="10%" cy="10%" r="100%" fx="10%" fy="10%"> 			<stop offset="0%" stop-color="#ffffff" stop-opacity="1" id="_64DF2771-F8F7-41D2-84DA-07D2EF9D61A5__64DF2771-F8F7-41D2-84DA-07D2EF9D61A5_18"/> 			<stop id="_64DF2771-F8F7-41D2-84DA-07D2EF9D61A5fill_el" offset="100%" stop-color="#fafad2" stop-opacity="1"/> 		</radialGradient> 		<radialGradient id="_64DF2771-F8F7-41D2-84DA-07D2EF9D61A5borderbackground" cx="10%" cy="10%" r="100%" fx="10%" fy="10%"> 			<stop offset="0%" stop-color="#ffffff" stop-opacity="1" id="_64DF2771-F8F7-41D2-84DA-07D2EF9D61A5__64DF2771-F8F7-41D2-84DA-07D2EF9D61A5_19"/> 			<stop id="_64DF2771-F8F7-41D2-84DA-07D2EF9D61A5fill_border" offset="100%" stop-color="#000000" stop-opacity="1" stroke="#000000"/> 		</radialGradient> 	</defs> 	 	<rect id="_64DF2771-F8F7-41D2-84DA-07D2EF9D61A5text_frame" oryx:anchors="bottom top right left" x="1" y="1" width="94" height="79" rx="10" ry="10" stroke="none" stroke-width="0" fill="none"/> 	<rect id="_64DF2771-F8F7-41D2-84DA-07D2EF9D61A5bg_frame" oryx:resize="vertical horizontal" x="0" y="0" width="100" height="80" rx="10" ry="10" stroke="#000000" stroke-width="1" fill="url(#_64DF2771-F8F7-41D2-84DA-07D2EF9D61A5background) #ffffcc"/> 		<text font-size="12" id="_64DF2771-F8F7-41D2-84DA-07D2EF9D61A5text_name" x="50" y="40" oryx:align="middle center" oryx:fittoelem="text_frame" stroke="black" text-anchor="middle" stroke-width="0pt" letter-spacing="-0.01px" fill="#000000" transform="rotate(0 50 40)" visibility="inherit" oryx:fontSize="12"><tspan x="50" y="40" dy="5" id="ext-gen695">Standard</tspan></text>     <g id="_64DF2771-F8F7-41D2-84DA-07D2EF9D61A5manualTask" transform="scale(0.7,0.7) translate(8,8)" display="none">     	<path oryx:anchors="top left" id="_64DF2771-F8F7-41D2-84DA-07D2EF9D61A5frame" style="opacity:1;fill:none;fill-opacity:1;stroke-width:1" d="M0.5,3.751l4.083-3.25c0,0,11.166,0.083,12.083,0.083s-2.417,2.917-1.5,2.917     s11.667,0,12.584,0c1.166,1.708-0.168,3.167-0.834,3.667s0.875,1.917-1,4.417c-0.75,0.25,0.75,1.875-1.333,3.333     c-1.167,0.583,0.583,1.542-1.25,2.833c-1.167,0-20.833,0.083-20.833,0.083l-2-1.333V3.751z" stroke="#000000"/> 		<path id="_64DF2771-F8F7-41D2-84DA-07D2EF9D61A5frame2" oryx:anchors="top left" style="opacity:1;fill:none;stroke-width:2" d="M 13.5 7 L 27 7" stroke="#000000"/> 		<path id="_64DF2771-F8F7-41D2-84DA-07D2EF9D61A5frame3" oryx:anchors="top left" style="opacity:1;fill:none;stroke-width:2" d="M 13.5 11 L 26 11" stroke="#000000"/> 		<path id="_64DF2771-F8F7-41D2-84DA-07D2EF9D61A5frame4" oryx:anchors="top left" style="opacity:1;fill:none;stroke-width:1.5" d="M 14 14.5 L 25 14.5" stroke="#000000"/> 		<path id="_64DF2771-F8F7-41D2-84DA-07D2EF9D61A5frame5" oryx:anchors="top left" style="opacity:1;fill:none;stroke-width:1.5" d="M 8.2 3.1 L 15 3.1" stroke="#000000"/> 	</g> 	 	<g id="_64DF2771-F8F7-41D2-84DA-07D2EF9D61A5businessRuleTask" transform="scale(0.7,0.7) translate(8,8)" display="inherit"> 		<rect id="_64DF2771-F8F7-41D2-84DA-07D2EF9D61A5frame6" oryx:anchors="top left" x="0" y="0" width="22" height="4" style="opacity:1;fill:#B3B1B3;fill-opacity:1;" stroke="#000000"/> 		<rect id="_64DF2771-F8F7-41D2-84DA-07D2EF9D61A5frame7" oryx:anchors="top left" x="0" y="4" style="opacity:1;fill:none;" width="22" height="12" stroke="#000000"/> 		<path id="_64DF2771-F8F7-41D2-84DA-07D2EF9D61A5frame8" oryx:anchors="top left" style="opacity:1;fill:none;" d="M 0 10 L 22 10" stroke="#000000"/> 		<path id="_64DF2771-F8F7-41D2-84DA-07D2EF9D61A5frame9" oryx:anchors="top left" style="opacity:1; fill:none;" d="M 7 4 L 7 16" stroke="#000000"/> 	</g> 	 	<g id="_64DF2771-F8F7-41D2-84DA-07D2EF9D61A5scriptTask" transform="scale(0.7,0.7) translate(8,8)" display="none"> 		<path oryx:anchors="top left" id="_64DF2771-F8F7-41D2-84DA-07D2EF9D61A5frame10" style="opacity:1;fill:none;" stroke="#000000" d="M6.402,0.5h14.5c0,0-5.833,2.833-5.833,5.583s4.417,6,4.417,9.167    s-4.167,5.083-4.167,5.083H0.235c0,0,5-2.667,5-5s-4.583-6.75-4.583-9.25S6.402,0.5,6.402,0.5z"/> 		<path oryx:anchors="top left" id="_64DF2771-F8F7-41D2-84DA-07D2EF9D61A5frame11" style="opacity:1;fill:none;stroke-width:1.5" d="M 3.5 4.5 L 13.5 4.5" stroke="#000000"/> 		<path oryx:anchors="top left" id="_64DF2771-F8F7-41D2-84DA-07D2EF9D61A5frame12" style="opacity:1;fill:none;stroke-width:1.5" d="M 3.8 8.5 L 13.8 8.5" stroke="#000000"/> 		<path oryx:anchors="top left" id="_64DF2771-F8F7-41D2-84DA-07D2EF9D61A5frame13" style="opacity:1;fill:none;stroke-width:1.5" d="M 6.3 12.5 L 16.3 12.5" stroke="#000000"/> 		<path oryx:anchors="top left" id="_64DF2771-F8F7-41D2-84DA-07D2EF9D61A5frame14" style="opacity:1;fill:none;stroke-width:1.5" d="M 6.5 16.5 L 16.5 16.5" stroke="#000000"/> 	</g> 	 	<g id="_64DF2771-F8F7-41D2-84DA-07D2EF9D61A5userTask" transform="scale(0.7,0.7) translate(8,8)" display="none"> 		<path id="_64DF2771-F8F7-41D2-84DA-07D2EF9D61A5frame15" oryx:anchors="top left" style="opacity:1;fill:#F4F6F7" stroke="#000000" d="M0.585,24.167h24.083v-7.833c0,0-2.333-3.917-7.083-5.167h-9.25    c-4.417,1.333-7.833,5.75-7.833,5.75L0.585,24.167z"/> 		<path id="_64DF2771-F8F7-41D2-84DA-07D2EF9D61A5frame16" oryx:anchors="top left" style="opacity:1;fill:none" d="M 6 20 L 6 24" stroke="#000000"/> 		<path id="_64DF2771-F8F7-41D2-84DA-07D2EF9D61A5frame17" oryx:anchors="top left" style="opacity:1;fill:none" d="M 20 20 L 20 24" stroke="#000000"/> 		<circle id="_64DF2771-F8F7-41D2-84DA-07D2EF9D61A5frame18" oryx:anchors="top left" fill="black" cx="13.002" cy="5.916" r="5.417" stroke="#000000"/> 		<path id="_64DF2771-F8F7-41D2-84DA-07D2EF9D61A5frame19" oryx:anchors="top left" style="opacity:1;fill:#F0EFF0;" stroke="#000000" d="M8.043,7.083c0,0,2.814-2.426,5.376-1.807s4.624-0.693,4.624-0.693    c0.25,1.688,0.042,3.75-1.458,5.584c0,0,1.083,0.75,1.083,1.5s0.125,1.875-1,3s-5.5,1.25-6.75,0S8.668,12.834,8.668,12    s0.583-1.25,1.25-1.917C8.835,9.5,7.419,7.708,8.043,7.083z"/> 	</g> 	 	<g id="_64DF2771-F8F7-41D2-84DA-07D2EF9D61A5serviceTask" transform="scale(0.7,0.7) translate(8,8)" display="none"> 		<polygon oryx:anchors="top left" id="_64DF2771-F8F7-41D2-84DA-07D2EF9D61A5frame20" style="opacity:1;fill:#ffffff" stroke="#000000" points="15.392,5.064 17.954,2.502 20.347,4.895 17.786,7.455     18.729,9.732 22.353,9.732 22.353,13.115 18.731,13.115 17.788,15.392 20.351,17.955 17.958,20.347 15.397,17.786 13.12,18.729     13.12,22.353 9.737,22.353 9.737,18.731 7.46,17.788 4.897,20.35 2.506,17.958 5.066,15.397 4.124,13.12 0.5,13.12 0.5,9.737     4.121,9.737 5.065,7.461 2.503,4.898 4.895,2.506 7.455,5.066 9.732,4.125 9.732,0.5 13.116,0.5 13.116,4.121 "/> 		<circle oryx:anchors="top left" id="_64DF2771-F8F7-41D2-84DA-07D2EF9D61A5frame21" style="opacity:1;fill:none" stroke="#000000" cx="11.427" cy="11.426" r="3.714"/> 		<polygon oryx:anchors="top left" id="_64DF2771-F8F7-41D2-84DA-07D2EF9D61A5frame22" style="opacity:1;fill:#ffffff" stroke="#000000" points="21.392,11.064 23.954,8.502 26.347,10.895 23.786,13.455     24.729,15.732 28.353,15.732 28.353,19.115 24.731,19.115 23.788,21.392 26.351,23.955 23.958,26.347 21.397,23.786 19.12,24.729     19.12,28.353 15.737,28.353 15.737,24.731 13.46,23.788 10.897,26.35 8.506,23.958 11.066,21.397 10.124,19.12 6.5,19.12     6.5,15.737 10.121,15.737 11.065,13.461 8.503,10.898 10.895,8.506 13.455,11.066 15.732,10.125 15.732,6.5 19.116,6.5     19.116,10.121 "/> 		<circle oryx:anchors="top left" id="_64DF2771-F8F7-41D2-84DA-07D2EF9D61A5frame23" style="opacity:1;fill:none;" stroke="#000000" cx="17.427" cy="17.426" r="3.714"/> 	</g> 	 	<g id="_64DF2771-F8F7-41D2-84DA-07D2EF9D61A5sendTask" display="none"> 		<path id="_64DF2771-F8F7-41D2-84DA-07D2EF9D61A5stframe24" oryx:anchors="left top" stroke="#FFFFFF" fill="black" stroke-width="1" d="M8,11 L8,21 L24,21 L24,11 L16,17z"/> 		<path id="_64DF2771-F8F7-41D2-84DA-07D2EF9D61A5stframe25" oryx:anchors="left top" stroke="#FFFFFF" fill="black" stroke-width="1" d="M7,10 L16,17 L25 10z"/> 	</g> 	 	<g id="_64DF2771-F8F7-41D2-84DA-07D2EF9D61A5receiveTask" display="none"> 		<path id="_64DF2771-F8F7-41D2-84DA-07D2EF9D61A5frame26" oryx:anchors="left top" stroke="#000000" fill="none" stroke-width="1" d="M8,11 L8,21 L24,21 L24,11z M8,11 L16,17 L24,11"/> 	</g> 	 	<g id="_64DF2771-F8F7-41D2-84DA-07D2EF9D61A5none" display="none"/>  	<g id="_64DF2771-F8F7-41D2-84DA-07D2EF9D61A5sequential" display="none">         <path oryx:anchors="bottom" fill="none" stroke="#000000" stroke-width="2" d="M46,76h10M46,72h10 M46,68h10" id="_64DF2771-F8F7-41D2-84DA-07D2EF9D61A5__64DF2771-F8F7-41D2-84DA-07D2EF9D61A5_20"/>     </g>   </g></g><g class="children" style="overflow:hidden"/><g class="edge"/></g><g class="controls"><g class="dockers"/><g class="magnets" transform="translate(540.0000000000001, 240.00000000000003)"><g pointer-events="all" display="none" transform="translate(-7, 12)"><circle cx="8" cy="8" r="4" stroke="none" fill="red" fill-opacity="0.3"/></g><g pointer-events="all" display="none" transform="translate(-7, 32)"><circle cx="8" cy="8" r="4" stroke="none" fill="red" fill-opacity="0.3"/></g><g pointer-events="all" display="none" transform="translate(-7, 52)"><circle cx="8" cy="8" r="4" stroke="none" fill="red" fill-opacity="0.3"/></g><g pointer-events="all" display="none" transform="translate(17, 71)"><circle cx="8" cy="8" r="4" stroke="none" fill="red" fill-opacity="0.3"/></g><g pointer-events="all" display="none" transform="translate(42, 71)"><circle cx="8" cy="8" r="4" stroke="none" fill="red" fill-opacity="0.3"/></g><g pointer-events="all" display="none" transform="translate(67, 71)"><circle cx="8" cy="8" r="4" stroke="none" fill="red" fill-opacity="0.3"/></g><g pointer-events="all" display="none" transform="translate(91, 12)"><circle cx="8" cy="8" r="4" stroke="none" fill="red" fill-opacity="0.3"/></g><g pointer-events="all" display="none" transform="translate(91, 32)"><circle cx="8" cy="8" r="4" stroke="none" fill="red" fill-opacity="0.3"/></g><g pointer-events="all" display="none" transform="translate(91, 52)"><circle cx="8" cy="8" r="4" stroke="none" fill="red" fill-opacity="0.3"/></g><g pointer-events="all" display="none" transform="translate(17, -7)"><circle cx="8" cy="8" r="4" stroke="none" fill="red" fill-opacity="0.3"/></g><g pointer-events="all" display="none" transform="translate(42, -7)"><circle cx="8" cy="8" r="4" stroke="none" fill="red" fill-opacity="0.3"/></g><g pointer-events="all" display="none" transform="translate(67, -7)"><circle cx="8" cy="8" r="4" stroke="none" fill="red" fill-opacity="0.3"/></g><g pointer-events="all" display="none" transform="translate(42, 32)"><circle cx="8" cy="8" r="4" stroke="none" fill="red" fill-opacity="0.3"/></g></g></g></g><g id="_24323550-BE9C-4AF3-86EF-342A89DBC1DD" bpmn2nodeid="_40F4F930-A885-4867-922F-5E854166A5D5"><g class="stencils" transform="translate(733.003471242149, 281)"><g class="me"><g pointer-events="fill" id="_24323550-BE9C-4AF3-86EF-342A89DBC1DD">      <defs id="_24323550-BE9C-4AF3-86EF-342A89DBC1DD__24323550-BE9C-4AF3-86EF-342A89DBC1DD_5"> 		<radialGradient id="_24323550-BE9C-4AF3-86EF-342A89DBC1DDbackground" cx="10%" cy="10%" r="100%" fx="10%" fy="10%"> 			<stop offset="0%" stop-color="#ffffff" stop-opacity="1" id="_24323550-BE9C-4AF3-86EF-342A89DBC1DD__24323550-BE9C-4AF3-86EF-342A89DBC1DD_6"/> 			<stop id="_24323550-BE9C-4AF3-86EF-342A89DBC1DDfill_el" offset="100%" stop-color="#ff6347" stop-opacity="1"/> 		</radialGradient> 	</defs> 	     <circle id="_24323550-BE9C-4AF3-86EF-342A89DBC1DDbg_frame" cx="14" cy="14" r="14" stroke="#000000" fill="url(#_24323550-BE9C-4AF3-86EF-342A89DBC1DDbackground) white" stroke-width="3"/> 	<text font-size="11" id="_24323550-BE9C-4AF3-86EF-342A89DBC1DDtext_name" x="14" y="30" oryx:align="top center" stroke="black" stroke-width="0pt" letter-spacing="-0.01px" fill="#000000" text-anchor="middle" transform="rotate(0 14 30)" visibility="inherit" oryx:fontSize="11"/>   </g></g><g class="children" style="overflow:hidden"/><g class="edge"/></g><g class="controls"><g class="dockers"/><g class="magnets" transform="translate(733.003471242149, 281)"><g pointer-events="all" display="none" transform="translate(6, 6)"><circle cx="8" cy="8" r="4" stroke="none" fill="red" fill-opacity="0.3"/></g></g></g></g></g><g class="edge"><g id="_945DB6E7-E601-41D1-9672-74FCB10AED9A" bpmn2nodeid="_C81F9B39-145C-411E-8E08-49D36F30744D"><g class="stencils"><g class="me"><g pointer-events="painted" bpmn2nodeid="_72713E89-4958-466D-A378-658FC50AD836"><path id="_945DB6E7-E601-41D1-9672-74FCB10AED9A_1" d="M75.53125 300L164.3515625 300 " stroke="#000000" fill="none" stroke-width="2" stroke-linecap="round" stroke-linejoin="round" marker-start="url(#_945DB6E7-E601-41D1-9672-74FCB10AED9Astart)" marker-end="url(#_945DB6E7-E601-41D1-9672-74FCB10AED9Aend)"/></g><text id="_945DB6E7-E601-41D1-9672-74FCB10AED9Atext_name" font-size="12" x="89.53125" y="286" oryx:edgePosition="startTop" stroke-width="0pt" letter-spacing="-0.01px" fill="#000000" text-anchor="start" transform="rotate(360 75.53125 300)" visibility="inherit" oryx:fontSize="12"/></g><g class="children" style="overflow:hidden"/><g class="edge"/></g><g class="controls"><g class="dockers"/><g class="magnets"/></g></g><g id="_828DC662-6678-4C84-9F7B-2DC914A22A9B" bpmn2nodeid="_20BA939B-DE54-42C4-8A06-D2BD0EF4FD38"><g class="stencils"><g class="me"><g pointer-events="painted" bpmn2nodeid="_8AC69CE5-1A7D-465F-815E-571FCDED1EE5"><path id="_828DC662-6678-4C84-9F7B-2DC914A22A9B_1" d="M265.21846667374416 298.8043222220537L374.78153332625584 296.1956777779463 " stroke="#000000" fill="none" stroke-width="2" stroke-linecap="round" stroke-linejoin="round" marker-start="url(#_828DC662-6678-4C84-9F7B-2DC914A22A9Bstart)" marker-end="url(#_828DC662-6678-4C84-9F7B-2DC914A22A9Bend)"/></g><text id="_828DC662-6678-4C84-9F7B-2DC914A22A9Btext_name" font-size="12" x="279.21846667374416" y="284.8043222220537" oryx:edgePosition="startTop" stroke-width="0pt" letter-spacing="-0.01px" fill="#000000" text-anchor="start" transform="rotate(358.63607246839706 265.21846667374416 298.8043222220537)" visibility="inherit" oryx:fontSize="12"/></g><g class="children" style="overflow:hidden"/><g class="edge"/></g><g class="controls"><g class="dockers"/><g class="magnets"/></g></g><g id="_A9527942-0398-4939-A7AD-9F97221EC81A" bpmn2nodeid="_E6FAFEF4-C7A0-4AD4-9BF3-254024A69560"><g class="stencils"><g class="me"><g pointer-events="painted" bpmn2nodeid="_E6FAFEF4-C7A0-4AD4-9BF3-254024A69560"><path id="_A9527942-0398-4939-A7AD-9F97221EC81A_1" d="M475.6247994564677 290.3977455039575L539.3752005435324 284.6022544960425 " stroke="#000000" fill="none" stroke-width="2" stroke-linecap="round" stroke-linejoin="round" marker-start="url(#_A9527942-0398-4939-A7AD-9F97221EC81Astart)" marker-end="url(#_A9527942-0398-4939-A7AD-9F97221EC81Aend)"/></g><text id="_A9527942-0398-4939-A7AD-9F97221EC81Atext_name" font-size="12" x="489.6247994564677" y="276.3977455039575" oryx:edgePosition="startTop" stroke-width="0pt" letter-spacing="-0.01px" fill="#000000" text-anchor="start" transform="rotate(354.8055710922652 475.6247994564677 290.3977455039575)" visibility="inherit" oryx:fontSize="12"/></g><g class="children" style="overflow:hidden"/><g class="edge"/></g><g class="controls"><g class="dockers"/><g class="magnets"/></g></g><g id="_81C6C171-F673-4E68-B3F7-A3665BAB9431" bpmn2nodeid="_B80F6BA8-29F4-46F8-BEB3-40F0BD20E680"><g class="stencils"><g class="me"><g pointer-events="painted" bpmn2nodeid="_B80F6BA8-29F4-46F8-BEB3-40F0BD20E680"><path id="_81C6C171-F673-4E68-B3F7-A3665BAB9431_1" d="M640.0590518930103 284.7826062217252L732.5155183024382 293.6158312782748 " stroke="#000000" fill="none" stroke-width="2" stroke-linecap="round" stroke-linejoin="round" marker-start="url(#_81C6C171-F673-4E68-B3F7-A3665BAB9431start)" marker-end="url(#_81C6C171-F673-4E68-B3F7-A3665BAB9431end)"/></g><text id="_81C6C171-F673-4E68-B3F7-A3665BAB9431text_name" font-size="12" x="654.0590518930103" y="270.7826062217252" oryx:edgePosition="startTop" stroke-width="0pt" letter-spacing="-0.01px" fill="#000000" text-anchor="start" transform="rotate(5.457433550735004 640.0590518930103 284.7826062217252)" visibility="inherit" oryx:fontSize="12"/></g><g class="children" style="overflow:hidden"/><g class="edge"/></g><g class="controls"><g class="dockers"/><g class="magnets"/></g></g></g><text id="_4AC7D3EC-6C8B-4F44-9A7E-F7FC32154AB8" style="stroke-width:1;fill:rgb(177,194,214);font-family:arial;font-weight:bold" font-size="12" onclick="ORYX.Plugins.CanvasTitle.openTextualAnalysis()" onmouseover="ORYX.Plugins.CanvasTitle.addToolTip('_4AC7D3EC-6C8B-4F44-9A7E-F7FC32154AB8')" transform="translate(10, 20)">P1111 v.1.0 (src.P1111)</text></g></g></svg>