<svg xmlns="http://www.w3.org/2000/svg" xmlns:oryx="http://oryx-editor.org" id="_7BF106DE-20F8-4E77-ACF3-088050D0B683" width="694" height="385" xmlns:xlink="http://www.w3.org/1999/xlink" xmlns:svg="http://www.w3.org/2000/svg"><defs><marker id="_3E8A44B9-8385-489B-BA45-CACF985A244Bstart" refX="1" refY="5" markerUnits="userSpaceOnUse" markerWidth="17" markerHeight="11" orient="auto" fill="#000000" stroke="#000000"> 	  		<path id="_3E8A44B9-8385-489B-BA45-CACF985A244Bconditional" d="M 0 5 L 8 0 L 16 5 L 8 10 L 0 5" fill="white" stroke="#000000" stroke-width="1" display="none"/> 			<path id="_3E8A44B9-8385-489B-BA45-CACF985A244Bdefault" d="M 5 0 L 11 10" fill="white" stroke="#000000" stroke-width="1" display="none"/> 	  	</marker><marker id="_3E8A44B9-8385-489B-BA45-CACF985A244Bend" refX="15" refY="6" markerUnits="userSpaceOnUse" markerWidth="15" markerHeight="12" orient="auto" fill="#000000" stroke="#000000"> 	  		<path id="_3E8A44B9-8385-489B-BA45-CACF985A244Bframe2" d="M 0 1 L 15 6 L 0 11z" fill="#000000" stroke="#000000" stroke-linejoin="round" stroke-width="2"/> 	  	</marker><marker id="_2010E76C-B179-4364-92D3-DC54E618F685start" refX="1" refY="5" markerUnits="userSpaceOnUse" markerWidth="17" markerHeight="11" orient="auto" fill="#000000" stroke="#000000"> 	  		<path id="_2010E76C-B179-4364-92D3-DC54E618F685conditional" d="M 0 5 L 8 0 L 16 5 L 8 10 L 0 5" fill="white" stroke="#000000" stroke-width="1" display="none"/> 			<path id="_2010E76C-B179-4364-92D3-DC54E618F685default" d="M 5 0 L 11 10" fill="white" stroke="#000000" stroke-width="1" display="none"/> 	  	</marker><marker id="_2010E76C-B179-4364-92D3-DC54E618F685end" refX="15" refY="6" markerUnits="userSpaceOnUse" markerWidth="15" markerHeight="12" orient="auto" fill="#000000" stroke="#000000"> 	  		<path id="_2010E76C-B179-4364-92D3-DC54E618F685frame2" d="M 0 1 L 15 6 L 0 11z" fill="#000000" stroke="#000000" stroke-linejoin="round" stroke-width="2"/> 	  	</marker><marker id="_BF1AAACC-AF9F-4F6A-B5EF-D219DEEC6657start" refX="1" refY="5" markerUnits="userSpaceOnUse" markerWidth="17" markerHeight="11" orient="auto" fill="#000000" stroke="#000000"> 	  		<path id="_BF1AAACC-AF9F-4F6A-B5EF-D219DEEC6657conditional" d="M 0 5 L 8 0 L 16 5 L 8 10 L 0 5" fill="white" stroke="#000000" stroke-width="1" display="none"/> 			<path id="_BF1AAACC-AF9F-4F6A-B5EF-D219DEEC6657default" d="M 5 0 L 11 10" fill="white" stroke="#000000" stroke-width="1" display="none"/> 	  	</marker><marker id="_BF1AAACC-AF9F-4F6A-B5EF-D219DEEC6657end" refX="15" refY="6" markerUnits="userSpaceOnUse" markerWidth="15" markerHeight="12" orient="auto" fill="#000000" stroke="#000000"> 	  		<path id="_BF1AAACC-AF9F-4F6A-B5EF-D219DEEC6657frame2" d="M 0 1 L 15 6 L 0 11z" fill="#000000" stroke="#000000" stroke-linejoin="round" stroke-width="2"/> 	  	</marker><marker id="_0163A653-B215-4604-84FB-6B3CB058A22Dstart" refX="1" refY="5" markerUnits="userSpaceOnUse" markerWidth="17" markerHeight="11" orient="auto" fill="#000000" stroke="#000000"> 	  		<path id="_0163A653-B215-4604-84FB-6B3CB058A22Dconditional" d="M 0 5 L 8 0 L 16 5 L 8 10 L 0 5" fill="white" stroke="#000000" stroke-width="1" display="none"/> 			<path id="_0163A653-B215-4604-84FB-6B3CB058A22Ddefault" d="M 5 0 L 11 10" fill="white" stroke="#000000" stroke-width="1" display="none"/> 	  	</marker><marker id="_0163A653-B215-4604-84FB-6B3CB058A22Dend" refX="15" refY="6" markerUnits="userSpaceOnUse" markerWidth="15" markerHeight="12" orient="auto" fill="#000000" stroke="#000000"> 	  		<path id="_0163A653-B215-4604-84FB-6B3CB058A22Dframe2" d="M 0 1 L 15 6 L 0 11z" fill="#000000" stroke="#000000" stroke-linejoin="round" stroke-width="2"/> 	  	</marker></defs><g stroke="none" font-family="Verdana, sans-serif" font-size-adjust="none" font-style="normal" font-variant="normal" font-weight="normal" line-heigth="normal" font-size="12"><g class="stencils" transform="translate(15, 16)"><g class="me"/><g class="children"><g id="_952DEAF5-5B05-45F8-A5EF-E398BAE77D8D" bpmn2nodeid="processStartEvent"><g class="stencils" transform="translate(60, 285)"><g class="me"><g pointer-events="fill" id="_952DEAF5-5B05-45F8-A5EF-E398BAE77D8D">        <defs id="_952DEAF5-5B05-45F8-A5EF-E398BAE77D8D__952DEAF5-5B05-45F8-A5EF-E398BAE77D8D_5"> 		<radialGradient id="_952DEAF5-5B05-45F8-A5EF-E398BAE77D8Dbackground" cx="10%" cy="10%" r="100%" fx="10%" fy="10%"> 			<stop offset="0%" stop-color="#ffffff" stop-opacity="1" id="_952DEAF5-5B05-45F8-A5EF-E398BAE77D8D__952DEAF5-5B05-45F8-A5EF-E398BAE77D8D_6"/> 			<stop id="_952DEAF5-5B05-45F8-A5EF-E398BAE77D8Dfill_el" offset="100%" stop-color="#9acd32" stop-opacity="1"/> 		</radialGradient> 	</defs> 	     <circle id="_952DEAF5-5B05-45F8-A5EF-E398BAE77D8Dbg_frame" cx="15" cy="15" r="15" stroke="#000000" fill="url(#_952DEAF5-5B05-45F8-A5EF-E398BAE77D8Dbackground) white" stroke-width="1" style="stroke-dasharray: 5.5, 3"/>      <circle id="_952DEAF5-5B05-45F8-A5EF-E398BAE77D8Dframe" cx="15" cy="15" r="15" stroke="#000000" fill="none" stroke-width="1" display="inherit"/>  	<text font-size="11" id="_952DEAF5-5B05-45F8-A5EF-E398BAE77D8Dtext_name" x="15" y="32" oryx:align="top center" stroke="black" stroke-width="0pt" letter-spacing="-0.01px" fill="#000000" text-anchor="middle" transform="rotate(0 15 32)" visibility="inherit" oryx:fontSize="11"/>   </g></g><g class="children" style="overflow:hidden"/><g class="edge"/></g><g class="controls"><g class="dockers"/><g class="magnets" transform="translate(60, 285)"><g pointer-events="all" display="none" transform="translate(7, 7)"><circle cx="8" cy="8" r="4" stroke="none" fill="red" fill-opacity="0.3"/></g></g></g></g><g id="_36999155-8B88-4E80-AEFD-20E5D3BCB957" bpmn2nodeid="_2D2647F3-2BF3-4793-A6CC-15DD723CDA5B"><g class="stencils" transform="translate(183, 260)"><g class="me"><g pointer-events="fill" oryx:minimumSize="50 40" id="_36999155-8B88-4E80-AEFD-20E5D3BCB957">   	<defs id="_36999155-8B88-4E80-AEFD-20E5D3BCB957__36999155-8B88-4E80-AEFD-20E5D3BCB957_17"> 		<radialGradient id="_36999155-8B88-4E80-AEFD-20E5D3BCB957background" cx="10%" cy="10%" r="100%" fx="10%" fy="10%"> 			<stop offset="0%" stop-color="#ffffff" stop-opacity="1" id="_36999155-8B88-4E80-AEFD-20E5D3BCB957__36999155-8B88-4E80-AEFD-20E5D3BCB957_18"/> 			<stop id="_36999155-8B88-4E80-AEFD-20E5D3BCB957fill_el" offset="100%" stop-color="#fafad2" stop-opacity="1"/> 		</radialGradient> 		<radialGradient id="_36999155-8B88-4E80-AEFD-20E5D3BCB957borderbackground" cx="10%" cy="10%" r="100%" fx="10%" fy="10%"> 			<stop offset="0%" stop-color="#ffffff" stop-opacity="1" id="_36999155-8B88-4E80-AEFD-20E5D3BCB957__36999155-8B88-4E80-AEFD-20E5D3BCB957_19"/> 			<stop id="_36999155-8B88-4E80-AEFD-20E5D3BCB957fill_border" offset="100%" stop-color="#000000" stop-opacity="1" stroke="#000000"/> 		</radialGradient> 	</defs> 	 	<rect id="_36999155-8B88-4E80-AEFD-20E5D3BCB957text_frame" oryx:anchors="bottom top right left" x="1" y="1" width="94" height="79" rx="10" ry="10" stroke="none" stroke-width="0" fill="none"/> 	<rect id="_36999155-8B88-4E80-AEFD-20E5D3BCB957bg_frame" oryx:resize="vertical horizontal" x="0" y="0" width="100" height="80" rx="10" ry="10" stroke="#000000" stroke-width="1" fill="url(#_36999155-8B88-4E80-AEFD-20E5D3BCB957background) #ffffcc"/> 		<text font-size="12" id="_36999155-8B88-4E80-AEFD-20E5D3BCB957text_name" x="50" y="40" oryx:align="middle center" oryx:fittoelem="text_frame" stroke="black" text-anchor="middle" stroke-width="0pt" letter-spacing="-0.01px" fill="#000000" transform="rotate(0 50 40)" visibility="inherit" oryx:fontSize="12"><tspan x="50" y="40" dy="5" id="ext-gen1016">Promotion</tspan></text>     <g id="_36999155-8B88-4E80-AEFD-20E5D3BCB957manualTask" transform="scale(0.7,0.7) translate(8,8)" display="none">     	<path oryx:anchors="top left" id="_36999155-8B88-4E80-AEFD-20E5D3BCB957frame" style="opacity:1;fill:none;fill-opacity:1;stroke-width:1" d="M0.5,3.751l4.083-3.25c0,0,11.166,0.083,12.083,0.083s-2.417,2.917-1.5,2.917     s11.667,0,12.584,0c1.166,1.708-0.168,3.167-0.834,3.667s0.875,1.917-1,4.417c-0.75,0.25,0.75,1.875-1.333,3.333     c-1.167,0.583,0.583,1.542-1.25,2.833c-1.167,0-20.833,0.083-20.833,0.083l-2-1.333V3.751z" stroke="#000000"/> 		<path id="_36999155-8B88-4E80-AEFD-20E5D3BCB957frame2" oryx:anchors="top left" style="opacity:1;fill:none;stroke-width:2" d="M 13.5 7 L 27 7" stroke="#000000"/> 		<path id="_36999155-8B88-4E80-AEFD-20E5D3BCB957frame3" oryx:anchors="top left" style="opacity:1;fill:none;stroke-width:2" d="M 13.5 11 L 26 11" stroke="#000000"/> 		<path id="_36999155-8B88-4E80-AEFD-20E5D3BCB957frame4" oryx:anchors="top left" style="opacity:1;fill:none;stroke-width:1.5" d="M 14 14.5 L 25 14.5" stroke="#000000"/> 		<path id="_36999155-8B88-4E80-AEFD-20E5D3BCB957frame5" oryx:anchors="top left" style="opacity:1;fill:none;stroke-width:1.5" d="M 8.2 3.1 L 15 3.1" stroke="#000000"/> 	</g> 	 	<g id="_36999155-8B88-4E80-AEFD-20E5D3BCB957businessRuleTask" transform="scale(0.7,0.7) translate(8,8)" display="inherit"> 		<rect id="_36999155-8B88-4E80-AEFD-20E5D3BCB957frame6" oryx:anchors="top left" x="0" y="0" width="22" height="4" style="opacity:1;fill:#B3B1B3;fill-opacity:1;" stroke="#000000"/> 		<rect id="_36999155-8B88-4E80-AEFD-20E5D3BCB957frame7" oryx:anchors="top left" x="0" y="4" style="opacity:1;fill:none;" width="22" height="12" stroke="#000000"/> 		<path id="_36999155-8B88-4E80-AEFD-20E5D3BCB957frame8" oryx:anchors="top left" style="opacity:1;fill:none;" d="M 0 10 L 22 10" stroke="#000000"/> 		<path id="_36999155-8B88-4E80-AEFD-20E5D3BCB957frame9" oryx:anchors="top left" style="opacity:1; fill:none;" d="M 7 4 L 7 16" stroke="#000000"/> 	</g> 	 	<g id="_36999155-8B88-4E80-AEFD-20E5D3BCB957scriptTask" transform="scale(0.7,0.7) translate(8,8)" display="none"> 		<path oryx:anchors="top left" id="_36999155-8B88-4E80-AEFD-20E5D3BCB957frame10" style="opacity:1;fill:none;" stroke="#000000" d="M6.402,0.5h14.5c0,0-5.833,2.833-5.833,5.583s4.417,6,4.417,9.167    s-4.167,5.083-4.167,5.083H0.235c0,0,5-2.667,5-5s-4.583-6.75-4.583-9.25S6.402,0.5,6.402,0.5z"/> 		<path oryx:anchors="top left" id="_36999155-8B88-4E80-AEFD-20E5D3BCB957frame11" style="opacity:1;fill:none;stroke-width:1.5" d="M 3.5 4.5 L 13.5 4.5" stroke="#000000"/> 		<path oryx:anchors="top left" id="_36999155-8B88-4E80-AEFD-20E5D3BCB957frame12" style="opacity:1;fill:none;stroke-width:1.5" d="M 3.8 8.5 L 13.8 8.5" stroke="#000000"/> 		<path oryx:anchors="top left" id="_36999155-8B88-4E80-AEFD-20E5D3BCB957frame13" style="opacity:1;fill:none;stroke-width:1.5" d="M 6.3 12.5 L 16.3 12.5" stroke="#000000"/> 		<path oryx:anchors="top left" id="_36999155-8B88-4E80-AEFD-20E5D3BCB957frame14" style="opacity:1;fill:none;stroke-width:1.5" d="M 6.5 16.5 L 16.5 16.5" stroke="#000000"/> 	</g> 	 	<g id="_36999155-8B88-4E80-AEFD-20E5D3BCB957userTask" transform="scale(0.7,0.7) translate(8,8)" display="none"> 		<path id="_36999155-8B88-4E80-AEFD-20E5D3BCB957frame15" oryx:anchors="top left" style="opacity:1;fill:#F4F6F7" stroke="#000000" d="M0.585,24.167h24.083v-7.833c0,0-2.333-3.917-7.083-5.167h-9.25    c-4.417,1.333-7.833,5.75-7.833,5.75L0.585,24.167z"/> 		<path id="_36999155-8B88-4E80-AEFD-20E5D3BCB957frame16" oryx:anchors="top left" style="opacity:1;fill:none" d="M 6 20 L 6 24" stroke="#000000"/> 		<path id="_36999155-8B88-4E80-AEFD-20E5D3BCB957frame17" oryx:anchors="top left" style="opacity:1;fill:none" d="M 20 20 L 20 24" stroke="#000000"/> 		<circle id="_36999155-8B88-4E80-AEFD-20E5D3BCB957frame18" oryx:anchors="top left" fill="black" cx="13.002" cy="5.916" r="5.417" stroke="#000000"/> 		<path id="_36999155-8B88-4E80-AEFD-20E5D3BCB957frame19" oryx:anchors="top left" style="opacity:1;fill:#F0EFF0;" stroke="#000000" d="M8.043,7.083c0,0,2.814-2.426,5.376-1.807s4.624-0.693,4.624-0.693    c0.25,1.688,0.042,3.75-1.458,5.584c0,0,1.083,0.75,1.083,1.5s0.125,1.875-1,3s-5.5,1.25-6.75,0S8.668,12.834,8.668,12    s0.583-1.25,1.25-1.917C8.835,9.5,7.419,7.708,8.043,7.083z"/> 	</g> 	 	<g id="_36999155-8B88-4E80-AEFD-20E5D3BCB957serviceTask" transform="scale(0.7,0.7) translate(8,8)" display="none"> 		<polygon oryx:anchors="top left" id="_36999155-8B88-4E80-AEFD-20E5D3BCB957frame20" style="opacity:1;fill:#ffffff" stroke="#000000" points="15.392,5.064 17.954,2.502 20.347,4.895 17.786,7.455     18.729,9.732 22.353,9.732 22.353,13.115 18.731,13.115 17.788,15.392 20.351,17.955 17.958,20.347 15.397,17.786 13.12,18.729     13.12,22.353 9.737,22.353 9.737,18.731 7.46,17.788 4.897,20.35 2.506,17.958 5.066,15.397 4.124,13.12 0.5,13.12 0.5,9.737     4.121,9.737 5.065,7.461 2.503,4.898 4.895,2.506 7.455,5.066 9.732,4.125 9.732,0.5 13.116,0.5 13.116,4.121 "/> 		<circle oryx:anchors="top left" id="_36999155-8B88-4E80-AEFD-20E5D3BCB957frame21" style="opacity:1;fill:none" stroke="#000000" cx="11.427" cy="11.426" r="3.714"/> 		<polygon oryx:anchors="top left" id="_36999155-8B88-4E80-AEFD-20E5D3BCB957frame22" style="opacity:1;fill:#ffffff" stroke="#000000" points="21.392,11.064 23.954,8.502 26.347,10.895 23.786,13.455     24.729,15.732 28.353,15.732 28.353,19.115 24.731,19.115 23.788,21.392 26.351,23.955 23.958,26.347 21.397,23.786 19.12,24.729     19.12,28.353 15.737,28.353 15.737,24.731 13.46,23.788 10.897,26.35 8.506,23.958 11.066,21.397 10.124,19.12 6.5,19.12     6.5,15.737 10.121,15.737 11.065,13.461 8.503,10.898 10.895,8.506 13.455,11.066 15.732,10.125 15.732,6.5 19.116,6.5     19.116,10.121 "/> 		<circle oryx:anchors="top left" id="_36999155-8B88-4E80-AEFD-20E5D3BCB957frame23" style="opacity:1;fill:none;" stroke="#000000" cx="17.427" cy="17.426" r="3.714"/> 	</g> 	 	<g id="_36999155-8B88-4E80-AEFD-20E5D3BCB957sendTask" display="none"> 		<path id="_36999155-8B88-4E80-AEFD-20E5D3BCB957stframe24" oryx:anchors="left top" stroke="#FFFFFF" fill="black" stroke-width="1" d="M8,11 L8,21 L24,21 L24,11 L16,17z"/> 		<path id="_36999155-8B88-4E80-AEFD-20E5D3BCB957stframe25" oryx:anchors="left top" stroke="#FFFFFF" fill="black" stroke-width="1" d="M7,10 L16,17 L25 10z"/> 	</g> 	 	<g id="_36999155-8B88-4E80-AEFD-20E5D3BCB957receiveTask" display="none"> 		<path id="_36999155-8B88-4E80-AEFD-20E5D3BCB957frame26" oryx:anchors="left top" stroke="#000000" fill="none" stroke-width="1" d="M8,11 L8,21 L24,21 L24,11z M8,11 L16,17 L24,11"/> 	</g> 	 	<g id="_36999155-8B88-4E80-AEFD-20E5D3BCB957none" display="none"/>  	<g id="_36999155-8B88-4E80-AEFD-20E5D3BCB957sequential" display="none">         <path oryx:anchors="bottom" fill="none" stroke="#000000" stroke-width="2" d="M46,76h10M46,72h10 M46,68h10" id="_36999155-8B88-4E80-AEFD-20E5D3BCB957__36999155-8B88-4E80-AEFD-20E5D3BCB957_20"/>     </g>   </g></g><g class="children" style="overflow:hidden"/><g class="edge"/></g><g class="controls"><g class="dockers"/><g class="magnets" transform="translate(183, 260)"><g pointer-events="all" display="none" transform="translate(-7, 12)"><circle cx="8" cy="8" r="4" stroke="none" fill="red" fill-opacity="0.3"/></g><g pointer-events="all" display="none" transform="translate(-7, 32)"><circle cx="8" cy="8" r="4" stroke="none" fill="red" fill-opacity="0.3"/></g><g pointer-events="all" display="none" transform="translate(-7, 52)"><circle cx="8" cy="8" r="4" stroke="none" fill="red" fill-opacity="0.3"/></g><g pointer-events="all" display="none" transform="translate(17, 71)"><circle cx="8" cy="8" r="4" stroke="none" fill="red" fill-opacity="0.3"/></g><g pointer-events="all" display="none" transform="translate(42, 71)"><circle cx="8" cy="8" r="4" stroke="none" fill="red" fill-opacity="0.3"/></g><g pointer-events="all" display="none" transform="translate(67, 71)"><circle cx="8" cy="8" r="4" stroke="none" fill="red" fill-opacity="0.3"/></g><g pointer-events="all" display="none" transform="translate(91, 12)"><circle cx="8" cy="8" r="4" stroke="none" fill="red" fill-opacity="0.3"/></g><g pointer-events="all" display="none" transform="translate(91, 32)"><circle cx="8" cy="8" r="4" stroke="none" fill="red" fill-opacity="0.3"/></g><g pointer-events="all" display="none" transform="translate(91, 52)"><circle cx="8" cy="8" r="4" stroke="none" fill="red" fill-opacity="0.3"/></g><g pointer-events="all" display="none" transform="translate(17, -7)"><circle cx="8" cy="8" r="4" stroke="none" fill="red" fill-opacity="0.3"/></g><g pointer-events="all" display="none" transform="translate(42, -7)"><circle cx="8" cy="8" r="4" stroke="none" fill="red" fill-opacity="0.3"/></g><g pointer-events="all" display="none" transform="translate(67, -7)"><circle cx="8" cy="8" r="4" stroke="none" fill="red" fill-opacity="0.3"/></g><g pointer-events="all" display="none" transform="translate(42, 32)"><circle cx="8" cy="8" r="4" stroke="none" fill="red" fill-opacity="0.3"/></g></g></g></g><g id="_CFED8F6F-B64D-4DC9-9372-2DE659870C47" bpmn2nodeid="_A4293288-FA99-45BC-84C2-856916F02AFA"><g class="stencils" transform="translate(314, 260)"><g class="me"><g pointer-events="fill" oryx:minimumSize="50 40" id="_CFED8F6F-B64D-4DC9-9372-2DE659870C47">   	<defs id="_CFED8F6F-B64D-4DC9-9372-2DE659870C47__CFED8F6F-B64D-4DC9-9372-2DE659870C47_17"> 		<radialGradient id="_CFED8F6F-B64D-4DC9-9372-2DE659870C47background" cx="10%" cy="10%" r="100%" fx="10%" fy="10%"> 			<stop offset="0%" stop-color="#ffffff" stop-opacity="1" id="_CFED8F6F-B64D-4DC9-9372-2DE659870C47__CFED8F6F-B64D-4DC9-9372-2DE659870C47_18"/> 			<stop id="_CFED8F6F-B64D-4DC9-9372-2DE659870C47fill_el" offset="100%" stop-color="#fafad2" stop-opacity="1"/> 		</radialGradient> 		<radialGradient id="_CFED8F6F-B64D-4DC9-9372-2DE659870C47borderbackground" cx="10%" cy="10%" r="100%" fx="10%" fy="10%"> 			<stop offset="0%" stop-color="#ffffff" stop-opacity="1" id="_CFED8F6F-B64D-4DC9-9372-2DE659870C47__CFED8F6F-B64D-4DC9-9372-2DE659870C47_19"/> 			<stop id="_CFED8F6F-B64D-4DC9-9372-2DE659870C47fill_border" offset="100%" stop-color="#000000" stop-opacity="1" stroke="#000000"/> 		</radialGradient> 	</defs> 	 	<rect id="_CFED8F6F-B64D-4DC9-9372-2DE659870C47text_frame" oryx:anchors="bottom top right left" x="1" y="1" width="94" height="79" rx="10" ry="10" stroke="none" stroke-width="0" fill="none"/> 	<rect id="_CFED8F6F-B64D-4DC9-9372-2DE659870C47bg_frame" oryx:resize="vertical horizontal" x="0" y="0" width="100" height="80" rx="10" ry="10" stroke="#000000" stroke-width="1" fill="url(#_CFED8F6F-B64D-4DC9-9372-2DE659870C47background) #ffffcc"/> 		<text font-size="12" id="_CFED8F6F-B64D-4DC9-9372-2DE659870C47text_name" x="50" y="40" oryx:align="middle center" oryx:fittoelem="text_frame" stroke="black" text-anchor="middle" stroke-width="0pt" letter-spacing="-0.01px" fill="#000000" transform="rotate(0 50 40)" visibility="inherit" oryx:fontSize="12"><tspan x="50" y="40" dy="5">Standard</tspan></text>     <g id="_CFED8F6F-B64D-4DC9-9372-2DE659870C47manualTask" transform="scale(0.7,0.7) translate(8,8)" display="none">     	<path oryx:anchors="top left" id="_CFED8F6F-B64D-4DC9-9372-2DE659870C47frame" style="opacity:1;fill:none;fill-opacity:1;stroke-width:1" d="M0.5,3.751l4.083-3.25c0,0,11.166,0.083,12.083,0.083s-2.417,2.917-1.5,2.917     s11.667,0,12.584,0c1.166,1.708-0.168,3.167-0.834,3.667s0.875,1.917-1,4.417c-0.75,0.25,0.75,1.875-1.333,3.333     c-1.167,0.583,0.583,1.542-1.25,2.833c-1.167,0-20.833,0.083-20.833,0.083l-2-1.333V3.751z" stroke="#000000"/> 		<path id="_CFED8F6F-B64D-4DC9-9372-2DE659870C47frame2" oryx:anchors="top left" style="opacity:1;fill:none;stroke-width:2" d="M 13.5 7 L 27 7" stroke="#000000"/> 		<path id="_CFED8F6F-B64D-4DC9-9372-2DE659870C47frame3" oryx:anchors="top left" style="opacity:1;fill:none;stroke-width:2" d="M 13.5 11 L 26 11" stroke="#000000"/> 		<path id="_CFED8F6F-B64D-4DC9-9372-2DE659870C47frame4" oryx:anchors="top left" style="opacity:1;fill:none;stroke-width:1.5" d="M 14 14.5 L 25 14.5" stroke="#000000"/> 		<path id="_CFED8F6F-B64D-4DC9-9372-2DE659870C47frame5" oryx:anchors="top left" style="opacity:1;fill:none;stroke-width:1.5" d="M 8.2 3.1 L 15 3.1" stroke="#000000"/> 	</g> 	 	<g id="_CFED8F6F-B64D-4DC9-9372-2DE659870C47businessRuleTask" transform="scale(0.7,0.7) translate(8,8)" display="inherit"> 		<rect id="_CFED8F6F-B64D-4DC9-9372-2DE659870C47frame6" oryx:anchors="top left" x="0" y="0" width="22" height="4" style="opacity:1;fill:#B3B1B3;fill-opacity:1;" stroke="#000000"/> 		<rect id="_CFED8F6F-B64D-4DC9-9372-2DE659870C47frame7" oryx:anchors="top left" x="0" y="4" style="opacity:1;fill:none;" width="22" height="12" stroke="#000000"/> 		<path id="_CFED8F6F-B64D-4DC9-9372-2DE659870C47frame8" oryx:anchors="top left" style="opacity:1;fill:none;" d="M 0 10 L 22 10" stroke="#000000"/> 		<path id="_CFED8F6F-B64D-4DC9-9372-2DE659870C47frame9" oryx:anchors="top left" style="opacity:1; fill:none;" d="M 7 4 L 7 16" stroke="#000000"/> 	</g> 	 	<g id="_CFED8F6F-B64D-4DC9-9372-2DE659870C47scriptTask" transform="scale(0.7,0.7) translate(8,8)" display="none"> 		<path oryx:anchors="top left" id="_CFED8F6F-B64D-4DC9-9372-2DE659870C47frame10" style="opacity:1;fill:none;" stroke="#000000" d="M6.402,0.5h14.5c0,0-5.833,2.833-5.833,5.583s4.417,6,4.417,9.167    s-4.167,5.083-4.167,5.083H0.235c0,0,5-2.667,5-5s-4.583-6.75-4.583-9.25S6.402,0.5,6.402,0.5z"/> 		<path oryx:anchors="top left" id="_CFED8F6F-B64D-4DC9-9372-2DE659870C47frame11" style="opacity:1;fill:none;stroke-width:1.5" d="M 3.5 4.5 L 13.5 4.5" stroke="#000000"/> 		<path oryx:anchors="top left" id="_CFED8F6F-B64D-4DC9-9372-2DE659870C47frame12" style="opacity:1;fill:none;stroke-width:1.5" d="M 3.8 8.5 L 13.8 8.5" stroke="#000000"/> 		<path oryx:anchors="top left" id="_CFED8F6F-B64D-4DC9-9372-2DE659870C47frame13" style="opacity:1;fill:none;stroke-width:1.5" d="M 6.3 12.5 L 16.3 12.5" stroke="#000000"/> 		<path oryx:anchors="top left" id="_CFED8F6F-B64D-4DC9-9372-2DE659870C47frame14" style="opacity:1;fill:none;stroke-width:1.5" d="M 6.5 16.5 L 16.5 16.5" stroke="#000000"/> 	</g> 	 	<g id="_CFED8F6F-B64D-4DC9-9372-2DE659870C47userTask" transform="scale(0.7,0.7) translate(8,8)" display="none"> 		<path id="_CFED8F6F-B64D-4DC9-9372-2DE659870C47frame15" oryx:anchors="top left" style="opacity:1;fill:#F4F6F7" stroke="#000000" d="M0.585,24.167h24.083v-7.833c0,0-2.333-3.917-7.083-5.167h-9.25    c-4.417,1.333-7.833,5.75-7.833,5.75L0.585,24.167z"/> 		<path id="_CFED8F6F-B64D-4DC9-9372-2DE659870C47frame16" oryx:anchors="top left" style="opacity:1;fill:none" d="M 6 20 L 6 24" stroke="#000000"/> 		<path id="_CFED8F6F-B64D-4DC9-9372-2DE659870C47frame17" oryx:anchors="top left" style="opacity:1;fill:none" d="M 20 20 L 20 24" stroke="#000000"/> 		<circle id="_CFED8F6F-B64D-4DC9-9372-2DE659870C47frame18" oryx:anchors="top left" fill="black" cx="13.002" cy="5.916" r="5.417" stroke="#000000"/> 		<path id="_CFED8F6F-B64D-4DC9-9372-2DE659870C47frame19" oryx:anchors="top left" style="opacity:1;fill:#F0EFF0;" stroke="#000000" d="M8.043,7.083c0,0,2.814-2.426,5.376-1.807s4.624-0.693,4.624-0.693    c0.25,1.688,0.042,3.75-1.458,5.584c0,0,1.083,0.75,1.083,1.5s0.125,1.875-1,3s-5.5,1.25-6.75,0S8.668,12.834,8.668,12    s0.583-1.25,1.25-1.917C8.835,9.5,7.419,7.708,8.043,7.083z"/> 	</g> 	 	<g id="_CFED8F6F-B64D-4DC9-9372-2DE659870C47serviceTask" transform="scale(0.7,0.7) translate(8,8)" display="none"> 		<polygon oryx:anchors="top left" id="_CFED8F6F-B64D-4DC9-9372-2DE659870C47frame20" style="opacity:1;fill:#ffffff" stroke="#000000" points="15.392,5.064 17.954,2.502 20.347,4.895 17.786,7.455     18.729,9.732 22.353,9.732 22.353,13.115 18.731,13.115 17.788,15.392 20.351,17.955 17.958,20.347 15.397,17.786 13.12,18.729     13.12,22.353 9.737,22.353 9.737,18.731 7.46,17.788 4.897,20.35 2.506,17.958 5.066,15.397 4.124,13.12 0.5,13.12 0.5,9.737     4.121,9.737 5.065,7.461 2.503,4.898 4.895,2.506 7.455,5.066 9.732,4.125 9.732,0.5 13.116,0.5 13.116,4.121 "/> 		<circle oryx:anchors="top left" id="_CFED8F6F-B64D-4DC9-9372-2DE659870C47frame21" style="opacity:1;fill:none" stroke="#000000" cx="11.427" cy="11.426" r="3.714"/> 		<polygon oryx:anchors="top left" id="_CFED8F6F-B64D-4DC9-9372-2DE659870C47frame22" style="opacity:1;fill:#ffffff" stroke="#000000" points="21.392,11.064 23.954,8.502 26.347,10.895 23.786,13.455     24.729,15.732 28.353,15.732 28.353,19.115 24.731,19.115 23.788,21.392 26.351,23.955 23.958,26.347 21.397,23.786 19.12,24.729     19.12,28.353 15.737,28.353 15.737,24.731 13.46,23.788 10.897,26.35 8.506,23.958 11.066,21.397 10.124,19.12 6.5,19.12     6.5,15.737 10.121,15.737 11.065,13.461 8.503,10.898 10.895,8.506 13.455,11.066 15.732,10.125 15.732,6.5 19.116,6.5     19.116,10.121 "/> 		<circle oryx:anchors="top left" id="_CFED8F6F-B64D-4DC9-9372-2DE659870C47frame23" style="opacity:1;fill:none;" stroke="#000000" cx="17.427" cy="17.426" r="3.714"/> 	</g> 	 	<g id="_CFED8F6F-B64D-4DC9-9372-2DE659870C47sendTask" display="none"> 		<path id="_CFED8F6F-B64D-4DC9-9372-2DE659870C47stframe24" oryx:anchors="left top" stroke="#FFFFFF" fill="black" stroke-width="1" d="M8,11 L8,21 L24,21 L24,11 L16,17z"/> 		<path id="_CFED8F6F-B64D-4DC9-9372-2DE659870C47stframe25" oryx:anchors="left top" stroke="#FFFFFF" fill="black" stroke-width="1" d="M7,10 L16,17 L25 10z"/> 	</g> 	 	<g id="_CFED8F6F-B64D-4DC9-9372-2DE659870C47receiveTask" display="none"> 		<path id="_CFED8F6F-B64D-4DC9-9372-2DE659870C47frame26" oryx:anchors="left top" stroke="#000000" fill="none" stroke-width="1" d="M8,11 L8,21 L24,21 L24,11z M8,11 L16,17 L24,11"/> 	</g> 	 	<g id="_CFED8F6F-B64D-4DC9-9372-2DE659870C47none" display="none"/>  	<g id="_CFED8F6F-B64D-4DC9-9372-2DE659870C47sequential" display="none">         <path oryx:anchors="bottom" fill="none" stroke="#000000" stroke-width="2" d="M46,76h10M46,72h10 M46,68h10" id="_CFED8F6F-B64D-4DC9-9372-2DE659870C47__CFED8F6F-B64D-4DC9-9372-2DE659870C47_20"/>     </g>   </g></g><g class="children" style="overflow:hidden"/><g class="edge"/></g><g class="controls"><g class="dockers"/><g class="magnets" transform="translate(314, 260)"><g pointer-events="all" display="none" transform="translate(-7, 12)"><circle cx="8" cy="8" r="4" stroke="none" fill="red" fill-opacity="0.3"/></g><g pointer-events="all" display="none" transform="translate(-7, 32)"><circle cx="8" cy="8" r="4" stroke="none" fill="red" fill-opacity="0.3"/></g><g pointer-events="all" display="none" transform="translate(-7, 52)"><circle cx="8" cy="8" r="4" stroke="none" fill="red" fill-opacity="0.3"/></g><g pointer-events="all" display="none" transform="translate(17, 71)"><circle cx="8" cy="8" r="4" stroke="none" fill="red" fill-opacity="0.3"/></g><g pointer-events="all" display="none" transform="translate(42, 71)"><circle cx="8" cy="8" r="4" stroke="none" fill="red" fill-opacity="0.3"/></g><g pointer-events="all" display="none" transform="translate(67, 71)"><circle cx="8" cy="8" r="4" stroke="none" fill="red" fill-opacity="0.3"/></g><g pointer-events="all" display="none" transform="translate(91, 12)"><circle cx="8" cy="8" r="4" stroke="none" fill="red" fill-opacity="0.3"/></g><g pointer-events="all" display="none" transform="translate(91, 32)"><circle cx="8" cy="8" r="4" stroke="none" fill="red" fill-opacity="0.3"/></g><g pointer-events="all" display="none" transform="translate(91, 52)"><circle cx="8" cy="8" r="4" stroke="none" fill="red" fill-opacity="0.3"/></g><g pointer-events="all" display="none" transform="translate(17, -7)"><circle cx="8" cy="8" r="4" stroke="none" fill="red" fill-opacity="0.3"/></g><g pointer-events="all" display="none" transform="translate(42, -7)"><circle cx="8" cy="8" r="4" stroke="none" fill="red" fill-opacity="0.3"/></g><g pointer-events="all" display="none" transform="translate(67, -7)"><circle cx="8" cy="8" r="4" stroke="none" fill="red" fill-opacity="0.3"/></g><g pointer-events="all" display="none" transform="translate(42, 32)"><circle cx="8" cy="8" r="4" stroke="none" fill="red" fill-opacity="0.3"/></g></g></g></g><g id="_BBF357B8-5DD1-4BD6-97F4-0D5F9627FCE2" bpmn2nodeid="_6A27C0FB-0614-49BF-A440-1C303C735B69"><g class="stencils" transform="translate(435, 260)"><g class="me"><g pointer-events="fill" oryx:minimumSize="50 40" id="_BBF357B8-5DD1-4BD6-97F4-0D5F9627FCE2">   	<defs id="_BBF357B8-5DD1-4BD6-97F4-0D5F9627FCE2__BBF357B8-5DD1-4BD6-97F4-0D5F9627FCE2_17"> 		<radialGradient id="_BBF357B8-5DD1-4BD6-97F4-0D5F9627FCE2background" cx="10%" cy="10%" r="100%" fx="10%" fy="10%"> 			<stop offset="0%" stop-color="#ffffff" stop-opacity="1" id="_BBF357B8-5DD1-4BD6-97F4-0D5F9627FCE2__BBF357B8-5DD1-4BD6-97F4-0D5F9627FCE2_18"/> 			<stop id="_BBF357B8-5DD1-4BD6-97F4-0D5F9627FCE2fill_el" offset="100%" stop-color="#fafad2" stop-opacity="1"/> 		</radialGradient> 		<radialGradient id="_BBF357B8-5DD1-4BD6-97F4-0D5F9627FCE2borderbackground" cx="10%" cy="10%" r="100%" fx="10%" fy="10%"> 			<stop offset="0%" stop-color="#ffffff" stop-opacity="1" id="_BBF357B8-5DD1-4BD6-97F4-0D5F9627FCE2__BBF357B8-5DD1-4BD6-97F4-0D5F9627FCE2_19"/> 			<stop id="_BBF357B8-5DD1-4BD6-97F4-0D5F9627FCE2fill_border" offset="100%" stop-color="#000000" stop-opacity="1" stroke="#000000"/> 		</radialGradient> 	</defs> 	 	<rect id="_BBF357B8-5DD1-4BD6-97F4-0D5F9627FCE2text_frame" oryx:anchors="bottom top right left" x="1" y="1" width="94" height="79" rx="10" ry="10" stroke="none" stroke-width="0" fill="none"/> 	<rect id="_BBF357B8-5DD1-4BD6-97F4-0D5F9627FCE2bg_frame" oryx:resize="vertical horizontal" x="0" y="0" width="100" height="80" rx="10" ry="10" stroke="#000000" stroke-width="1" fill="url(#_BBF357B8-5DD1-4BD6-97F4-0D5F9627FCE2background) #ffffcc"/> 		<text font-size="12" id="_BBF357B8-5DD1-4BD6-97F4-0D5F9627FCE2text_name" x="50" y="40" oryx:align="middle center" oryx:fittoelem="text_frame" stroke="black" text-anchor="middle" stroke-width="0pt" letter-spacing="-0.01px" fill="#000000" transform="rotate(0 50 40)" visibility="inherit" oryx:fontSize="12"><tspan x="50" y="40" dy="5">Init</tspan></text>     <g id="_BBF357B8-5DD1-4BD6-97F4-0D5F9627FCE2manualTask" transform="scale(0.7,0.7) translate(8,8)" display="none">     	<path oryx:anchors="top left" id="_BBF357B8-5DD1-4BD6-97F4-0D5F9627FCE2frame" style="opacity:1;fill:none;fill-opacity:1;stroke-width:1" d="M0.5,3.751l4.083-3.25c0,0,11.166,0.083,12.083,0.083s-2.417,2.917-1.5,2.917     s11.667,0,12.584,0c1.166,1.708-0.168,3.167-0.834,3.667s0.875,1.917-1,4.417c-0.75,0.25,0.75,1.875-1.333,3.333     c-1.167,0.583,0.583,1.542-1.25,2.833c-1.167,0-20.833,0.083-20.833,0.083l-2-1.333V3.751z" stroke="#000000"/> 		<path id="_BBF357B8-5DD1-4BD6-97F4-0D5F9627FCE2frame2" oryx:anchors="top left" style="opacity:1;fill:none;stroke-width:2" d="M 13.5 7 L 27 7" stroke="#000000"/> 		<path id="_BBF357B8-5DD1-4BD6-97F4-0D5F9627FCE2frame3" oryx:anchors="top left" style="opacity:1;fill:none;stroke-width:2" d="M 13.5 11 L 26 11" stroke="#000000"/> 		<path id="_BBF357B8-5DD1-4BD6-97F4-0D5F9627FCE2frame4" oryx:anchors="top left" style="opacity:1;fill:none;stroke-width:1.5" d="M 14 14.5 L 25 14.5" stroke="#000000"/> 		<path id="_BBF357B8-5DD1-4BD6-97F4-0D5F9627FCE2frame5" oryx:anchors="top left" style="opacity:1;fill:none;stroke-width:1.5" d="M 8.2 3.1 L 15 3.1" stroke="#000000"/> 	</g> 	 	<g id="_BBF357B8-5DD1-4BD6-97F4-0D5F9627FCE2businessRuleTask" transform="scale(0.7,0.7) translate(8,8)" display="none"> 		<rect id="_BBF357B8-5DD1-4BD6-97F4-0D5F9627FCE2frame6" oryx:anchors="top left" x="0" y="0" width="22" height="4" style="opacity:1;fill:#B3B1B3;fill-opacity:1;" stroke="#000000"/> 		<rect id="_BBF357B8-5DD1-4BD6-97F4-0D5F9627FCE2frame7" oryx:anchors="top left" x="0" y="4" style="opacity:1;fill:none;" width="22" height="12" stroke="#000000"/> 		<path id="_BBF357B8-5DD1-4BD6-97F4-0D5F9627FCE2frame8" oryx:anchors="top left" style="opacity:1;fill:none;" d="M 0 10 L 22 10" stroke="#000000"/> 		<path id="_BBF357B8-5DD1-4BD6-97F4-0D5F9627FCE2frame9" oryx:anchors="top left" style="opacity:1; fill:none;" d="M 7 4 L 7 16" stroke="#000000"/> 	</g> 	 	<g id="_BBF357B8-5DD1-4BD6-97F4-0D5F9627FCE2scriptTask" transform="scale(0.7,0.7) translate(8,8)" display="none"> 		<path oryx:anchors="top left" id="_BBF357B8-5DD1-4BD6-97F4-0D5F9627FCE2frame10" style="opacity:1;fill:none;" stroke="#000000" d="M6.402,0.5h14.5c0,0-5.833,2.833-5.833,5.583s4.417,6,4.417,9.167    s-4.167,5.083-4.167,5.083H0.235c0,0,5-2.667,5-5s-4.583-6.75-4.583-9.25S6.402,0.5,6.402,0.5z"/> 		<path oryx:anchors="top left" id="_BBF357B8-5DD1-4BD6-97F4-0D5F9627FCE2frame11" style="opacity:1;fill:none;stroke-width:1.5" d="M 3.5 4.5 L 13.5 4.5" stroke="#000000"/> 		<path oryx:anchors="top left" id="_BBF357B8-5DD1-4BD6-97F4-0D5F9627FCE2frame12" style="opacity:1;fill:none;stroke-width:1.5" d="M 3.8 8.5 L 13.8 8.5" stroke="#000000"/> 		<path oryx:anchors="top left" id="_BBF357B8-5DD1-4BD6-97F4-0D5F9627FCE2frame13" style="opacity:1;fill:none;stroke-width:1.5" d="M 6.3 12.5 L 16.3 12.5" stroke="#000000"/> 		<path oryx:anchors="top left" id="_BBF357B8-5DD1-4BD6-97F4-0D5F9627FCE2frame14" style="opacity:1;fill:none;stroke-width:1.5" d="M 6.5 16.5 L 16.5 16.5" stroke="#000000"/> 	</g> 	 	<g id="_BBF357B8-5DD1-4BD6-97F4-0D5F9627FCE2userTask" transform="scale(0.7,0.7) translate(8,8)" display="none"> 		<path id="_BBF357B8-5DD1-4BD6-97F4-0D5F9627FCE2frame15" oryx:anchors="top left" style="opacity:1;fill:#F4F6F7" stroke="#000000" d="M0.585,24.167h24.083v-7.833c0,0-2.333-3.917-7.083-5.167h-9.25    c-4.417,1.333-7.833,5.75-7.833,5.75L0.585,24.167z"/> 		<path id="_BBF357B8-5DD1-4BD6-97F4-0D5F9627FCE2frame16" oryx:anchors="top left" style="opacity:1;fill:none" d="M 6 20 L 6 24" stroke="#000000"/> 		<path id="_BBF357B8-5DD1-4BD6-97F4-0D5F9627FCE2frame17" oryx:anchors="top left" style="opacity:1;fill:none" d="M 20 20 L 20 24" stroke="#000000"/> 		<circle id="_BBF357B8-5DD1-4BD6-97F4-0D5F9627FCE2frame18" oryx:anchors="top left" fill="black" cx="13.002" cy="5.916" r="5.417" stroke="#000000"/> 		<path id="_BBF357B8-5DD1-4BD6-97F4-0D5F9627FCE2frame19" oryx:anchors="top left" style="opacity:1;fill:#F0EFF0;" stroke="#000000" d="M8.043,7.083c0,0,2.814-2.426,5.376-1.807s4.624-0.693,4.624-0.693    c0.25,1.688,0.042,3.75-1.458,5.584c0,0,1.083,0.75,1.083,1.5s0.125,1.875-1,3s-5.5,1.25-6.75,0S8.668,12.834,8.668,12    s0.583-1.25,1.25-1.917C8.835,9.5,7.419,7.708,8.043,7.083z"/> 	</g> 	 	<g id="_BBF357B8-5DD1-4BD6-97F4-0D5F9627FCE2serviceTask" transform="scale(0.7,0.7) translate(8,8)" display="none"> 		<polygon oryx:anchors="top left" id="_BBF357B8-5DD1-4BD6-97F4-0D5F9627FCE2frame20" style="opacity:1;fill:#ffffff" stroke="#000000" points="15.392,5.064 17.954,2.502 20.347,4.895 17.786,7.455     18.729,9.732 22.353,9.732 22.353,13.115 18.731,13.115 17.788,15.392 20.351,17.955 17.958,20.347 15.397,17.786 13.12,18.729     13.12,22.353 9.737,22.353 9.737,18.731 7.46,17.788 4.897,20.35 2.506,17.958 5.066,15.397 4.124,13.12 0.5,13.12 0.5,9.737     4.121,9.737 5.065,7.461 2.503,4.898 4.895,2.506 7.455,5.066 9.732,4.125 9.732,0.5 13.116,0.5 13.116,4.121 "/> 		<circle oryx:anchors="top left" id="_BBF357B8-5DD1-4BD6-97F4-0D5F9627FCE2frame21" style="opacity:1;fill:none" stroke="#000000" cx="11.427" cy="11.426" r="3.714"/> 		<polygon oryx:anchors="top left" id="_BBF357B8-5DD1-4BD6-97F4-0D5F9627FCE2frame22" style="opacity:1;fill:#ffffff" stroke="#000000" points="21.392,11.064 23.954,8.502 26.347,10.895 23.786,13.455     24.729,15.732 28.353,15.732 28.353,19.115 24.731,19.115 23.788,21.392 26.351,23.955 23.958,26.347 21.397,23.786 19.12,24.729     19.12,28.353 15.737,28.353 15.737,24.731 13.46,23.788 10.897,26.35 8.506,23.958 11.066,21.397 10.124,19.12 6.5,19.12     6.5,15.737 10.121,15.737 11.065,13.461 8.503,10.898 10.895,8.506 13.455,11.066 15.732,10.125 15.732,6.5 19.116,6.5     19.116,10.121 "/> 		<circle oryx:anchors="top left" id="_BBF357B8-5DD1-4BD6-97F4-0D5F9627FCE2frame23" style="opacity:1;fill:none;" stroke="#000000" cx="17.427" cy="17.426" r="3.714"/> 	</g> 	 	<g id="_BBF357B8-5DD1-4BD6-97F4-0D5F9627FCE2sendTask" display="none"> 		<path id="_BBF357B8-5DD1-4BD6-97F4-0D5F9627FCE2stframe24" oryx:anchors="left top" stroke="#FFFFFF" fill="black" stroke-width="1" d="M8,11 L8,21 L24,21 L24,11 L16,17z"/> 		<path id="_BBF357B8-5DD1-4BD6-97F4-0D5F9627FCE2stframe25" oryx:anchors="left top" stroke="#FFFFFF" fill="black" stroke-width="1" d="M7,10 L16,17 L25 10z"/> 	</g> 	 	<g id="_BBF357B8-5DD1-4BD6-97F4-0D5F9627FCE2receiveTask" display="none"> 		<path id="_BBF357B8-5DD1-4BD6-97F4-0D5F9627FCE2frame26" oryx:anchors="left top" stroke="#000000" fill="none" stroke-width="1" d="M8,11 L8,21 L24,21 L24,11z M8,11 L16,17 L24,11"/> 	</g> 	 	<g id="_BBF357B8-5DD1-4BD6-97F4-0D5F9627FCE2none" display="inherit"/>  	<g id="_BBF357B8-5DD1-4BD6-97F4-0D5F9627FCE2sequential" display="none">         <path oryx:anchors="bottom" fill="none" stroke="#000000" stroke-width="2" d="M46,76h10M46,72h10 M46,68h10" id="_BBF357B8-5DD1-4BD6-97F4-0D5F9627FCE2__BBF357B8-5DD1-4BD6-97F4-0D5F9627FCE2_20"/>     </g>   </g></g><g class="children" style="overflow:hidden"/><g class="edge"/></g><g class="controls"><g class="dockers"/><g class="magnets" transform="translate(435, 260)"><g pointer-events="all" display="none" transform="translate(-7, 12)"><circle cx="8" cy="8" r="4" stroke="none" fill="red" fill-opacity="0.3"/></g><g pointer-events="all" display="none" transform="translate(-7, 32)"><circle cx="8" cy="8" r="4" stroke="none" fill="red" fill-opacity="0.3"/></g><g pointer-events="all" display="none" transform="translate(-7, 52)"><circle cx="8" cy="8" r="4" stroke="none" fill="red" fill-opacity="0.3"/></g><g pointer-events="all" display="none" transform="translate(17, 71)"><circle cx="8" cy="8" r="4" stroke="none" fill="red" fill-opacity="0.3"/></g><g pointer-events="all" display="none" transform="translate(42, 71)"><circle cx="8" cy="8" r="4" stroke="none" fill="red" fill-opacity="0.3"/></g><g pointer-events="all" display="none" transform="translate(67, 71)"><circle cx="8" cy="8" r="4" stroke="none" fill="red" fill-opacity="0.3"/></g><g pointer-events="all" display="none" transform="translate(91, 12)"><circle cx="8" cy="8" r="4" stroke="none" fill="red" fill-opacity="0.3"/></g><g pointer-events="all" display="none" transform="translate(91, 32)"><circle cx="8" cy="8" r="4" stroke="none" fill="red" fill-opacity="0.3"/></g><g pointer-events="all" display="none" transform="translate(91, 52)"><circle cx="8" cy="8" r="4" stroke="none" fill="red" fill-opacity="0.3"/></g><g pointer-events="all" display="none" transform="translate(17, -7)"><circle cx="8" cy="8" r="4" stroke="none" fill="red" fill-opacity="0.3"/></g><g pointer-events="all" display="none" transform="translate(42, -7)"><circle cx="8" cy="8" r="4" stroke="none" fill="red" fill-opacity="0.3"/></g><g pointer-events="all" display="none" transform="translate(67, -7)"><circle cx="8" cy="8" r="4" stroke="none" fill="red" fill-opacity="0.3"/></g><g pointer-events="all" display="none" transform="translate(42, 32)"><circle cx="8" cy="8" r="4" stroke="none" fill="red" fill-opacity="0.3"/></g></g></g></g><g id="_8EEF6C2E-42F1-429E-95C1-A3F74FE3D0E4" bpmn2nodeid="_01353123-5FF0-4773-A0DC-C72764363EB6"><g class="stencils" transform="translate(626, 286)"><g class="me"><g pointer-events="fill" id="_8EEF6C2E-42F1-429E-95C1-A3F74FE3D0E4">      <defs id="_8EEF6C2E-42F1-429E-95C1-A3F74FE3D0E4__8EEF6C2E-42F1-429E-95C1-A3F74FE3D0E4_5"> 		<radialGradient id="_8EEF6C2E-42F1-429E-95C1-A3F74FE3D0E4background" cx="10%" cy="10%" r="100%" fx="10%" fy="10%"> 			<stop offset="0%" stop-color="#ffffff" stop-opacity="1" id="_8EEF6C2E-42F1-429E-95C1-A3F74FE3D0E4__8EEF6C2E-42F1-429E-95C1-A3F74FE3D0E4_6"/> 			<stop id="_8EEF6C2E-42F1-429E-95C1-A3F74FE3D0E4fill_el" offset="100%" stop-color="#ff6347" stop-opacity="1"/> 		</radialGradient> 	</defs> 	     <circle id="_8EEF6C2E-42F1-429E-95C1-A3F74FE3D0E4bg_frame" cx="14" cy="14" r="14" stroke="#000000" fill="url(#_8EEF6C2E-42F1-429E-95C1-A3F74FE3D0E4background) white" stroke-width="3"/> 	<text font-size="11" id="_8EEF6C2E-42F1-429E-95C1-A3F74FE3D0E4text_name" x="14" y="30" oryx:align="top center" stroke="black" stroke-width="0pt" letter-spacing="-0.01px" fill="#000000" text-anchor="middle" transform="rotate(0 14 30)" visibility="inherit" oryx:fontSize="11"/>   </g></g><g class="children" style="overflow:hidden"/><g class="edge"/></g><g class="controls"><g class="dockers"/><g class="magnets" transform="translate(626, 286)"><g pointer-events="all" display="none" transform="translate(6, 6)"><circle cx="8" cy="8" r="4" stroke="none" fill="red" fill-opacity="0.3"/></g></g></g></g></g><g class="edge"><g id="_3E8A44B9-8385-489B-BA45-CACF985A244B" bpmn2nodeid="_C81F9B39-145C-411E-8E08-49D36F30744D"><g class="stencils"><g class="me"><g pointer-events="painted" bpmn2nodeid="_C81F9B39-145C-411E-8E08-49D36F30744D"><path id="_3E8A44B9-8385-489B-BA45-CACF985A244B_1" d="M90.8125 300L182.625 300 " stroke="#000000" fill="none" stroke-width="2" stroke-linecap="round" stroke-linejoin="round" marker-start="url(#_3E8A44B9-8385-489B-BA45-CACF985A244Bstart)" marker-end="url(#_3E8A44B9-8385-489B-BA45-CACF985A244Bend)"/></g><text id="_3E8A44B9-8385-489B-BA45-CACF985A244Btext_name" font-size="12" x="104.8125" y="286" oryx:edgePosition="startTop" stroke-width="0pt" letter-spacing="-0.01px" fill="#000000" text-anchor="start" transform="rotate(360 90.8125 300)" visibility="inherit" oryx:fontSize="12"/></g><g class="children" style="overflow:hidden"/><g class="edge"/></g><g class="controls"><g class="dockers"/><g class="magnets"/></g></g><g id="_2010E76C-B179-4364-92D3-DC54E618F685" bpmn2nodeid="_E7E3481B-2AA0-4A50-A94B-D6FEE9B547F5"><g class="stencils"><g class="me"><g pointer-events="painted" bpmn2nodeid="_E7E3481B-2AA0-4A50-A94B-D6FEE9B547F5"><path id="_2010E76C-B179-4364-92D3-DC54E618F685_1" d="M283.125 300L313.875 300 " stroke="#000000" fill="none" stroke-width="2" stroke-linecap="round" stroke-linejoin="round" marker-start="url(#_2010E76C-B179-4364-92D3-DC54E618F685start)" marker-end="url(#_2010E76C-B179-4364-92D3-DC54E618F685end)"/></g><text id="_2010E76C-B179-4364-92D3-DC54E618F685text_name" font-size="12" x="297.125" y="286" oryx:edgePosition="startTop" stroke-width="0pt" letter-spacing="-0.01px" fill="#000000" text-anchor="start" transform="rotate(360 283.125 300)" visibility="inherit" oryx:fontSize="12"/></g><g class="children" style="overflow:hidden"/><g class="edge"/></g><g class="controls"><g class="dockers"/><g class="magnets"/></g></g><g id="_BF1AAACC-AF9F-4F6A-B5EF-D219DEEC6657" bpmn2nodeid="_B0A5A93A-DEEC-4C0C-B42B-BE5977E189A3"><g class="stencils"><g class="me"><g pointer-events="painted" bpmn2nodeid="_B0A5A93A-DEEC-4C0C-B42B-BE5977E189A3"><path id="_BF1AAACC-AF9F-4F6A-B5EF-D219DEEC6657_1" d="M414.15625 300L434.84375 300 " stroke="#000000" fill="none" stroke-width="2" stroke-linecap="round" stroke-linejoin="round" marker-start="url(#_BF1AAACC-AF9F-4F6A-B5EF-D219DEEC6657start)" marker-end="url(#_BF1AAACC-AF9F-4F6A-B5EF-D219DEEC6657end)"/></g><text id="_BF1AAACC-AF9F-4F6A-B5EF-D219DEEC6657text_name" font-size="12" x="428.15625" y="286" oryx:edgePosition="startTop" stroke-width="0pt" letter-spacing="-0.01px" fill="#000000" text-anchor="start" transform="rotate(360 414.15625 300)" visibility="inherit" oryx:fontSize="12"/></g><g class="children" style="overflow:hidden"/><g class="edge"/></g><g class="controls"><g class="dockers"/><g class="magnets"/></g></g><g id="_0163A653-B215-4604-84FB-6B3CB058A22D" bpmn2nodeid="_B123E373-EE55-44CE-8A74-0B6EC341DB18"><g class="stencils"><g class="me"><g pointer-events="painted" bpmn2nodeid="_B123E373-EE55-44CE-8A74-0B6EC341DB18"><path id="_0163A653-B215-4604-84FB-6B3CB058A22D_1" d="M535.6484375 300L625.6796875 300 " stroke="#000000" fill="none" stroke-width="2" stroke-linecap="round" stroke-linejoin="round" marker-start="url(#_0163A653-B215-4604-84FB-6B3CB058A22Dstart)" marker-end="url(#_0163A653-B215-4604-84FB-6B3CB058A22Dend)"/></g><text id="_0163A653-B215-4604-84FB-6B3CB058A22Dtext_name" font-size="12" x="549.6484375" y="286" oryx:edgePosition="startTop" stroke-width="0pt" letter-spacing="-0.01px" fill="#000000" text-anchor="start" transform="rotate(360 535.6484375 300)" visibility="inherit" oryx:fontSize="12"/></g><g class="children" style="overflow:hidden"/><g class="edge"/></g><g class="controls"><g class="dockers"/><g class="magnets"/></g></g></g><text id="_5E025F18-B1E4-48FC-B792-B284E57E11F4" style="stroke-width:1;fill:rgb(177,194,214);font-family:arial;font-weight:bold" font-size="12" onclick="ORYX.Plugins.CanvasTitle.openTextualAnalysis()" onmouseover="ORYX.Plugins.CanvasTitle.addToolTip('_5E025F18-B1E4-48FC-B792-B284E57E11F4')" transform="translate(10, 20)">P1111 v.1.0 (src.P1111)</text></g></g></svg>