<svg xmlns="http://www.w3.org/2000/svg" xmlns:oryx="http://oryx-editor.org" id="_190BAD61-945A-47ED-BC29-48FD6CE9C927" width="630" height="397.5" xmlns:xlink="http://www.w3.org/1999/xlink" xmlns:svg="http://www.w3.org/2000/svg"><defs><marker id="_DA06DE72-F42D-4391-B94D-F44B9BA56E60start" refX="1" refY="5" markerUnits="userSpaceOnUse" markerWidth="17" markerHeight="11" orient="auto" fill="#000000" stroke="#000000"> 	  		<path id="_DA06DE72-F42D-4391-B94D-F44B9BA56E60conditional" d="M 0 5 L 8 0 L 16 5 L 8 10 L 0 5" fill="white" stroke="#000000" stroke-width="1" display="none"/> 			<path id="_DA06DE72-F42D-4391-B94D-F44B9BA56E60default" d="M 5 0 L 11 10" fill="white" stroke="#000000" stroke-width="1" display="none"/> 	  	</marker><marker id="_DA06DE72-F42D-4391-B94D-F44B9BA56E60end" refX="15" refY="6" markerUnits="userSpaceOnUse" markerWidth="15" markerHeight="12" orient="auto" fill="#000000" stroke="#000000"> 	  		<path id="_DA06DE72-F42D-4391-B94D-F44B9BA56E60frame2" d="M 0 1 L 15 6 L 0 11z" fill="#000000" stroke="#000000" stroke-linejoin="round" stroke-width="2"/> 	  	</marker><marker id="_D834A9E8-0F5D-4B13-98CC-5099582C35ADstart" refX="1" refY="5" markerUnits="userSpaceOnUse" markerWidth="17" markerHeight="11" orient="auto" fill="#000000" stroke="#000000"> 	  		<path id="_D834A9E8-0F5D-4B13-98CC-5099582C35ADconditional" d="M 0 5 L 8 0 L 16 5 L 8 10 L 0 5" fill="white" stroke="#000000" stroke-width="1" display="none"/> 			<path id="_D834A9E8-0F5D-4B13-98CC-5099582C35ADdefault" d="M 5 0 L 11 10" fill="white" stroke="#000000" stroke-width="1" display="none"/> 	  	</marker><marker id="_D834A9E8-0F5D-4B13-98CC-5099582C35ADend" refX="15" refY="6" markerUnits="userSpaceOnUse" markerWidth="15" markerHeight="12" orient="auto" fill="#000000" stroke="#000000"> 	  		<path id="_D834A9E8-0F5D-4B13-98CC-5099582C35ADframe2" d="M 0 1 L 15 6 L 0 11z" fill="#000000" stroke="#000000" stroke-linejoin="round" stroke-width="2"/> 	  	</marker><marker id="_908A6852-AA1B-4356-950E-4AD5DDBEB221start" refX="1" refY="5" markerUnits="userSpaceOnUse" markerWidth="17" markerHeight="11" orient="auto" fill="#000000" stroke="#000000"> 	  		<path id="_908A6852-AA1B-4356-950E-4AD5DDBEB221conditional" d="M 0 5 L 8 0 L 16 5 L 8 10 L 0 5" fill="white" stroke="#000000" stroke-width="1" display="none"/> 			<path id="_908A6852-AA1B-4356-950E-4AD5DDBEB221default" d="M 5 0 L 11 10" fill="white" stroke="#000000" stroke-width="1" display="none"/> 	  	</marker><marker id="_908A6852-AA1B-4356-950E-4AD5DDBEB221end" refX="15" refY="6" markerUnits="userSpaceOnUse" markerWidth="15" markerHeight="12" orient="auto" fill="#000000" stroke="#000000"> 	  		<path id="_908A6852-AA1B-4356-950E-4AD5DDBEB221frame2" d="M 0 1 L 15 6 L 0 11z" fill="#000000" stroke="#000000" stroke-linejoin="round" stroke-width="2"/> 	  	</marker></defs><g stroke="none" font-family="Verdana, sans-serif" font-size-adjust="none" font-style="normal" font-variant="normal" font-weight="normal" line-heigth="normal" font-size="12"><g class="stencils" transform="translate(15, 16)"><g class="me"/><g class="children"><g id="_844A870C-08A6-4A12-9824-6180ADFDC71A" bpmn2nodeid="processStartEvent"><g class="stencils" transform="translate(45, 285)"><g class="me"><g pointer-events="fill" id="_844A870C-08A6-4A12-9824-6180ADFDC71A">        <defs id="_844A870C-08A6-4A12-9824-6180ADFDC71A__844A870C-08A6-4A12-9824-6180ADFDC71A_5"> 		<radialGradient id="_844A870C-08A6-4A12-9824-6180ADFDC71Abackground" cx="10%" cy="10%" r="100%" fx="10%" fy="10%"> 			<stop offset="0%" stop-color="#ffffff" stop-opacity="1" id="_844A870C-08A6-4A12-9824-6180ADFDC71A__844A870C-08A6-4A12-9824-6180ADFDC71A_6"/> 			<stop id="_844A870C-08A6-4A12-9824-6180ADFDC71Afill_el" offset="100%" stop-color="#9acd32" stop-opacity="1"/> 		</radialGradient> 	</defs> 	     <circle id="_844A870C-08A6-4A12-9824-6180ADFDC71Abg_frame" cx="15" cy="15" r="15" stroke="#000000" fill="url(#_844A870C-08A6-4A12-9824-6180ADFDC71Abackground) white" stroke-width="1" style="stroke-dasharray: 5.5, 3"/>      <circle id="_844A870C-08A6-4A12-9824-6180ADFDC71Aframe" cx="15" cy="15" r="15" stroke="#000000" fill="none" stroke-width="1" display="inherit"/>  	<text font-size="11" id="_844A870C-08A6-4A12-9824-6180ADFDC71Atext_name" x="15" y="32" oryx:align="top center" stroke="black" stroke-width="0pt" letter-spacing="-0.01px" fill="#000000" text-anchor="middle" transform="rotate(0 15 32)" visibility="inherit" oryx:fontSize="11"/>   </g></g><g class="children" style="overflow:hidden"/><g class="edge"/></g><g class="controls"><g class="dockers"/><g class="magnets" transform="translate(45, 285)"><g pointer-events="all" display="none" transform="translate(7, 7)"><circle cx="8" cy="8" r="4" stroke="none" fill="red" fill-opacity="0.3"/></g></g></g></g><g id="_C4ED865B-8588-49C5-AAA7-F8B6954E134D" bpmn2nodeid="_2D2647F3-2BF3-4793-A6CC-15DD723CDA5B"><g class="stencils" transform="translate(165, 255)"><g class="me"><g pointer-events="fill" oryx:minimumSize="50 40" id="_C4ED865B-8588-49C5-AAA7-F8B6954E134D">   	<defs id="_C4ED865B-8588-49C5-AAA7-F8B6954E134D__C4ED865B-8588-49C5-AAA7-F8B6954E134D_17"> 		<radialGradient id="_C4ED865B-8588-49C5-AAA7-F8B6954E134Dbackground" cx="10%" cy="10%" r="100%" fx="10%" fy="10%"> 			<stop offset="0%" stop-color="#ffffff" stop-opacity="1" id="_C4ED865B-8588-49C5-AAA7-F8B6954E134D__C4ED865B-8588-49C5-AAA7-F8B6954E134D_18"/> 			<stop id="_C4ED865B-8588-49C5-AAA7-F8B6954E134Dfill_el" offset="100%" stop-color="#fafad2" stop-opacity="1"/> 		</radialGradient> 		<radialGradient id="_C4ED865B-8588-49C5-AAA7-F8B6954E134Dborderbackground" cx="10%" cy="10%" r="100%" fx="10%" fy="10%"> 			<stop offset="0%" stop-color="#ffffff" stop-opacity="1" id="_C4ED865B-8588-49C5-AAA7-F8B6954E134D__C4ED865B-8588-49C5-AAA7-F8B6954E134D_19"/> 			<stop id="_C4ED865B-8588-49C5-AAA7-F8B6954E134Dfill_border" offset="100%" stop-color="#000000" stop-opacity="1" stroke="#000000"/> 		</radialGradient> 	</defs> 	 	<rect id="_C4ED865B-8588-49C5-AAA7-F8B6954E134Dtext_frame" oryx:anchors="bottom top right left" x="1" y="1" width="94" height="79" rx="10" ry="10" stroke="none" stroke-width="0" fill="none"/> 	<rect id="_C4ED865B-8588-49C5-AAA7-F8B6954E134Dbg_frame" oryx:resize="vertical horizontal" x="0" y="0" width="100" height="80" rx="10" ry="10" stroke="#000000" stroke-width="1" fill="url(#_C4ED865B-8588-49C5-AAA7-F8B6954E134Dbackground) #ffffcc"/> 		<text font-size="12" id="_C4ED865B-8588-49C5-AAA7-F8B6954E134Dtext_name" x="50" y="40" oryx:align="middle center" oryx:fittoelem="text_frame" stroke="black" text-anchor="middle" stroke-width="0pt" letter-spacing="-0.01px" fill="#000000" transform="rotate(0 50 40)" visibility="inherit" oryx:fontSize="12"><tspan x="50" y="40" dy="-25">P</tspan><tspan x="50" y="40" dy="-13" id="ext-gen1438">r</tspan><tspan x="50" y="40" dy="-1">o</tspan><tspan x="50" y="40" dy="11">m</tspan><tspan x="50" y="40" dy="23">o</tspan><tspan x="50" y="40" dy="35">t</tspan><tspan x="50" y="40" dy="47">i</tspan><tspan x="50" y="40" dy="59">on</tspan></text>     <g id="_C4ED865B-8588-49C5-AAA7-F8B6954E134DmanualTask" transform="scale(0.7,0.7) translate(8,8)" display="none">     	<path oryx:anchors="top left" id="_C4ED865B-8588-49C5-AAA7-F8B6954E134Dframe" style="opacity:1;fill:none;fill-opacity:1;stroke-width:1" d="M0.5,3.751l4.083-3.25c0,0,11.166,0.083,12.083,0.083s-2.417,2.917-1.5,2.917     s11.667,0,12.584,0c1.166,1.708-0.168,3.167-0.834,3.667s0.875,1.917-1,4.417c-0.75,0.25,0.75,1.875-1.333,3.333     c-1.167,0.583,0.583,1.542-1.25,2.833c-1.167,0-20.833,0.083-20.833,0.083l-2-1.333V3.751z" stroke="#000000"/> 		<path id="_C4ED865B-8588-49C5-AAA7-F8B6954E134Dframe2" oryx:anchors="top left" style="opacity:1;fill:none;stroke-width:2" d="M 13.5 7 L 27 7" stroke="#000000"/> 		<path id="_C4ED865B-8588-49C5-AAA7-F8B6954E134Dframe3" oryx:anchors="top left" style="opacity:1;fill:none;stroke-width:2" d="M 13.5 11 L 26 11" stroke="#000000"/> 		<path id="_C4ED865B-8588-49C5-AAA7-F8B6954E134Dframe4" oryx:anchors="top left" style="opacity:1;fill:none;stroke-width:1.5" d="M 14 14.5 L 25 14.5" stroke="#000000"/> 		<path id="_C4ED865B-8588-49C5-AAA7-F8B6954E134Dframe5" oryx:anchors="top left" style="opacity:1;fill:none;stroke-width:1.5" d="M 8.2 3.1 L 15 3.1" stroke="#000000"/> 	</g> 	 	<g id="_C4ED865B-8588-49C5-AAA7-F8B6954E134DbusinessRuleTask" transform="scale(0.7,0.7) translate(8,8)" display="inherit"> 		<rect id="_C4ED865B-8588-49C5-AAA7-F8B6954E134Dframe6" oryx:anchors="top left" x="0" y="0" width="22" height="4" style="opacity:1;fill:#B3B1B3;fill-opacity:1;" stroke="#000000"/> 		<rect id="_C4ED865B-8588-49C5-AAA7-F8B6954E134Dframe7" oryx:anchors="top left" x="0" y="4" style="opacity:1;fill:none;" width="22" height="12" stroke="#000000"/> 		<path id="_C4ED865B-8588-49C5-AAA7-F8B6954E134Dframe8" oryx:anchors="top left" style="opacity:1;fill:none;" d="M 0 10 L 22 10" stroke="#000000"/> 		<path id="_C4ED865B-8588-49C5-AAA7-F8B6954E134Dframe9" oryx:anchors="top left" style="opacity:1; fill:none;" d="M 7 4 L 7 16" stroke="#000000"/> 	</g> 	 	<g id="_C4ED865B-8588-49C5-AAA7-F8B6954E134DscriptTask" transform="scale(0.7,0.7) translate(8,8)" display="none"> 		<path oryx:anchors="top left" id="_C4ED865B-8588-49C5-AAA7-F8B6954E134Dframe10" style="opacity:1;fill:none;" stroke="#000000" d="M6.402,0.5h14.5c0,0-5.833,2.833-5.833,5.583s4.417,6,4.417,9.167    s-4.167,5.083-4.167,5.083H0.235c0,0,5-2.667,5-5s-4.583-6.75-4.583-9.25S6.402,0.5,6.402,0.5z"/> 		<path oryx:anchors="top left" id="_C4ED865B-8588-49C5-AAA7-F8B6954E134Dframe11" style="opacity:1;fill:none;stroke-width:1.5" d="M 3.5 4.5 L 13.5 4.5" stroke="#000000"/> 		<path oryx:anchors="top left" id="_C4ED865B-8588-49C5-AAA7-F8B6954E134Dframe12" style="opacity:1;fill:none;stroke-width:1.5" d="M 3.8 8.5 L 13.8 8.5" stroke="#000000"/> 		<path oryx:anchors="top left" id="_C4ED865B-8588-49C5-AAA7-F8B6954E134Dframe13" style="opacity:1;fill:none;stroke-width:1.5" d="M 6.3 12.5 L 16.3 12.5" stroke="#000000"/> 		<path oryx:anchors="top left" id="_C4ED865B-8588-49C5-AAA7-F8B6954E134Dframe14" style="opacity:1;fill:none;stroke-width:1.5" d="M 6.5 16.5 L 16.5 16.5" stroke="#000000"/> 	</g> 	 	<g id="_C4ED865B-8588-49C5-AAA7-F8B6954E134DuserTask" transform="scale(0.7,0.7) translate(8,8)" display="none"> 		<path id="_C4ED865B-8588-49C5-AAA7-F8B6954E134Dframe15" oryx:anchors="top left" style="opacity:1;fill:#F4F6F7" stroke="#000000" d="M0.585,24.167h24.083v-7.833c0,0-2.333-3.917-7.083-5.167h-9.25    c-4.417,1.333-7.833,5.75-7.833,5.75L0.585,24.167z"/> 		<path id="_C4ED865B-8588-49C5-AAA7-F8B6954E134Dframe16" oryx:anchors="top left" style="opacity:1;fill:none" d="M 6 20 L 6 24" stroke="#000000"/> 		<path id="_C4ED865B-8588-49C5-AAA7-F8B6954E134Dframe17" oryx:anchors="top left" style="opacity:1;fill:none" d="M 20 20 L 20 24" stroke="#000000"/> 		<circle id="_C4ED865B-8588-49C5-AAA7-F8B6954E134Dframe18" oryx:anchors="top left" fill="black" cx="13.002" cy="5.916" r="5.417" stroke="#000000"/> 		<path id="_C4ED865B-8588-49C5-AAA7-F8B6954E134Dframe19" oryx:anchors="top left" style="opacity:1;fill:#F0EFF0;" stroke="#000000" d="M8.043,7.083c0,0,2.814-2.426,5.376-1.807s4.624-0.693,4.624-0.693    c0.25,1.688,0.042,3.75-1.458,5.584c0,0,1.083,0.75,1.083,1.5s0.125,1.875-1,3s-5.5,1.25-6.75,0S8.668,12.834,8.668,12    s0.583-1.25,1.25-1.917C8.835,9.5,7.419,7.708,8.043,7.083z"/> 	</g> 	 	<g id="_C4ED865B-8588-49C5-AAA7-F8B6954E134DserviceTask" transform="scale(0.7,0.7) translate(8,8)" display="none"> 		<polygon oryx:anchors="top left" id="_C4ED865B-8588-49C5-AAA7-F8B6954E134Dframe20" style="opacity:1;fill:#ffffff" stroke="#000000" points="15.392,5.064 17.954,2.502 20.347,4.895 17.786,7.455     18.729,9.732 22.353,9.732 22.353,13.115 18.731,13.115 17.788,15.392 20.351,17.955 17.958,20.347 15.397,17.786 13.12,18.729     13.12,22.353 9.737,22.353 9.737,18.731 7.46,17.788 4.897,20.35 2.506,17.958 5.066,15.397 4.124,13.12 0.5,13.12 0.5,9.737     4.121,9.737 5.065,7.461 2.503,4.898 4.895,2.506 7.455,5.066 9.732,4.125 9.732,0.5 13.116,0.5 13.116,4.121 "/> 		<circle oryx:anchors="top left" id="_C4ED865B-8588-49C5-AAA7-F8B6954E134Dframe21" style="opacity:1;fill:none" stroke="#000000" cx="11.427" cy="11.426" r="3.714"/> 		<polygon oryx:anchors="top left" id="_C4ED865B-8588-49C5-AAA7-F8B6954E134Dframe22" style="opacity:1;fill:#ffffff" stroke="#000000" points="21.392,11.064 23.954,8.502 26.347,10.895 23.786,13.455     24.729,15.732 28.353,15.732 28.353,19.115 24.731,19.115 23.788,21.392 26.351,23.955 23.958,26.347 21.397,23.786 19.12,24.729     19.12,28.353 15.737,28.353 15.737,24.731 13.46,23.788 10.897,26.35 8.506,23.958 11.066,21.397 10.124,19.12 6.5,19.12     6.5,15.737 10.121,15.737 11.065,13.461 8.503,10.898 10.895,8.506 13.455,11.066 15.732,10.125 15.732,6.5 19.116,6.5     19.116,10.121 "/> 		<circle oryx:anchors="top left" id="_C4ED865B-8588-49C5-AAA7-F8B6954E134Dframe23" style="opacity:1;fill:none;" stroke="#000000" cx="17.427" cy="17.426" r="3.714"/> 	</g> 	 	<g id="_C4ED865B-8588-49C5-AAA7-F8B6954E134DsendTask" display="none"> 		<path id="_C4ED865B-8588-49C5-AAA7-F8B6954E134Dstframe24" oryx:anchors="left top" stroke="#FFFFFF" fill="black" stroke-width="1" d="M8,11 L8,21 L24,21 L24,11 L16,17z"/> 		<path id="_C4ED865B-8588-49C5-AAA7-F8B6954E134Dstframe25" oryx:anchors="left top" stroke="#FFFFFF" fill="black" stroke-width="1" d="M7,10 L16,17 L25 10z"/> 	</g> 	 	<g id="_C4ED865B-8588-49C5-AAA7-F8B6954E134DreceiveTask" display="none"> 		<path id="_C4ED865B-8588-49C5-AAA7-F8B6954E134Dframe26" oryx:anchors="left top" stroke="#000000" fill="none" stroke-width="1" d="M8,11 L8,21 L24,21 L24,11z M8,11 L16,17 L24,11"/> 	</g> 	 	<g id="_C4ED865B-8588-49C5-AAA7-F8B6954E134Dnone" display="inherit"/>  	<g id="_C4ED865B-8588-49C5-AAA7-F8B6954E134Dsequential" display="none">         <path oryx:anchors="bottom" fill="none" stroke="#000000" stroke-width="2" d="M46,76h10M46,72h10 M46,68h10" id="_C4ED865B-8588-49C5-AAA7-F8B6954E134D__C4ED865B-8588-49C5-AAA7-F8B6954E134D_20"/>     </g>   </g></g><g class="children" style="overflow:hidden"/><g class="edge"/></g><g class="controls"><g class="dockers"/><g class="magnets" transform="translate(165, 255)"><g pointer-events="all" display="none" transform="translate(-7, 12)"><circle cx="8" cy="8" r="4" stroke="none" fill="red" fill-opacity="0.3"/></g><g pointer-events="all" display="none" transform="translate(-7, 32)"><circle cx="8" cy="8" r="4" stroke="none" fill="red" fill-opacity="0.3"/></g><g pointer-events="all" display="none" transform="translate(-7, 52)"><circle cx="8" cy="8" r="4" stroke="none" fill="red" fill-opacity="0.3"/></g><g pointer-events="all" display="none" transform="translate(17, 71)"><circle cx="8" cy="8" r="4" stroke="none" fill="red" fill-opacity="0.3"/></g><g pointer-events="all" display="none" transform="translate(42, 71)"><circle cx="8" cy="8" r="4" stroke="none" fill="red" fill-opacity="0.3"/></g><g pointer-events="all" display="none" transform="translate(67, 71)"><circle cx="8" cy="8" r="4" stroke="none" fill="red" fill-opacity="0.3"/></g><g pointer-events="all" display="none" transform="translate(91, 12)"><circle cx="8" cy="8" r="4" stroke="none" fill="red" fill-opacity="0.3"/></g><g pointer-events="all" display="none" transform="translate(91, 32)"><circle cx="8" cy="8" r="4" stroke="none" fill="red" fill-opacity="0.3"/></g><g pointer-events="all" display="none" transform="translate(91, 52)"><circle cx="8" cy="8" r="4" stroke="none" fill="red" fill-opacity="0.3"/></g><g pointer-events="all" display="none" transform="translate(17, -7)"><circle cx="8" cy="8" r="4" stroke="none" fill="red" fill-opacity="0.3"/></g><g pointer-events="all" display="none" transform="translate(42, -7)"><circle cx="8" cy="8" r="4" stroke="none" fill="red" fill-opacity="0.3"/></g><g pointer-events="all" display="none" transform="translate(67, -7)"><circle cx="8" cy="8" r="4" stroke="none" fill="red" fill-opacity="0.3"/></g><g pointer-events="all" display="none" transform="translate(42, 32)"><circle cx="8" cy="8" r="4" stroke="none" fill="red" fill-opacity="0.3"/></g></g></g></g><g id="_1ABACCD9-2DFB-4E35-8E96-D5BF411FD370" bpmn2nodeid="_DE5332FE-AEA6-4296-B118-D1346F657BE1"><g class="stencils" transform="translate(375, 255)"><g class="me"><g pointer-events="fill" oryx:minimumSize="50 40" id="_1ABACCD9-2DFB-4E35-8E96-D5BF411FD370">   	<defs id="_1ABACCD9-2DFB-4E35-8E96-D5BF411FD370__1ABACCD9-2DFB-4E35-8E96-D5BF411FD370_17"> 		<radialGradient id="_1ABACCD9-2DFB-4E35-8E96-D5BF411FD370background" cx="10%" cy="10%" r="100%" fx="10%" fy="10%"> 			<stop offset="0%" stop-color="#ffffff" stop-opacity="1" id="_1ABACCD9-2DFB-4E35-8E96-D5BF411FD370__1ABACCD9-2DFB-4E35-8E96-D5BF411FD370_18"/> 			<stop id="_1ABACCD9-2DFB-4E35-8E96-D5BF411FD370fill_el" offset="100%" stop-color="#fafad2" stop-opacity="1"/> 		</radialGradient> 		<radialGradient id="_1ABACCD9-2DFB-4E35-8E96-D5BF411FD370borderbackground" cx="10%" cy="10%" r="100%" fx="10%" fy="10%"> 			<stop offset="0%" stop-color="#ffffff" stop-opacity="1" id="_1ABACCD9-2DFB-4E35-8E96-D5BF411FD370__1ABACCD9-2DFB-4E35-8E96-D5BF411FD370_19"/> 			<stop id="_1ABACCD9-2DFB-4E35-8E96-D5BF411FD370fill_border" offset="100%" stop-color="#000000" stop-opacity="1" stroke="#000000"/> 		</radialGradient> 	</defs> 	 	<rect id="_1ABACCD9-2DFB-4E35-8E96-D5BF411FD370text_frame" oryx:anchors="bottom top right left" x="1" y="1" width="94" height="79" rx="10" ry="10" stroke="none" stroke-width="0" fill="none"/> 	<rect id="_1ABACCD9-2DFB-4E35-8E96-D5BF411FD370bg_frame" oryx:resize="vertical horizontal" x="0" y="0" width="100" height="80" rx="10" ry="10" stroke="#000000" stroke-width="1" fill="url(#_1ABACCD9-2DFB-4E35-8E96-D5BF411FD370background) #ffffcc"/> 		<text font-size="12" id="_1ABACCD9-2DFB-4E35-8E96-D5BF411FD370text_name" x="50" y="40" oryx:align="middle center" oryx:fittoelem="text_frame" stroke="black" text-anchor="middle" stroke-width="0pt" letter-spacing="-0.01px" fill="#000000" transform="rotate(0 50 40)" visibility="inherit" oryx:fontSize="12"><tspan x="50" y="40" dy="5">Init</tspan></text>     <g id="_1ABACCD9-2DFB-4E35-8E96-D5BF411FD370manualTask" transform="scale(0.7,0.7) translate(8,8)" display="none">     	<path oryx:anchors="top left" id="_1ABACCD9-2DFB-4E35-8E96-D5BF411FD370frame" style="opacity:1;fill:none;fill-opacity:1;stroke-width:1" d="M0.5,3.751l4.083-3.25c0,0,11.166,0.083,12.083,0.083s-2.417,2.917-1.5,2.917     s11.667,0,12.584,0c1.166,1.708-0.168,3.167-0.834,3.667s0.875,1.917-1,4.417c-0.75,0.25,0.75,1.875-1.333,3.333     c-1.167,0.583,0.583,1.542-1.25,2.833c-1.167,0-20.833,0.083-20.833,0.083l-2-1.333V3.751z" stroke="#000000"/> 		<path id="_1ABACCD9-2DFB-4E35-8E96-D5BF411FD370frame2" oryx:anchors="top left" style="opacity:1;fill:none;stroke-width:2" d="M 13.5 7 L 27 7" stroke="#000000"/> 		<path id="_1ABACCD9-2DFB-4E35-8E96-D5BF411FD370frame3" oryx:anchors="top left" style="opacity:1;fill:none;stroke-width:2" d="M 13.5 11 L 26 11" stroke="#000000"/> 		<path id="_1ABACCD9-2DFB-4E35-8E96-D5BF411FD370frame4" oryx:anchors="top left" style="opacity:1;fill:none;stroke-width:1.5" d="M 14 14.5 L 25 14.5" stroke="#000000"/> 		<path id="_1ABACCD9-2DFB-4E35-8E96-D5BF411FD370frame5" oryx:anchors="top left" style="opacity:1;fill:none;stroke-width:1.5" d="M 8.2 3.1 L 15 3.1" stroke="#000000"/> 	</g> 	 	<g id="_1ABACCD9-2DFB-4E35-8E96-D5BF411FD370businessRuleTask" transform="scale(0.7,0.7) translate(8,8)" display="inherit"> 		<rect id="_1ABACCD9-2DFB-4E35-8E96-D5BF411FD370frame6" oryx:anchors="top left" x="0" y="0" width="22" height="4" style="opacity:1;fill:#B3B1B3;fill-opacity:1;" stroke="#000000"/> 		<rect id="_1ABACCD9-2DFB-4E35-8E96-D5BF411FD370frame7" oryx:anchors="top left" x="0" y="4" style="opacity:1;fill:none;" width="22" height="12" stroke="#000000"/> 		<path id="_1ABACCD9-2DFB-4E35-8E96-D5BF411FD370frame8" oryx:anchors="top left" style="opacity:1;fill:none;" d="M 0 10 L 22 10" stroke="#000000"/> 		<path id="_1ABACCD9-2DFB-4E35-8E96-D5BF411FD370frame9" oryx:anchors="top left" style="opacity:1; fill:none;" d="M 7 4 L 7 16" stroke="#000000"/> 	</g> 	 	<g id="_1ABACCD9-2DFB-4E35-8E96-D5BF411FD370scriptTask" transform="scale(0.7,0.7) translate(8,8)" display="none"> 		<path oryx:anchors="top left" id="_1ABACCD9-2DFB-4E35-8E96-D5BF411FD370frame10" style="opacity:1;fill:none;" stroke="#000000" d="M6.402,0.5h14.5c0,0-5.833,2.833-5.833,5.583s4.417,6,4.417,9.167    s-4.167,5.083-4.167,5.083H0.235c0,0,5-2.667,5-5s-4.583-6.75-4.583-9.25S6.402,0.5,6.402,0.5z"/> 		<path oryx:anchors="top left" id="_1ABACCD9-2DFB-4E35-8E96-D5BF411FD370frame11" style="opacity:1;fill:none;stroke-width:1.5" d="M 3.5 4.5 L 13.5 4.5" stroke="#000000"/> 		<path oryx:anchors="top left" id="_1ABACCD9-2DFB-4E35-8E96-D5BF411FD370frame12" style="opacity:1;fill:none;stroke-width:1.5" d="M 3.8 8.5 L 13.8 8.5" stroke="#000000"/> 		<path oryx:anchors="top left" id="_1ABACCD9-2DFB-4E35-8E96-D5BF411FD370frame13" style="opacity:1;fill:none;stroke-width:1.5" d="M 6.3 12.5 L 16.3 12.5" stroke="#000000"/> 		<path oryx:anchors="top left" id="_1ABACCD9-2DFB-4E35-8E96-D5BF411FD370frame14" style="opacity:1;fill:none;stroke-width:1.5" d="M 6.5 16.5 L 16.5 16.5" stroke="#000000"/> 	</g> 	 	<g id="_1ABACCD9-2DFB-4E35-8E96-D5BF411FD370userTask" transform="scale(0.7,0.7) translate(8,8)" display="none"> 		<path id="_1ABACCD9-2DFB-4E35-8E96-D5BF411FD370frame15" oryx:anchors="top left" style="opacity:1;fill:#F4F6F7" stroke="#000000" d="M0.585,24.167h24.083v-7.833c0,0-2.333-3.917-7.083-5.167h-9.25    c-4.417,1.333-7.833,5.75-7.833,5.75L0.585,24.167z"/> 		<path id="_1ABACCD9-2DFB-4E35-8E96-D5BF411FD370frame16" oryx:anchors="top left" style="opacity:1;fill:none" d="M 6 20 L 6 24" stroke="#000000"/> 		<path id="_1ABACCD9-2DFB-4E35-8E96-D5BF411FD370frame17" oryx:anchors="top left" style="opacity:1;fill:none" d="M 20 20 L 20 24" stroke="#000000"/> 		<circle id="_1ABACCD9-2DFB-4E35-8E96-D5BF411FD370frame18" oryx:anchors="top left" fill="black" cx="13.002" cy="5.916" r="5.417" stroke="#000000"/> 		<path id="_1ABACCD9-2DFB-4E35-8E96-D5BF411FD370frame19" oryx:anchors="top left" style="opacity:1;fill:#F0EFF0;" stroke="#000000" d="M8.043,7.083c0,0,2.814-2.426,5.376-1.807s4.624-0.693,4.624-0.693    c0.25,1.688,0.042,3.75-1.458,5.584c0,0,1.083,0.75,1.083,1.5s0.125,1.875-1,3s-5.5,1.25-6.75,0S8.668,12.834,8.668,12    s0.583-1.25,1.25-1.917C8.835,9.5,7.419,7.708,8.043,7.083z"/> 	</g> 	 	<g id="_1ABACCD9-2DFB-4E35-8E96-D5BF411FD370serviceTask" transform="scale(0.7,0.7) translate(8,8)" display="none"> 		<polygon oryx:anchors="top left" id="_1ABACCD9-2DFB-4E35-8E96-D5BF411FD370frame20" style="opacity:1;fill:#ffffff" stroke="#000000" points="15.392,5.064 17.954,2.502 20.347,4.895 17.786,7.455     18.729,9.732 22.353,9.732 22.353,13.115 18.731,13.115 17.788,15.392 20.351,17.955 17.958,20.347 15.397,17.786 13.12,18.729     13.12,22.353 9.737,22.353 9.737,18.731 7.46,17.788 4.897,20.35 2.506,17.958 5.066,15.397 4.124,13.12 0.5,13.12 0.5,9.737     4.121,9.737 5.065,7.461 2.503,4.898 4.895,2.506 7.455,5.066 9.732,4.125 9.732,0.5 13.116,0.5 13.116,4.121 "/> 		<circle oryx:anchors="top left" id="_1ABACCD9-2DFB-4E35-8E96-D5BF411FD370frame21" style="opacity:1;fill:none" stroke="#000000" cx="11.427" cy="11.426" r="3.714"/> 		<polygon oryx:anchors="top left" id="_1ABACCD9-2DFB-4E35-8E96-D5BF411FD370frame22" style="opacity:1;fill:#ffffff" stroke="#000000" points="21.392,11.064 23.954,8.502 26.347,10.895 23.786,13.455     24.729,15.732 28.353,15.732 28.353,19.115 24.731,19.115 23.788,21.392 26.351,23.955 23.958,26.347 21.397,23.786 19.12,24.729     19.12,28.353 15.737,28.353 15.737,24.731 13.46,23.788 10.897,26.35 8.506,23.958 11.066,21.397 10.124,19.12 6.5,19.12     6.5,15.737 10.121,15.737 11.065,13.461 8.503,10.898 10.895,8.506 13.455,11.066 15.732,10.125 15.732,6.5 19.116,6.5     19.116,10.121 "/> 		<circle oryx:anchors="top left" id="_1ABACCD9-2DFB-4E35-8E96-D5BF411FD370frame23" style="opacity:1;fill:none;" stroke="#000000" cx="17.427" cy="17.426" r="3.714"/> 	</g> 	 	<g id="_1ABACCD9-2DFB-4E35-8E96-D5BF411FD370sendTask" display="none"> 		<path id="_1ABACCD9-2DFB-4E35-8E96-D5BF411FD370stframe24" oryx:anchors="left top" stroke="#FFFFFF" fill="black" stroke-width="1" d="M8,11 L8,21 L24,21 L24,11 L16,17z"/> 		<path id="_1ABACCD9-2DFB-4E35-8E96-D5BF411FD370stframe25" oryx:anchors="left top" stroke="#FFFFFF" fill="black" stroke-width="1" d="M7,10 L16,17 L25 10z"/> 	</g> 	 	<g id="_1ABACCD9-2DFB-4E35-8E96-D5BF411FD370receiveTask" display="none"> 		<path id="_1ABACCD9-2DFB-4E35-8E96-D5BF411FD370frame26" oryx:anchors="left top" stroke="#000000" fill="none" stroke-width="1" d="M8,11 L8,21 L24,21 L24,11z M8,11 L16,17 L24,11"/> 	</g> 	 	<g id="_1ABACCD9-2DFB-4E35-8E96-D5BF411FD370none" display="none"/>  	<g id="_1ABACCD9-2DFB-4E35-8E96-D5BF411FD370sequential" display="none">         <path oryx:anchors="bottom" fill="none" stroke="#000000" stroke-width="2" d="M46,76h10M46,72h10 M46,68h10" id="_1ABACCD9-2DFB-4E35-8E96-D5BF411FD370__1ABACCD9-2DFB-4E35-8E96-D5BF411FD370_20"/>     </g>   </g></g><g class="children" style="overflow:hidden"/><g class="edge"/></g><g class="controls"><g class="dockers"/><g class="magnets" transform="translate(375, 255)"><g pointer-events="all" display="none" transform="translate(-7, 12)"><circle cx="8" cy="8" r="4" stroke="none" fill="red" fill-opacity="0.3"/></g><g pointer-events="all" display="none" transform="translate(-7, 32)"><circle cx="8" cy="8" r="4" stroke="none" fill="red" fill-opacity="0.3"/></g><g pointer-events="all" display="none" transform="translate(-7, 52)"><circle cx="8" cy="8" r="4" stroke="none" fill="red" fill-opacity="0.3"/></g><g pointer-events="all" display="none" transform="translate(17, 71)"><circle cx="8" cy="8" r="4" stroke="none" fill="red" fill-opacity="0.3"/></g><g pointer-events="all" display="none" transform="translate(42, 71)"><circle cx="8" cy="8" r="4" stroke="none" fill="red" fill-opacity="0.3"/></g><g pointer-events="all" display="none" transform="translate(67, 71)"><circle cx="8" cy="8" r="4" stroke="none" fill="red" fill-opacity="0.3"/></g><g pointer-events="all" display="none" transform="translate(91, 12)"><circle cx="8" cy="8" r="4" stroke="none" fill="red" fill-opacity="0.3"/></g><g pointer-events="all" display="none" transform="translate(91, 32)"><circle cx="8" cy="8" r="4" stroke="none" fill="red" fill-opacity="0.3"/></g><g pointer-events="all" display="none" transform="translate(91, 52)"><circle cx="8" cy="8" r="4" stroke="none" fill="red" fill-opacity="0.3"/></g><g pointer-events="all" display="none" transform="translate(17, -7)"><circle cx="8" cy="8" r="4" stroke="none" fill="red" fill-opacity="0.3"/></g><g pointer-events="all" display="none" transform="translate(42, -7)"><circle cx="8" cy="8" r="4" stroke="none" fill="red" fill-opacity="0.3"/></g><g pointer-events="all" display="none" transform="translate(67, -7)"><circle cx="8" cy="8" r="4" stroke="none" fill="red" fill-opacity="0.3"/></g><g pointer-events="all" display="none" transform="translate(42, 32)"><circle cx="8" cy="8" r="4" stroke="none" fill="red" fill-opacity="0.3"/></g></g></g></g><g id="_0D9C6654-B429-47D5-B026-02C911DAF3DF" bpmn2nodeid="_A4772498-0D08-46FB-8215-481DD28AB48F"><g class="stencils" transform="translate(562, 281)"><g class="me"><g pointer-events="fill" id="_0D9C6654-B429-47D5-B026-02C911DAF3DF">      <defs id="_0D9C6654-B429-47D5-B026-02C911DAF3DF__0D9C6654-B429-47D5-B026-02C911DAF3DF_5"> 		<radialGradient id="_0D9C6654-B429-47D5-B026-02C911DAF3DFbackground" cx="10%" cy="10%" r="100%" fx="10%" fy="10%"> 			<stop offset="0%" stop-color="#ffffff" stop-opacity="1" id="_0D9C6654-B429-47D5-B026-02C911DAF3DF__0D9C6654-B429-47D5-B026-02C911DAF3DF_6"/> 			<stop id="_0D9C6654-B429-47D5-B026-02C911DAF3DFfill_el" offset="100%" stop-color="#ff6347" stop-opacity="1"/> 		</radialGradient> 	</defs> 	     <circle id="_0D9C6654-B429-47D5-B026-02C911DAF3DFbg_frame" cx="14" cy="14" r="14" stroke="#000000" fill="url(#_0D9C6654-B429-47D5-B026-02C911DAF3DFbackground) white" stroke-width="3"/> 	<text font-size="11" id="_0D9C6654-B429-47D5-B026-02C911DAF3DFtext_name" x="14" y="30" oryx:align="top center" stroke="black" stroke-width="0pt" letter-spacing="-0.01px" fill="#000000" text-anchor="middle" transform="rotate(0 14 30)" visibility="inherit" oryx:fontSize="11"/>   </g></g><g class="children" style="overflow:hidden"/><g class="edge"/></g><g class="controls"><g class="dockers"/><g class="magnets" transform="translate(562, 281)"><g pointer-events="all" display="none" transform="translate(6, 6)"><circle cx="8" cy="8" r="4" stroke="none" fill="red" fill-opacity="0.3"/></g></g></g></g></g><g class="edge"><g id="_DA06DE72-F42D-4391-B94D-F44B9BA56E60" bpmn2nodeid="_C81F9B39-145C-411E-8E08-49D36F30744D"><g class="stencils"><g class="me"><g pointer-events="painted" bpmn2nodeid="_55F42D8A-A0F1-4AE3-9D4D-271EF976BB1D"><path id="_DA06DE72-F42D-4391-B94D-F44B9BA56E60_1" d="M75.5307301143397 299.49900870598907L164.3520823856603 296.63380379401093 " stroke="#000000" fill="none" stroke-width="2" stroke-linecap="round" stroke-linejoin="round" marker-start="url(#_DA06DE72-F42D-4391-B94D-F44B9BA56E60start)" marker-end="url(#_DA06DE72-F42D-4391-B94D-F44B9BA56E60end)"/></g><text id="_DA06DE72-F42D-4391-B94D-F44B9BA56E60text_name" font-size="12" x="89.5307301143397" y="285.49900870598907" oryx:edgePosition="startTop" stroke-width="0pt" letter-spacing="-0.01px" fill="#000000" text-anchor="start" transform="rotate(358.1523897340054 75.5307301143397 299.49900870598907)" visibility="inherit" oryx:fontSize="12"/></g><g class="children" style="overflow:hidden"/><g class="edge"/></g><g class="controls"><g class="dockers"/><g class="magnets"/></g></g><g id="_D834A9E8-0F5D-4B13-98CC-5099582C35AD" bpmn2nodeid="_20BA939B-DE54-42C4-8A06-D2BD0EF4FD38"><g class="stencils"><g class="me"><g pointer-events="painted" bpmn2nodeid="_20BA939B-DE54-42C4-8A06-D2BD0EF4FD38"><path id="_D834A9E8-0F5D-4B13-98CC-5099582C35AD_1" d="M265.21875 295L374.78125 295 " stroke="#000000" fill="none" stroke-width="2" stroke-linecap="round" stroke-linejoin="round" marker-start="url(#_D834A9E8-0F5D-4B13-98CC-5099582C35ADstart)" marker-end="url(#_D834A9E8-0F5D-4B13-98CC-5099582C35ADend)"/></g><text id="_D834A9E8-0F5D-4B13-98CC-5099582C35ADtext_name" font-size="12" x="279.21875" y="281" oryx:edgePosition="startTop" stroke-width="0pt" letter-spacing="-0.01px" fill="#000000" text-anchor="start" transform="rotate(360 265.21875 295)" visibility="inherit" oryx:fontSize="12"/></g><g class="children" style="overflow:hidden"/><g class="edge"/></g><g class="controls"><g class="dockers"/><g class="magnets"/></g></g><g id="_908A6852-AA1B-4356-950E-4AD5DDBEB221" bpmn2nodeid="_EF1E6AFB-AC68-45FD-ACCF-E7D1C86E3457"><g class="stencils"><g class="me"><g pointer-events="painted" bpmn2nodeid="_EF1E6AFB-AC68-45FD-ACCF-E7D1C86E3457"><path id="_908A6852-AA1B-4356-950E-4AD5DDBEB221_1" d="M475.546875 295L561.43359375 295 " stroke="#000000" fill="none" stroke-width="2" stroke-linecap="round" stroke-linejoin="round" marker-start="url(#_908A6852-AA1B-4356-950E-4AD5DDBEB221start)" marker-end="url(#_908A6852-AA1B-4356-950E-4AD5DDBEB221end)"/></g><text id="_908A6852-AA1B-4356-950E-4AD5DDBEB221text_name" font-size="12" x="489.546875" y="281" oryx:edgePosition="startTop" stroke-width="0pt" letter-spacing="-0.01px" fill="#000000" text-anchor="start" transform="rotate(360 475.546875 295)" visibility="inherit" oryx:fontSize="12"/></g><g class="children" style="overflow:hidden"/><g class="edge"/></g><g class="controls"><g class="dockers"/><g class="magnets"/></g></g></g><text id="_E6EE1DF1-7384-41E7-8B05-C3A16B041BBE" style="stroke-width:1;fill:rgb(177,194,214);font-family:arial;font-weight:bold" font-size="12" onclick="ORYX.Plugins.CanvasTitle.openTextualAnalysis()" onmouseover="ORYX.Plugins.CanvasTitle.addToolTip('_E6EE1DF1-7384-41E7-8B05-C3A16B041BBE')" transform="translate(10, 20)">P1111 v.1.0 (src.P1111)</text></g></g></svg>