<svg xmlns="http://www.w3.org/2000/svg" xmlns:oryx="http://oryx-editor.org" id="_971904D5-8A95-4607-9575-C122A8CBCAB7" width="691" height="260" xmlns:xlink="http://www.w3.org/1999/xlink" xmlns:svg="http://www.w3.org/2000/svg"><defs><marker id="_A2A1FCD0-BDEE-4719-BA0F-EAF67ECDAAF2start" refX="1" refY="5" markerUnits="userSpaceOnUse" markerWidth="17" markerHeight="11" orient="auto" fill="#000000" stroke="#000000"> 	  		<path id="_A2A1FCD0-BDEE-4719-BA0F-EAF67ECDAAF2conditional" d="M 0 5 L 8 0 L 16 5 L 8 10 L 0 5" fill="white" stroke="#000000" stroke-width="1" display="none"/> 			<path id="_A2A1FCD0-BDEE-4719-BA0F-EAF67ECDAAF2default" d="M 5 0 L 11 10" fill="white" stroke="#000000" stroke-width="1" display="none"/> 	  	</marker><marker id="_A2A1FCD0-BDEE-4719-BA0F-EAF67ECDAAF2end" refX="15" refY="6" markerUnits="userSpaceOnUse" markerWidth="15" markerHeight="12" orient="auto" fill="#000000" stroke="#000000"> 	  		<path id="_A2A1FCD0-BDEE-4719-BA0F-EAF67ECDAAF2frame2" d="M 0 1 L 15 6 L 0 11z" fill="#000000" stroke="#000000" stroke-linejoin="round" stroke-width="2"/> 	  	</marker><marker id="_9A8324E1-DEAC-465B-BC7C-CBDA83E918DBstart" refX="1" refY="5" markerUnits="userSpaceOnUse" markerWidth="17" markerHeight="11" orient="auto" fill="#000000" stroke="#000000"> 	  		<path id="_9A8324E1-DEAC-465B-BC7C-CBDA83E918DBconditional" d="M 0 5 L 8 0 L 16 5 L 8 10 L 0 5" fill="white" stroke="#000000" stroke-width="1" display="none"/> 			<path id="_9A8324E1-DEAC-465B-BC7C-CBDA83E918DBdefault" d="M 5 0 L 11 10" fill="white" stroke="#000000" stroke-width="1" display="none"/> 	  	</marker><marker id="_9A8324E1-DEAC-465B-BC7C-CBDA83E918DBend" refX="15" refY="6" markerUnits="userSpaceOnUse" markerWidth="15" markerHeight="12" orient="auto" fill="#000000" stroke="#000000"> 	  		<path id="_9A8324E1-DEAC-465B-BC7C-CBDA83E918DBframe2" d="M 0 1 L 15 6 L 0 11z" fill="#000000" stroke="#000000" stroke-linejoin="round" stroke-width="2"/> 	  	</marker><marker id="_E65BCC9E-EC6F-48FE-BBE5-C08742726FA3start" refX="1" refY="5" markerUnits="userSpaceOnUse" markerWidth="17" markerHeight="11" orient="auto" fill="#000000" stroke="#000000"> 	  		<path id="_E65BCC9E-EC6F-48FE-BBE5-C08742726FA3conditional" d="M 0 5 L 8 0 L 16 5 L 8 10 L 0 5" fill="white" stroke="#000000" stroke-width="1" display="none"/> 			<path id="_E65BCC9E-EC6F-48FE-BBE5-C08742726FA3default" d="M 5 0 L 11 10" fill="white" stroke="#000000" stroke-width="1" display="none"/> 	  	</marker><marker id="_E65BCC9E-EC6F-48FE-BBE5-C08742726FA3end" refX="15" refY="6" markerUnits="userSpaceOnUse" markerWidth="15" markerHeight="12" orient="auto" fill="#000000" stroke="#000000"> 	  		<path id="_E65BCC9E-EC6F-48FE-BBE5-C08742726FA3frame2" d="M 0 1 L 15 6 L 0 11z" fill="#000000" stroke="#000000" stroke-linejoin="round" stroke-width="2"/> 	  	</marker></defs><g stroke="none" font-family="Verdana, sans-serif" font-size-adjust="none" font-style="normal" font-variant="normal" font-weight="normal" line-heigth="normal" font-size="12"><g class="stencils" transform="translate(15, 16)"><g class="me"/><g class="children"><g id="_1EC38441-2BB2-4DEC-A897-34D372ED893F" bpmn2nodeid="processStartEvent"><g class="stencils" transform="translate(120, 165)"><g class="me"><g pointer-events="fill" id="_1EC38441-2BB2-4DEC-A897-34D372ED893F">        <defs id="_1EC38441-2BB2-4DEC-A897-34D372ED893F__1EC38441-2BB2-4DEC-A897-34D372ED893F_5"> 		<radialGradient id="_1EC38441-2BB2-4DEC-A897-34D372ED893Fbackground" cx="10%" cy="10%" r="100%" fx="10%" fy="10%"> 			<stop offset="0%" stop-color="#ffffff" stop-opacity="1" id="_1EC38441-2BB2-4DEC-A897-34D372ED893F__1EC38441-2BB2-4DEC-A897-34D372ED893F_6"/> 			<stop id="_1EC38441-2BB2-4DEC-A897-34D372ED893Ffill_el" offset="100%" stop-color="#9acd32" stop-opacity="1"/> 		</radialGradient> 	</defs> 	     <circle id="_1EC38441-2BB2-4DEC-A897-34D372ED893Fbg_frame" cx="15" cy="15" r="15" stroke="#000000" fill="url(#_1EC38441-2BB2-4DEC-A897-34D372ED893Fbackground) white" stroke-width="1" style="stroke-dasharray: 5.5, 3"/>      <circle id="_1EC38441-2BB2-4DEC-A897-34D372ED893Fframe" cx="15" cy="15" r="15" stroke="#000000" fill="none" stroke-width="1" display="inherit"/>  	<text font-size="11" id="_1EC38441-2BB2-4DEC-A897-34D372ED893Ftext_name" x="15" y="32" oryx:align="top center" stroke="black" stroke-width="0pt" letter-spacing="-0.01px" fill="#000000" text-anchor="middle" transform="rotate(0 15 32)" visibility="inherit" oryx:fontSize="11"/>   </g></g><g class="children" style="overflow:hidden"/><g class="edge"/></g><g class="controls"><g class="dockers"/><g class="magnets" transform="translate(120, 165)"><g pointer-events="all" display="none" transform="translate(7, 7)"><circle cx="8" cy="8" r="4" stroke="none" fill="red" fill-opacity="0.3"/></g></g></g></g><g id="_32461462-15BD-4310-90D3-C2360D4F9335" bpmn2nodeid="_8D68A39B-636B-4521-9DB4-A6A13D00A50A"><g class="stencils" transform="translate(210, 135)"><g class="me"><g pointer-events="fill" oryx:minimumSize="50 40" id="_32461462-15BD-4310-90D3-C2360D4F9335">   	<defs id="_32461462-15BD-4310-90D3-C2360D4F9335__32461462-15BD-4310-90D3-C2360D4F9335_17"> 		<radialGradient id="_32461462-15BD-4310-90D3-C2360D4F9335background" cx="10%" cy="10%" r="100%" fx="10%" fy="10%"> 			<stop offset="0%" stop-color="#ffffff" stop-opacity="1" id="_32461462-15BD-4310-90D3-C2360D4F9335__32461462-15BD-4310-90D3-C2360D4F9335_18"/> 			<stop id="_32461462-15BD-4310-90D3-C2360D4F9335fill_el" offset="100%" stop-color="#fafad2" stop-opacity="1"/> 		</radialGradient> 		<radialGradient id="_32461462-15BD-4310-90D3-C2360D4F9335borderbackground" cx="10%" cy="10%" r="100%" fx="10%" fy="10%"> 			<stop offset="0%" stop-color="#ffffff" stop-opacity="1" id="_32461462-15BD-4310-90D3-C2360D4F9335__32461462-15BD-4310-90D3-C2360D4F9335_19"/> 			<stop id="_32461462-15BD-4310-90D3-C2360D4F9335fill_border" offset="100%" stop-color="#000000" stop-opacity="1" stroke="#000000"/> 		</radialGradient> 	</defs> 	 	<rect id="_32461462-15BD-4310-90D3-C2360D4F9335text_frame" oryx:anchors="bottom top right left" x="1" y="1" width="94" height="79" rx="10" ry="10" stroke="none" stroke-width="0" fill="none"/> 	<rect id="_32461462-15BD-4310-90D3-C2360D4F9335bg_frame" oryx:resize="vertical horizontal" x="0" y="0" width="100" height="80" rx="10" ry="10" stroke="#000000" stroke-width="1" fill="url(#_32461462-15BD-4310-90D3-C2360D4F9335background) #ffffcc"/> 		<text font-size="12" id="_32461462-15BD-4310-90D3-C2360D4F9335text_name" x="50" y="40" oryx:align="middle center" oryx:fittoelem="text_frame" stroke="black" text-anchor="middle" stroke-width="0pt" letter-spacing="-0.01px" fill="#000000" transform="rotate(0 50 40)" visibility="inherit" oryx:fontSize="12"><tspan x="50" y="40" dy="5">Promotion</tspan></text>     <g id="_32461462-15BD-4310-90D3-C2360D4F9335manualTask" transform="scale(0.7,0.7) translate(8,8)" display="none">     	<path oryx:anchors="top left" id="_32461462-15BD-4310-90D3-C2360D4F9335frame" style="opacity:1;fill:none;fill-opacity:1;stroke-width:1" d="M0.5,3.751l4.083-3.25c0,0,11.166,0.083,12.083,0.083s-2.417,2.917-1.5,2.917     s11.667,0,12.584,0c1.166,1.708-0.168,3.167-0.834,3.667s0.875,1.917-1,4.417c-0.75,0.25,0.75,1.875-1.333,3.333     c-1.167,0.583,0.583,1.542-1.25,2.833c-1.167,0-20.833,0.083-20.833,0.083l-2-1.333V3.751z" stroke="#000000"/> 		<path id="_32461462-15BD-4310-90D3-C2360D4F9335frame2" oryx:anchors="top left" style="opacity:1;fill:none;stroke-width:2" d="M 13.5 7 L 27 7" stroke="#000000"/> 		<path id="_32461462-15BD-4310-90D3-C2360D4F9335frame3" oryx:anchors="top left" style="opacity:1;fill:none;stroke-width:2" d="M 13.5 11 L 26 11" stroke="#000000"/> 		<path id="_32461462-15BD-4310-90D3-C2360D4F9335frame4" oryx:anchors="top left" style="opacity:1;fill:none;stroke-width:1.5" d="M 14 14.5 L 25 14.5" stroke="#000000"/> 		<path id="_32461462-15BD-4310-90D3-C2360D4F9335frame5" oryx:anchors="top left" style="opacity:1;fill:none;stroke-width:1.5" d="M 8.2 3.1 L 15 3.1" stroke="#000000"/> 	</g> 	 	<g id="_32461462-15BD-4310-90D3-C2360D4F9335businessRuleTask" transform="scale(0.7,0.7) translate(8,8)" display="inherit"> 		<rect id="_32461462-15BD-4310-90D3-C2360D4F9335frame6" oryx:anchors="top left" x="0" y="0" width="22" height="4" style="opacity:1;fill:#B3B1B3;fill-opacity:1;" stroke="#000000"/> 		<rect id="_32461462-15BD-4310-90D3-C2360D4F9335frame7" oryx:anchors="top left" x="0" y="4" style="opacity:1;fill:none;" width="22" height="12" stroke="#000000"/> 		<path id="_32461462-15BD-4310-90D3-C2360D4F9335frame8" oryx:anchors="top left" style="opacity:1;fill:none;" d="M 0 10 L 22 10" stroke="#000000"/> 		<path id="_32461462-15BD-4310-90D3-C2360D4F9335frame9" oryx:anchors="top left" style="opacity:1; fill:none;" d="M 7 4 L 7 16" stroke="#000000"/> 	</g> 	 	<g id="_32461462-15BD-4310-90D3-C2360D4F9335scriptTask" transform="scale(0.7,0.7) translate(8,8)" display="none"> 		<path oryx:anchors="top left" id="_32461462-15BD-4310-90D3-C2360D4F9335frame10" style="opacity:1;fill:none;" stroke="#000000" d="M6.402,0.5h14.5c0,0-5.833,2.833-5.833,5.583s4.417,6,4.417,9.167    s-4.167,5.083-4.167,5.083H0.235c0,0,5-2.667,5-5s-4.583-6.75-4.583-9.25S6.402,0.5,6.402,0.5z"/> 		<path oryx:anchors="top left" id="_32461462-15BD-4310-90D3-C2360D4F9335frame11" style="opacity:1;fill:none;stroke-width:1.5" d="M 3.5 4.5 L 13.5 4.5" stroke="#000000"/> 		<path oryx:anchors="top left" id="_32461462-15BD-4310-90D3-C2360D4F9335frame12" style="opacity:1;fill:none;stroke-width:1.5" d="M 3.8 8.5 L 13.8 8.5" stroke="#000000"/> 		<path oryx:anchors="top left" id="_32461462-15BD-4310-90D3-C2360D4F9335frame13" style="opacity:1;fill:none;stroke-width:1.5" d="M 6.3 12.5 L 16.3 12.5" stroke="#000000"/> 		<path oryx:anchors="top left" id="_32461462-15BD-4310-90D3-C2360D4F9335frame14" style="opacity:1;fill:none;stroke-width:1.5" d="M 6.5 16.5 L 16.5 16.5" stroke="#000000"/> 	</g> 	 	<g id="_32461462-15BD-4310-90D3-C2360D4F9335userTask" transform="scale(0.7,0.7) translate(8,8)" display="none"> 		<path id="_32461462-15BD-4310-90D3-C2360D4F9335frame15" oryx:anchors="top left" style="opacity:1;fill:#F4F6F7" stroke="#000000" d="M0.585,24.167h24.083v-7.833c0,0-2.333-3.917-7.083-5.167h-9.25    c-4.417,1.333-7.833,5.75-7.833,5.75L0.585,24.167z"/> 		<path id="_32461462-15BD-4310-90D3-C2360D4F9335frame16" oryx:anchors="top left" style="opacity:1;fill:none" d="M 6 20 L 6 24" stroke="#000000"/> 		<path id="_32461462-15BD-4310-90D3-C2360D4F9335frame17" oryx:anchors="top left" style="opacity:1;fill:none" d="M 20 20 L 20 24" stroke="#000000"/> 		<circle id="_32461462-15BD-4310-90D3-C2360D4F9335frame18" oryx:anchors="top left" fill="black" cx="13.002" cy="5.916" r="5.417" stroke="#000000"/> 		<path id="_32461462-15BD-4310-90D3-C2360D4F9335frame19" oryx:anchors="top left" style="opacity:1;fill:#F0EFF0;" stroke="#000000" d="M8.043,7.083c0,0,2.814-2.426,5.376-1.807s4.624-0.693,4.624-0.693    c0.25,1.688,0.042,3.75-1.458,5.584c0,0,1.083,0.75,1.083,1.5s0.125,1.875-1,3s-5.5,1.25-6.75,0S8.668,12.834,8.668,12    s0.583-1.25,1.25-1.917C8.835,9.5,7.419,7.708,8.043,7.083z"/> 	</g> 	 	<g id="_32461462-15BD-4310-90D3-C2360D4F9335serviceTask" transform="scale(0.7,0.7) translate(8,8)" display="none"> 		<polygon oryx:anchors="top left" id="_32461462-15BD-4310-90D3-C2360D4F9335frame20" style="opacity:1;fill:#ffffff" stroke="#000000" points="15.392,5.064 17.954,2.502 20.347,4.895 17.786,7.455     18.729,9.732 22.353,9.732 22.353,13.115 18.731,13.115 17.788,15.392 20.351,17.955 17.958,20.347 15.397,17.786 13.12,18.729     13.12,22.353 9.737,22.353 9.737,18.731 7.46,17.788 4.897,20.35 2.506,17.958 5.066,15.397 4.124,13.12 0.5,13.12 0.5,9.737     4.121,9.737 5.065,7.461 2.503,4.898 4.895,2.506 7.455,5.066 9.732,4.125 9.732,0.5 13.116,0.5 13.116,4.121 "/> 		<circle oryx:anchors="top left" id="_32461462-15BD-4310-90D3-C2360D4F9335frame21" style="opacity:1;fill:none" stroke="#000000" cx="11.427" cy="11.426" r="3.714"/> 		<polygon oryx:anchors="top left" id="_32461462-15BD-4310-90D3-C2360D4F9335frame22" style="opacity:1;fill:#ffffff" stroke="#000000" points="21.392,11.064 23.954,8.502 26.347,10.895 23.786,13.455     24.729,15.732 28.353,15.732 28.353,19.115 24.731,19.115 23.788,21.392 26.351,23.955 23.958,26.347 21.397,23.786 19.12,24.729     19.12,28.353 15.737,28.353 15.737,24.731 13.46,23.788 10.897,26.35 8.506,23.958 11.066,21.397 10.124,19.12 6.5,19.12     6.5,15.737 10.121,15.737 11.065,13.461 8.503,10.898 10.895,8.506 13.455,11.066 15.732,10.125 15.732,6.5 19.116,6.5     19.116,10.121 "/> 		<circle oryx:anchors="top left" id="_32461462-15BD-4310-90D3-C2360D4F9335frame23" style="opacity:1;fill:none;" stroke="#000000" cx="17.427" cy="17.426" r="3.714"/> 	</g> 	 	<g id="_32461462-15BD-4310-90D3-C2360D4F9335sendTask" display="none"> 		<path id="_32461462-15BD-4310-90D3-C2360D4F9335stframe24" oryx:anchors="left top" stroke="#FFFFFF" fill="black" stroke-width="1" d="M8,11 L8,21 L24,21 L24,11 L16,17z"/> 		<path id="_32461462-15BD-4310-90D3-C2360D4F9335stframe25" oryx:anchors="left top" stroke="#FFFFFF" fill="black" stroke-width="1" d="M7,10 L16,17 L25 10z"/> 	</g> 	 	<g id="_32461462-15BD-4310-90D3-C2360D4F9335receiveTask" display="none"> 		<path id="_32461462-15BD-4310-90D3-C2360D4F9335frame26" oryx:anchors="left top" stroke="#000000" fill="none" stroke-width="1" d="M8,11 L8,21 L24,21 L24,11z M8,11 L16,17 L24,11"/> 	</g> 	 	<g id="_32461462-15BD-4310-90D3-C2360D4F9335none" display="inherit"/>  	<g id="_32461462-15BD-4310-90D3-C2360D4F9335sequential" display="none">         <path oryx:anchors="bottom" fill="none" stroke="#000000" stroke-width="2" d="M46,76h10M46,72h10 M46,68h10" id="_32461462-15BD-4310-90D3-C2360D4F9335__32461462-15BD-4310-90D3-C2360D4F9335_20"/>     </g>   </g></g><g class="children" style="overflow:hidden"/><g class="edge"/></g><g class="controls"><g class="dockers"/><g class="magnets" transform="translate(210, 135)"><g pointer-events="all" display="none" transform="translate(-7, 12)"><circle cx="8" cy="8" r="4" stroke="none" fill="red" fill-opacity="0.3"/></g><g pointer-events="all" display="none" transform="translate(-7, 32)"><circle cx="8" cy="8" r="4" stroke="none" fill="red" fill-opacity="0.3"/></g><g pointer-events="all" display="none" transform="translate(-7, 52)"><circle cx="8" cy="8" r="4" stroke="none" fill="red" fill-opacity="0.3"/></g><g pointer-events="all" display="none" transform="translate(17, 71)"><circle cx="8" cy="8" r="4" stroke="none" fill="red" fill-opacity="0.3"/></g><g pointer-events="all" display="none" transform="translate(42, 71)"><circle cx="8" cy="8" r="4" stroke="none" fill="red" fill-opacity="0.3"/></g><g pointer-events="all" display="none" transform="translate(67, 71)"><circle cx="8" cy="8" r="4" stroke="none" fill="red" fill-opacity="0.3"/></g><g pointer-events="all" display="none" transform="translate(91, 12)"><circle cx="8" cy="8" r="4" stroke="none" fill="red" fill-opacity="0.3"/></g><g pointer-events="all" display="none" transform="translate(91, 32)"><circle cx="8" cy="8" r="4" stroke="none" fill="red" fill-opacity="0.3"/></g><g pointer-events="all" display="none" transform="translate(91, 52)"><circle cx="8" cy="8" r="4" stroke="none" fill="red" fill-opacity="0.3"/></g><g pointer-events="all" display="none" transform="translate(17, -7)"><circle cx="8" cy="8" r="4" stroke="none" fill="red" fill-opacity="0.3"/></g><g pointer-events="all" display="none" transform="translate(42, -7)"><circle cx="8" cy="8" r="4" stroke="none" fill="red" fill-opacity="0.3"/></g><g pointer-events="all" display="none" transform="translate(67, -7)"><circle cx="8" cy="8" r="4" stroke="none" fill="red" fill-opacity="0.3"/></g><g pointer-events="all" display="none" transform="translate(42, 32)"><circle cx="8" cy="8" r="4" stroke="none" fill="red" fill-opacity="0.3"/></g></g></g></g><g id="_170F2A09-3D80-49F6-BA7B-179BC311A145" bpmn2nodeid="_A24FFEB2-52A4-4B1C-A34E-2B7D5484A21C"><g class="stencils" transform="translate(390, 135)"><g class="me"><g pointer-events="fill" oryx:minimumSize="50 40" id="_170F2A09-3D80-49F6-BA7B-179BC311A145">   	<defs id="_170F2A09-3D80-49F6-BA7B-179BC311A145__170F2A09-3D80-49F6-BA7B-179BC311A145_17"> 		<radialGradient id="_170F2A09-3D80-49F6-BA7B-179BC311A145background" cx="10%" cy="10%" r="100%" fx="10%" fy="10%"> 			<stop offset="0%" stop-color="#ffffff" stop-opacity="1" id="_170F2A09-3D80-49F6-BA7B-179BC311A145__170F2A09-3D80-49F6-BA7B-179BC311A145_18"/> 			<stop id="_170F2A09-3D80-49F6-BA7B-179BC311A145fill_el" offset="100%" stop-color="#fafad2" stop-opacity="1"/> 		</radialGradient> 		<radialGradient id="_170F2A09-3D80-49F6-BA7B-179BC311A145borderbackground" cx="10%" cy="10%" r="100%" fx="10%" fy="10%"> 			<stop offset="0%" stop-color="#ffffff" stop-opacity="1" id="_170F2A09-3D80-49F6-BA7B-179BC311A145__170F2A09-3D80-49F6-BA7B-179BC311A145_19"/> 			<stop id="_170F2A09-3D80-49F6-BA7B-179BC311A145fill_border" offset="100%" stop-color="#000000" stop-opacity="1" stroke="#000000"/> 		</radialGradient> 	</defs> 	 	<rect id="_170F2A09-3D80-49F6-BA7B-179BC311A145text_frame" oryx:anchors="bottom top right left" x="1" y="1" width="94" height="79" rx="10" ry="10" stroke="none" stroke-width="0" fill="none"/> 	<rect id="_170F2A09-3D80-49F6-BA7B-179BC311A145bg_frame" oryx:resize="vertical horizontal" x="0" y="0" width="100" height="80" rx="10" ry="10" stroke="#000000" stroke-width="1" fill="url(#_170F2A09-3D80-49F6-BA7B-179BC311A145background) #ffffcc"/> 		<text font-size="12" id="_170F2A09-3D80-49F6-BA7B-179BC311A145text_name" x="50" y="40" oryx:align="middle center" oryx:fittoelem="text_frame" stroke="black" text-anchor="middle" stroke-width="0pt" letter-spacing="-0.01px" fill="#000000" transform="rotate(0 50 40)" visibility="inherit" oryx:fontSize="12"><tspan x="50" y="40" dy="5">Init</tspan></text>     <g id="_170F2A09-3D80-49F6-BA7B-179BC311A145manualTask" transform="scale(0.7,0.7) translate(8,8)" display="none">     	<path oryx:anchors="top left" id="_170F2A09-3D80-49F6-BA7B-179BC311A145frame" style="opacity:1;fill:none;fill-opacity:1;stroke-width:1" d="M0.5,3.751l4.083-3.25c0,0,11.166,0.083,12.083,0.083s-2.417,2.917-1.5,2.917     s11.667,0,12.584,0c1.166,1.708-0.168,3.167-0.834,3.667s0.875,1.917-1,4.417c-0.75,0.25,0.75,1.875-1.333,3.333     c-1.167,0.583,0.583,1.542-1.25,2.833c-1.167,0-20.833,0.083-20.833,0.083l-2-1.333V3.751z" stroke="#000000"/> 		<path id="_170F2A09-3D80-49F6-BA7B-179BC311A145frame2" oryx:anchors="top left" style="opacity:1;fill:none;stroke-width:2" d="M 13.5 7 L 27 7" stroke="#000000"/> 		<path id="_170F2A09-3D80-49F6-BA7B-179BC311A145frame3" oryx:anchors="top left" style="opacity:1;fill:none;stroke-width:2" d="M 13.5 11 L 26 11" stroke="#000000"/> 		<path id="_170F2A09-3D80-49F6-BA7B-179BC311A145frame4" oryx:anchors="top left" style="opacity:1;fill:none;stroke-width:1.5" d="M 14 14.5 L 25 14.5" stroke="#000000"/> 		<path id="_170F2A09-3D80-49F6-BA7B-179BC311A145frame5" oryx:anchors="top left" style="opacity:1;fill:none;stroke-width:1.5" d="M 8.2 3.1 L 15 3.1" stroke="#000000"/> 	</g> 	 	<g id="_170F2A09-3D80-49F6-BA7B-179BC311A145businessRuleTask" transform="scale(0.7,0.7) translate(8,8)" display="inherit"> 		<rect id="_170F2A09-3D80-49F6-BA7B-179BC311A145frame6" oryx:anchors="top left" x="0" y="0" width="22" height="4" style="opacity:1;fill:#B3B1B3;fill-opacity:1;" stroke="#000000"/> 		<rect id="_170F2A09-3D80-49F6-BA7B-179BC311A145frame7" oryx:anchors="top left" x="0" y="4" style="opacity:1;fill:none;" width="22" height="12" stroke="#000000"/> 		<path id="_170F2A09-3D80-49F6-BA7B-179BC311A145frame8" oryx:anchors="top left" style="opacity:1;fill:none;" d="M 0 10 L 22 10" stroke="#000000"/> 		<path id="_170F2A09-3D80-49F6-BA7B-179BC311A145frame9" oryx:anchors="top left" style="opacity:1; fill:none;" d="M 7 4 L 7 16" stroke="#000000"/> 	</g> 	 	<g id="_170F2A09-3D80-49F6-BA7B-179BC311A145scriptTask" transform="scale(0.7,0.7) translate(8,8)" display="none"> 		<path oryx:anchors="top left" id="_170F2A09-3D80-49F6-BA7B-179BC311A145frame10" style="opacity:1;fill:none;" stroke="#000000" d="M6.402,0.5h14.5c0,0-5.833,2.833-5.833,5.583s4.417,6,4.417,9.167    s-4.167,5.083-4.167,5.083H0.235c0,0,5-2.667,5-5s-4.583-6.75-4.583-9.25S6.402,0.5,6.402,0.5z"/> 		<path oryx:anchors="top left" id="_170F2A09-3D80-49F6-BA7B-179BC311A145frame11" style="opacity:1;fill:none;stroke-width:1.5" d="M 3.5 4.5 L 13.5 4.5" stroke="#000000"/> 		<path oryx:anchors="top left" id="_170F2A09-3D80-49F6-BA7B-179BC311A145frame12" style="opacity:1;fill:none;stroke-width:1.5" d="M 3.8 8.5 L 13.8 8.5" stroke="#000000"/> 		<path oryx:anchors="top left" id="_170F2A09-3D80-49F6-BA7B-179BC311A145frame13" style="opacity:1;fill:none;stroke-width:1.5" d="M 6.3 12.5 L 16.3 12.5" stroke="#000000"/> 		<path oryx:anchors="top left" id="_170F2A09-3D80-49F6-BA7B-179BC311A145frame14" style="opacity:1;fill:none;stroke-width:1.5" d="M 6.5 16.5 L 16.5 16.5" stroke="#000000"/> 	</g> 	 	<g id="_170F2A09-3D80-49F6-BA7B-179BC311A145userTask" transform="scale(0.7,0.7) translate(8,8)" display="none"> 		<path id="_170F2A09-3D80-49F6-BA7B-179BC311A145frame15" oryx:anchors="top left" style="opacity:1;fill:#F4F6F7" stroke="#000000" d="M0.585,24.167h24.083v-7.833c0,0-2.333-3.917-7.083-5.167h-9.25    c-4.417,1.333-7.833,5.75-7.833,5.75L0.585,24.167z"/> 		<path id="_170F2A09-3D80-49F6-BA7B-179BC311A145frame16" oryx:anchors="top left" style="opacity:1;fill:none" d="M 6 20 L 6 24" stroke="#000000"/> 		<path id="_170F2A09-3D80-49F6-BA7B-179BC311A145frame17" oryx:anchors="top left" style="opacity:1;fill:none" d="M 20 20 L 20 24" stroke="#000000"/> 		<circle id="_170F2A09-3D80-49F6-BA7B-179BC311A145frame18" oryx:anchors="top left" fill="black" cx="13.002" cy="5.916" r="5.417" stroke="#000000"/> 		<path id="_170F2A09-3D80-49F6-BA7B-179BC311A145frame19" oryx:anchors="top left" style="opacity:1;fill:#F0EFF0;" stroke="#000000" d="M8.043,7.083c0,0,2.814-2.426,5.376-1.807s4.624-0.693,4.624-0.693    c0.25,1.688,0.042,3.75-1.458,5.584c0,0,1.083,0.75,1.083,1.5s0.125,1.875-1,3s-5.5,1.25-6.75,0S8.668,12.834,8.668,12    s0.583-1.25,1.25-1.917C8.835,9.5,7.419,7.708,8.043,7.083z"/> 	</g> 	 	<g id="_170F2A09-3D80-49F6-BA7B-179BC311A145serviceTask" transform="scale(0.7,0.7) translate(8,8)" display="none"> 		<polygon oryx:anchors="top left" id="_170F2A09-3D80-49F6-BA7B-179BC311A145frame20" style="opacity:1;fill:#ffffff" stroke="#000000" points="15.392,5.064 17.954,2.502 20.347,4.895 17.786,7.455     18.729,9.732 22.353,9.732 22.353,13.115 18.731,13.115 17.788,15.392 20.351,17.955 17.958,20.347 15.397,17.786 13.12,18.729     13.12,22.353 9.737,22.353 9.737,18.731 7.46,17.788 4.897,20.35 2.506,17.958 5.066,15.397 4.124,13.12 0.5,13.12 0.5,9.737     4.121,9.737 5.065,7.461 2.503,4.898 4.895,2.506 7.455,5.066 9.732,4.125 9.732,0.5 13.116,0.5 13.116,4.121 "/> 		<circle oryx:anchors="top left" id="_170F2A09-3D80-49F6-BA7B-179BC311A145frame21" style="opacity:1;fill:none" stroke="#000000" cx="11.427" cy="11.426" r="3.714"/> 		<polygon oryx:anchors="top left" id="_170F2A09-3D80-49F6-BA7B-179BC311A145frame22" style="opacity:1;fill:#ffffff" stroke="#000000" points="21.392,11.064 23.954,8.502 26.347,10.895 23.786,13.455     24.729,15.732 28.353,15.732 28.353,19.115 24.731,19.115 23.788,21.392 26.351,23.955 23.958,26.347 21.397,23.786 19.12,24.729     19.12,28.353 15.737,28.353 15.737,24.731 13.46,23.788 10.897,26.35 8.506,23.958 11.066,21.397 10.124,19.12 6.5,19.12     6.5,15.737 10.121,15.737 11.065,13.461 8.503,10.898 10.895,8.506 13.455,11.066 15.732,10.125 15.732,6.5 19.116,6.5     19.116,10.121 "/> 		<circle oryx:anchors="top left" id="_170F2A09-3D80-49F6-BA7B-179BC311A145frame23" style="opacity:1;fill:none;" stroke="#000000" cx="17.427" cy="17.426" r="3.714"/> 	</g> 	 	<g id="_170F2A09-3D80-49F6-BA7B-179BC311A145sendTask" display="none"> 		<path id="_170F2A09-3D80-49F6-BA7B-179BC311A145stframe24" oryx:anchors="left top" stroke="#FFFFFF" fill="black" stroke-width="1" d="M8,11 L8,21 L24,21 L24,11 L16,17z"/> 		<path id="_170F2A09-3D80-49F6-BA7B-179BC311A145stframe25" oryx:anchors="left top" stroke="#FFFFFF" fill="black" stroke-width="1" d="M7,10 L16,17 L25 10z"/> 	</g> 	 	<g id="_170F2A09-3D80-49F6-BA7B-179BC311A145receiveTask" display="none"> 		<path id="_170F2A09-3D80-49F6-BA7B-179BC311A145frame26" oryx:anchors="left top" stroke="#000000" fill="none" stroke-width="1" d="M8,11 L8,21 L24,21 L24,11z M8,11 L16,17 L24,11"/> 	</g> 	 	<g id="_170F2A09-3D80-49F6-BA7B-179BC311A145none" display="inherit"/>  	<g id="_170F2A09-3D80-49F6-BA7B-179BC311A145sequential" display="none">         <path oryx:anchors="bottom" fill="none" stroke="#000000" stroke-width="2" d="M46,76h10M46,72h10 M46,68h10" id="_170F2A09-3D80-49F6-BA7B-179BC311A145__170F2A09-3D80-49F6-BA7B-179BC311A145_20"/>     </g>   </g></g><g class="children" style="overflow:hidden"/><g class="edge"/></g><g class="controls"><g class="dockers"/><g class="magnets" transform="translate(390, 135)"><g pointer-events="all" display="none" transform="translate(-7, 12)"><circle cx="8" cy="8" r="4" stroke="none" fill="red" fill-opacity="0.3"/></g><g pointer-events="all" display="none" transform="translate(-7, 32)"><circle cx="8" cy="8" r="4" stroke="none" fill="red" fill-opacity="0.3"/></g><g pointer-events="all" display="none" transform="translate(-7, 52)"><circle cx="8" cy="8" r="4" stroke="none" fill="red" fill-opacity="0.3"/></g><g pointer-events="all" display="none" transform="translate(17, 71)"><circle cx="8" cy="8" r="4" stroke="none" fill="red" fill-opacity="0.3"/></g><g pointer-events="all" display="none" transform="translate(42, 71)"><circle cx="8" cy="8" r="4" stroke="none" fill="red" fill-opacity="0.3"/></g><g pointer-events="all" display="none" transform="translate(67, 71)"><circle cx="8" cy="8" r="4" stroke="none" fill="red" fill-opacity="0.3"/></g><g pointer-events="all" display="none" transform="translate(91, 12)"><circle cx="8" cy="8" r="4" stroke="none" fill="red" fill-opacity="0.3"/></g><g pointer-events="all" display="none" transform="translate(91, 32)"><circle cx="8" cy="8" r="4" stroke="none" fill="red" fill-opacity="0.3"/></g><g pointer-events="all" display="none" transform="translate(91, 52)"><circle cx="8" cy="8" r="4" stroke="none" fill="red" fill-opacity="0.3"/></g><g pointer-events="all" display="none" transform="translate(17, -7)"><circle cx="8" cy="8" r="4" stroke="none" fill="red" fill-opacity="0.3"/></g><g pointer-events="all" display="none" transform="translate(42, -7)"><circle cx="8" cy="8" r="4" stroke="none" fill="red" fill-opacity="0.3"/></g><g pointer-events="all" display="none" transform="translate(67, -7)"><circle cx="8" cy="8" r="4" stroke="none" fill="red" fill-opacity="0.3"/></g><g pointer-events="all" display="none" transform="translate(42, 32)"><circle cx="8" cy="8" r="4" stroke="none" fill="red" fill-opacity="0.3"/></g></g></g></g><g id="_F5F94410-080A-4DCE-9EE8-451C3B26E1FA" bpmn2nodeid="_41ED405A-2485-4129-B9CB-8A95DB00C57A"><g class="stencils" transform="translate(623, 166)"><g class="me"><g pointer-events="fill" id="_F5F94410-080A-4DCE-9EE8-451C3B26E1FA">      <defs id="_F5F94410-080A-4DCE-9EE8-451C3B26E1FA__F5F94410-080A-4DCE-9EE8-451C3B26E1FA_5"> 		<radialGradient id="_F5F94410-080A-4DCE-9EE8-451C3B26E1FAbackground" cx="10%" cy="10%" r="100%" fx="10%" fy="10%"> 			<stop offset="0%" stop-color="#ffffff" stop-opacity="1" id="_F5F94410-080A-4DCE-9EE8-451C3B26E1FA__F5F94410-080A-4DCE-9EE8-451C3B26E1FA_6"/> 			<stop id="_F5F94410-080A-4DCE-9EE8-451C3B26E1FAfill_el" offset="100%" stop-color="#ff6347" stop-opacity="1"/> 		</radialGradient> 	</defs> 	     <circle id="_F5F94410-080A-4DCE-9EE8-451C3B26E1FAbg_frame" cx="14" cy="14" r="14" stroke="#000000" fill="url(#_F5F94410-080A-4DCE-9EE8-451C3B26E1FAbackground) white" stroke-width="3"/> 	<text font-size="11" id="_F5F94410-080A-4DCE-9EE8-451C3B26E1FAtext_name" x="14" y="30" oryx:align="top center" stroke="black" stroke-width="0pt" letter-spacing="-0.01px" fill="#000000" text-anchor="middle" transform="rotate(0 14 30)" visibility="inherit" oryx:fontSize="11"/>   </g></g><g class="children" style="overflow:hidden"/><g class="edge"/></g><g class="controls"><g class="dockers"/><g class="magnets" transform="translate(623, 166)"><g pointer-events="all" display="none" transform="translate(6, 6)"><circle cx="8" cy="8" r="4" stroke="none" fill="red" fill-opacity="0.3"/></g></g></g></g></g><g class="edge"><g id="_A2A1FCD0-BDEE-4719-BA0F-EAF67ECDAAF2" bpmn2nodeid="_DC875EA7-E9C8-4501-9DEB-DE53EDD71C30"><g class="stencils"><g class="me"><g pointer-events="painted" bpmn2nodeid="_FDC36E53-7CB5-4533-9DE7-7AAE9767F580"><path id="_A2A1FCD0-BDEE-4719-BA0F-EAF67ECDAAF2_1" d="M150.6476384587218 179.37409446165114L209.1961115412782 177.03215553834886 " stroke="#000000" fill="none" stroke-width="2" stroke-linecap="round" stroke-linejoin="round" marker-start="url(#_A2A1FCD0-BDEE-4719-BA0F-EAF67ECDAAF2start)" marker-end="url(#_A2A1FCD0-BDEE-4719-BA0F-EAF67ECDAAF2end)"/></g><text id="_A2A1FCD0-BDEE-4719-BA0F-EAF67ECDAAF2text_name" font-size="12" x="164.6476384587218" y="165.37409446165114" oryx:edgePosition="startTop" stroke-width="0pt" letter-spacing="-0.01px" fill="#000000" text-anchor="start" transform="rotate(357.70938995736145 150.6476384587218 179.37409446165114)" visibility="inherit" oryx:fontSize="12"/></g><g class="children" style="overflow:hidden"/><g class="edge"/></g><g class="controls"><g class="dockers"/><g class="magnets"/></g></g><g id="_9A8324E1-DEAC-465B-BC7C-CBDA83E918DB" bpmn2nodeid="_9410E428-080A-4974-B0D4-AC55C7B62AAA"><g class="stencils"><g class="me"><g pointer-events="painted" bpmn2nodeid="_1261202E-1333-48D0-9F4B-DC261673CD23"><path id="_9A8324E1-DEAC-465B-BC7C-CBDA83E918DB_1" d="M310.21875 175L389.78125 175 " stroke="#000000" fill="none" stroke-width="2" stroke-linecap="round" stroke-linejoin="round" marker-start="url(#_9A8324E1-DEAC-465B-BC7C-CBDA83E918DBstart)" marker-end="url(#_9A8324E1-DEAC-465B-BC7C-CBDA83E918DBend)"/></g><text id="_9A8324E1-DEAC-465B-BC7C-CBDA83E918DBtext_name" font-size="12" x="324.21875" y="161" oryx:edgePosition="startTop" stroke-width="0pt" letter-spacing="-0.01px" fill="#000000" text-anchor="start" transform="rotate(360 310.21875 175)" visibility="inherit" oryx:fontSize="12"/></g><g class="children" style="overflow:hidden"/><g class="edge"/></g><g class="controls"><g class="dockers"/><g class="magnets"/></g></g><g id="_E65BCC9E-EC6F-48FE-BBE5-C08742726FA3" bpmn2nodeid="_4E622960-67B6-4401-800F-AAA423441412"><g class="stencils"><g class="me"><g pointer-events="painted" bpmn2nodeid="_D3D0A1AF-E991-4841-9BB1-F9C7BA9B616D"><path id="_E65BCC9E-EC6F-48FE-BBE5-C08742726FA3_1" d="M490.24967806529287 176.27537253972824L622.1487594347071 179.62306496027176 " stroke="#000000" fill="none" stroke-width="2" stroke-linecap="round" stroke-linejoin="round" marker-start="url(#_E65BCC9E-EC6F-48FE-BBE5-C08742726FA3start)" marker-end="url(#_E65BCC9E-EC6F-48FE-BBE5-C08742726FA3end)"/></g><text id="_E65BCC9E-EC6F-48FE-BBE5-C08742726FA3text_name" font-size="12" x="504.24967806529287" y="162.27537253972824" oryx:edgePosition="startTop" stroke-width="0pt" letter-spacing="-0.01px" fill="#000000" text-anchor="start" transform="rotate(1.4538954651088716 490.24967806529287 176.27537253972824)" visibility="inherit" oryx:fontSize="12"/></g><g class="children" style="overflow:hidden"/><g class="edge"/></g><g class="controls"><g class="dockers"/><g class="magnets"/></g></g></g><text id="_AEB6E203-D8E6-4DCE-AA1E-D73D17A2C5FB" style="stroke-width:1;fill:rgb(177,194,214);font-family:arial;font-weight:bold" font-size="12" onclick="ORYX.Plugins.CanvasTitle.openTextualAnalysis()" onmouseover="ORYX.Plugins.CanvasTitle.addToolTip('_AEB6E203-D8E6-4DCE-AA1E-D73D17A2C5FB')" transform="translate(10, 20)">P1111 v.1.0 (src.P1111)</text></g></g></svg>