<svg xmlns="http://www.w3.org/2000/svg" xmlns:oryx="http://oryx-editor.org" id="_D4CA9849-AAA7-4080-AB4C-70CE87B5A6F8" width="694" height="402.5" xmlns:xlink="http://www.w3.org/1999/xlink" xmlns:svg="http://www.w3.org/2000/svg"><defs><marker id="_A8F31C90-DC53-41B8-8F35-8AA1E917C294start" refX="1" refY="5" markerUnits="userSpaceOnUse" markerWidth="17" markerHeight="11" orient="auto" fill="#000000" stroke="#000000"> 	  		<path id="_A8F31C90-DC53-41B8-8F35-8AA1E917C294conditional" d="M 0 5 L 8 0 L 16 5 L 8 10 L 0 5" fill="white" stroke="#000000" stroke-width="1" display="none"/> 			<path id="_A8F31C90-DC53-41B8-8F35-8AA1E917C294default" d="M 5 0 L 11 10" fill="white" stroke="#000000" stroke-width="1" display="none"/> 	  	</marker><marker id="_A8F31C90-DC53-41B8-8F35-8AA1E917C294end" refX="15" refY="6" markerUnits="userSpaceOnUse" markerWidth="15" markerHeight="12" orient="auto" fill="#000000" stroke="#000000"> 	  		<path id="_A8F31C90-DC53-41B8-8F35-8AA1E917C294frame2" d="M 0 1 L 15 6 L 0 11z" fill="#000000" stroke="#000000" stroke-linejoin="round" stroke-width="2"/> 	  	</marker><marker id="_0C683385-060E-4036-977F-91E67E4D3C09start" refX="1" refY="5" markerUnits="userSpaceOnUse" markerWidth="17" markerHeight="11" orient="auto" fill="#000000" stroke="#000000"> 	  		<path id="_0C683385-060E-4036-977F-91E67E4D3C09conditional" d="M 0 5 L 8 0 L 16 5 L 8 10 L 0 5" fill="white" stroke="#000000" stroke-width="1" display="none"/> 			<path id="_0C683385-060E-4036-977F-91E67E4D3C09default" d="M 5 0 L 11 10" fill="white" stroke="#000000" stroke-width="1" display="none"/> 	  	</marker><marker id="_0C683385-060E-4036-977F-91E67E4D3C09end" refX="15" refY="6" markerUnits="userSpaceOnUse" markerWidth="15" markerHeight="12" orient="auto" fill="#000000" stroke="#000000"> 	  		<path id="_0C683385-060E-4036-977F-91E67E4D3C09frame2" d="M 0 1 L 15 6 L 0 11z" fill="#000000" stroke="#000000" stroke-linejoin="round" stroke-width="2"/> 	  	</marker><marker id="_A737B85F-2120-4978-8947-31F0B33052EDstart" refX="1" refY="5" markerUnits="userSpaceOnUse" markerWidth="17" markerHeight="11" orient="auto" fill="#000000" stroke="#000000"> 	  		<path id="_A737B85F-2120-4978-8947-31F0B33052EDconditional" d="M 0 5 L 8 0 L 16 5 L 8 10 L 0 5" fill="white" stroke="#000000" stroke-width="1" display="none"/> 			<path id="_A737B85F-2120-4978-8947-31F0B33052EDdefault" d="M 5 0 L 11 10" fill="white" stroke="#000000" stroke-width="1" display="none"/> 	  	</marker><marker id="_A737B85F-2120-4978-8947-31F0B33052EDend" refX="15" refY="6" markerUnits="userSpaceOnUse" markerWidth="15" markerHeight="12" orient="auto" fill="#000000" stroke="#000000"> 	  		<path id="_A737B85F-2120-4978-8947-31F0B33052EDframe2" d="M 0 1 L 15 6 L 0 11z" fill="#000000" stroke="#000000" stroke-linejoin="round" stroke-width="2"/> 	  	</marker><marker id="_83F16F5A-CAA6-4C38-99C1-481D0E69AFEBstart" refX="1" refY="5" markerUnits="userSpaceOnUse" markerWidth="17" markerHeight="11" orient="auto" fill="#000000" stroke="#000000"> 	  		<path id="_83F16F5A-CAA6-4C38-99C1-481D0E69AFEBconditional" d="M 0 5 L 8 0 L 16 5 L 8 10 L 0 5" fill="white" stroke="#000000" stroke-width="1" display="none"/> 			<path id="_83F16F5A-CAA6-4C38-99C1-481D0E69AFEBdefault" d="M 5 0 L 11 10" fill="white" stroke="#000000" stroke-width="1" display="none"/> 	  	</marker><marker id="_83F16F5A-CAA6-4C38-99C1-481D0E69AFEBend" refX="15" refY="6" markerUnits="userSpaceOnUse" markerWidth="15" markerHeight="12" orient="auto" fill="#000000" stroke="#000000"> 	  		<path id="_83F16F5A-CAA6-4C38-99C1-481D0E69AFEBframe2" d="M 0 1 L 15 6 L 0 11z" fill="#000000" stroke="#000000" stroke-linejoin="round" stroke-width="2"/> 	  	</marker></defs><g stroke="none" font-family="Verdana, sans-serif" font-size-adjust="none" font-style="normal" font-variant="normal" font-weight="normal" line-heigth="normal" font-size="12"><g class="stencils" transform="translate(15, 16)"><g class="me"/><g class="children"><g id="_85D7AF83-779D-453F-901E-D55115A9F82E" bpmn2nodeid="processStartEvent"><g class="stencils" transform="translate(45, 285)"><g class="me"><g pointer-events="fill" id="_85D7AF83-779D-453F-901E-D55115A9F82E">        <defs id="_85D7AF83-779D-453F-901E-D55115A9F82E__85D7AF83-779D-453F-901E-D55115A9F82E_5"> 		<radialGradient id="_85D7AF83-779D-453F-901E-D55115A9F82Ebackground" cx="10%" cy="10%" r="100%" fx="10%" fy="10%"> 			<stop offset="0%" stop-color="#ffffff" stop-opacity="1" id="_85D7AF83-779D-453F-901E-D55115A9F82E__85D7AF83-779D-453F-901E-D55115A9F82E_6"/> 			<stop id="_85D7AF83-779D-453F-901E-D55115A9F82Efill_el" offset="100%" stop-color="#9acd32" stop-opacity="1"/> 		</radialGradient> 	</defs> 	     <circle id="_85D7AF83-779D-453F-901E-D55115A9F82Ebg_frame" cx="15" cy="15" r="15" stroke="#000000" fill="url(#_85D7AF83-779D-453F-901E-D55115A9F82Ebackground) white" stroke-width="1" style="stroke-dasharray: 5.5, 3"/>      <circle id="_85D7AF83-779D-453F-901E-D55115A9F82Eframe" cx="15" cy="15" r="15" stroke="#000000" fill="none" stroke-width="1" display="inherit"/>  	<text font-size="11" id="_85D7AF83-779D-453F-901E-D55115A9F82Etext_name" x="15" y="32" oryx:align="top center" stroke="black" stroke-width="0pt" letter-spacing="-0.01px" fill="#000000" text-anchor="middle" transform="rotate(0 15 32)" visibility="inherit" oryx:fontSize="11"/>   </g></g><g class="children" style="overflow:hidden"/><g class="edge"/></g><g class="controls"><g class="dockers"/><g class="magnets" transform="translate(45, 285)"><g pointer-events="all" display="none" transform="translate(7, 7)"><circle cx="8" cy="8" r="4" stroke="none" fill="red" fill-opacity="0.3"/></g></g></g></g><g id="_2B3FA5FA-99F0-4E59-87F2-D39EE18FDF8F" bpmn2nodeid="_2D2647F3-2BF3-4793-A6CC-15DD723CDA5B"><g class="stencils" transform="translate(183, 260)"><g class="me"><g pointer-events="fill" oryx:minimumSize="50 40" id="_2B3FA5FA-99F0-4E59-87F2-D39EE18FDF8F">   	<defs id="_2B3FA5FA-99F0-4E59-87F2-D39EE18FDF8F__2B3FA5FA-99F0-4E59-87F2-D39EE18FDF8F_17"> 		<radialGradient id="_2B3FA5FA-99F0-4E59-87F2-D39EE18FDF8Fbackground" cx="10%" cy="10%" r="100%" fx="10%" fy="10%"> 			<stop offset="0%" stop-color="#ffffff" stop-opacity="1" id="_2B3FA5FA-99F0-4E59-87F2-D39EE18FDF8F__2B3FA5FA-99F0-4E59-87F2-D39EE18FDF8F_18"/> 			<stop id="_2B3FA5FA-99F0-4E59-87F2-D39EE18FDF8Ffill_el" offset="100%" stop-color="#fafad2" stop-opacity="1"/> 		</radialGradient> 		<radialGradient id="_2B3FA5FA-99F0-4E59-87F2-D39EE18FDF8Fborderbackground" cx="10%" cy="10%" r="100%" fx="10%" fy="10%"> 			<stop offset="0%" stop-color="#ffffff" stop-opacity="1" id="_2B3FA5FA-99F0-4E59-87F2-D39EE18FDF8F__2B3FA5FA-99F0-4E59-87F2-D39EE18FDF8F_19"/> 			<stop id="_2B3FA5FA-99F0-4E59-87F2-D39EE18FDF8Ffill_border" offset="100%" stop-color="#000000" stop-opacity="1" stroke="#000000"/> 		</radialGradient> 	</defs> 	 	<rect id="_2B3FA5FA-99F0-4E59-87F2-D39EE18FDF8Ftext_frame" oryx:anchors="bottom top right left" x="1" y="1" width="94" height="79" rx="10" ry="10" stroke="none" stroke-width="0" fill="none"/> 	<rect id="_2B3FA5FA-99F0-4E59-87F2-D39EE18FDF8Fbg_frame" oryx:resize="vertical horizontal" x="0" y="0" width="100" height="80" rx="10" ry="10" stroke="#000000" stroke-width="1" fill="url(#_2B3FA5FA-99F0-4E59-87F2-D39EE18FDF8Fbackground) #ffffcc"/> 		<text font-size="12" id="_2B3FA5FA-99F0-4E59-87F2-D39EE18FDF8Ftext_name" x="50" y="40" oryx:align="middle center" oryx:fittoelem="text_frame" stroke="black" text-anchor="middle" stroke-width="0pt" letter-spacing="-0.01px" fill="#000000" transform="rotate(0 50 40)" visibility="inherit" oryx:fontSize="12"><tspan x="50" y="40" dy="-25">P</tspan><tspan x="50" y="40" dy="-13">r</tspan><tspan x="50" y="40" dy="-1">o</tspan><tspan x="50" y="40" dy="11" id="ext-gen1636">m</tspan><tspan x="50" y="40" dy="23">o</tspan><tspan x="50" y="40" dy="35">t</tspan><tspan x="50" y="40" dy="47">i</tspan><tspan x="50" y="40" dy="59">on</tspan></text>     <g id="_2B3FA5FA-99F0-4E59-87F2-D39EE18FDF8FmanualTask" transform="scale(0.7,0.7) translate(8,8)" display="none">     	<path oryx:anchors="top left" id="_2B3FA5FA-99F0-4E59-87F2-D39EE18FDF8Fframe" style="opacity:1;fill:none;fill-opacity:1;stroke-width:1" d="M0.5,3.751l4.083-3.25c0,0,11.166,0.083,12.083,0.083s-2.417,2.917-1.5,2.917     s11.667,0,12.584,0c1.166,1.708-0.168,3.167-0.834,3.667s0.875,1.917-1,4.417c-0.75,0.25,0.75,1.875-1.333,3.333     c-1.167,0.583,0.583,1.542-1.25,2.833c-1.167,0-20.833,0.083-20.833,0.083l-2-1.333V3.751z" stroke="#000000"/> 		<path id="_2B3FA5FA-99F0-4E59-87F2-D39EE18FDF8Fframe2" oryx:anchors="top left" style="opacity:1;fill:none;stroke-width:2" d="M 13.5 7 L 27 7" stroke="#000000"/> 		<path id="_2B3FA5FA-99F0-4E59-87F2-D39EE18FDF8Fframe3" oryx:anchors="top left" style="opacity:1;fill:none;stroke-width:2" d="M 13.5 11 L 26 11" stroke="#000000"/> 		<path id="_2B3FA5FA-99F0-4E59-87F2-D39EE18FDF8Fframe4" oryx:anchors="top left" style="opacity:1;fill:none;stroke-width:1.5" d="M 14 14.5 L 25 14.5" stroke="#000000"/> 		<path id="_2B3FA5FA-99F0-4E59-87F2-D39EE18FDF8Fframe5" oryx:anchors="top left" style="opacity:1;fill:none;stroke-width:1.5" d="M 8.2 3.1 L 15 3.1" stroke="#000000"/> 	</g> 	 	<g id="_2B3FA5FA-99F0-4E59-87F2-D39EE18FDF8FbusinessRuleTask" transform="scale(0.7,0.7) translate(8,8)" display="inherit"> 		<rect id="_2B3FA5FA-99F0-4E59-87F2-D39EE18FDF8Fframe6" oryx:anchors="top left" x="0" y="0" width="22" height="4" style="opacity:1;fill:#B3B1B3;fill-opacity:1;" stroke="#000000"/> 		<rect id="_2B3FA5FA-99F0-4E59-87F2-D39EE18FDF8Fframe7" oryx:anchors="top left" x="0" y="4" style="opacity:1;fill:none;" width="22" height="12" stroke="#000000"/> 		<path id="_2B3FA5FA-99F0-4E59-87F2-D39EE18FDF8Fframe8" oryx:anchors="top left" style="opacity:1;fill:none;" d="M 0 10 L 22 10" stroke="#000000"/> 		<path id="_2B3FA5FA-99F0-4E59-87F2-D39EE18FDF8Fframe9" oryx:anchors="top left" style="opacity:1; fill:none;" d="M 7 4 L 7 16" stroke="#000000"/> 	</g> 	 	<g id="_2B3FA5FA-99F0-4E59-87F2-D39EE18FDF8FscriptTask" transform="scale(0.7,0.7) translate(8,8)" display="none"> 		<path oryx:anchors="top left" id="_2B3FA5FA-99F0-4E59-87F2-D39EE18FDF8Fframe10" style="opacity:1;fill:none;" stroke="#000000" d="M6.402,0.5h14.5c0,0-5.833,2.833-5.833,5.583s4.417,6,4.417,9.167    s-4.167,5.083-4.167,5.083H0.235c0,0,5-2.667,5-5s-4.583-6.75-4.583-9.25S6.402,0.5,6.402,0.5z"/> 		<path oryx:anchors="top left" id="_2B3FA5FA-99F0-4E59-87F2-D39EE18FDF8Fframe11" style="opacity:1;fill:none;stroke-width:1.5" d="M 3.5 4.5 L 13.5 4.5" stroke="#000000"/> 		<path oryx:anchors="top left" id="_2B3FA5FA-99F0-4E59-87F2-D39EE18FDF8Fframe12" style="opacity:1;fill:none;stroke-width:1.5" d="M 3.8 8.5 L 13.8 8.5" stroke="#000000"/> 		<path oryx:anchors="top left" id="_2B3FA5FA-99F0-4E59-87F2-D39EE18FDF8Fframe13" style="opacity:1;fill:none;stroke-width:1.5" d="M 6.3 12.5 L 16.3 12.5" stroke="#000000"/> 		<path oryx:anchors="top left" id="_2B3FA5FA-99F0-4E59-87F2-D39EE18FDF8Fframe14" style="opacity:1;fill:none;stroke-width:1.5" d="M 6.5 16.5 L 16.5 16.5" stroke="#000000"/> 	</g> 	 	<g id="_2B3FA5FA-99F0-4E59-87F2-D39EE18FDF8FuserTask" transform="scale(0.7,0.7) translate(8,8)" display="none"> 		<path id="_2B3FA5FA-99F0-4E59-87F2-D39EE18FDF8Fframe15" oryx:anchors="top left" style="opacity:1;fill:#F4F6F7" stroke="#000000" d="M0.585,24.167h24.083v-7.833c0,0-2.333-3.917-7.083-5.167h-9.25    c-4.417,1.333-7.833,5.75-7.833,5.75L0.585,24.167z"/> 		<path id="_2B3FA5FA-99F0-4E59-87F2-D39EE18FDF8Fframe16" oryx:anchors="top left" style="opacity:1;fill:none" d="M 6 20 L 6 24" stroke="#000000"/> 		<path id="_2B3FA5FA-99F0-4E59-87F2-D39EE18FDF8Fframe17" oryx:anchors="top left" style="opacity:1;fill:none" d="M 20 20 L 20 24" stroke="#000000"/> 		<circle id="_2B3FA5FA-99F0-4E59-87F2-D39EE18FDF8Fframe18" oryx:anchors="top left" fill="black" cx="13.002" cy="5.916" r="5.417" stroke="#000000"/> 		<path id="_2B3FA5FA-99F0-4E59-87F2-D39EE18FDF8Fframe19" oryx:anchors="top left" style="opacity:1;fill:#F0EFF0;" stroke="#000000" d="M8.043,7.083c0,0,2.814-2.426,5.376-1.807s4.624-0.693,4.624-0.693    c0.25,1.688,0.042,3.75-1.458,5.584c0,0,1.083,0.75,1.083,1.5s0.125,1.875-1,3s-5.5,1.25-6.75,0S8.668,12.834,8.668,12    s0.583-1.25,1.25-1.917C8.835,9.5,7.419,7.708,8.043,7.083z"/> 	</g> 	 	<g id="_2B3FA5FA-99F0-4E59-87F2-D39EE18FDF8FserviceTask" transform="scale(0.7,0.7) translate(8,8)" display="none"> 		<polygon oryx:anchors="top left" id="_2B3FA5FA-99F0-4E59-87F2-D39EE18FDF8Fframe20" style="opacity:1;fill:#ffffff" stroke="#000000" points="15.392,5.064 17.954,2.502 20.347,4.895 17.786,7.455     18.729,9.732 22.353,9.732 22.353,13.115 18.731,13.115 17.788,15.392 20.351,17.955 17.958,20.347 15.397,17.786 13.12,18.729     13.12,22.353 9.737,22.353 9.737,18.731 7.46,17.788 4.897,20.35 2.506,17.958 5.066,15.397 4.124,13.12 0.5,13.12 0.5,9.737     4.121,9.737 5.065,7.461 2.503,4.898 4.895,2.506 7.455,5.066 9.732,4.125 9.732,0.5 13.116,0.5 13.116,4.121 "/> 		<circle oryx:anchors="top left" id="_2B3FA5FA-99F0-4E59-87F2-D39EE18FDF8Fframe21" style="opacity:1;fill:none" stroke="#000000" cx="11.427" cy="11.426" r="3.714"/> 		<polygon oryx:anchors="top left" id="_2B3FA5FA-99F0-4E59-87F2-D39EE18FDF8Fframe22" style="opacity:1;fill:#ffffff" stroke="#000000" points="21.392,11.064 23.954,8.502 26.347,10.895 23.786,13.455     24.729,15.732 28.353,15.732 28.353,19.115 24.731,19.115 23.788,21.392 26.351,23.955 23.958,26.347 21.397,23.786 19.12,24.729     19.12,28.353 15.737,28.353 15.737,24.731 13.46,23.788 10.897,26.35 8.506,23.958 11.066,21.397 10.124,19.12 6.5,19.12     6.5,15.737 10.121,15.737 11.065,13.461 8.503,10.898 10.895,8.506 13.455,11.066 15.732,10.125 15.732,6.5 19.116,6.5     19.116,10.121 "/> 		<circle oryx:anchors="top left" id="_2B3FA5FA-99F0-4E59-87F2-D39EE18FDF8Fframe23" style="opacity:1;fill:none;" stroke="#000000" cx="17.427" cy="17.426" r="3.714"/> 	</g> 	 	<g id="_2B3FA5FA-99F0-4E59-87F2-D39EE18FDF8FsendTask" display="none"> 		<path id="_2B3FA5FA-99F0-4E59-87F2-D39EE18FDF8Fstframe24" oryx:anchors="left top" stroke="#FFFFFF" fill="black" stroke-width="1" d="M8,11 L8,21 L24,21 L24,11 L16,17z"/> 		<path id="_2B3FA5FA-99F0-4E59-87F2-D39EE18FDF8Fstframe25" oryx:anchors="left top" stroke="#FFFFFF" fill="black" stroke-width="1" d="M7,10 L16,17 L25 10z"/> 	</g> 	 	<g id="_2B3FA5FA-99F0-4E59-87F2-D39EE18FDF8FreceiveTask" display="none"> 		<path id="_2B3FA5FA-99F0-4E59-87F2-D39EE18FDF8Fframe26" oryx:anchors="left top" stroke="#000000" fill="none" stroke-width="1" d="M8,11 L8,21 L24,21 L24,11z M8,11 L16,17 L24,11"/> 	</g> 	 	<g id="_2B3FA5FA-99F0-4E59-87F2-D39EE18FDF8Fnone" display="inherit"/>  	<g id="_2B3FA5FA-99F0-4E59-87F2-D39EE18FDF8Fsequential" display="none">         <path oryx:anchors="bottom" fill="none" stroke="#000000" stroke-width="2" d="M46,76h10M46,72h10 M46,68h10" id="_2B3FA5FA-99F0-4E59-87F2-D39EE18FDF8F__2B3FA5FA-99F0-4E59-87F2-D39EE18FDF8F_20"/>     </g>   </g></g><g class="children" style="overflow:hidden"/><g class="edge"/></g><g class="controls"><g class="dockers"/><g class="magnets" transform="translate(183, 260)"><g pointer-events="all" display="none" transform="translate(-7, 12)"><circle cx="8" cy="8" r="4" stroke="none" fill="red" fill-opacity="0.3"/></g><g pointer-events="all" display="none" transform="translate(-7, 32)"><circle cx="8" cy="8" r="4" stroke="none" fill="red" fill-opacity="0.3"/></g><g pointer-events="all" display="none" transform="translate(-7, 52)"><circle cx="8" cy="8" r="4" stroke="none" fill="red" fill-opacity="0.3"/></g><g pointer-events="all" display="none" transform="translate(17, 71)"><circle cx="8" cy="8" r="4" stroke="none" fill="red" fill-opacity="0.3"/></g><g pointer-events="all" display="none" transform="translate(42, 71)"><circle cx="8" cy="8" r="4" stroke="none" fill="red" fill-opacity="0.3"/></g><g pointer-events="all" display="none" transform="translate(67, 71)"><circle cx="8" cy="8" r="4" stroke="none" fill="red" fill-opacity="0.3"/></g><g pointer-events="all" display="none" transform="translate(91, 12)"><circle cx="8" cy="8" r="4" stroke="none" fill="red" fill-opacity="0.3"/></g><g pointer-events="all" display="none" transform="translate(91, 32)"><circle cx="8" cy="8" r="4" stroke="none" fill="red" fill-opacity="0.3"/></g><g pointer-events="all" display="none" transform="translate(91, 52)"><circle cx="8" cy="8" r="4" stroke="none" fill="red" fill-opacity="0.3"/></g><g pointer-events="all" display="none" transform="translate(17, -7)"><circle cx="8" cy="8" r="4" stroke="none" fill="red" fill-opacity="0.3"/></g><g pointer-events="all" display="none" transform="translate(42, -7)"><circle cx="8" cy="8" r="4" stroke="none" fill="red" fill-opacity="0.3"/></g><g pointer-events="all" display="none" transform="translate(67, -7)"><circle cx="8" cy="8" r="4" stroke="none" fill="red" fill-opacity="0.3"/></g><g pointer-events="all" display="none" transform="translate(42, 32)"><circle cx="8" cy="8" r="4" stroke="none" fill="red" fill-opacity="0.3"/></g></g></g></g><g id="_8578930D-538B-4F44-83D5-7DCFFD87EC81" bpmn2nodeid="_A4293288-FA99-45BC-84C2-856916F02AFA"><g class="stencils" transform="translate(300, 255)"><g class="me"><g pointer-events="fill" oryx:minimumSize="50 40" id="_8578930D-538B-4F44-83D5-7DCFFD87EC81">   	<defs id="_8578930D-538B-4F44-83D5-7DCFFD87EC81__8578930D-538B-4F44-83D5-7DCFFD87EC81_17"> 		<radialGradient id="_8578930D-538B-4F44-83D5-7DCFFD87EC81background" cx="10%" cy="10%" r="100%" fx="10%" fy="10%"> 			<stop offset="0%" stop-color="#ffffff" stop-opacity="1" id="_8578930D-538B-4F44-83D5-7DCFFD87EC81__8578930D-538B-4F44-83D5-7DCFFD87EC81_18"/> 			<stop id="_8578930D-538B-4F44-83D5-7DCFFD87EC81fill_el" offset="100%" stop-color="#fafad2" stop-opacity="1"/> 		</radialGradient> 		<radialGradient id="_8578930D-538B-4F44-83D5-7DCFFD87EC81borderbackground" cx="10%" cy="10%" r="100%" fx="10%" fy="10%"> 			<stop offset="0%" stop-color="#ffffff" stop-opacity="1" id="_8578930D-538B-4F44-83D5-7DCFFD87EC81__8578930D-538B-4F44-83D5-7DCFFD87EC81_19"/> 			<stop id="_8578930D-538B-4F44-83D5-7DCFFD87EC81fill_border" offset="100%" stop-color="#000000" stop-opacity="1" stroke="#000000"/> 		</radialGradient> 	</defs> 	 	<rect id="_8578930D-538B-4F44-83D5-7DCFFD87EC81text_frame" oryx:anchors="bottom top right left" x="1" y="1" width="94" height="79" rx="10" ry="10" stroke="none" stroke-width="0" fill="none"/> 	<rect id="_8578930D-538B-4F44-83D5-7DCFFD87EC81bg_frame" oryx:resize="vertical horizontal" x="0" y="0" width="100" height="80" rx="10" ry="10" stroke="#000000" stroke-width="1" fill="url(#_8578930D-538B-4F44-83D5-7DCFFD87EC81background) #ffffcc"/> 		<text font-size="12" id="_8578930D-538B-4F44-83D5-7DCFFD87EC81text_name" x="50" y="40" oryx:align="middle center" oryx:fittoelem="text_frame" stroke="black" text-anchor="middle" stroke-width="0pt" letter-spacing="-0.01px" fill="#000000" transform="rotate(0 50 40)" visibility="inherit" oryx:fontSize="12"><tspan x="50" y="40" dy="-19">S</tspan><tspan x="50" y="40" dy="-7">t</tspan><tspan x="50" y="40" dy="5" id="ext-gen1490">a</tspan><tspan x="50" y="40" dy="17" id="ext-gen1464">n</tspan><tspan x="50" y="40" dy="29">d</tspan><tspan x="50" y="40" dy="41">a</tspan><tspan x="50" y="40" dy="53">rd</tspan></text>     <g id="_8578930D-538B-4F44-83D5-7DCFFD87EC81manualTask" transform="scale(0.7,0.7) translate(8,8)" display="none">     	<path oryx:anchors="top left" id="_8578930D-538B-4F44-83D5-7DCFFD87EC81frame" style="opacity:1;fill:none;fill-opacity:1;stroke-width:1" d="M0.5,3.751l4.083-3.25c0,0,11.166,0.083,12.083,0.083s-2.417,2.917-1.5,2.917     s11.667,0,12.584,0c1.166,1.708-0.168,3.167-0.834,3.667s0.875,1.917-1,4.417c-0.75,0.25,0.75,1.875-1.333,3.333     c-1.167,0.583,0.583,1.542-1.25,2.833c-1.167,0-20.833,0.083-20.833,0.083l-2-1.333V3.751z" stroke="#000000"/> 		<path id="_8578930D-538B-4F44-83D5-7DCFFD87EC81frame2" oryx:anchors="top left" style="opacity:1;fill:none;stroke-width:2" d="M 13.5 7 L 27 7" stroke="#000000"/> 		<path id="_8578930D-538B-4F44-83D5-7DCFFD87EC81frame3" oryx:anchors="top left" style="opacity:1;fill:none;stroke-width:2" d="M 13.5 11 L 26 11" stroke="#000000"/> 		<path id="_8578930D-538B-4F44-83D5-7DCFFD87EC81frame4" oryx:anchors="top left" style="opacity:1;fill:none;stroke-width:1.5" d="M 14 14.5 L 25 14.5" stroke="#000000"/> 		<path id="_8578930D-538B-4F44-83D5-7DCFFD87EC81frame5" oryx:anchors="top left" style="opacity:1;fill:none;stroke-width:1.5" d="M 8.2 3.1 L 15 3.1" stroke="#000000"/> 	</g> 	 	<g id="_8578930D-538B-4F44-83D5-7DCFFD87EC81businessRuleTask" transform="scale(0.7,0.7) translate(8,8)" display="inherit"> 		<rect id="_8578930D-538B-4F44-83D5-7DCFFD87EC81frame6" oryx:anchors="top left" x="0" y="0" width="22" height="4" style="opacity:1;fill:#B3B1B3;fill-opacity:1;" stroke="#000000"/> 		<rect id="_8578930D-538B-4F44-83D5-7DCFFD87EC81frame7" oryx:anchors="top left" x="0" y="4" style="opacity:1;fill:none;" width="22" height="12" stroke="#000000"/> 		<path id="_8578930D-538B-4F44-83D5-7DCFFD87EC81frame8" oryx:anchors="top left" style="opacity:1;fill:none;" d="M 0 10 L 22 10" stroke="#000000"/> 		<path id="_8578930D-538B-4F44-83D5-7DCFFD87EC81frame9" oryx:anchors="top left" style="opacity:1; fill:none;" d="M 7 4 L 7 16" stroke="#000000"/> 	</g> 	 	<g id="_8578930D-538B-4F44-83D5-7DCFFD87EC81scriptTask" transform="scale(0.7,0.7) translate(8,8)" display="none"> 		<path oryx:anchors="top left" id="_8578930D-538B-4F44-83D5-7DCFFD87EC81frame10" style="opacity:1;fill:none;" stroke="#000000" d="M6.402,0.5h14.5c0,0-5.833,2.833-5.833,5.583s4.417,6,4.417,9.167    s-4.167,5.083-4.167,5.083H0.235c0,0,5-2.667,5-5s-4.583-6.75-4.583-9.25S6.402,0.5,6.402,0.5z"/> 		<path oryx:anchors="top left" id="_8578930D-538B-4F44-83D5-7DCFFD87EC81frame11" style="opacity:1;fill:none;stroke-width:1.5" d="M 3.5 4.5 L 13.5 4.5" stroke="#000000"/> 		<path oryx:anchors="top left" id="_8578930D-538B-4F44-83D5-7DCFFD87EC81frame12" style="opacity:1;fill:none;stroke-width:1.5" d="M 3.8 8.5 L 13.8 8.5" stroke="#000000"/> 		<path oryx:anchors="top left" id="_8578930D-538B-4F44-83D5-7DCFFD87EC81frame13" style="opacity:1;fill:none;stroke-width:1.5" d="M 6.3 12.5 L 16.3 12.5" stroke="#000000"/> 		<path oryx:anchors="top left" id="_8578930D-538B-4F44-83D5-7DCFFD87EC81frame14" style="opacity:1;fill:none;stroke-width:1.5" d="M 6.5 16.5 L 16.5 16.5" stroke="#000000"/> 	</g> 	 	<g id="_8578930D-538B-4F44-83D5-7DCFFD87EC81userTask" transform="scale(0.7,0.7) translate(8,8)" display="none"> 		<path id="_8578930D-538B-4F44-83D5-7DCFFD87EC81frame15" oryx:anchors="top left" style="opacity:1;fill:#F4F6F7" stroke="#000000" d="M0.585,24.167h24.083v-7.833c0,0-2.333-3.917-7.083-5.167h-9.25    c-4.417,1.333-7.833,5.75-7.833,5.75L0.585,24.167z"/> 		<path id="_8578930D-538B-4F44-83D5-7DCFFD87EC81frame16" oryx:anchors="top left" style="opacity:1;fill:none" d="M 6 20 L 6 24" stroke="#000000"/> 		<path id="_8578930D-538B-4F44-83D5-7DCFFD87EC81frame17" oryx:anchors="top left" style="opacity:1;fill:none" d="M 20 20 L 20 24" stroke="#000000"/> 		<circle id="_8578930D-538B-4F44-83D5-7DCFFD87EC81frame18" oryx:anchors="top left" fill="black" cx="13.002" cy="5.916" r="5.417" stroke="#000000"/> 		<path id="_8578930D-538B-4F44-83D5-7DCFFD87EC81frame19" oryx:anchors="top left" style="opacity:1;fill:#F0EFF0;" stroke="#000000" d="M8.043,7.083c0,0,2.814-2.426,5.376-1.807s4.624-0.693,4.624-0.693    c0.25,1.688,0.042,3.75-1.458,5.584c0,0,1.083,0.75,1.083,1.5s0.125,1.875-1,3s-5.5,1.25-6.75,0S8.668,12.834,8.668,12    s0.583-1.25,1.25-1.917C8.835,9.5,7.419,7.708,8.043,7.083z"/> 	</g> 	 	<g id="_8578930D-538B-4F44-83D5-7DCFFD87EC81serviceTask" transform="scale(0.7,0.7) translate(8,8)" display="none"> 		<polygon oryx:anchors="top left" id="_8578930D-538B-4F44-83D5-7DCFFD87EC81frame20" style="opacity:1;fill:#ffffff" stroke="#000000" points="15.392,5.064 17.954,2.502 20.347,4.895 17.786,7.455     18.729,9.732 22.353,9.732 22.353,13.115 18.731,13.115 17.788,15.392 20.351,17.955 17.958,20.347 15.397,17.786 13.12,18.729     13.12,22.353 9.737,22.353 9.737,18.731 7.46,17.788 4.897,20.35 2.506,17.958 5.066,15.397 4.124,13.12 0.5,13.12 0.5,9.737     4.121,9.737 5.065,7.461 2.503,4.898 4.895,2.506 7.455,5.066 9.732,4.125 9.732,0.5 13.116,0.5 13.116,4.121 "/> 		<circle oryx:anchors="top left" id="_8578930D-538B-4F44-83D5-7DCFFD87EC81frame21" style="opacity:1;fill:none" stroke="#000000" cx="11.427" cy="11.426" r="3.714"/> 		<polygon oryx:anchors="top left" id="_8578930D-538B-4F44-83D5-7DCFFD87EC81frame22" style="opacity:1;fill:#ffffff" stroke="#000000" points="21.392,11.064 23.954,8.502 26.347,10.895 23.786,13.455     24.729,15.732 28.353,15.732 28.353,19.115 24.731,19.115 23.788,21.392 26.351,23.955 23.958,26.347 21.397,23.786 19.12,24.729     19.12,28.353 15.737,28.353 15.737,24.731 13.46,23.788 10.897,26.35 8.506,23.958 11.066,21.397 10.124,19.12 6.5,19.12     6.5,15.737 10.121,15.737 11.065,13.461 8.503,10.898 10.895,8.506 13.455,11.066 15.732,10.125 15.732,6.5 19.116,6.5     19.116,10.121 "/> 		<circle oryx:anchors="top left" id="_8578930D-538B-4F44-83D5-7DCFFD87EC81frame23" style="opacity:1;fill:none;" stroke="#000000" cx="17.427" cy="17.426" r="3.714"/> 	</g> 	 	<g id="_8578930D-538B-4F44-83D5-7DCFFD87EC81sendTask" display="none"> 		<path id="_8578930D-538B-4F44-83D5-7DCFFD87EC81stframe24" oryx:anchors="left top" stroke="#FFFFFF" fill="black" stroke-width="1" d="M8,11 L8,21 L24,21 L24,11 L16,17z"/> 		<path id="_8578930D-538B-4F44-83D5-7DCFFD87EC81stframe25" oryx:anchors="left top" stroke="#FFFFFF" fill="black" stroke-width="1" d="M7,10 L16,17 L25 10z"/> 	</g> 	 	<g id="_8578930D-538B-4F44-83D5-7DCFFD87EC81receiveTask" display="none"> 		<path id="_8578930D-538B-4F44-83D5-7DCFFD87EC81frame26" oryx:anchors="left top" stroke="#000000" fill="none" stroke-width="1" d="M8,11 L8,21 L24,21 L24,11z M8,11 L16,17 L24,11"/> 	</g> 	 	<g id="_8578930D-538B-4F44-83D5-7DCFFD87EC81none" display="inherit"/>  	<g id="_8578930D-538B-4F44-83D5-7DCFFD87EC81sequential" display="none">         <path oryx:anchors="bottom" fill="none" stroke="#000000" stroke-width="2" d="M46,76h10M46,72h10 M46,68h10" id="_8578930D-538B-4F44-83D5-7DCFFD87EC81__8578930D-538B-4F44-83D5-7DCFFD87EC81_20"/>     </g>   </g></g><g class="children" style="overflow:hidden"/><g class="edge"/></g><g class="controls"><g class="dockers"/><g class="magnets" transform="translate(300, 255)"><g pointer-events="all" display="none" transform="translate(-7, 12)"><circle cx="8" cy="8" r="4" stroke="none" fill="red" fill-opacity="0.3"/></g><g pointer-events="all" display="none" transform="translate(-7, 32)"><circle cx="8" cy="8" r="4" stroke="none" fill="red" fill-opacity="0.3"/></g><g pointer-events="all" display="none" transform="translate(-7, 52)"><circle cx="8" cy="8" r="4" stroke="none" fill="red" fill-opacity="0.3"/></g><g pointer-events="all" display="none" transform="translate(17, 71)"><circle cx="8" cy="8" r="4" stroke="none" fill="red" fill-opacity="0.3"/></g><g pointer-events="all" display="none" transform="translate(42, 71)"><circle cx="8" cy="8" r="4" stroke="none" fill="red" fill-opacity="0.3"/></g><g pointer-events="all" display="none" transform="translate(67, 71)"><circle cx="8" cy="8" r="4" stroke="none" fill="red" fill-opacity="0.3"/></g><g pointer-events="all" display="none" transform="translate(91, 12)"><circle cx="8" cy="8" r="4" stroke="none" fill="red" fill-opacity="0.3"/></g><g pointer-events="all" display="none" transform="translate(91, 32)"><circle cx="8" cy="8" r="4" stroke="none" fill="red" fill-opacity="0.3"/></g><g pointer-events="all" display="none" transform="translate(91, 52)"><circle cx="8" cy="8" r="4" stroke="none" fill="red" fill-opacity="0.3"/></g><g pointer-events="all" display="none" transform="translate(17, -7)"><circle cx="8" cy="8" r="4" stroke="none" fill="red" fill-opacity="0.3"/></g><g pointer-events="all" display="none" transform="translate(42, -7)"><circle cx="8" cy="8" r="4" stroke="none" fill="red" fill-opacity="0.3"/></g><g pointer-events="all" display="none" transform="translate(67, -7)"><circle cx="8" cy="8" r="4" stroke="none" fill="red" fill-opacity="0.3"/></g><g pointer-events="all" display="none" transform="translate(42, 32)"><circle cx="8" cy="8" r="4" stroke="none" fill="red" fill-opacity="0.3"/></g></g></g></g><g id="_F20DD391-3428-49BC-BAAB-32DFB352EAF0" bpmn2nodeid="_6A27C0FB-0614-49BF-A440-1C303C735B69"><g class="stencils" transform="translate(420, 240)"><g class="me"><g pointer-events="fill" oryx:minimumSize="50 40" id="_F20DD391-3428-49BC-BAAB-32DFB352EAF0">   	<defs id="_F20DD391-3428-49BC-BAAB-32DFB352EAF0__F20DD391-3428-49BC-BAAB-32DFB352EAF0_17"> 		<radialGradient id="_F20DD391-3428-49BC-BAAB-32DFB352EAF0background" cx="10%" cy="10%" r="100%" fx="10%" fy="10%"> 			<stop offset="0%" stop-color="#ffffff" stop-opacity="1" id="_F20DD391-3428-49BC-BAAB-32DFB352EAF0__F20DD391-3428-49BC-BAAB-32DFB352EAF0_18"/> 			<stop id="_F20DD391-3428-49BC-BAAB-32DFB352EAF0fill_el" offset="100%" stop-color="#fafad2" stop-opacity="1"/> 		</radialGradient> 		<radialGradient id="_F20DD391-3428-49BC-BAAB-32DFB352EAF0borderbackground" cx="10%" cy="10%" r="100%" fx="10%" fy="10%"> 			<stop offset="0%" stop-color="#ffffff" stop-opacity="1" id="_F20DD391-3428-49BC-BAAB-32DFB352EAF0__F20DD391-3428-49BC-BAAB-32DFB352EAF0_19"/> 			<stop id="_F20DD391-3428-49BC-BAAB-32DFB352EAF0fill_border" offset="100%" stop-color="#000000" stop-opacity="1" stroke="#000000"/> 		</radialGradient> 	</defs> 	 	<rect id="_F20DD391-3428-49BC-BAAB-32DFB352EAF0text_frame" oryx:anchors="bottom top right left" x="1" y="1" width="94" height="79" rx="10" ry="10" stroke="none" stroke-width="0" fill="none"/> 	<rect id="_F20DD391-3428-49BC-BAAB-32DFB352EAF0bg_frame" oryx:resize="vertical horizontal" x="0" y="0" width="100" height="80" rx="10" ry="10" stroke="#000000" stroke-width="1" fill="url(#_F20DD391-3428-49BC-BAAB-32DFB352EAF0background) #ffffcc"/> 		<text font-size="12" id="_F20DD391-3428-49BC-BAAB-32DFB352EAF0text_name" x="50" y="40" oryx:align="middle center" oryx:fittoelem="text_frame" stroke="black" text-anchor="middle" stroke-width="0pt" letter-spacing="-0.01px" fill="#000000" transform="rotate(0 50 40)" visibility="inherit" oryx:fontSize="12"><tspan x="50" y="40" dy="5">I</tspan><tspan x="50" y="40" dy="17">n</tspan><tspan x="50" y="40" dy="29" id="ext-gen1491">it</tspan></text>     <g id="_F20DD391-3428-49BC-BAAB-32DFB352EAF0manualTask" transform="scale(0.7,0.7) translate(8,8)" display="none">     	<path oryx:anchors="top left" id="_F20DD391-3428-49BC-BAAB-32DFB352EAF0frame" style="opacity:1;fill:none;fill-opacity:1;stroke-width:1" d="M0.5,3.751l4.083-3.25c0,0,11.166,0.083,12.083,0.083s-2.417,2.917-1.5,2.917     s11.667,0,12.584,0c1.166,1.708-0.168,3.167-0.834,3.667s0.875,1.917-1,4.417c-0.75,0.25,0.75,1.875-1.333,3.333     c-1.167,0.583,0.583,1.542-1.25,2.833c-1.167,0-20.833,0.083-20.833,0.083l-2-1.333V3.751z" stroke="#000000"/> 		<path id="_F20DD391-3428-49BC-BAAB-32DFB352EAF0frame2" oryx:anchors="top left" style="opacity:1;fill:none;stroke-width:2" d="M 13.5 7 L 27 7" stroke="#000000"/> 		<path id="_F20DD391-3428-49BC-BAAB-32DFB352EAF0frame3" oryx:anchors="top left" style="opacity:1;fill:none;stroke-width:2" d="M 13.5 11 L 26 11" stroke="#000000"/> 		<path id="_F20DD391-3428-49BC-BAAB-32DFB352EAF0frame4" oryx:anchors="top left" style="opacity:1;fill:none;stroke-width:1.5" d="M 14 14.5 L 25 14.5" stroke="#000000"/> 		<path id="_F20DD391-3428-49BC-BAAB-32DFB352EAF0frame5" oryx:anchors="top left" style="opacity:1;fill:none;stroke-width:1.5" d="M 8.2 3.1 L 15 3.1" stroke="#000000"/> 	</g> 	 	<g id="_F20DD391-3428-49BC-BAAB-32DFB352EAF0businessRuleTask" transform="scale(0.7,0.7) translate(8,8)" display="inherit"> 		<rect id="_F20DD391-3428-49BC-BAAB-32DFB352EAF0frame6" oryx:anchors="top left" x="0" y="0" width="22" height="4" style="opacity:1;fill:#B3B1B3;fill-opacity:1;" stroke="#000000"/> 		<rect id="_F20DD391-3428-49BC-BAAB-32DFB352EAF0frame7" oryx:anchors="top left" x="0" y="4" style="opacity:1;fill:none;" width="22" height="12" stroke="#000000"/> 		<path id="_F20DD391-3428-49BC-BAAB-32DFB352EAF0frame8" oryx:anchors="top left" style="opacity:1;fill:none;" d="M 0 10 L 22 10" stroke="#000000"/> 		<path id="_F20DD391-3428-49BC-BAAB-32DFB352EAF0frame9" oryx:anchors="top left" style="opacity:1; fill:none;" d="M 7 4 L 7 16" stroke="#000000"/> 	</g> 	 	<g id="_F20DD391-3428-49BC-BAAB-32DFB352EAF0scriptTask" transform="scale(0.7,0.7) translate(8,8)" display="none"> 		<path oryx:anchors="top left" id="_F20DD391-3428-49BC-BAAB-32DFB352EAF0frame10" style="opacity:1;fill:none;" stroke="#000000" d="M6.402,0.5h14.5c0,0-5.833,2.833-5.833,5.583s4.417,6,4.417,9.167    s-4.167,5.083-4.167,5.083H0.235c0,0,5-2.667,5-5s-4.583-6.75-4.583-9.25S6.402,0.5,6.402,0.5z"/> 		<path oryx:anchors="top left" id="_F20DD391-3428-49BC-BAAB-32DFB352EAF0frame11" style="opacity:1;fill:none;stroke-width:1.5" d="M 3.5 4.5 L 13.5 4.5" stroke="#000000"/> 		<path oryx:anchors="top left" id="_F20DD391-3428-49BC-BAAB-32DFB352EAF0frame12" style="opacity:1;fill:none;stroke-width:1.5" d="M 3.8 8.5 L 13.8 8.5" stroke="#000000"/> 		<path oryx:anchors="top left" id="_F20DD391-3428-49BC-BAAB-32DFB352EAF0frame13" style="opacity:1;fill:none;stroke-width:1.5" d="M 6.3 12.5 L 16.3 12.5" stroke="#000000"/> 		<path oryx:anchors="top left" id="_F20DD391-3428-49BC-BAAB-32DFB352EAF0frame14" style="opacity:1;fill:none;stroke-width:1.5" d="M 6.5 16.5 L 16.5 16.5" stroke="#000000"/> 	</g> 	 	<g id="_F20DD391-3428-49BC-BAAB-32DFB352EAF0userTask" transform="scale(0.7,0.7) translate(8,8)" display="none"> 		<path id="_F20DD391-3428-49BC-BAAB-32DFB352EAF0frame15" oryx:anchors="top left" style="opacity:1;fill:#F4F6F7" stroke="#000000" d="M0.585,24.167h24.083v-7.833c0,0-2.333-3.917-7.083-5.167h-9.25    c-4.417,1.333-7.833,5.75-7.833,5.75L0.585,24.167z"/> 		<path id="_F20DD391-3428-49BC-BAAB-32DFB352EAF0frame16" oryx:anchors="top left" style="opacity:1;fill:none" d="M 6 20 L 6 24" stroke="#000000"/> 		<path id="_F20DD391-3428-49BC-BAAB-32DFB352EAF0frame17" oryx:anchors="top left" style="opacity:1;fill:none" d="M 20 20 L 20 24" stroke="#000000"/> 		<circle id="_F20DD391-3428-49BC-BAAB-32DFB352EAF0frame18" oryx:anchors="top left" fill="black" cx="13.002" cy="5.916" r="5.417" stroke="#000000"/> 		<path id="_F20DD391-3428-49BC-BAAB-32DFB352EAF0frame19" oryx:anchors="top left" style="opacity:1;fill:#F0EFF0;" stroke="#000000" d="M8.043,7.083c0,0,2.814-2.426,5.376-1.807s4.624-0.693,4.624-0.693    c0.25,1.688,0.042,3.75-1.458,5.584c0,0,1.083,0.75,1.083,1.5s0.125,1.875-1,3s-5.5,1.25-6.75,0S8.668,12.834,8.668,12    s0.583-1.25,1.25-1.917C8.835,9.5,7.419,7.708,8.043,7.083z"/> 	</g> 	 	<g id="_F20DD391-3428-49BC-BAAB-32DFB352EAF0serviceTask" transform="scale(0.7,0.7) translate(8,8)" display="none"> 		<polygon oryx:anchors="top left" id="_F20DD391-3428-49BC-BAAB-32DFB352EAF0frame20" style="opacity:1;fill:#ffffff" stroke="#000000" points="15.392,5.064 17.954,2.502 20.347,4.895 17.786,7.455     18.729,9.732 22.353,9.732 22.353,13.115 18.731,13.115 17.788,15.392 20.351,17.955 17.958,20.347 15.397,17.786 13.12,18.729     13.12,22.353 9.737,22.353 9.737,18.731 7.46,17.788 4.897,20.35 2.506,17.958 5.066,15.397 4.124,13.12 0.5,13.12 0.5,9.737     4.121,9.737 5.065,7.461 2.503,4.898 4.895,2.506 7.455,5.066 9.732,4.125 9.732,0.5 13.116,0.5 13.116,4.121 "/> 		<circle oryx:anchors="top left" id="_F20DD391-3428-49BC-BAAB-32DFB352EAF0frame21" style="opacity:1;fill:none" stroke="#000000" cx="11.427" cy="11.426" r="3.714"/> 		<polygon oryx:anchors="top left" id="_F20DD391-3428-49BC-BAAB-32DFB352EAF0frame22" style="opacity:1;fill:#ffffff" stroke="#000000" points="21.392,11.064 23.954,8.502 26.347,10.895 23.786,13.455     24.729,15.732 28.353,15.732 28.353,19.115 24.731,19.115 23.788,21.392 26.351,23.955 23.958,26.347 21.397,23.786 19.12,24.729     19.12,28.353 15.737,28.353 15.737,24.731 13.46,23.788 10.897,26.35 8.506,23.958 11.066,21.397 10.124,19.12 6.5,19.12     6.5,15.737 10.121,15.737 11.065,13.461 8.503,10.898 10.895,8.506 13.455,11.066 15.732,10.125 15.732,6.5 19.116,6.5     19.116,10.121 "/> 		<circle oryx:anchors="top left" id="_F20DD391-3428-49BC-BAAB-32DFB352EAF0frame23" style="opacity:1;fill:none;" stroke="#000000" cx="17.427" cy="17.426" r="3.714"/> 	</g> 	 	<g id="_F20DD391-3428-49BC-BAAB-32DFB352EAF0sendTask" display="none"> 		<path id="_F20DD391-3428-49BC-BAAB-32DFB352EAF0stframe24" oryx:anchors="left top" stroke="#FFFFFF" fill="black" stroke-width="1" d="M8,11 L8,21 L24,21 L24,11 L16,17z"/> 		<path id="_F20DD391-3428-49BC-BAAB-32DFB352EAF0stframe25" oryx:anchors="left top" stroke="#FFFFFF" fill="black" stroke-width="1" d="M7,10 L16,17 L25 10z"/> 	</g> 	 	<g id="_F20DD391-3428-49BC-BAAB-32DFB352EAF0receiveTask" display="none"> 		<path id="_F20DD391-3428-49BC-BAAB-32DFB352EAF0frame26" oryx:anchors="left top" stroke="#000000" fill="none" stroke-width="1" d="M8,11 L8,21 L24,21 L24,11z M8,11 L16,17 L24,11"/> 	</g> 	 	<g id="_F20DD391-3428-49BC-BAAB-32DFB352EAF0none" display="inherit"/>  	<g id="_F20DD391-3428-49BC-BAAB-32DFB352EAF0sequential" display="none">         <path oryx:anchors="bottom" fill="none" stroke="#000000" stroke-width="2" d="M46,76h10M46,72h10 M46,68h10" id="_F20DD391-3428-49BC-BAAB-32DFB352EAF0__F20DD391-3428-49BC-BAAB-32DFB352EAF0_20"/>     </g>   </g></g><g class="children" style="overflow:hidden"/><g class="edge"/></g><g class="controls"><g class="dockers"/><g class="magnets" transform="translate(420, 240)"><g pointer-events="all" display="none" transform="translate(-7, 12)"><circle cx="8" cy="8" r="4" stroke="none" fill="red" fill-opacity="0.3"/></g><g pointer-events="all" display="none" transform="translate(-7, 32)"><circle cx="8" cy="8" r="4" stroke="none" fill="red" fill-opacity="0.3"/></g><g pointer-events="all" display="none" transform="translate(-7, 52)"><circle cx="8" cy="8" r="4" stroke="none" fill="red" fill-opacity="0.3"/></g><g pointer-events="all" display="none" transform="translate(17, 71)"><circle cx="8" cy="8" r="4" stroke="none" fill="red" fill-opacity="0.3"/></g><g pointer-events="all" display="none" transform="translate(42, 71)"><circle cx="8" cy="8" r="4" stroke="none" fill="red" fill-opacity="0.3"/></g><g pointer-events="all" display="none" transform="translate(67, 71)"><circle cx="8" cy="8" r="4" stroke="none" fill="red" fill-opacity="0.3"/></g><g pointer-events="all" display="none" transform="translate(91, 12)"><circle cx="8" cy="8" r="4" stroke="none" fill="red" fill-opacity="0.3"/></g><g pointer-events="all" display="none" transform="translate(91, 32)"><circle cx="8" cy="8" r="4" stroke="none" fill="red" fill-opacity="0.3"/></g><g pointer-events="all" display="none" transform="translate(91, 52)"><circle cx="8" cy="8" r="4" stroke="none" fill="red" fill-opacity="0.3"/></g><g pointer-events="all" display="none" transform="translate(17, -7)"><circle cx="8" cy="8" r="4" stroke="none" fill="red" fill-opacity="0.3"/></g><g pointer-events="all" display="none" transform="translate(42, -7)"><circle cx="8" cy="8" r="4" stroke="none" fill="red" fill-opacity="0.3"/></g><g pointer-events="all" display="none" transform="translate(67, -7)"><circle cx="8" cy="8" r="4" stroke="none" fill="red" fill-opacity="0.3"/></g><g pointer-events="all" display="none" transform="translate(42, 32)"><circle cx="8" cy="8" r="4" stroke="none" fill="red" fill-opacity="0.3"/></g></g></g></g><g id="_8D93D2D6-F5F7-487E-B0E0-640AB172DC62" bpmn2nodeid="_01353123-5FF0-4773-A0DC-C72764363EB6"><g class="stencils" transform="translate(626, 286)"><g class="me"><g pointer-events="fill" id="_8D93D2D6-F5F7-487E-B0E0-640AB172DC62">      <defs id="_8D93D2D6-F5F7-487E-B0E0-640AB172DC62__8D93D2D6-F5F7-487E-B0E0-640AB172DC62_5"> 		<radialGradient id="_8D93D2D6-F5F7-487E-B0E0-640AB172DC62background" cx="10%" cy="10%" r="100%" fx="10%" fy="10%"> 			<stop offset="0%" stop-color="#ffffff" stop-opacity="1" id="_8D93D2D6-F5F7-487E-B0E0-640AB172DC62__8D93D2D6-F5F7-487E-B0E0-640AB172DC62_6"/> 			<stop id="_8D93D2D6-F5F7-487E-B0E0-640AB172DC62fill_el" offset="100%" stop-color="#ff6347" stop-opacity="1"/> 		</radialGradient> 	</defs> 	     <circle id="_8D93D2D6-F5F7-487E-B0E0-640AB172DC62bg_frame" cx="14" cy="14" r="14" stroke="#000000" fill="url(#_8D93D2D6-F5F7-487E-B0E0-640AB172DC62background) white" stroke-width="3"/> 	<text font-size="11" id="_8D93D2D6-F5F7-487E-B0E0-640AB172DC62text_name" x="14" y="30" oryx:align="top center" stroke="black" stroke-width="0pt" letter-spacing="-0.01px" fill="#000000" text-anchor="middle" transform="rotate(0 14 30)" visibility="inherit" oryx:fontSize="11"/>   </g></g><g class="children" style="overflow:hidden"/><g class="edge"/></g><g class="controls"><g class="dockers"/><g class="magnets" transform="translate(626, 286)"><g pointer-events="all" display="none" transform="translate(6, 6)"><circle cx="8" cy="8" r="4" stroke="none" fill="red" fill-opacity="0.3"/></g></g></g></g></g><g class="edge"><g id="_A8F31C90-DC53-41B8-8F35-8AA1E917C294" bpmn2nodeid="_C81F9B39-145C-411E-8E08-49D36F30744D"><g class="stencils"><g class="me"><g pointer-events="painted" bpmn2nodeid="_3DBE41E2-56E7-4D30-A992-B75517B20C4A"><path id="_A8F31C90-DC53-41B8-8F35-8AA1E917C294_1" d="M75.8671875 300L182.66796875 300 " stroke="#000000" fill="none" stroke-width="2" stroke-linecap="round" stroke-linejoin="round" marker-start="url(#_A8F31C90-DC53-41B8-8F35-8AA1E917C294start)" marker-end="url(#_A8F31C90-DC53-41B8-8F35-8AA1E917C294end)"/></g><text id="_A8F31C90-DC53-41B8-8F35-8AA1E917C294text_name" font-size="12" x="89.8671875" y="286" oryx:edgePosition="startTop" stroke-width="0pt" letter-spacing="-0.01px" fill="#000000" text-anchor="start" transform="rotate(360 75.8671875 300)" visibility="inherit" oryx:fontSize="12"/></g><g class="children" style="overflow:hidden"/><g class="edge"/></g><g class="controls"><g class="dockers"/><g class="magnets"/></g></g><g id="_0C683385-060E-4036-977F-91E67E4D3C09" bpmn2nodeid="_E7E3481B-2AA0-4A50-A94B-D6FEE9B547F5"><g class="stencils"><g class="me"><g pointer-events="painted" bpmn2nodeid="_252F06FD-7E8C-43E1-8222-60FA2EE6EBCE"><path id="_0C683385-060E-4036-977F-91E67E4D3C09_1" d="M283.35846310690306 297.8479289270554L299.64153689309694 297.1520710729446 " stroke="#000000" fill="none" stroke-width="2" stroke-linecap="round" stroke-linejoin="round" marker-start="url(#_0C683385-060E-4036-977F-91E67E4D3C09start)" marker-end="url(#_0C683385-060E-4036-977F-91E67E4D3C09end)"/></g><text id="_0C683385-060E-4036-977F-91E67E4D3C09text_name" font-size="12" x="297.35846310690306" y="283.8479289270554" oryx:edgePosition="startTop" stroke-width="0pt" letter-spacing="-0.01px" fill="#000000" text-anchor="start" transform="rotate(357.5529513576764 283.35846310690306 297.8479289270554)" visibility="inherit" oryx:fontSize="12"/></g><g class="children" style="overflow:hidden"/><g class="edge"/></g><g class="controls"><g class="dockers"/><g class="magnets"/></g></g><g id="_A737B85F-2120-4978-8947-31F0B33052ED" bpmn2nodeid="_B0A5A93A-DEEC-4C0C-B42B-BE5977E189A3"><g class="stencils"><g class="me"><g pointer-events="painted" bpmn2nodeid="_905F9649-37DC-4D2F-84E8-120A671CE707"><path id="_A737B85F-2120-4978-8947-31F0B33052ED_1" d="M400.6797778767137 288.6650277654108L419.3202221232863 286.3349722345892 " stroke="#000000" fill="none" stroke-width="2" stroke-linecap="round" stroke-linejoin="round" marker-start="url(#_A737B85F-2120-4978-8947-31F0B33052EDstart)" marker-end="url(#_A737B85F-2120-4978-8947-31F0B33052EDend)"/></g><text id="_A737B85F-2120-4978-8947-31F0B33052EDtext_name" font-size="12" x="414.6797778767137" y="274.6650277654108" oryx:edgePosition="startTop" stroke-width="0pt" letter-spacing="-0.01px" fill="#000000" text-anchor="start" transform="rotate(352.87498365109815 400.6797778767137 288.6650277654108)" visibility="inherit" oryx:fontSize="12"/></g><g class="children" style="overflow:hidden"/><g class="edge"/></g><g class="controls"><g class="dockers"/><g class="magnets"/></g></g><g id="_83F16F5A-CAA6-4C38-99C1-481D0E69AFEB" bpmn2nodeid="_B123E373-EE55-44CE-8A74-0B6EC341DB18"><g class="stencils"><g class="me"><g pointer-events="painted" bpmn2nodeid="_FE511742-EEC3-44C7-BEA7-C4E90B90FA2C"><path id="_83F16F5A-CAA6-4C38-99C1-481D0E69AFEB_1" d="M520.1337756043229 285.8980912475674L625.7255993956771 298.3206587524326 " stroke="#000000" fill="none" stroke-width="2" stroke-linecap="round" stroke-linejoin="round" marker-start="url(#_83F16F5A-CAA6-4C38-99C1-481D0E69AFEBstart)" marker-end="url(#_83F16F5A-CAA6-4C38-99C1-481D0E69AFEBend)"/></g><text id="_83F16F5A-CAA6-4C38-99C1-481D0E69AFEBtext_name" font-size="12" x="534.1337756043229" y="271.8980912475674" oryx:edgePosition="startTop" stroke-width="0pt" letter-spacing="-0.01px" fill="#000000" text-anchor="start" transform="rotate(6.709836807756972 520.1337756043229 285.8980912475674)" visibility="inherit" oryx:fontSize="12"/></g><g class="children" style="overflow:hidden"/><g class="edge"/></g><g class="controls"><g class="dockers"/><g class="magnets"/></g></g></g><text id="_23414655-7EF0-44C2-8495-38823EB4658E" style="stroke-width:1;fill:rgb(177,194,214);font-family:arial;font-weight:bold" font-size="12" onclick="ORYX.Plugins.CanvasTitle.openTextualAnalysis()" onmouseover="ORYX.Plugins.CanvasTitle.addToolTip('_23414655-7EF0-44C2-8495-38823EB4658E')" transform="translate(10, 20)">P1111 v.1.0 (src.P1111)</text></g></g></svg>