<svg xmlns="http://www.w3.org/2000/svg" xmlns:oryx="http://oryx-editor.org" id="_BB060D56-2C9B-4691-BF44-69A7EDC9499C" width="871.0139770507812" height="397.875" xmlns:xlink="http://www.w3.org/1999/xlink" xmlns:svg="http://www.w3.org/2000/svg"><defs><marker id="_912B6193-7C49-484A-8309-C10EBCD5DFDEstart" refX="1" refY="5" markerUnits="userSpaceOnUse" markerWidth="17" markerHeight="11" orient="auto" fill="#000000" stroke="#000000"> 	  		<path id="_912B6193-7C49-484A-8309-C10EBCD5DFDEconditional" d="M 0 5 L 8 0 L 16 5 L 8 10 L 0 5" fill="white" stroke="#000000" stroke-width="1" display="none"/> 			<path id="_912B6193-7C49-484A-8309-C10EBCD5DFDEdefault" d="M 5 0 L 11 10" fill="white" stroke="#000000" stroke-width="1" display="none"/> 	  	</marker><marker id="_912B6193-7C49-484A-8309-C10EBCD5DFDEend" refX="15" refY="6" markerUnits="userSpaceOnUse" markerWidth="15" markerHeight="12" orient="auto" fill="#000000" stroke="#000000"> 	  		<path id="_912B6193-7C49-484A-8309-C10EBCD5DFDEframe2" d="M 0 1 L 15 6 L 0 11z" fill="#000000" stroke="#000000" stroke-linejoin="round" stroke-width="2"/> 	  	</marker><marker id="_61357600-677A-422C-BF1D-C7ED637B3308start" refX="1" refY="5" markerUnits="userSpaceOnUse" markerWidth="17" markerHeight="11" orient="auto" fill="#000000" stroke="#000000"> 	  		<path id="_61357600-677A-422C-BF1D-C7ED637B3308conditional" d="M 0 5 L 8 0 L 16 5 L 8 10 L 0 5" fill="white" stroke="#000000" stroke-width="1" display="none"/> 			<path id="_61357600-677A-422C-BF1D-C7ED637B3308default" d="M 5 0 L 11 10" fill="white" stroke="#000000" stroke-width="1" display="none"/> 	  	</marker><marker id="_61357600-677A-422C-BF1D-C7ED637B3308end" refX="15" refY="6" markerUnits="userSpaceOnUse" markerWidth="15" markerHeight="12" orient="auto" fill="#000000" stroke="#000000"> 	  		<path id="_61357600-677A-422C-BF1D-C7ED637B3308frame2" d="M 0 1 L 15 6 L 0 11z" fill="#000000" stroke="#000000" stroke-linejoin="round" stroke-width="2"/> 	  	</marker><marker id="_71E3D6FA-592C-4830-8525-9262149142A4start" refX="1" refY="5" markerUnits="userSpaceOnUse" markerWidth="17" markerHeight="11" orient="auto" fill="#000000" stroke="#000000"> 	  		<path id="_71E3D6FA-592C-4830-8525-9262149142A4conditional" d="M 0 5 L 8 0 L 16 5 L 8 10 L 0 5" fill="white" stroke="#000000" stroke-width="1" display="none"/> 			<path id="_71E3D6FA-592C-4830-8525-9262149142A4default" d="M 5 0 L 11 10" fill="white" stroke="#000000" stroke-width="1" display="none"/> 	  	</marker><marker id="_71E3D6FA-592C-4830-8525-9262149142A4end" refX="15" refY="6" markerUnits="userSpaceOnUse" markerWidth="15" markerHeight="12" orient="auto" fill="#000000" stroke="#000000"> 	  		<path id="_71E3D6FA-592C-4830-8525-9262149142A4frame2" d="M 0 1 L 15 6 L 0 11z" fill="#000000" stroke="#000000" stroke-linejoin="round" stroke-width="2"/> 	  	</marker><marker id="_A96059A6-4FDE-4D75-AA7E-28815FAB8F31start" refX="1" refY="5" markerUnits="userSpaceOnUse" markerWidth="17" markerHeight="11" orient="auto" fill="#000000" stroke="#000000"> 	  		<path id="_A96059A6-4FDE-4D75-AA7E-28815FAB8F31conditional" d="M 0 5 L 8 0 L 16 5 L 8 10 L 0 5" fill="white" stroke="#000000" stroke-width="1" display="none"/> 			<path id="_A96059A6-4FDE-4D75-AA7E-28815FAB8F31default" d="M 5 0 L 11 10" fill="white" stroke="#000000" stroke-width="1" display="none"/> 	  	</marker><marker id="_A96059A6-4FDE-4D75-AA7E-28815FAB8F31end" refX="15" refY="6" markerUnits="userSpaceOnUse" markerWidth="15" markerHeight="12" orient="auto" fill="#000000" stroke="#000000"> 	  		<path id="_A96059A6-4FDE-4D75-AA7E-28815FAB8F31frame2" d="M 0 1 L 15 6 L 0 11z" fill="#000000" stroke="#000000" stroke-linejoin="round" stroke-width="2"/> 	  	</marker></defs><g stroke="none" font-family="Verdana, sans-serif" font-size-adjust="none" font-style="normal" font-variant="normal" font-weight="normal" line-heigth="normal" font-size="12"><g class="stencils" transform="translate(15, 16.109375)"><g class="me"/><g class="children"><g id="_9F2673AE-0571-4268-9EB5-BCDE763A7C6F" bpmn2nodeid="processStartEvent"><g class="stencils" transform="translate(45, 285)"><g class="me"><g pointer-events="fill" id="_9F2673AE-0571-4268-9EB5-BCDE763A7C6F">        <defs id="_9F2673AE-0571-4268-9EB5-BCDE763A7C6F__9F2673AE-0571-4268-9EB5-BCDE763A7C6F_5"> 		<radialGradient id="_9F2673AE-0571-4268-9EB5-BCDE763A7C6Fbackground" cx="10%" cy="10%" r="100%" fx="10%" fy="10%"> 			<stop offset="0%" stop-color="#ffffff" stop-opacity="1" id="_9F2673AE-0571-4268-9EB5-BCDE763A7C6F__9F2673AE-0571-4268-9EB5-BCDE763A7C6F_6"/> 			<stop id="_9F2673AE-0571-4268-9EB5-BCDE763A7C6Ffill_el" offset="100%" stop-color="#9acd32" stop-opacity="1"/> 		</radialGradient> 	</defs> 	     <circle id="_9F2673AE-0571-4268-9EB5-BCDE763A7C6Fbg_frame" cx="15" cy="15" r="15" stroke="#000000" fill="url(#_9F2673AE-0571-4268-9EB5-BCDE763A7C6Fbackground) white" stroke-width="1" style="stroke-dasharray: 5.5, 3"/>      <circle id="_9F2673AE-0571-4268-9EB5-BCDE763A7C6Fframe" cx="15" cy="15" r="15" stroke="#000000" fill="none" stroke-width="1" display="inherit"/>  	<text font-size="11" id="_9F2673AE-0571-4268-9EB5-BCDE763A7C6Ftext_name" x="15" y="32" oryx:align="top center" stroke="black" stroke-width="0pt" letter-spacing="-0.01px" fill="#000000" text-anchor="middle" transform="rotate(0 15 32)" visibility="inherit" oryx:fontSize="11"/>   </g></g><g class="children" style="overflow:hidden"/><g class="edge"/></g><g class="controls"><g class="dockers"/><g class="magnets" transform="translate(45, 285)"><g pointer-events="all" display="none" transform="translate(7, 7)"><circle cx="8" cy="8" r="4" stroke="none" fill="red" fill-opacity="0.3"/></g></g></g></g><g id="_A7F23173-ED5C-48ED-B72E-654E7B2FC207" bpmn2nodeid="_2D2647F3-2BF3-4793-A6CC-15DD723CDA5B"><g class="stencils" transform="translate(150.00000000000003, 255.00000000000003)"><g class="me"><g pointer-events="fill" oryx:minimumSize="50 40" id="_A7F23173-ED5C-48ED-B72E-654E7B2FC207">   	<defs id="_A7F23173-ED5C-48ED-B72E-654E7B2FC207__A7F23173-ED5C-48ED-B72E-654E7B2FC207_17"> 		<radialGradient id="_A7F23173-ED5C-48ED-B72E-654E7B2FC207background" cx="10%" cy="10%" r="100%" fx="10%" fy="10%"> 			<stop offset="0%" stop-color="#ffffff" stop-opacity="1" id="_A7F23173-ED5C-48ED-B72E-654E7B2FC207__A7F23173-ED5C-48ED-B72E-654E7B2FC207_18"/> 			<stop id="_A7F23173-ED5C-48ED-B72E-654E7B2FC207fill_el" offset="100%" stop-color="#fafad2" stop-opacity="1"/> 		</radialGradient> 		<radialGradient id="_A7F23173-ED5C-48ED-B72E-654E7B2FC207borderbackground" cx="10%" cy="10%" r="100%" fx="10%" fy="10%"> 			<stop offset="0%" stop-color="#ffffff" stop-opacity="1" id="_A7F23173-ED5C-48ED-B72E-654E7B2FC207__A7F23173-ED5C-48ED-B72E-654E7B2FC207_19"/> 			<stop id="_A7F23173-ED5C-48ED-B72E-654E7B2FC207fill_border" offset="100%" stop-color="#000000" stop-opacity="1" stroke="#000000"/> 		</radialGradient> 	</defs> 	 	<rect id="_A7F23173-ED5C-48ED-B72E-654E7B2FC207text_frame" oryx:anchors="bottom top right left" x="1" y="1" width="94" height="79" rx="10" ry="10" stroke="none" stroke-width="0" fill="none"/> 	<rect id="_A7F23173-ED5C-48ED-B72E-654E7B2FC207bg_frame" oryx:resize="vertical horizontal" x="0" y="0" width="100" height="80" rx="10" ry="10" stroke="#000000" stroke-width="1" fill="url(#_A7F23173-ED5C-48ED-B72E-654E7B2FC207background) #ffffcc"/> 		<text font-size="12" id="_A7F23173-ED5C-48ED-B72E-654E7B2FC207text_name" x="50" y="40" oryx:align="middle center" oryx:fittoelem="text_frame" stroke="black" text-anchor="middle" stroke-width="0pt" letter-spacing="-0.01px" fill="#000000" transform="rotate(0 50 40)" visibility="inherit" oryx:fontSize="12"><tspan x="50" y="40" dy="-25" id="ext-gen1956">P</tspan><tspan x="50" y="40" dy="-13">r</tspan><tspan x="50" y="40" dy="-1" id="ext-gen1957">o</tspan><tspan x="50" y="40" dy="11" id="ext-gen2007">m</tspan><tspan x="50" y="40" dy="23" id="ext-gen1994">o</tspan><tspan x="50" y="40" dy="35" id="ext-gen2046">t</tspan><tspan x="50" y="40" dy="47">i</tspan><tspan x="50" y="40" dy="59" id="ext-gen2070">on</tspan></text>     <g id="_A7F23173-ED5C-48ED-B72E-654E7B2FC207manualTask" transform="scale(0.7,0.7) translate(8,8)" display="none">     	<path oryx:anchors="top left" id="_A7F23173-ED5C-48ED-B72E-654E7B2FC207frame" style="opacity:1;fill:none;fill-opacity:1;stroke-width:1" d="M0.5,3.751l4.083-3.25c0,0,11.166,0.083,12.083,0.083s-2.417,2.917-1.5,2.917     s11.667,0,12.584,0c1.166,1.708-0.168,3.167-0.834,3.667s0.875,1.917-1,4.417c-0.75,0.25,0.75,1.875-1.333,3.333     c-1.167,0.583,0.583,1.542-1.25,2.833c-1.167,0-20.833,0.083-20.833,0.083l-2-1.333V3.751z" stroke="#000000"/> 		<path id="_A7F23173-ED5C-48ED-B72E-654E7B2FC207frame2" oryx:anchors="top left" style="opacity:1;fill:none;stroke-width:2" d="M 13.5 7 L 27 7" stroke="#000000"/> 		<path id="_A7F23173-ED5C-48ED-B72E-654E7B2FC207frame3" oryx:anchors="top left" style="opacity:1;fill:none;stroke-width:2" d="M 13.5 11 L 26 11" stroke="#000000"/> 		<path id="_A7F23173-ED5C-48ED-B72E-654E7B2FC207frame4" oryx:anchors="top left" style="opacity:1;fill:none;stroke-width:1.5" d="M 14 14.5 L 25 14.5" stroke="#000000"/> 		<path id="_A7F23173-ED5C-48ED-B72E-654E7B2FC207frame5" oryx:anchors="top left" style="opacity:1;fill:none;stroke-width:1.5" d="M 8.2 3.1 L 15 3.1" stroke="#000000"/> 	</g> 	 	<g id="_A7F23173-ED5C-48ED-B72E-654E7B2FC207businessRuleTask" transform="scale(0.7,0.7) translate(8,8)" display="inherit"> 		<rect id="_A7F23173-ED5C-48ED-B72E-654E7B2FC207frame6" oryx:anchors="top left" x="0" y="0" width="22" height="4" style="opacity:1;fill:#B3B1B3;fill-opacity:1;" stroke="#000000"/> 		<rect id="_A7F23173-ED5C-48ED-B72E-654E7B2FC207frame7" oryx:anchors="top left" x="0" y="4" style="opacity:1;fill:none;" width="22" height="12" stroke="#000000"/> 		<path id="_A7F23173-ED5C-48ED-B72E-654E7B2FC207frame8" oryx:anchors="top left" style="opacity:1;fill:none;" d="M 0 10 L 22 10" stroke="#000000"/> 		<path id="_A7F23173-ED5C-48ED-B72E-654E7B2FC207frame9" oryx:anchors="top left" style="opacity:1; fill:none;" d="M 7 4 L 7 16" stroke="#000000"/> 	</g> 	 	<g id="_A7F23173-ED5C-48ED-B72E-654E7B2FC207scriptTask" transform="scale(0.7,0.7) translate(8,8)" display="none"> 		<path oryx:anchors="top left" id="_A7F23173-ED5C-48ED-B72E-654E7B2FC207frame10" style="opacity:1;fill:none;" stroke="#000000" d="M6.402,0.5h14.5c0,0-5.833,2.833-5.833,5.583s4.417,6,4.417,9.167    s-4.167,5.083-4.167,5.083H0.235c0,0,5-2.667,5-5s-4.583-6.75-4.583-9.25S6.402,0.5,6.402,0.5z"/> 		<path oryx:anchors="top left" id="_A7F23173-ED5C-48ED-B72E-654E7B2FC207frame11" style="opacity:1;fill:none;stroke-width:1.5" d="M 3.5 4.5 L 13.5 4.5" stroke="#000000"/> 		<path oryx:anchors="top left" id="_A7F23173-ED5C-48ED-B72E-654E7B2FC207frame12" style="opacity:1;fill:none;stroke-width:1.5" d="M 3.8 8.5 L 13.8 8.5" stroke="#000000"/> 		<path oryx:anchors="top left" id="_A7F23173-ED5C-48ED-B72E-654E7B2FC207frame13" style="opacity:1;fill:none;stroke-width:1.5" d="M 6.3 12.5 L 16.3 12.5" stroke="#000000"/> 		<path oryx:anchors="top left" id="_A7F23173-ED5C-48ED-B72E-654E7B2FC207frame14" style="opacity:1;fill:none;stroke-width:1.5" d="M 6.5 16.5 L 16.5 16.5" stroke="#000000"/> 	</g> 	 	<g id="_A7F23173-ED5C-48ED-B72E-654E7B2FC207userTask" transform="scale(0.7,0.7) translate(8,8)" display="none"> 		<path id="_A7F23173-ED5C-48ED-B72E-654E7B2FC207frame15" oryx:anchors="top left" style="opacity:1;fill:#F4F6F7" stroke="#000000" d="M0.585,24.167h24.083v-7.833c0,0-2.333-3.917-7.083-5.167h-9.25    c-4.417,1.333-7.833,5.75-7.833,5.75L0.585,24.167z"/> 		<path id="_A7F23173-ED5C-48ED-B72E-654E7B2FC207frame16" oryx:anchors="top left" style="opacity:1;fill:none" d="M 6 20 L 6 24" stroke="#000000"/> 		<path id="_A7F23173-ED5C-48ED-B72E-654E7B2FC207frame17" oryx:anchors="top left" style="opacity:1;fill:none" d="M 20 20 L 20 24" stroke="#000000"/> 		<circle id="_A7F23173-ED5C-48ED-B72E-654E7B2FC207frame18" oryx:anchors="top left" fill="black" cx="13.002" cy="5.916" r="5.417" stroke="#000000"/> 		<path id="_A7F23173-ED5C-48ED-B72E-654E7B2FC207frame19" oryx:anchors="top left" style="opacity:1;fill:#F0EFF0;" stroke="#000000" d="M8.043,7.083c0,0,2.814-2.426,5.376-1.807s4.624-0.693,4.624-0.693    c0.25,1.688,0.042,3.75-1.458,5.584c0,0,1.083,0.75,1.083,1.5s0.125,1.875-1,3s-5.5,1.25-6.75,0S8.668,12.834,8.668,12    s0.583-1.25,1.25-1.917C8.835,9.5,7.419,7.708,8.043,7.083z"/> 	</g> 	 	<g id="_A7F23173-ED5C-48ED-B72E-654E7B2FC207serviceTask" transform="scale(0.7,0.7) translate(8,8)" display="none"> 		<polygon oryx:anchors="top left" id="_A7F23173-ED5C-48ED-B72E-654E7B2FC207frame20" style="opacity:1;fill:#ffffff" stroke="#000000" points="15.392,5.064 17.954,2.502 20.347,4.895 17.786,7.455     18.729,9.732 22.353,9.732 22.353,13.115 18.731,13.115 17.788,15.392 20.351,17.955 17.958,20.347 15.397,17.786 13.12,18.729     13.12,22.353 9.737,22.353 9.737,18.731 7.46,17.788 4.897,20.35 2.506,17.958 5.066,15.397 4.124,13.12 0.5,13.12 0.5,9.737     4.121,9.737 5.065,7.461 2.503,4.898 4.895,2.506 7.455,5.066 9.732,4.125 9.732,0.5 13.116,0.5 13.116,4.121 "/> 		<circle oryx:anchors="top left" id="_A7F23173-ED5C-48ED-B72E-654E7B2FC207frame21" style="opacity:1;fill:none" stroke="#000000" cx="11.427" cy="11.426" r="3.714"/> 		<polygon oryx:anchors="top left" id="_A7F23173-ED5C-48ED-B72E-654E7B2FC207frame22" style="opacity:1;fill:#ffffff" stroke="#000000" points="21.392,11.064 23.954,8.502 26.347,10.895 23.786,13.455     24.729,15.732 28.353,15.732 28.353,19.115 24.731,19.115 23.788,21.392 26.351,23.955 23.958,26.347 21.397,23.786 19.12,24.729     19.12,28.353 15.737,28.353 15.737,24.731 13.46,23.788 10.897,26.35 8.506,23.958 11.066,21.397 10.124,19.12 6.5,19.12     6.5,15.737 10.121,15.737 11.065,13.461 8.503,10.898 10.895,8.506 13.455,11.066 15.732,10.125 15.732,6.5 19.116,6.5     19.116,10.121 "/> 		<circle oryx:anchors="top left" id="_A7F23173-ED5C-48ED-B72E-654E7B2FC207frame23" style="opacity:1;fill:none;" stroke="#000000" cx="17.427" cy="17.426" r="3.714"/> 	</g> 	 	<g id="_A7F23173-ED5C-48ED-B72E-654E7B2FC207sendTask" display="none"> 		<path id="_A7F23173-ED5C-48ED-B72E-654E7B2FC207stframe24" oryx:anchors="left top" stroke="#FFFFFF" fill="black" stroke-width="1" d="M8,11 L8,21 L24,21 L24,11 L16,17z"/> 		<path id="_A7F23173-ED5C-48ED-B72E-654E7B2FC207stframe25" oryx:anchors="left top" stroke="#FFFFFF" fill="black" stroke-width="1" d="M7,10 L16,17 L25 10z"/> 	</g> 	 	<g id="_A7F23173-ED5C-48ED-B72E-654E7B2FC207receiveTask" display="none"> 		<path id="_A7F23173-ED5C-48ED-B72E-654E7B2FC207frame26" oryx:anchors="left top" stroke="#000000" fill="none" stroke-width="1" d="M8,11 L8,21 L24,21 L24,11z M8,11 L16,17 L24,11"/> 	</g> 	 	<g id="_A7F23173-ED5C-48ED-B72E-654E7B2FC207none" display="inherit"/>  	<g id="_A7F23173-ED5C-48ED-B72E-654E7B2FC207sequential" display="none">         <path oryx:anchors="bottom" fill="none" stroke="#000000" stroke-width="2" d="M46,76h10M46,72h10 M46,68h10" id="_A7F23173-ED5C-48ED-B72E-654E7B2FC207__A7F23173-ED5C-48ED-B72E-654E7B2FC207_20"/>     </g>   </g></g><g class="children" style="overflow:hidden"/><g class="edge"/></g><g class="controls"><g class="dockers"/><g class="magnets" transform="translate(150.00000000000003, 255.00000000000003)"><g pointer-events="all" display="none" transform="translate(-7, 12)"><circle cx="8" cy="8" r="4" stroke="none" fill="red" fill-opacity="0.3"/></g><g pointer-events="all" display="none" transform="translate(-7, 32)"><circle cx="8" cy="8" r="4" stroke="none" fill="red" fill-opacity="0.3"/></g><g pointer-events="all" display="none" transform="translate(-7, 52)"><circle cx="8" cy="8" r="4" stroke="none" fill="red" fill-opacity="0.3"/></g><g pointer-events="all" display="none" transform="translate(17, 71)"><circle cx="8" cy="8" r="4" stroke="none" fill="red" fill-opacity="0.3"/></g><g pointer-events="all" display="none" transform="translate(42, 71)"><circle cx="8" cy="8" r="4" stroke="none" fill="red" fill-opacity="0.3"/></g><g pointer-events="all" display="none" transform="translate(67, 71)"><circle cx="8" cy="8" r="4" stroke="none" fill="red" fill-opacity="0.3"/></g><g pointer-events="all" display="none" transform="translate(91, 12)"><circle cx="8" cy="8" r="4" stroke="none" fill="red" fill-opacity="0.3"/></g><g pointer-events="all" display="none" transform="translate(91, 32)"><circle cx="8" cy="8" r="4" stroke="none" fill="red" fill-opacity="0.3"/></g><g pointer-events="all" display="none" transform="translate(91, 52)"><circle cx="8" cy="8" r="4" stroke="none" fill="red" fill-opacity="0.3"/></g><g pointer-events="all" display="none" transform="translate(17, -7)"><circle cx="8" cy="8" r="4" stroke="none" fill="red" fill-opacity="0.3"/></g><g pointer-events="all" display="none" transform="translate(42, -7)"><circle cx="8" cy="8" r="4" stroke="none" fill="red" fill-opacity="0.3"/></g><g pointer-events="all" display="none" transform="translate(67, -7)"><circle cx="8" cy="8" r="4" stroke="none" fill="red" fill-opacity="0.3"/></g><g pointer-events="all" display="none" transform="translate(42, 32)"><circle cx="8" cy="8" r="4" stroke="none" fill="red" fill-opacity="0.3"/></g></g></g></g><g id="_840FB04C-6E7E-4EB2-8E79-8688D44F9C5D" bpmn2nodeid="_DE5332FE-AEA6-4296-B118-D1346F657BE1"><g class="stencils" transform="translate(330.00000000000006, 255.00000000000003)"><g class="me"><g pointer-events="fill" oryx:minimumSize="50 40" id="_840FB04C-6E7E-4EB2-8E79-8688D44F9C5D">   	<defs id="_840FB04C-6E7E-4EB2-8E79-8688D44F9C5D__840FB04C-6E7E-4EB2-8E79-8688D44F9C5D_17"> 		<radialGradient id="_840FB04C-6E7E-4EB2-8E79-8688D44F9C5Dbackground" cx="10%" cy="10%" r="100%" fx="10%" fy="10%"> 			<stop offset="0%" stop-color="#ffffff" stop-opacity="1" id="_840FB04C-6E7E-4EB2-8E79-8688D44F9C5D__840FB04C-6E7E-4EB2-8E79-8688D44F9C5D_18"/> 			<stop id="_840FB04C-6E7E-4EB2-8E79-8688D44F9C5Dfill_el" offset="100%" stop-color="#fafad2" stop-opacity="1"/> 		</radialGradient> 		<radialGradient id="_840FB04C-6E7E-4EB2-8E79-8688D44F9C5Dborderbackground" cx="10%" cy="10%" r="100%" fx="10%" fy="10%"> 			<stop offset="0%" stop-color="#ffffff" stop-opacity="1" id="_840FB04C-6E7E-4EB2-8E79-8688D44F9C5D__840FB04C-6E7E-4EB2-8E79-8688D44F9C5D_19"/> 			<stop id="_840FB04C-6E7E-4EB2-8E79-8688D44F9C5Dfill_border" offset="100%" stop-color="#000000" stop-opacity="1" stroke="#000000"/> 		</radialGradient> 	</defs> 	 	<rect id="_840FB04C-6E7E-4EB2-8E79-8688D44F9C5Dtext_frame" oryx:anchors="bottom top right left" x="1" y="1" width="94" height="79" rx="10" ry="10" stroke="none" stroke-width="0" fill="none"/> 	<rect id="_840FB04C-6E7E-4EB2-8E79-8688D44F9C5Dbg_frame" oryx:resize="vertical horizontal" x="0" y="0" width="100" height="80" rx="10" ry="10" stroke="#000000" stroke-width="1" fill="url(#_840FB04C-6E7E-4EB2-8E79-8688D44F9C5Dbackground) #ffffcc"/> 		<text font-size="12" id="_840FB04C-6E7E-4EB2-8E79-8688D44F9C5Dtext_name" x="50" y="40" oryx:align="middle center" oryx:fittoelem="text_frame" stroke="black" text-anchor="middle" stroke-width="0pt" letter-spacing="-0.01px" fill="#000000" transform="rotate(0 50 40)" visibility="inherit" oryx:fontSize="12"><tspan x="50" y="40" dy="5" id="ext-gen1635">I</tspan><tspan x="50" y="40" dy="17" id="ext-gen1659">n</tspan><tspan x="50" y="40" dy="29" id="ext-gen1771">it</tspan></text>     <g id="_840FB04C-6E7E-4EB2-8E79-8688D44F9C5DmanualTask" transform="scale(0.7,0.7) translate(8,8)" display="none">     	<path oryx:anchors="top left" id="_840FB04C-6E7E-4EB2-8E79-8688D44F9C5Dframe" style="opacity:1;fill:none;fill-opacity:1;stroke-width:1" d="M0.5,3.751l4.083-3.25c0,0,11.166,0.083,12.083,0.083s-2.417,2.917-1.5,2.917     s11.667,0,12.584,0c1.166,1.708-0.168,3.167-0.834,3.667s0.875,1.917-1,4.417c-0.75,0.25,0.75,1.875-1.333,3.333     c-1.167,0.583,0.583,1.542-1.25,2.833c-1.167,0-20.833,0.083-20.833,0.083l-2-1.333V3.751z" stroke="#000000"/> 		<path id="_840FB04C-6E7E-4EB2-8E79-8688D44F9C5Dframe2" oryx:anchors="top left" style="opacity:1;fill:none;stroke-width:2" d="M 13.5 7 L 27 7" stroke="#000000"/> 		<path id="_840FB04C-6E7E-4EB2-8E79-8688D44F9C5Dframe3" oryx:anchors="top left" style="opacity:1;fill:none;stroke-width:2" d="M 13.5 11 L 26 11" stroke="#000000"/> 		<path id="_840FB04C-6E7E-4EB2-8E79-8688D44F9C5Dframe4" oryx:anchors="top left" style="opacity:1;fill:none;stroke-width:1.5" d="M 14 14.5 L 25 14.5" stroke="#000000"/> 		<path id="_840FB04C-6E7E-4EB2-8E79-8688D44F9C5Dframe5" oryx:anchors="top left" style="opacity:1;fill:none;stroke-width:1.5" d="M 8.2 3.1 L 15 3.1" stroke="#000000"/> 	</g> 	 	<g id="_840FB04C-6E7E-4EB2-8E79-8688D44F9C5DbusinessRuleTask" transform="scale(0.7,0.7) translate(8,8)" display="inherit"> 		<rect id="_840FB04C-6E7E-4EB2-8E79-8688D44F9C5Dframe6" oryx:anchors="top left" x="0" y="0" width="22" height="4" style="opacity:1;fill:#B3B1B3;fill-opacity:1;" stroke="#000000"/> 		<rect id="_840FB04C-6E7E-4EB2-8E79-8688D44F9C5Dframe7" oryx:anchors="top left" x="0" y="4" style="opacity:1;fill:none;" width="22" height="12" stroke="#000000"/> 		<path id="_840FB04C-6E7E-4EB2-8E79-8688D44F9C5Dframe8" oryx:anchors="top left" style="opacity:1;fill:none;" d="M 0 10 L 22 10" stroke="#000000"/> 		<path id="_840FB04C-6E7E-4EB2-8E79-8688D44F9C5Dframe9" oryx:anchors="top left" style="opacity:1; fill:none;" d="M 7 4 L 7 16" stroke="#000000"/> 	</g> 	 	<g id="_840FB04C-6E7E-4EB2-8E79-8688D44F9C5DscriptTask" transform="scale(0.7,0.7) translate(8,8)" display="none"> 		<path oryx:anchors="top left" id="_840FB04C-6E7E-4EB2-8E79-8688D44F9C5Dframe10" style="opacity:1;fill:none;" stroke="#000000" d="M6.402,0.5h14.5c0,0-5.833,2.833-5.833,5.583s4.417,6,4.417,9.167    s-4.167,5.083-4.167,5.083H0.235c0,0,5-2.667,5-5s-4.583-6.75-4.583-9.25S6.402,0.5,6.402,0.5z"/> 		<path oryx:anchors="top left" id="_840FB04C-6E7E-4EB2-8E79-8688D44F9C5Dframe11" style="opacity:1;fill:none;stroke-width:1.5" d="M 3.5 4.5 L 13.5 4.5" stroke="#000000"/> 		<path oryx:anchors="top left" id="_840FB04C-6E7E-4EB2-8E79-8688D44F9C5Dframe12" style="opacity:1;fill:none;stroke-width:1.5" d="M 3.8 8.5 L 13.8 8.5" stroke="#000000"/> 		<path oryx:anchors="top left" id="_840FB04C-6E7E-4EB2-8E79-8688D44F9C5Dframe13" style="opacity:1;fill:none;stroke-width:1.5" d="M 6.3 12.5 L 16.3 12.5" stroke="#000000"/> 		<path oryx:anchors="top left" id="_840FB04C-6E7E-4EB2-8E79-8688D44F9C5Dframe14" style="opacity:1;fill:none;stroke-width:1.5" d="M 6.5 16.5 L 16.5 16.5" stroke="#000000"/> 	</g> 	 	<g id="_840FB04C-6E7E-4EB2-8E79-8688D44F9C5DuserTask" transform="scale(0.7,0.7) translate(8,8)" display="none"> 		<path id="_840FB04C-6E7E-4EB2-8E79-8688D44F9C5Dframe15" oryx:anchors="top left" style="opacity:1;fill:#F4F6F7" stroke="#000000" d="M0.585,24.167h24.083v-7.833c0,0-2.333-3.917-7.083-5.167h-9.25    c-4.417,1.333-7.833,5.75-7.833,5.75L0.585,24.167z"/> 		<path id="_840FB04C-6E7E-4EB2-8E79-8688D44F9C5Dframe16" oryx:anchors="top left" style="opacity:1;fill:none" d="M 6 20 L 6 24" stroke="#000000"/> 		<path id="_840FB04C-6E7E-4EB2-8E79-8688D44F9C5Dframe17" oryx:anchors="top left" style="opacity:1;fill:none" d="M 20 20 L 20 24" stroke="#000000"/> 		<circle id="_840FB04C-6E7E-4EB2-8E79-8688D44F9C5Dframe18" oryx:anchors="top left" fill="black" cx="13.002" cy="5.916" r="5.417" stroke="#000000"/> 		<path id="_840FB04C-6E7E-4EB2-8E79-8688D44F9C5Dframe19" oryx:anchors="top left" style="opacity:1;fill:#F0EFF0;" stroke="#000000" d="M8.043,7.083c0,0,2.814-2.426,5.376-1.807s4.624-0.693,4.624-0.693    c0.25,1.688,0.042,3.75-1.458,5.584c0,0,1.083,0.75,1.083,1.5s0.125,1.875-1,3s-5.5,1.25-6.75,0S8.668,12.834,8.668,12    s0.583-1.25,1.25-1.917C8.835,9.5,7.419,7.708,8.043,7.083z"/> 	</g> 	 	<g id="_840FB04C-6E7E-4EB2-8E79-8688D44F9C5DserviceTask" transform="scale(0.7,0.7) translate(8,8)" display="none"> 		<polygon oryx:anchors="top left" id="_840FB04C-6E7E-4EB2-8E79-8688D44F9C5Dframe20" style="opacity:1;fill:#ffffff" stroke="#000000" points="15.392,5.064 17.954,2.502 20.347,4.895 17.786,7.455     18.729,9.732 22.353,9.732 22.353,13.115 18.731,13.115 17.788,15.392 20.351,17.955 17.958,20.347 15.397,17.786 13.12,18.729     13.12,22.353 9.737,22.353 9.737,18.731 7.46,17.788 4.897,20.35 2.506,17.958 5.066,15.397 4.124,13.12 0.5,13.12 0.5,9.737     4.121,9.737 5.065,7.461 2.503,4.898 4.895,2.506 7.455,5.066 9.732,4.125 9.732,0.5 13.116,0.5 13.116,4.121 "/> 		<circle oryx:anchors="top left" id="_840FB04C-6E7E-4EB2-8E79-8688D44F9C5Dframe21" style="opacity:1;fill:none" stroke="#000000" cx="11.427" cy="11.426" r="3.714"/> 		<polygon oryx:anchors="top left" id="_840FB04C-6E7E-4EB2-8E79-8688D44F9C5Dframe22" style="opacity:1;fill:#ffffff" stroke="#000000" points="21.392,11.064 23.954,8.502 26.347,10.895 23.786,13.455     24.729,15.732 28.353,15.732 28.353,19.115 24.731,19.115 23.788,21.392 26.351,23.955 23.958,26.347 21.397,23.786 19.12,24.729     19.12,28.353 15.737,28.353 15.737,24.731 13.46,23.788 10.897,26.35 8.506,23.958 11.066,21.397 10.124,19.12 6.5,19.12     6.5,15.737 10.121,15.737 11.065,13.461 8.503,10.898 10.895,8.506 13.455,11.066 15.732,10.125 15.732,6.5 19.116,6.5     19.116,10.121 "/> 		<circle oryx:anchors="top left" id="_840FB04C-6E7E-4EB2-8E79-8688D44F9C5Dframe23" style="opacity:1;fill:none;" stroke="#000000" cx="17.427" cy="17.426" r="3.714"/> 	</g> 	 	<g id="_840FB04C-6E7E-4EB2-8E79-8688D44F9C5DsendTask" display="none"> 		<path id="_840FB04C-6E7E-4EB2-8E79-8688D44F9C5Dstframe24" oryx:anchors="left top" stroke="#FFFFFF" fill="black" stroke-width="1" d="M8,11 L8,21 L24,21 L24,11 L16,17z"/> 		<path id="_840FB04C-6E7E-4EB2-8E79-8688D44F9C5Dstframe25" oryx:anchors="left top" stroke="#FFFFFF" fill="black" stroke-width="1" d="M7,10 L16,17 L25 10z"/> 	</g> 	 	<g id="_840FB04C-6E7E-4EB2-8E79-8688D44F9C5DreceiveTask" display="none"> 		<path id="_840FB04C-6E7E-4EB2-8E79-8688D44F9C5Dframe26" oryx:anchors="left top" stroke="#000000" fill="none" stroke-width="1" d="M8,11 L8,21 L24,21 L24,11z M8,11 L16,17 L24,11"/> 	</g> 	 	<g id="_840FB04C-6E7E-4EB2-8E79-8688D44F9C5Dnone" display="inherit"/>  	<g id="_840FB04C-6E7E-4EB2-8E79-8688D44F9C5Dsequential" display="none">         <path oryx:anchors="bottom" fill="none" stroke="#000000" stroke-width="2" d="M46,76h10M46,72h10 M46,68h10" id="_840FB04C-6E7E-4EB2-8E79-8688D44F9C5D__840FB04C-6E7E-4EB2-8E79-8688D44F9C5D_20"/>     </g>   </g></g><g class="children" style="overflow:hidden"/><g class="edge"/></g><g class="controls"><g class="dockers"/><g class="magnets" transform="translate(330.00000000000006, 255.00000000000003)"><g pointer-events="all" display="none" transform="translate(-7, 12)"><circle cx="8" cy="8" r="4" stroke="none" fill="red" fill-opacity="0.3"/></g><g pointer-events="all" display="none" transform="translate(-7, 32)"><circle cx="8" cy="8" r="4" stroke="none" fill="red" fill-opacity="0.3"/></g><g pointer-events="all" display="none" transform="translate(-7, 52)"><circle cx="8" cy="8" r="4" stroke="none" fill="red" fill-opacity="0.3"/></g><g pointer-events="all" display="none" transform="translate(17, 71)"><circle cx="8" cy="8" r="4" stroke="none" fill="red" fill-opacity="0.3"/></g><g pointer-events="all" display="none" transform="translate(42, 71)"><circle cx="8" cy="8" r="4" stroke="none" fill="red" fill-opacity="0.3"/></g><g pointer-events="all" display="none" transform="translate(67, 71)"><circle cx="8" cy="8" r="4" stroke="none" fill="red" fill-opacity="0.3"/></g><g pointer-events="all" display="none" transform="translate(91, 12)"><circle cx="8" cy="8" r="4" stroke="none" fill="red" fill-opacity="0.3"/></g><g pointer-events="all" display="none" transform="translate(91, 32)"><circle cx="8" cy="8" r="4" stroke="none" fill="red" fill-opacity="0.3"/></g><g pointer-events="all" display="none" transform="translate(91, 52)"><circle cx="8" cy="8" r="4" stroke="none" fill="red" fill-opacity="0.3"/></g><g pointer-events="all" display="none" transform="translate(17, -7)"><circle cx="8" cy="8" r="4" stroke="none" fill="red" fill-opacity="0.3"/></g><g pointer-events="all" display="none" transform="translate(42, -7)"><circle cx="8" cy="8" r="4" stroke="none" fill="red" fill-opacity="0.3"/></g><g pointer-events="all" display="none" transform="translate(67, -7)"><circle cx="8" cy="8" r="4" stroke="none" fill="red" fill-opacity="0.3"/></g><g pointer-events="all" display="none" transform="translate(42, 32)"><circle cx="8" cy="8" r="4" stroke="none" fill="red" fill-opacity="0.3"/></g></g></g></g><g id="_367C173B-5FEE-4712-8F72-3633EEC4585A" bpmn2nodeid="_C21429E9-02AE-4535-A00E-763C4C7C0617"><g class="stencils" transform="translate(555.0000000000001, 255.00000000000003)"><g class="me"><g pointer-events="fill" oryx:minimumSize="50 40" id="_367C173B-5FEE-4712-8F72-3633EEC4585A">   	<defs id="_367C173B-5FEE-4712-8F72-3633EEC4585A__367C173B-5FEE-4712-8F72-3633EEC4585A_17"> 		<radialGradient id="_367C173B-5FEE-4712-8F72-3633EEC4585Abackground" cx="10%" cy="10%" r="100%" fx="10%" fy="10%"> 			<stop offset="0%" stop-color="#ffffff" stop-opacity="1" id="_367C173B-5FEE-4712-8F72-3633EEC4585A__367C173B-5FEE-4712-8F72-3633EEC4585A_18"/> 			<stop id="_367C173B-5FEE-4712-8F72-3633EEC4585Afill_el" offset="100%" stop-color="#fafad2" stop-opacity="1"/> 		</radialGradient> 		<radialGradient id="_367C173B-5FEE-4712-8F72-3633EEC4585Aborderbackground" cx="10%" cy="10%" r="100%" fx="10%" fy="10%"> 			<stop offset="0%" stop-color="#ffffff" stop-opacity="1" id="_367C173B-5FEE-4712-8F72-3633EEC4585A__367C173B-5FEE-4712-8F72-3633EEC4585A_19"/> 			<stop id="_367C173B-5FEE-4712-8F72-3633EEC4585Afill_border" offset="100%" stop-color="#000000" stop-opacity="1" stroke="#000000"/> 		</radialGradient> 	</defs> 	 	<rect id="_367C173B-5FEE-4712-8F72-3633EEC4585Atext_frame" oryx:anchors="bottom top right left" x="1" y="1" width="94" height="79" rx="10" ry="10" stroke="none" stroke-width="0" fill="none"/> 	<rect id="_367C173B-5FEE-4712-8F72-3633EEC4585Abg_frame" oryx:resize="vertical horizontal" x="0" y="0" width="100" height="80" rx="10" ry="10" stroke="#000000" stroke-width="1" fill="url(#_367C173B-5FEE-4712-8F72-3633EEC4585Abackground) #ffffcc"/> 		<text font-size="12" id="_367C173B-5FEE-4712-8F72-3633EEC4585Atext_name" x="50" y="40" oryx:align="middle center" oryx:fittoelem="text_frame" stroke="black" text-anchor="middle" stroke-width="0pt" letter-spacing="-0.01px" fill="#000000" transform="rotate(0 50 40)" visibility="inherit" oryx:fontSize="12"><tspan x="50" y="40" dy="-19" id="ext-gen1541">S</tspan><tspan x="50" y="40" dy="-7" id="ext-gen1607">t</tspan><tspan x="50" y="40" dy="5" id="ext-gen1486">a</tspan><tspan x="50" y="40" dy="17" id="ext-gen1757">n</tspan><tspan x="50" y="40" dy="29" id="ext-gen1487">d</tspan><tspan x="50" y="40" dy="41" id="ext-gen2096">a</tspan><tspan x="50" y="40" dy="53" id="ext-gen2095">rd</tspan></text>     <g id="_367C173B-5FEE-4712-8F72-3633EEC4585AmanualTask" transform="scale(0.7,0.7) translate(8,8)" display="none">     	<path oryx:anchors="top left" id="_367C173B-5FEE-4712-8F72-3633EEC4585Aframe" style="opacity:1;fill:none;fill-opacity:1;stroke-width:1" d="M0.5,3.751l4.083-3.25c0,0,11.166,0.083,12.083,0.083s-2.417,2.917-1.5,2.917     s11.667,0,12.584,0c1.166,1.708-0.168,3.167-0.834,3.667s0.875,1.917-1,4.417c-0.75,0.25,0.75,1.875-1.333,3.333     c-1.167,0.583,0.583,1.542-1.25,2.833c-1.167,0-20.833,0.083-20.833,0.083l-2-1.333V3.751z" stroke="#000000"/> 		<path id="_367C173B-5FEE-4712-8F72-3633EEC4585Aframe2" oryx:anchors="top left" style="opacity:1;fill:none;stroke-width:2" d="M 13.5 7 L 27 7" stroke="#000000"/> 		<path id="_367C173B-5FEE-4712-8F72-3633EEC4585Aframe3" oryx:anchors="top left" style="opacity:1;fill:none;stroke-width:2" d="M 13.5 11 L 26 11" stroke="#000000"/> 		<path id="_367C173B-5FEE-4712-8F72-3633EEC4585Aframe4" oryx:anchors="top left" style="opacity:1;fill:none;stroke-width:1.5" d="M 14 14.5 L 25 14.5" stroke="#000000"/> 		<path id="_367C173B-5FEE-4712-8F72-3633EEC4585Aframe5" oryx:anchors="top left" style="opacity:1;fill:none;stroke-width:1.5" d="M 8.2 3.1 L 15 3.1" stroke="#000000"/> 	</g> 	 	<g id="_367C173B-5FEE-4712-8F72-3633EEC4585AbusinessRuleTask" transform="scale(0.7,0.7) translate(8,8)" display="inherit"> 		<rect id="_367C173B-5FEE-4712-8F72-3633EEC4585Aframe6" oryx:anchors="top left" x="0" y="0" width="22" height="4" style="opacity:1;fill:#B3B1B3;fill-opacity:1;" stroke="#000000"/> 		<rect id="_367C173B-5FEE-4712-8F72-3633EEC4585Aframe7" oryx:anchors="top left" x="0" y="4" style="opacity:1;fill:none;" width="22" height="12" stroke="#000000"/> 		<path id="_367C173B-5FEE-4712-8F72-3633EEC4585Aframe8" oryx:anchors="top left" style="opacity:1;fill:none;" d="M 0 10 L 22 10" stroke="#000000"/> 		<path id="_367C173B-5FEE-4712-8F72-3633EEC4585Aframe9" oryx:anchors="top left" style="opacity:1; fill:none;" d="M 7 4 L 7 16" stroke="#000000"/> 	</g> 	 	<g id="_367C173B-5FEE-4712-8F72-3633EEC4585AscriptTask" transform="scale(0.7,0.7) translate(8,8)" display="none"> 		<path oryx:anchors="top left" id="_367C173B-5FEE-4712-8F72-3633EEC4585Aframe10" style="opacity:1;fill:none;" stroke="#000000" d="M6.402,0.5h14.5c0,0-5.833,2.833-5.833,5.583s4.417,6,4.417,9.167    s-4.167,5.083-4.167,5.083H0.235c0,0,5-2.667,5-5s-4.583-6.75-4.583-9.25S6.402,0.5,6.402,0.5z"/> 		<path oryx:anchors="top left" id="_367C173B-5FEE-4712-8F72-3633EEC4585Aframe11" style="opacity:1;fill:none;stroke-width:1.5" d="M 3.5 4.5 L 13.5 4.5" stroke="#000000"/> 		<path oryx:anchors="top left" id="_367C173B-5FEE-4712-8F72-3633EEC4585Aframe12" style="opacity:1;fill:none;stroke-width:1.5" d="M 3.8 8.5 L 13.8 8.5" stroke="#000000"/> 		<path oryx:anchors="top left" id="_367C173B-5FEE-4712-8F72-3633EEC4585Aframe13" style="opacity:1;fill:none;stroke-width:1.5" d="M 6.3 12.5 L 16.3 12.5" stroke="#000000"/> 		<path oryx:anchors="top left" id="_367C173B-5FEE-4712-8F72-3633EEC4585Aframe14" style="opacity:1;fill:none;stroke-width:1.5" d="M 6.5 16.5 L 16.5 16.5" stroke="#000000"/> 	</g> 	 	<g id="_367C173B-5FEE-4712-8F72-3633EEC4585AuserTask" transform="scale(0.7,0.7) translate(8,8)" display="none"> 		<path id="_367C173B-5FEE-4712-8F72-3633EEC4585Aframe15" oryx:anchors="top left" style="opacity:1;fill:#F4F6F7" stroke="#000000" d="M0.585,24.167h24.083v-7.833c0,0-2.333-3.917-7.083-5.167h-9.25    c-4.417,1.333-7.833,5.75-7.833,5.75L0.585,24.167z"/> 		<path id="_367C173B-5FEE-4712-8F72-3633EEC4585Aframe16" oryx:anchors="top left" style="opacity:1;fill:none" d="M 6 20 L 6 24" stroke="#000000"/> 		<path id="_367C173B-5FEE-4712-8F72-3633EEC4585Aframe17" oryx:anchors="top left" style="opacity:1;fill:none" d="M 20 20 L 20 24" stroke="#000000"/> 		<circle id="_367C173B-5FEE-4712-8F72-3633EEC4585Aframe18" oryx:anchors="top left" fill="black" cx="13.002" cy="5.916" r="5.417" stroke="#000000"/> 		<path id="_367C173B-5FEE-4712-8F72-3633EEC4585Aframe19" oryx:anchors="top left" style="opacity:1;fill:#F0EFF0;" stroke="#000000" d="M8.043,7.083c0,0,2.814-2.426,5.376-1.807s4.624-0.693,4.624-0.693    c0.25,1.688,0.042,3.75-1.458,5.584c0,0,1.083,0.75,1.083,1.5s0.125,1.875-1,3s-5.5,1.25-6.75,0S8.668,12.834,8.668,12    s0.583-1.25,1.25-1.917C8.835,9.5,7.419,7.708,8.043,7.083z"/> 	</g> 	 	<g id="_367C173B-5FEE-4712-8F72-3633EEC4585AserviceTask" transform="scale(0.7,0.7) translate(8,8)" display="none"> 		<polygon oryx:anchors="top left" id="_367C173B-5FEE-4712-8F72-3633EEC4585Aframe20" style="opacity:1;fill:#ffffff" stroke="#000000" points="15.392,5.064 17.954,2.502 20.347,4.895 17.786,7.455     18.729,9.732 22.353,9.732 22.353,13.115 18.731,13.115 17.788,15.392 20.351,17.955 17.958,20.347 15.397,17.786 13.12,18.729     13.12,22.353 9.737,22.353 9.737,18.731 7.46,17.788 4.897,20.35 2.506,17.958 5.066,15.397 4.124,13.12 0.5,13.12 0.5,9.737     4.121,9.737 5.065,7.461 2.503,4.898 4.895,2.506 7.455,5.066 9.732,4.125 9.732,0.5 13.116,0.5 13.116,4.121 "/> 		<circle oryx:anchors="top left" id="_367C173B-5FEE-4712-8F72-3633EEC4585Aframe21" style="opacity:1;fill:none" stroke="#000000" cx="11.427" cy="11.426" r="3.714"/> 		<polygon oryx:anchors="top left" id="_367C173B-5FEE-4712-8F72-3633EEC4585Aframe22" style="opacity:1;fill:#ffffff" stroke="#000000" points="21.392,11.064 23.954,8.502 26.347,10.895 23.786,13.455     24.729,15.732 28.353,15.732 28.353,19.115 24.731,19.115 23.788,21.392 26.351,23.955 23.958,26.347 21.397,23.786 19.12,24.729     19.12,28.353 15.737,28.353 15.737,24.731 13.46,23.788 10.897,26.35 8.506,23.958 11.066,21.397 10.124,19.12 6.5,19.12     6.5,15.737 10.121,15.737 11.065,13.461 8.503,10.898 10.895,8.506 13.455,11.066 15.732,10.125 15.732,6.5 19.116,6.5     19.116,10.121 "/> 		<circle oryx:anchors="top left" id="_367C173B-5FEE-4712-8F72-3633EEC4585Aframe23" style="opacity:1;fill:none;" stroke="#000000" cx="17.427" cy="17.426" r="3.714"/> 	</g> 	 	<g id="_367C173B-5FEE-4712-8F72-3633EEC4585AsendTask" display="none"> 		<path id="_367C173B-5FEE-4712-8F72-3633EEC4585Astframe24" oryx:anchors="left top" stroke="#FFFFFF" fill="black" stroke-width="1" d="M8,11 L8,21 L24,21 L24,11 L16,17z"/> 		<path id="_367C173B-5FEE-4712-8F72-3633EEC4585Astframe25" oryx:anchors="left top" stroke="#FFFFFF" fill="black" stroke-width="1" d="M7,10 L16,17 L25 10z"/> 	</g> 	 	<g id="_367C173B-5FEE-4712-8F72-3633EEC4585AreceiveTask" display="none"> 		<path id="_367C173B-5FEE-4712-8F72-3633EEC4585Aframe26" oryx:anchors="left top" stroke="#000000" fill="none" stroke-width="1" d="M8,11 L8,21 L24,21 L24,11z M8,11 L16,17 L24,11"/> 	</g> 	 	<g id="_367C173B-5FEE-4712-8F72-3633EEC4585Anone" display="inherit"/>  	<g id="_367C173B-5FEE-4712-8F72-3633EEC4585Asequential" display="none">         <path oryx:anchors="bottom" fill="none" stroke="#000000" stroke-width="2" d="M46,76h10M46,72h10 M46,68h10" id="_367C173B-5FEE-4712-8F72-3633EEC4585A__367C173B-5FEE-4712-8F72-3633EEC4585A_20"/>     </g>   </g></g><g class="children" style="overflow:hidden"/><g class="edge"/></g><g class="controls"><g class="dockers"/><g class="magnets" transform="translate(555.0000000000001, 255.00000000000003)"><g pointer-events="all" display="none" transform="translate(-7, 12)"><circle cx="8" cy="8" r="4" stroke="none" fill="red" fill-opacity="0.3"/></g><g pointer-events="all" display="none" transform="translate(-7, 32)"><circle cx="8" cy="8" r="4" stroke="none" fill="red" fill-opacity="0.3"/></g><g pointer-events="all" display="none" transform="translate(-7, 52)"><circle cx="8" cy="8" r="4" stroke="none" fill="red" fill-opacity="0.3"/></g><g pointer-events="all" display="none" transform="translate(17, 71)"><circle cx="8" cy="8" r="4" stroke="none" fill="red" fill-opacity="0.3"/></g><g pointer-events="all" display="none" transform="translate(42, 71)"><circle cx="8" cy="8" r="4" stroke="none" fill="red" fill-opacity="0.3"/></g><g pointer-events="all" display="none" transform="translate(67, 71)"><circle cx="8" cy="8" r="4" stroke="none" fill="red" fill-opacity="0.3"/></g><g pointer-events="all" display="none" transform="translate(91, 12)"><circle cx="8" cy="8" r="4" stroke="none" fill="red" fill-opacity="0.3"/></g><g pointer-events="all" display="none" transform="translate(91, 32)"><circle cx="8" cy="8" r="4" stroke="none" fill="red" fill-opacity="0.3"/></g><g pointer-events="all" display="none" transform="translate(91, 52)"><circle cx="8" cy="8" r="4" stroke="none" fill="red" fill-opacity="0.3"/></g><g pointer-events="all" display="none" transform="translate(17, -7)"><circle cx="8" cy="8" r="4" stroke="none" fill="red" fill-opacity="0.3"/></g><g pointer-events="all" display="none" transform="translate(42, -7)"><circle cx="8" cy="8" r="4" stroke="none" fill="red" fill-opacity="0.3"/></g><g pointer-events="all" display="none" transform="translate(67, -7)"><circle cx="8" cy="8" r="4" stroke="none" fill="red" fill-opacity="0.3"/></g><g pointer-events="all" display="none" transform="translate(42, 32)"><circle cx="8" cy="8" r="4" stroke="none" fill="red" fill-opacity="0.3"/></g></g></g></g><g id="_BD21B606-0FFB-4B41-8895-07D88235EC20" bpmn2nodeid="_33560379-4544-4FDE-89FD-530164FBCD0F"><g class="stencils" transform="translate(803.0138872203269, 281)"><g class="me"><g pointer-events="fill" id="_BD21B606-0FFB-4B41-8895-07D88235EC20">      <defs id="_BD21B606-0FFB-4B41-8895-07D88235EC20__BD21B606-0FFB-4B41-8895-07D88235EC20_5"> 		<radialGradient id="_BD21B606-0FFB-4B41-8895-07D88235EC20background" cx="10%" cy="10%" r="100%" fx="10%" fy="10%"> 			<stop offset="0%" stop-color="#ffffff" stop-opacity="1" id="_BD21B606-0FFB-4B41-8895-07D88235EC20__BD21B606-0FFB-4B41-8895-07D88235EC20_6"/> 			<stop id="_BD21B606-0FFB-4B41-8895-07D88235EC20fill_el" offset="100%" stop-color="#ff6347" stop-opacity="1"/> 		</radialGradient> 	</defs> 	     <circle id="_BD21B606-0FFB-4B41-8895-07D88235EC20bg_frame" cx="14" cy="14" r="14" stroke="#000000" fill="url(#_BD21B606-0FFB-4B41-8895-07D88235EC20background) white" stroke-width="3"/> 	<text font-size="11" id="_BD21B606-0FFB-4B41-8895-07D88235EC20text_name" x="14" y="30" oryx:align="top center" stroke="black" stroke-width="0pt" letter-spacing="-0.01px" fill="#000000" text-anchor="middle" transform="rotate(0 14 30)" visibility="inherit" oryx:fontSize="11"/>   </g></g><g class="children" style="overflow:hidden"/><g class="edge"/></g><g class="controls"><g class="dockers"/><g class="magnets" transform="translate(803.0138872203269, 281)"><g pointer-events="all" display="none" transform="translate(6, 6)"><circle cx="8" cy="8" r="4" stroke="none" fill="red" fill-opacity="0.3"/></g></g></g></g></g><g class="edge"><g id="_912B6193-7C49-484A-8309-C10EBCD5DFDE" bpmn2nodeid="_C81F9B39-145C-411E-8E08-49D36F30744D"><g class="stencils"><g class="me"><g pointer-events="painted" bpmn2nodeid="_55026DAF-5471-4B75-8844-78DBC5636DD9"><path id="_912B6193-7C49-484A-8309-C10EBCD5DFDE_1" d="M75.21811285434755 299.4564959694876L149.78188714565246 296.7935040305124 " stroke="#000000" fill="none" stroke-width="2" stroke-linecap="round" stroke-linejoin="round" marker-start="url(#_912B6193-7C49-484A-8309-C10EBCD5DFDEstart)" marker-end="url(#_912B6193-7C49-484A-8309-C10EBCD5DFDEend)"/></g><text id="_912B6193-7C49-484A-8309-C10EBCD5DFDEtext_name" font-size="12" x="89.21811285434755" y="285.4564959694876" oryx:edgePosition="startTop" stroke-width="0pt" letter-spacing="-0.01px" fill="#000000" text-anchor="start" transform="rotate(357.95459151111277 75.21811285434755 299.4564959694876)" visibility="inherit" oryx:fontSize="12"/></g><g class="children" style="overflow:hidden"/><g class="edge"/></g><g class="controls"><g class="dockers"/><g class="magnets"/></g></g><g id="_61357600-677A-422C-BF1D-C7ED637B3308" bpmn2nodeid="_20BA939B-DE54-42C4-8A06-D2BD0EF4FD38"><g class="stencils"><g class="me"><g pointer-events="painted" bpmn2nodeid="_E13F757D-9AC7-4392-A8E7-BF96A8E44C06"><path id="_61357600-677A-422C-BF1D-C7ED637B3308_1" d="M250.21875000000006 295L329.78125000000006 295 " stroke="#000000" fill="none" stroke-width="2" stroke-linecap="round" stroke-linejoin="round" marker-start="url(#_61357600-677A-422C-BF1D-C7ED637B3308start)" marker-end="url(#_61357600-677A-422C-BF1D-C7ED637B3308end)"/></g><text id="_61357600-677A-422C-BF1D-C7ED637B3308text_name" font-size="12" x="264.21875000000006" y="281" oryx:edgePosition="startTop" stroke-width="0pt" letter-spacing="-0.01px" fill="#000000" text-anchor="start" transform="rotate(360 250.21875000000006 295)" visibility="inherit" oryx:fontSize="12"/></g><g class="children" style="overflow:hidden"/><g class="edge"/></g><g class="controls"><g class="dockers"/><g class="magnets"/></g></g><g id="_71E3D6FA-592C-4830-8525-9262149142A4" bpmn2nodeid="_E6FAFEF4-C7A0-4AD4-9BF3-254024A69560"><g class="stencils"><g class="me"><g pointer-events="painted" bpmn2nodeid="_7A80DD50-B42A-4FAA-A9E6-2D843B293A2D"><path id="_71E3D6FA-592C-4830-8525-9262149142A4_1" d="M430.2187500000001 295L554.7812500000001 295 " stroke="#000000" fill="none" stroke-width="2" stroke-linecap="round" stroke-linejoin="round" marker-start="url(#_71E3D6FA-592C-4830-8525-9262149142A4start)" marker-end="url(#_71E3D6FA-592C-4830-8525-9262149142A4end)"/></g><text id="_71E3D6FA-592C-4830-8525-9262149142A4text_name" font-size="12" x="444.2187500000001" y="281" oryx:edgePosition="startTop" stroke-width="0pt" letter-spacing="-0.01px" fill="#000000" text-anchor="start" transform="rotate(360 430.2187500000001 295)" visibility="inherit" oryx:fontSize="12"/></g><g class="children" style="overflow:hidden"/><g class="edge"/></g><g class="controls"><g class="dockers"/><g class="magnets"/></g></g><g id="_A96059A6-4FDE-4D75-AA7E-28815FAB8F31" bpmn2nodeid="_1BFB57EC-C1AE-4D2C-A480-B4EA3DE9C93A"><g class="stencils"><g class="me"><g pointer-events="painted" bpmn2nodeid="_1BFB57EC-C1AE-4D2C-A480-B4EA3DE9C93A"><path id="_A96059A6-4FDE-4D75-AA7E-28815FAB8F31_1" d="M655.6907548172642 295L802.7630192690565 295 " stroke="#000000" fill="none" stroke-width="2" stroke-linecap="round" stroke-linejoin="round" marker-start="url(#_A96059A6-4FDE-4D75-AA7E-28815FAB8F31start)" marker-end="url(#_A96059A6-4FDE-4D75-AA7E-28815FAB8F31end)"/></g><text id="_A96059A6-4FDE-4D75-AA7E-28815FAB8F31text_name" font-size="12" x="669.6907548172642" y="281" oryx:edgePosition="startTop" stroke-width="0pt" letter-spacing="-0.01px" fill="#000000" text-anchor="start" transform="rotate(360 655.6907548172642 295)" visibility="inherit" oryx:fontSize="12"/></g><g class="children" style="overflow:hidden"/><g class="edge"/></g><g class="controls"><g class="dockers"/><g class="magnets"/></g></g></g><text id="_D5A27488-9758-4986-B6B6-512F1438E214" style="stroke-width:1;fill:rgb(177,194,214);font-family:arial;font-weight:bold" font-size="12" onclick="ORYX.Plugins.CanvasTitle.openTextualAnalysis()" onmouseover="ORYX.Plugins.CanvasTitle.addToolTip('_D5A27488-9758-4986-B6B6-512F1438E214')" transform="translate(10, 20)">P1111 v.1.0 (src.P1111)</text></g></g></svg>