<svg xmlns="http://www.w3.org/2000/svg" xmlns:oryx="http://oryx-editor.org" id="_8CB01D13-54D3-495D-8C55-E668D3ECEA07" width="691" height="261" xmlns:xlink="http://www.w3.org/1999/xlink" xmlns:svg="http://www.w3.org/2000/svg"><defs><marker id="_B90AB592-C81F-4479-AE8C-7EF762A8D341start" refX="1" refY="5" markerUnits="userSpaceOnUse" markerWidth="17" markerHeight="11" orient="auto" fill="#000000" stroke="#000000"> 	  		<path id="_B90AB592-C81F-4479-AE8C-7EF762A8D341conditional" d="M 0 5 L 8 0 L 16 5 L 8 10 L 0 5" fill="white" stroke="#000000" stroke-width="1" display="none"/> 			<path id="_B90AB592-C81F-4479-AE8C-7EF762A8D341default" d="M 5 0 L 11 10" fill="white" stroke="#000000" stroke-width="1" display="none"/> 	  	</marker><marker id="_B90AB592-C81F-4479-AE8C-7EF762A8D341end" refX="15" refY="6" markerUnits="userSpaceOnUse" markerWidth="15" markerHeight="12" orient="auto" fill="#000000" stroke="#000000"> 	  		<path id="_B90AB592-C81F-4479-AE8C-7EF762A8D341frame2" d="M 0 1 L 15 6 L 0 11z" fill="#000000" stroke="#000000" stroke-linejoin="round" stroke-width="2"/> 	  	</marker><marker id="_078B319D-CBB3-4003-953C-88805889315Estart" refX="1" refY="5" markerUnits="userSpaceOnUse" markerWidth="17" markerHeight="11" orient="auto" fill="#000000" stroke="#000000"> 	  		<path id="_078B319D-CBB3-4003-953C-88805889315Econditional" d="M 0 5 L 8 0 L 16 5 L 8 10 L 0 5" fill="white" stroke="#000000" stroke-width="1" display="none"/> 			<path id="_078B319D-CBB3-4003-953C-88805889315Edefault" d="M 5 0 L 11 10" fill="white" stroke="#000000" stroke-width="1" display="none"/> 	  	</marker><marker id="_078B319D-CBB3-4003-953C-88805889315Eend" refX="15" refY="6" markerUnits="userSpaceOnUse" markerWidth="15" markerHeight="12" orient="auto" fill="#000000" stroke="#000000"> 	  		<path id="_078B319D-CBB3-4003-953C-88805889315Eframe2" d="M 0 1 L 15 6 L 0 11z" fill="#000000" stroke="#000000" stroke-linejoin="round" stroke-width="2"/> 	  	</marker><marker id="_0650CE43-416C-492F-9080-C40E10E83490start" refX="1" refY="5" markerUnits="userSpaceOnUse" markerWidth="17" markerHeight="11" orient="auto" fill="#000000" stroke="#000000"> 	  		<path id="_0650CE43-416C-492F-9080-C40E10E83490conditional" d="M 0 5 L 8 0 L 16 5 L 8 10 L 0 5" fill="white" stroke="#000000" stroke-width="1" display="none"/> 			<path id="_0650CE43-416C-492F-9080-C40E10E83490default" d="M 5 0 L 11 10" fill="white" stroke="#000000" stroke-width="1" display="none"/> 	  	</marker><marker id="_0650CE43-416C-492F-9080-C40E10E83490end" refX="15" refY="6" markerUnits="userSpaceOnUse" markerWidth="15" markerHeight="12" orient="auto" fill="#000000" stroke="#000000"> 	  		<path id="_0650CE43-416C-492F-9080-C40E10E83490frame2" d="M 0 1 L 15 6 L 0 11z" fill="#000000" stroke="#000000" stroke-linejoin="round" stroke-width="2"/> 	  	</marker></defs><g stroke="none" font-family="Verdana, sans-serif" font-size-adjust="none" font-style="normal" font-variant="normal" font-weight="normal" line-heigth="normal" font-size="12"><g class="stencils" transform="translate(15, 16)"><g class="me"/><g class="children"><g id="_ADCC097D-5095-458F-8C34-963CA3811B19" bpmn2nodeid="processStartEvent"><g class="stencils" transform="translate(120, 165)"><g class="me"><g pointer-events="fill" id="_ADCC097D-5095-458F-8C34-963CA3811B19">        <defs id="_ADCC097D-5095-458F-8C34-963CA3811B19__ADCC097D-5095-458F-8C34-963CA3811B19_5"> 		<radialGradient id="_ADCC097D-5095-458F-8C34-963CA3811B19background" cx="10%" cy="10%" r="100%" fx="10%" fy="10%"> 			<stop offset="0%" stop-color="#ffffff" stop-opacity="1" id="_ADCC097D-5095-458F-8C34-963CA3811B19__ADCC097D-5095-458F-8C34-963CA3811B19_6"/> 			<stop id="_ADCC097D-5095-458F-8C34-963CA3811B19fill_el" offset="100%" stop-color="#9acd32" stop-opacity="1"/> 		</radialGradient> 	</defs> 	     <circle id="_ADCC097D-5095-458F-8C34-963CA3811B19bg_frame" cx="15" cy="15" r="15" stroke="#000000" fill="url(#_ADCC097D-5095-458F-8C34-963CA3811B19background) white" stroke-width="1" style="stroke-dasharray: 5.5, 3"/>      <circle id="_ADCC097D-5095-458F-8C34-963CA3811B19frame" cx="15" cy="15" r="15" stroke="#000000" fill="none" stroke-width="1" display="inherit"/>  	<text font-size="11" id="_ADCC097D-5095-458F-8C34-963CA3811B19text_name" x="15" y="32" oryx:align="top center" stroke="black" stroke-width="0pt" letter-spacing="-0.01px" fill="#000000" text-anchor="middle" transform="rotate(0 15 32)" visibility="inherit" oryx:fontSize="11"/>   </g></g><g class="children" style="overflow:hidden"/><g class="edge"/></g><g class="controls"><g class="dockers"/><g class="magnets" transform="translate(120, 165)"><g pointer-events="all" display="none" transform="translate(7, 7)"><circle cx="8" cy="8" r="4" stroke="none" fill="red" fill-opacity="0.3"/></g></g></g></g><g id="_9C69496A-204F-4722-A0E8-2C1D80B22BC9" bpmn2nodeid="_8D68A39B-636B-4521-9DB4-A6A13D00A50A"><g class="stencils" transform="translate(212, 140)"><g class="me"><g pointer-events="fill" oryx:minimumSize="50 40" id="_9C69496A-204F-4722-A0E8-2C1D80B22BC9">   	<defs id="_9C69496A-204F-4722-A0E8-2C1D80B22BC9__9C69496A-204F-4722-A0E8-2C1D80B22BC9_17"> 		<radialGradient id="_9C69496A-204F-4722-A0E8-2C1D80B22BC9background" cx="10%" cy="10%" r="100%" fx="10%" fy="10%"> 			<stop offset="0%" stop-color="#ffffff" stop-opacity="1" id="_9C69496A-204F-4722-A0E8-2C1D80B22BC9__9C69496A-204F-4722-A0E8-2C1D80B22BC9_18"/> 			<stop id="_9C69496A-204F-4722-A0E8-2C1D80B22BC9fill_el" offset="100%" stop-color="#fafad2" stop-opacity="1"/> 		</radialGradient> 		<radialGradient id="_9C69496A-204F-4722-A0E8-2C1D80B22BC9borderbackground" cx="10%" cy="10%" r="100%" fx="10%" fy="10%"> 			<stop offset="0%" stop-color="#ffffff" stop-opacity="1" id="_9C69496A-204F-4722-A0E8-2C1D80B22BC9__9C69496A-204F-4722-A0E8-2C1D80B22BC9_19"/> 			<stop id="_9C69496A-204F-4722-A0E8-2C1D80B22BC9fill_border" offset="100%" stop-color="#000000" stop-opacity="1" stroke="#000000"/> 		</radialGradient> 	</defs> 	 	<rect id="_9C69496A-204F-4722-A0E8-2C1D80B22BC9text_frame" oryx:anchors="bottom top right left" x="1" y="1" width="94" height="79" rx="10" ry="10" stroke="none" stroke-width="0" fill="none"/> 	<rect id="_9C69496A-204F-4722-A0E8-2C1D80B22BC9bg_frame" oryx:resize="vertical horizontal" x="0" y="0" width="100" height="80" rx="10" ry="10" stroke="#000000" stroke-width="1" fill="url(#_9C69496A-204F-4722-A0E8-2C1D80B22BC9background) #ffffcc"/> 		<text font-size="12" id="_9C69496A-204F-4722-A0E8-2C1D80B22BC9text_name" x="50" y="40" oryx:align="middle center" oryx:fittoelem="text_frame" stroke="black" text-anchor="middle" stroke-width="0pt" letter-spacing="-0.01px" fill="#000000" transform="rotate(0 50 40)" visibility="inherit" oryx:fontSize="12"><tspan x="50" y="40" dy="5">Init</tspan></text>     <g id="_9C69496A-204F-4722-A0E8-2C1D80B22BC9manualTask" transform="scale(0.7,0.7) translate(8,8)" display="none">     	<path oryx:anchors="top left" id="_9C69496A-204F-4722-A0E8-2C1D80B22BC9frame" style="opacity:1;fill:none;fill-opacity:1;stroke-width:1" d="M0.5,3.751l4.083-3.25c0,0,11.166,0.083,12.083,0.083s-2.417,2.917-1.5,2.917     s11.667,0,12.584,0c1.166,1.708-0.168,3.167-0.834,3.667s0.875,1.917-1,4.417c-0.75,0.25,0.75,1.875-1.333,3.333     c-1.167,0.583,0.583,1.542-1.25,2.833c-1.167,0-20.833,0.083-20.833,0.083l-2-1.333V3.751z" stroke="#000000"/> 		<path id="_9C69496A-204F-4722-A0E8-2C1D80B22BC9frame2" oryx:anchors="top left" style="opacity:1;fill:none;stroke-width:2" d="M 13.5 7 L 27 7" stroke="#000000"/> 		<path id="_9C69496A-204F-4722-A0E8-2C1D80B22BC9frame3" oryx:anchors="top left" style="opacity:1;fill:none;stroke-width:2" d="M 13.5 11 L 26 11" stroke="#000000"/> 		<path id="_9C69496A-204F-4722-A0E8-2C1D80B22BC9frame4" oryx:anchors="top left" style="opacity:1;fill:none;stroke-width:1.5" d="M 14 14.5 L 25 14.5" stroke="#000000"/> 		<path id="_9C69496A-204F-4722-A0E8-2C1D80B22BC9frame5" oryx:anchors="top left" style="opacity:1;fill:none;stroke-width:1.5" d="M 8.2 3.1 L 15 3.1" stroke="#000000"/> 	</g> 	 	<g id="_9C69496A-204F-4722-A0E8-2C1D80B22BC9businessRuleTask" transform="scale(0.7,0.7) translate(8,8)" display="inherit"> 		<rect id="_9C69496A-204F-4722-A0E8-2C1D80B22BC9frame6" oryx:anchors="top left" x="0" y="0" width="22" height="4" style="opacity:1;fill:#B3B1B3;fill-opacity:1;" stroke="#000000"/> 		<rect id="_9C69496A-204F-4722-A0E8-2C1D80B22BC9frame7" oryx:anchors="top left" x="0" y="4" style="opacity:1;fill:none;" width="22" height="12" stroke="#000000"/> 		<path id="_9C69496A-204F-4722-A0E8-2C1D80B22BC9frame8" oryx:anchors="top left" style="opacity:1;fill:none;" d="M 0 10 L 22 10" stroke="#000000"/> 		<path id="_9C69496A-204F-4722-A0E8-2C1D80B22BC9frame9" oryx:anchors="top left" style="opacity:1; fill:none;" d="M 7 4 L 7 16" stroke="#000000"/> 	</g> 	 	<g id="_9C69496A-204F-4722-A0E8-2C1D80B22BC9scriptTask" transform="scale(0.7,0.7) translate(8,8)" display="none"> 		<path oryx:anchors="top left" id="_9C69496A-204F-4722-A0E8-2C1D80B22BC9frame10" style="opacity:1;fill:none;" stroke="#000000" d="M6.402,0.5h14.5c0,0-5.833,2.833-5.833,5.583s4.417,6,4.417,9.167    s-4.167,5.083-4.167,5.083H0.235c0,0,5-2.667,5-5s-4.583-6.75-4.583-9.25S6.402,0.5,6.402,0.5z"/> 		<path oryx:anchors="top left" id="_9C69496A-204F-4722-A0E8-2C1D80B22BC9frame11" style="opacity:1;fill:none;stroke-width:1.5" d="M 3.5 4.5 L 13.5 4.5" stroke="#000000"/> 		<path oryx:anchors="top left" id="_9C69496A-204F-4722-A0E8-2C1D80B22BC9frame12" style="opacity:1;fill:none;stroke-width:1.5" d="M 3.8 8.5 L 13.8 8.5" stroke="#000000"/> 		<path oryx:anchors="top left" id="_9C69496A-204F-4722-A0E8-2C1D80B22BC9frame13" style="opacity:1;fill:none;stroke-width:1.5" d="M 6.3 12.5 L 16.3 12.5" stroke="#000000"/> 		<path oryx:anchors="top left" id="_9C69496A-204F-4722-A0E8-2C1D80B22BC9frame14" style="opacity:1;fill:none;stroke-width:1.5" d="M 6.5 16.5 L 16.5 16.5" stroke="#000000"/> 	</g> 	 	<g id="_9C69496A-204F-4722-A0E8-2C1D80B22BC9userTask" transform="scale(0.7,0.7) translate(8,8)" display="none"> 		<path id="_9C69496A-204F-4722-A0E8-2C1D80B22BC9frame15" oryx:anchors="top left" style="opacity:1;fill:#F4F6F7" stroke="#000000" d="M0.585,24.167h24.083v-7.833c0,0-2.333-3.917-7.083-5.167h-9.25    c-4.417,1.333-7.833,5.75-7.833,5.75L0.585,24.167z"/> 		<path id="_9C69496A-204F-4722-A0E8-2C1D80B22BC9frame16" oryx:anchors="top left" style="opacity:1;fill:none" d="M 6 20 L 6 24" stroke="#000000"/> 		<path id="_9C69496A-204F-4722-A0E8-2C1D80B22BC9frame17" oryx:anchors="top left" style="opacity:1;fill:none" d="M 20 20 L 20 24" stroke="#000000"/> 		<circle id="_9C69496A-204F-4722-A0E8-2C1D80B22BC9frame18" oryx:anchors="top left" fill="black" cx="13.002" cy="5.916" r="5.417" stroke="#000000"/> 		<path id="_9C69496A-204F-4722-A0E8-2C1D80B22BC9frame19" oryx:anchors="top left" style="opacity:1;fill:#F0EFF0;" stroke="#000000" d="M8.043,7.083c0,0,2.814-2.426,5.376-1.807s4.624-0.693,4.624-0.693    c0.25,1.688,0.042,3.75-1.458,5.584c0,0,1.083,0.75,1.083,1.5s0.125,1.875-1,3s-5.5,1.25-6.75,0S8.668,12.834,8.668,12    s0.583-1.25,1.25-1.917C8.835,9.5,7.419,7.708,8.043,7.083z"/> 	</g> 	 	<g id="_9C69496A-204F-4722-A0E8-2C1D80B22BC9serviceTask" transform="scale(0.7,0.7) translate(8,8)" display="none"> 		<polygon oryx:anchors="top left" id="_9C69496A-204F-4722-A0E8-2C1D80B22BC9frame20" style="opacity:1;fill:#ffffff" stroke="#000000" points="15.392,5.064 17.954,2.502 20.347,4.895 17.786,7.455     18.729,9.732 22.353,9.732 22.353,13.115 18.731,13.115 17.788,15.392 20.351,17.955 17.958,20.347 15.397,17.786 13.12,18.729     13.12,22.353 9.737,22.353 9.737,18.731 7.46,17.788 4.897,20.35 2.506,17.958 5.066,15.397 4.124,13.12 0.5,13.12 0.5,9.737     4.121,9.737 5.065,7.461 2.503,4.898 4.895,2.506 7.455,5.066 9.732,4.125 9.732,0.5 13.116,0.5 13.116,4.121 "/> 		<circle oryx:anchors="top left" id="_9C69496A-204F-4722-A0E8-2C1D80B22BC9frame21" style="opacity:1;fill:none" stroke="#000000" cx="11.427" cy="11.426" r="3.714"/> 		<polygon oryx:anchors="top left" id="_9C69496A-204F-4722-A0E8-2C1D80B22BC9frame22" style="opacity:1;fill:#ffffff" stroke="#000000" points="21.392,11.064 23.954,8.502 26.347,10.895 23.786,13.455     24.729,15.732 28.353,15.732 28.353,19.115 24.731,19.115 23.788,21.392 26.351,23.955 23.958,26.347 21.397,23.786 19.12,24.729     19.12,28.353 15.737,28.353 15.737,24.731 13.46,23.788 10.897,26.35 8.506,23.958 11.066,21.397 10.124,19.12 6.5,19.12     6.5,15.737 10.121,15.737 11.065,13.461 8.503,10.898 10.895,8.506 13.455,11.066 15.732,10.125 15.732,6.5 19.116,6.5     19.116,10.121 "/> 		<circle oryx:anchors="top left" id="_9C69496A-204F-4722-A0E8-2C1D80B22BC9frame23" style="opacity:1;fill:none;" stroke="#000000" cx="17.427" cy="17.426" r="3.714"/> 	</g> 	 	<g id="_9C69496A-204F-4722-A0E8-2C1D80B22BC9sendTask" display="none"> 		<path id="_9C69496A-204F-4722-A0E8-2C1D80B22BC9stframe24" oryx:anchors="left top" stroke="#FFFFFF" fill="black" stroke-width="1" d="M8,11 L8,21 L24,21 L24,11 L16,17z"/> 		<path id="_9C69496A-204F-4722-A0E8-2C1D80B22BC9stframe25" oryx:anchors="left top" stroke="#FFFFFF" fill="black" stroke-width="1" d="M7,10 L16,17 L25 10z"/> 	</g> 	 	<g id="_9C69496A-204F-4722-A0E8-2C1D80B22BC9receiveTask" display="none"> 		<path id="_9C69496A-204F-4722-A0E8-2C1D80B22BC9frame26" oryx:anchors="left top" stroke="#000000" fill="none" stroke-width="1" d="M8,11 L8,21 L24,21 L24,11z M8,11 L16,17 L24,11"/> 	</g> 	 	<g id="_9C69496A-204F-4722-A0E8-2C1D80B22BC9none" display="none"/>  	<g id="_9C69496A-204F-4722-A0E8-2C1D80B22BC9sequential" display="none">         <path oryx:anchors="bottom" fill="none" stroke="#000000" stroke-width="2" d="M46,76h10M46,72h10 M46,68h10" id="_9C69496A-204F-4722-A0E8-2C1D80B22BC9__9C69496A-204F-4722-A0E8-2C1D80B22BC9_20"/>     </g>   </g></g><g class="children" style="overflow:hidden"/><g class="edge"/></g><g class="controls"><g class="dockers"/><g class="magnets" transform="translate(212, 140)"><g pointer-events="all" display="none" transform="translate(-7, 12)"><circle cx="8" cy="8" r="4" stroke="none" fill="red" fill-opacity="0.3"/></g><g pointer-events="all" display="none" transform="translate(-7, 32)"><circle cx="8" cy="8" r="4" stroke="none" fill="red" fill-opacity="0.3"/></g><g pointer-events="all" display="none" transform="translate(-7, 52)"><circle cx="8" cy="8" r="4" stroke="none" fill="red" fill-opacity="0.3"/></g><g pointer-events="all" display="none" transform="translate(17, 71)"><circle cx="8" cy="8" r="4" stroke="none" fill="red" fill-opacity="0.3"/></g><g pointer-events="all" display="none" transform="translate(42, 71)"><circle cx="8" cy="8" r="4" stroke="none" fill="red" fill-opacity="0.3"/></g><g pointer-events="all" display="none" transform="translate(67, 71)"><circle cx="8" cy="8" r="4" stroke="none" fill="red" fill-opacity="0.3"/></g><g pointer-events="all" display="none" transform="translate(91, 12)"><circle cx="8" cy="8" r="4" stroke="none" fill="red" fill-opacity="0.3"/></g><g pointer-events="all" display="none" transform="translate(91, 32)"><circle cx="8" cy="8" r="4" stroke="none" fill="red" fill-opacity="0.3"/></g><g pointer-events="all" display="none" transform="translate(91, 52)"><circle cx="8" cy="8" r="4" stroke="none" fill="red" fill-opacity="0.3"/></g><g pointer-events="all" display="none" transform="translate(17, -7)"><circle cx="8" cy="8" r="4" stroke="none" fill="red" fill-opacity="0.3"/></g><g pointer-events="all" display="none" transform="translate(42, -7)"><circle cx="8" cy="8" r="4" stroke="none" fill="red" fill-opacity="0.3"/></g><g pointer-events="all" display="none" transform="translate(67, -7)"><circle cx="8" cy="8" r="4" stroke="none" fill="red" fill-opacity="0.3"/></g><g pointer-events="all" display="none" transform="translate(42, 32)"><circle cx="8" cy="8" r="4" stroke="none" fill="red" fill-opacity="0.3"/></g></g></g></g><g id="_3B2AFC3F-32C6-4DAC-B600-F8359D2F86B0" bpmn2nodeid="_A24FFEB2-52A4-4B1C-A34E-2B7D5484A21C"><g class="stencils" transform="translate(394, 140)"><g class="me"><g pointer-events="fill" oryx:minimumSize="50 40" id="_3B2AFC3F-32C6-4DAC-B600-F8359D2F86B0">   	<defs id="_3B2AFC3F-32C6-4DAC-B600-F8359D2F86B0__3B2AFC3F-32C6-4DAC-B600-F8359D2F86B0_17"> 		<radialGradient id="_3B2AFC3F-32C6-4DAC-B600-F8359D2F86B0background" cx="10%" cy="10%" r="100%" fx="10%" fy="10%"> 			<stop offset="0%" stop-color="#ffffff" stop-opacity="1" id="_3B2AFC3F-32C6-4DAC-B600-F8359D2F86B0__3B2AFC3F-32C6-4DAC-B600-F8359D2F86B0_18"/> 			<stop id="_3B2AFC3F-32C6-4DAC-B600-F8359D2F86B0fill_el" offset="100%" stop-color="#fafad2" stop-opacity="1"/> 		</radialGradient> 		<radialGradient id="_3B2AFC3F-32C6-4DAC-B600-F8359D2F86B0borderbackground" cx="10%" cy="10%" r="100%" fx="10%" fy="10%"> 			<stop offset="0%" stop-color="#ffffff" stop-opacity="1" id="_3B2AFC3F-32C6-4DAC-B600-F8359D2F86B0__3B2AFC3F-32C6-4DAC-B600-F8359D2F86B0_19"/> 			<stop id="_3B2AFC3F-32C6-4DAC-B600-F8359D2F86B0fill_border" offset="100%" stop-color="#000000" stop-opacity="1" stroke="#000000"/> 		</radialGradient> 	</defs> 	 	<rect id="_3B2AFC3F-32C6-4DAC-B600-F8359D2F86B0text_frame" oryx:anchors="bottom top right left" x="1" y="1" width="94" height="79" rx="10" ry="10" stroke="none" stroke-width="0" fill="none"/> 	<rect id="_3B2AFC3F-32C6-4DAC-B600-F8359D2F86B0bg_frame" oryx:resize="vertical horizontal" x="0" y="0" width="100" height="80" rx="10" ry="10" stroke="#000000" stroke-width="1" fill="url(#_3B2AFC3F-32C6-4DAC-B600-F8359D2F86B0background) #ffffcc"/> 		<text font-size="12" id="_3B2AFC3F-32C6-4DAC-B600-F8359D2F86B0text_name" x="50" y="40" oryx:align="middle center" oryx:fittoelem="text_frame" stroke="black" text-anchor="middle" stroke-width="0pt" letter-spacing="-0.01px" fill="#000000" transform="rotate(0 50 40)" visibility="inherit" oryx:fontSize="12"><tspan x="50" y="40" dy="5" id="ext-gen1078">Promotion</tspan></text>     <g id="_3B2AFC3F-32C6-4DAC-B600-F8359D2F86B0manualTask" transform="scale(0.7,0.7) translate(8,8)" display="none">     	<path oryx:anchors="top left" id="_3B2AFC3F-32C6-4DAC-B600-F8359D2F86B0frame" style="opacity:1;fill:none;fill-opacity:1;stroke-width:1" d="M0.5,3.751l4.083-3.25c0,0,11.166,0.083,12.083,0.083s-2.417,2.917-1.5,2.917     s11.667,0,12.584,0c1.166,1.708-0.168,3.167-0.834,3.667s0.875,1.917-1,4.417c-0.75,0.25,0.75,1.875-1.333,3.333     c-1.167,0.583,0.583,1.542-1.25,2.833c-1.167,0-20.833,0.083-20.833,0.083l-2-1.333V3.751z" stroke="#000000"/> 		<path id="_3B2AFC3F-32C6-4DAC-B600-F8359D2F86B0frame2" oryx:anchors="top left" style="opacity:1;fill:none;stroke-width:2" d="M 13.5 7 L 27 7" stroke="#000000"/> 		<path id="_3B2AFC3F-32C6-4DAC-B600-F8359D2F86B0frame3" oryx:anchors="top left" style="opacity:1;fill:none;stroke-width:2" d="M 13.5 11 L 26 11" stroke="#000000"/> 		<path id="_3B2AFC3F-32C6-4DAC-B600-F8359D2F86B0frame4" oryx:anchors="top left" style="opacity:1;fill:none;stroke-width:1.5" d="M 14 14.5 L 25 14.5" stroke="#000000"/> 		<path id="_3B2AFC3F-32C6-4DAC-B600-F8359D2F86B0frame5" oryx:anchors="top left" style="opacity:1;fill:none;stroke-width:1.5" d="M 8.2 3.1 L 15 3.1" stroke="#000000"/> 	</g> 	 	<g id="_3B2AFC3F-32C6-4DAC-B600-F8359D2F86B0businessRuleTask" transform="scale(0.7,0.7) translate(8,8)" display="inherit"> 		<rect id="_3B2AFC3F-32C6-4DAC-B600-F8359D2F86B0frame6" oryx:anchors="top left" x="0" y="0" width="22" height="4" style="opacity:1;fill:#B3B1B3;fill-opacity:1;" stroke="#000000"/> 		<rect id="_3B2AFC3F-32C6-4DAC-B600-F8359D2F86B0frame7" oryx:anchors="top left" x="0" y="4" style="opacity:1;fill:none;" width="22" height="12" stroke="#000000"/> 		<path id="_3B2AFC3F-32C6-4DAC-B600-F8359D2F86B0frame8" oryx:anchors="top left" style="opacity:1;fill:none;" d="M 0 10 L 22 10" stroke="#000000"/> 		<path id="_3B2AFC3F-32C6-4DAC-B600-F8359D2F86B0frame9" oryx:anchors="top left" style="opacity:1; fill:none;" d="M 7 4 L 7 16" stroke="#000000"/> 	</g> 	 	<g id="_3B2AFC3F-32C6-4DAC-B600-F8359D2F86B0scriptTask" transform="scale(0.7,0.7) translate(8,8)" display="none"> 		<path oryx:anchors="top left" id="_3B2AFC3F-32C6-4DAC-B600-F8359D2F86B0frame10" style="opacity:1;fill:none;" stroke="#000000" d="M6.402,0.5h14.5c0,0-5.833,2.833-5.833,5.583s4.417,6,4.417,9.167    s-4.167,5.083-4.167,5.083H0.235c0,0,5-2.667,5-5s-4.583-6.75-4.583-9.25S6.402,0.5,6.402,0.5z"/> 		<path oryx:anchors="top left" id="_3B2AFC3F-32C6-4DAC-B600-F8359D2F86B0frame11" style="opacity:1;fill:none;stroke-width:1.5" d="M 3.5 4.5 L 13.5 4.5" stroke="#000000"/> 		<path oryx:anchors="top left" id="_3B2AFC3F-32C6-4DAC-B600-F8359D2F86B0frame12" style="opacity:1;fill:none;stroke-width:1.5" d="M 3.8 8.5 L 13.8 8.5" stroke="#000000"/> 		<path oryx:anchors="top left" id="_3B2AFC3F-32C6-4DAC-B600-F8359D2F86B0frame13" style="opacity:1;fill:none;stroke-width:1.5" d="M 6.3 12.5 L 16.3 12.5" stroke="#000000"/> 		<path oryx:anchors="top left" id="_3B2AFC3F-32C6-4DAC-B600-F8359D2F86B0frame14" style="opacity:1;fill:none;stroke-width:1.5" d="M 6.5 16.5 L 16.5 16.5" stroke="#000000"/> 	</g> 	 	<g id="_3B2AFC3F-32C6-4DAC-B600-F8359D2F86B0userTask" transform="scale(0.7,0.7) translate(8,8)" display="none"> 		<path id="_3B2AFC3F-32C6-4DAC-B600-F8359D2F86B0frame15" oryx:anchors="top left" style="opacity:1;fill:#F4F6F7" stroke="#000000" d="M0.585,24.167h24.083v-7.833c0,0-2.333-3.917-7.083-5.167h-9.25    c-4.417,1.333-7.833,5.75-7.833,5.75L0.585,24.167z"/> 		<path id="_3B2AFC3F-32C6-4DAC-B600-F8359D2F86B0frame16" oryx:anchors="top left" style="opacity:1;fill:none" d="M 6 20 L 6 24" stroke="#000000"/> 		<path id="_3B2AFC3F-32C6-4DAC-B600-F8359D2F86B0frame17" oryx:anchors="top left" style="opacity:1;fill:none" d="M 20 20 L 20 24" stroke="#000000"/> 		<circle id="_3B2AFC3F-32C6-4DAC-B600-F8359D2F86B0frame18" oryx:anchors="top left" fill="black" cx="13.002" cy="5.916" r="5.417" stroke="#000000"/> 		<path id="_3B2AFC3F-32C6-4DAC-B600-F8359D2F86B0frame19" oryx:anchors="top left" style="opacity:1;fill:#F0EFF0;" stroke="#000000" d="M8.043,7.083c0,0,2.814-2.426,5.376-1.807s4.624-0.693,4.624-0.693    c0.25,1.688,0.042,3.75-1.458,5.584c0,0,1.083,0.75,1.083,1.5s0.125,1.875-1,3s-5.5,1.25-6.75,0S8.668,12.834,8.668,12    s0.583-1.25,1.25-1.917C8.835,9.5,7.419,7.708,8.043,7.083z"/> 	</g> 	 	<g id="_3B2AFC3F-32C6-4DAC-B600-F8359D2F86B0serviceTask" transform="scale(0.7,0.7) translate(8,8)" display="none"> 		<polygon oryx:anchors="top left" id="_3B2AFC3F-32C6-4DAC-B600-F8359D2F86B0frame20" style="opacity:1;fill:#ffffff" stroke="#000000" points="15.392,5.064 17.954,2.502 20.347,4.895 17.786,7.455     18.729,9.732 22.353,9.732 22.353,13.115 18.731,13.115 17.788,15.392 20.351,17.955 17.958,20.347 15.397,17.786 13.12,18.729     13.12,22.353 9.737,22.353 9.737,18.731 7.46,17.788 4.897,20.35 2.506,17.958 5.066,15.397 4.124,13.12 0.5,13.12 0.5,9.737     4.121,9.737 5.065,7.461 2.503,4.898 4.895,2.506 7.455,5.066 9.732,4.125 9.732,0.5 13.116,0.5 13.116,4.121 "/> 		<circle oryx:anchors="top left" id="_3B2AFC3F-32C6-4DAC-B600-F8359D2F86B0frame21" style="opacity:1;fill:none" stroke="#000000" cx="11.427" cy="11.426" r="3.714"/> 		<polygon oryx:anchors="top left" id="_3B2AFC3F-32C6-4DAC-B600-F8359D2F86B0frame22" style="opacity:1;fill:#ffffff" stroke="#000000" points="21.392,11.064 23.954,8.502 26.347,10.895 23.786,13.455     24.729,15.732 28.353,15.732 28.353,19.115 24.731,19.115 23.788,21.392 26.351,23.955 23.958,26.347 21.397,23.786 19.12,24.729     19.12,28.353 15.737,28.353 15.737,24.731 13.46,23.788 10.897,26.35 8.506,23.958 11.066,21.397 10.124,19.12 6.5,19.12     6.5,15.737 10.121,15.737 11.065,13.461 8.503,10.898 10.895,8.506 13.455,11.066 15.732,10.125 15.732,6.5 19.116,6.5     19.116,10.121 "/> 		<circle oryx:anchors="top left" id="_3B2AFC3F-32C6-4DAC-B600-F8359D2F86B0frame23" style="opacity:1;fill:none;" stroke="#000000" cx="17.427" cy="17.426" r="3.714"/> 	</g> 	 	<g id="_3B2AFC3F-32C6-4DAC-B600-F8359D2F86B0sendTask" display="none"> 		<path id="_3B2AFC3F-32C6-4DAC-B600-F8359D2F86B0stframe24" oryx:anchors="left top" stroke="#FFFFFF" fill="black" stroke-width="1" d="M8,11 L8,21 L24,21 L24,11 L16,17z"/> 		<path id="_3B2AFC3F-32C6-4DAC-B600-F8359D2F86B0stframe25" oryx:anchors="left top" stroke="#FFFFFF" fill="black" stroke-width="1" d="M7,10 L16,17 L25 10z"/> 	</g> 	 	<g id="_3B2AFC3F-32C6-4DAC-B600-F8359D2F86B0receiveTask" display="none"> 		<path id="_3B2AFC3F-32C6-4DAC-B600-F8359D2F86B0frame26" oryx:anchors="left top" stroke="#000000" fill="none" stroke-width="1" d="M8,11 L8,21 L24,21 L24,11z M8,11 L16,17 L24,11"/> 	</g> 	 	<g id="_3B2AFC3F-32C6-4DAC-B600-F8359D2F86B0none" display="none"/>  	<g id="_3B2AFC3F-32C6-4DAC-B600-F8359D2F86B0sequential" display="none">         <path oryx:anchors="bottom" fill="none" stroke="#000000" stroke-width="2" d="M46,76h10M46,72h10 M46,68h10" id="_3B2AFC3F-32C6-4DAC-B600-F8359D2F86B0__3B2AFC3F-32C6-4DAC-B600-F8359D2F86B0_20"/>     </g>   </g></g><g class="children" style="overflow:hidden"/><g class="edge"/></g><g class="controls"><g class="dockers"/><g class="magnets" transform="translate(394, 140)"><g pointer-events="all" display="none" transform="translate(-7, 12)"><circle cx="8" cy="8" r="4" stroke="none" fill="red" fill-opacity="0.3"/></g><g pointer-events="all" display="none" transform="translate(-7, 32)"><circle cx="8" cy="8" r="4" stroke="none" fill="red" fill-opacity="0.3"/></g><g pointer-events="all" display="none" transform="translate(-7, 52)"><circle cx="8" cy="8" r="4" stroke="none" fill="red" fill-opacity="0.3"/></g><g pointer-events="all" display="none" transform="translate(17, 71)"><circle cx="8" cy="8" r="4" stroke="none" fill="red" fill-opacity="0.3"/></g><g pointer-events="all" display="none" transform="translate(42, 71)"><circle cx="8" cy="8" r="4" stroke="none" fill="red" fill-opacity="0.3"/></g><g pointer-events="all" display="none" transform="translate(67, 71)"><circle cx="8" cy="8" r="4" stroke="none" fill="red" fill-opacity="0.3"/></g><g pointer-events="all" display="none" transform="translate(91, 12)"><circle cx="8" cy="8" r="4" stroke="none" fill="red" fill-opacity="0.3"/></g><g pointer-events="all" display="none" transform="translate(91, 32)"><circle cx="8" cy="8" r="4" stroke="none" fill="red" fill-opacity="0.3"/></g><g pointer-events="all" display="none" transform="translate(91, 52)"><circle cx="8" cy="8" r="4" stroke="none" fill="red" fill-opacity="0.3"/></g><g pointer-events="all" display="none" transform="translate(17, -7)"><circle cx="8" cy="8" r="4" stroke="none" fill="red" fill-opacity="0.3"/></g><g pointer-events="all" display="none" transform="translate(42, -7)"><circle cx="8" cy="8" r="4" stroke="none" fill="red" fill-opacity="0.3"/></g><g pointer-events="all" display="none" transform="translate(67, -7)"><circle cx="8" cy="8" r="4" stroke="none" fill="red" fill-opacity="0.3"/></g><g pointer-events="all" display="none" transform="translate(42, 32)"><circle cx="8" cy="8" r="4" stroke="none" fill="red" fill-opacity="0.3"/></g></g></g></g><g id="_589361AF-AFEA-4024-B9B1-D1D22CAF57BC" bpmn2nodeid="_41ED405A-2485-4129-B9CB-8A95DB00C57A"><g class="stencils" transform="translate(623, 166)"><g class="me"><g pointer-events="fill" id="_589361AF-AFEA-4024-B9B1-D1D22CAF57BC">      <defs id="_589361AF-AFEA-4024-B9B1-D1D22CAF57BC__589361AF-AFEA-4024-B9B1-D1D22CAF57BC_5"> 		<radialGradient id="_589361AF-AFEA-4024-B9B1-D1D22CAF57BCbackground" cx="10%" cy="10%" r="100%" fx="10%" fy="10%"> 			<stop offset="0%" stop-color="#ffffff" stop-opacity="1" id="_589361AF-AFEA-4024-B9B1-D1D22CAF57BC__589361AF-AFEA-4024-B9B1-D1D22CAF57BC_6"/> 			<stop id="_589361AF-AFEA-4024-B9B1-D1D22CAF57BCfill_el" offset="100%" stop-color="#ff6347" stop-opacity="1"/> 		</radialGradient> 	</defs> 	     <circle id="_589361AF-AFEA-4024-B9B1-D1D22CAF57BCbg_frame" cx="14" cy="14" r="14" stroke="#000000" fill="url(#_589361AF-AFEA-4024-B9B1-D1D22CAF57BCbackground) white" stroke-width="3"/> 	<text font-size="11" id="_589361AF-AFEA-4024-B9B1-D1D22CAF57BCtext_name" x="14" y="30" oryx:align="top center" stroke="black" stroke-width="0pt" letter-spacing="-0.01px" fill="#000000" text-anchor="middle" transform="rotate(0 14 30)" visibility="inherit" oryx:fontSize="11"/>   </g></g><g class="children" style="overflow:hidden"/><g class="edge"/></g><g class="controls"><g class="dockers"/><g class="magnets" transform="translate(623, 166)"><g pointer-events="all" display="none" transform="translate(6, 6)"><circle cx="8" cy="8" r="4" stroke="none" fill="red" fill-opacity="0.3"/></g></g></g></g></g><g class="edge"><g id="_B90AB592-C81F-4479-AE8C-7EF762A8D341" bpmn2nodeid="_DC875EA7-E9C8-4501-9DEB-DE53EDD71C30"><g class="stencils"><g class="me"><g pointer-events="painted" bpmn2nodeid="_DC875EA7-E9C8-4501-9DEB-DE53EDD71C30"><path id="_B90AB592-C81F-4479-AE8C-7EF762A8D341_1" d="M150.8828125 180L211.390625 180 " stroke="#000000" fill="none" stroke-width="2" stroke-linecap="round" stroke-linejoin="round" marker-start="url(#_B90AB592-C81F-4479-AE8C-7EF762A8D341start)" marker-end="url(#_B90AB592-C81F-4479-AE8C-7EF762A8D341end)"/></g><text id="_B90AB592-C81F-4479-AE8C-7EF762A8D341text_name" font-size="12" x="164.8828125" y="166" oryx:edgePosition="startTop" stroke-width="0pt" letter-spacing="-0.01px" fill="#000000" text-anchor="start" transform="rotate(360 150.8828125 180)" visibility="inherit" oryx:fontSize="12"/></g><g class="children" style="overflow:hidden"/><g class="edge"/></g><g class="controls"><g class="dockers"/><g class="magnets"/></g></g><g id="_078B319D-CBB3-4003-953C-88805889315E" bpmn2nodeid="_9410E428-080A-4974-B0D4-AC55C7B62AAA"><g class="stencils"><g class="me"><g pointer-events="painted" bpmn2nodeid="_9410E428-080A-4974-B0D4-AC55C7B62AAA"><path id="_078B319D-CBB3-4003-953C-88805889315E_1" d="M312.765625 180L393.234375 180 " stroke="#000000" fill="none" stroke-width="2" stroke-linecap="round" stroke-linejoin="round" marker-start="url(#_078B319D-CBB3-4003-953C-88805889315Estart)" marker-end="url(#_078B319D-CBB3-4003-953C-88805889315Eend)"/></g><text id="_078B319D-CBB3-4003-953C-88805889315Etext_name" font-size="12" x="326.765625" y="166" oryx:edgePosition="startTop" stroke-width="0pt" letter-spacing="-0.01px" fill="#000000" text-anchor="start" transform="rotate(360 312.765625 180)" visibility="inherit" oryx:fontSize="12"/></g><g class="children" style="overflow:hidden"/><g class="edge"/></g><g class="controls"><g class="dockers"/><g class="magnets"/></g></g><g id="_0650CE43-416C-492F-9080-C40E10E83490" bpmn2nodeid="_4E622960-67B6-4401-800F-AAA423441412"><g class="stencils"><g class="me"><g pointer-events="painted" bpmn2nodeid="_4E622960-67B6-4401-800F-AAA423441412"><path id="_0650CE43-416C-492F-9080-C40E10E83490_1" d="M494.7578125 180L622.4296875 180 " stroke="#000000" fill="none" stroke-width="2" stroke-linecap="round" stroke-linejoin="round" marker-start="url(#_0650CE43-416C-492F-9080-C40E10E83490start)" marker-end="url(#_0650CE43-416C-492F-9080-C40E10E83490end)"/></g><text id="_0650CE43-416C-492F-9080-C40E10E83490text_name" font-size="12" x="508.7578125" y="166" oryx:edgePosition="startTop" stroke-width="0pt" letter-spacing="-0.01px" fill="#000000" text-anchor="start" transform="rotate(360 494.7578125 180)" visibility="inherit" oryx:fontSize="12"/></g><g class="children" style="overflow:hidden"/><g class="edge"/></g><g class="controls"><g class="dockers"/><g class="magnets"/></g></g></g><text id="_99675D2A-A3B7-42DC-A8CB-F50C9AB871E1" style="stroke-width:1;fill:rgb(177,194,214);font-family:arial;font-weight:bold" font-size="12" onclick="ORYX.Plugins.CanvasTitle.openTextualAnalysis()" onmouseover="ORYX.Plugins.CanvasTitle.addToolTip('_99675D2A-A3B7-42DC-A8CB-F50C9AB871E1')" transform="translate(10, 20)">P1111 v.1.0 (src.P1111)</text></g></g></svg>