<svg xmlns="http://www.w3.org/2000/svg" xmlns:oryx="http://oryx-editor.org" id="_1CBA4259-BC69-48BA-B415-8D73FBE7C122" width="668" height="380" xmlns:xlink="http://www.w3.org/1999/xlink" xmlns:svg="http://www.w3.org/2000/svg"><defs><marker id="_1570DB90-EAD8-4A1A-BD6E-618F1543E010start" refX="1" refY="5" markerUnits="userSpaceOnUse" markerWidth="17" markerHeight="11" orient="auto" fill="#000000" stroke="#000000"> 	  		<path id="_1570DB90-EAD8-4A1A-BD6E-618F1543E010conditional" d="M 0 5 L 8 0 L 16 5 L 8 10 L 0 5" fill="white" stroke="#000000" stroke-width="1" display="none"/> 			<path id="_1570DB90-EAD8-4A1A-BD6E-618F1543E010default" d="M 5 0 L 11 10" fill="white" stroke="#000000" stroke-width="1" display="none"/> 	  	</marker><marker id="_1570DB90-EAD8-4A1A-BD6E-618F1543E010end" refX="15" refY="6" markerUnits="userSpaceOnUse" markerWidth="15" markerHeight="12" orient="auto" fill="#000000" stroke="#000000"> 	  		<path id="_1570DB90-EAD8-4A1A-BD6E-618F1543E010frame2" d="M 0 1 L 15 6 L 0 11z" fill="#000000" stroke="#000000" stroke-linejoin="round" stroke-width="2"/> 	  	</marker><marker id="_5E818898-70CE-46CB-B393-566C5E220C03start" refX="1" refY="5" markerUnits="userSpaceOnUse" markerWidth="17" markerHeight="11" orient="auto" fill="#000000" stroke="#000000"> 	  		<path id="_5E818898-70CE-46CB-B393-566C5E220C03conditional" d="M 0 5 L 8 0 L 16 5 L 8 10 L 0 5" fill="white" stroke="#000000" stroke-width="1" display="none"/> 			<path id="_5E818898-70CE-46CB-B393-566C5E220C03default" d="M 5 0 L 11 10" fill="white" stroke="#000000" stroke-width="1" display="none"/> 	  	</marker><marker id="_5E818898-70CE-46CB-B393-566C5E220C03end" refX="15" refY="6" markerUnits="userSpaceOnUse" markerWidth="15" markerHeight="12" orient="auto" fill="#000000" stroke="#000000"> 	  		<path id="_5E818898-70CE-46CB-B393-566C5E220C03frame2" d="M 0 1 L 15 6 L 0 11z" fill="#000000" stroke="#000000" stroke-linejoin="round" stroke-width="2"/> 	  	</marker><marker id="_5B2982C7-3CCD-449A-A28C-E1D4C9E2EEDBstart" refX="1" refY="5" markerUnits="userSpaceOnUse" markerWidth="17" markerHeight="11" orient="auto" fill="#000000" stroke="#000000"> 	  		<path id="_5B2982C7-3CCD-449A-A28C-E1D4C9E2EEDBconditional" d="M 0 5 L 8 0 L 16 5 L 8 10 L 0 5" fill="white" stroke="#000000" stroke-width="1" display="none"/> 			<path id="_5B2982C7-3CCD-449A-A28C-E1D4C9E2EEDBdefault" d="M 5 0 L 11 10" fill="white" stroke="#000000" stroke-width="1" display="none"/> 	  	</marker><marker id="_5B2982C7-3CCD-449A-A28C-E1D4C9E2EEDBend" refX="15" refY="6" markerUnits="userSpaceOnUse" markerWidth="15" markerHeight="12" orient="auto" fill="#000000" stroke="#000000"> 	  		<path id="_5B2982C7-3CCD-449A-A28C-E1D4C9E2EEDBframe2" d="M 0 1 L 15 6 L 0 11z" fill="#000000" stroke="#000000" stroke-linejoin="round" stroke-width="2"/> 	  	</marker><marker id="_8A48DE63-A1F3-4338-BC39-B26FB89FB5CBstart" refX="1" refY="5" markerUnits="userSpaceOnUse" markerWidth="17" markerHeight="11" orient="auto" fill="#000000" stroke="#000000"> 	  		<path id="_8A48DE63-A1F3-4338-BC39-B26FB89FB5CBconditional" d="M 0 5 L 8 0 L 16 5 L 8 10 L 0 5" fill="white" stroke="#000000" stroke-width="1" display="none"/> 			<path id="_8A48DE63-A1F3-4338-BC39-B26FB89FB5CBdefault" d="M 5 0 L 11 10" fill="white" stroke="#000000" stroke-width="1" display="none"/> 	  	</marker><marker id="_8A48DE63-A1F3-4338-BC39-B26FB89FB5CBend" refX="15" refY="6" markerUnits="userSpaceOnUse" markerWidth="15" markerHeight="12" orient="auto" fill="#000000" stroke="#000000"> 	  		<path id="_8A48DE63-A1F3-4338-BC39-B26FB89FB5CBframe2" d="M 0 1 L 15 6 L 0 11z" fill="#000000" stroke="#000000" stroke-linejoin="round" stroke-width="2"/> 	  	</marker></defs><g stroke="none" font-family="Verdana, sans-serif" font-size-adjust="none" font-style="normal" font-variant="normal" font-weight="normal" line-heigth="normal" font-size="12"><g class="stencils" transform="translate(15, 16)"><g class="me"/><g class="children"><g id="_38A0CF28-A022-4293-AF56-6C1EF0A0DC6B" bpmn2nodeid="processStartEvent"><g class="stencils" transform="translate(45, 285)"><g class="me"><g pointer-events="fill" id="_38A0CF28-A022-4293-AF56-6C1EF0A0DC6B">        <defs id="_38A0CF28-A022-4293-AF56-6C1EF0A0DC6B__38A0CF28-A022-4293-AF56-6C1EF0A0DC6B_5"> 		<radialGradient id="_38A0CF28-A022-4293-AF56-6C1EF0A0DC6Bbackground" cx="10%" cy="10%" r="100%" fx="10%" fy="10%"> 			<stop offset="0%" stop-color="#ffffff" stop-opacity="1" id="_38A0CF28-A022-4293-AF56-6C1EF0A0DC6B__38A0CF28-A022-4293-AF56-6C1EF0A0DC6B_6"/> 			<stop id="_38A0CF28-A022-4293-AF56-6C1EF0A0DC6Bfill_el" offset="100%" stop-color="#9acd32" stop-opacity="1"/> 		</radialGradient> 	</defs> 	     <circle id="_38A0CF28-A022-4293-AF56-6C1EF0A0DC6Bbg_frame" cx="15" cy="15" r="15" stroke="#000000" fill="url(#_38A0CF28-A022-4293-AF56-6C1EF0A0DC6Bbackground) white" stroke-width="1" style="stroke-dasharray: 5.5, 3"/>      <circle id="_38A0CF28-A022-4293-AF56-6C1EF0A0DC6Bframe" cx="15" cy="15" r="15" stroke="#000000" fill="none" stroke-width="1" display="inherit"/>  	<text font-size="11" id="_38A0CF28-A022-4293-AF56-6C1EF0A0DC6Btext_name" x="15" y="32" oryx:align="top center" stroke="black" stroke-width="0pt" letter-spacing="-0.01px" fill="#000000" text-anchor="middle" transform="rotate(0 15 32)" visibility="inherit" oryx:fontSize="11"/>   </g></g><g class="children" style="overflow:hidden"/><g class="edge"/></g><g class="controls"><g class="dockers"/><g class="magnets" transform="translate(45, 285)"><g pointer-events="all" display="none" transform="translate(7, 7)"><circle cx="8" cy="8" r="4" stroke="none" fill="red" fill-opacity="0.3"/></g></g></g></g><g id="_1376FB12-CF32-45C7-93AF-DDFA54391F7C" bpmn2nodeid="_2D2647F3-2BF3-4793-A6CC-15DD723CDA5B"><g class="stencils" transform="translate(165, 255)"><g class="me"><g pointer-events="fill" oryx:minimumSize="50 40" id="_1376FB12-CF32-45C7-93AF-DDFA54391F7C">   	<defs id="_1376FB12-CF32-45C7-93AF-DDFA54391F7C__1376FB12-CF32-45C7-93AF-DDFA54391F7C_17"> 		<radialGradient id="_1376FB12-CF32-45C7-93AF-DDFA54391F7Cbackground" cx="10%" cy="10%" r="100%" fx="10%" fy="10%"> 			<stop offset="0%" stop-color="#ffffff" stop-opacity="1" id="_1376FB12-CF32-45C7-93AF-DDFA54391F7C__1376FB12-CF32-45C7-93AF-DDFA54391F7C_18"/> 			<stop id="_1376FB12-CF32-45C7-93AF-DDFA54391F7Cfill_el" offset="100%" stop-color="#fafad2" stop-opacity="1"/> 		</radialGradient> 		<radialGradient id="_1376FB12-CF32-45C7-93AF-DDFA54391F7Cborderbackground" cx="10%" cy="10%" r="100%" fx="10%" fy="10%"> 			<stop offset="0%" stop-color="#ffffff" stop-opacity="1" id="_1376FB12-CF32-45C7-93AF-DDFA54391F7C__1376FB12-CF32-45C7-93AF-DDFA54391F7C_19"/> 			<stop id="_1376FB12-CF32-45C7-93AF-DDFA54391F7Cfill_border" offset="100%" stop-color="#000000" stop-opacity="1" stroke="#000000"/> 		</radialGradient> 	</defs> 	 	<rect id="_1376FB12-CF32-45C7-93AF-DDFA54391F7Ctext_frame" oryx:anchors="bottom top right left" x="1" y="1" width="94" height="79" rx="10" ry="10" stroke="none" stroke-width="0" fill="none"/> 	<rect id="_1376FB12-CF32-45C7-93AF-DDFA54391F7Cbg_frame" oryx:resize="vertical horizontal" x="0" y="0" width="100" height="80" rx="10" ry="10" stroke="#000000" stroke-width="1" fill="url(#_1376FB12-CF32-45C7-93AF-DDFA54391F7Cbackground) #ffffcc"/> 		<text font-size="12" id="_1376FB12-CF32-45C7-93AF-DDFA54391F7Ctext_name" x="50" y="40" oryx:align="middle center" oryx:fittoelem="text_frame" stroke="black" text-anchor="middle" stroke-width="0pt" letter-spacing="-0.01px" fill="#000000" transform="rotate(0 50 40)" visibility="inherit" oryx:fontSize="12"><tspan x="50" y="40" dy="5" id="ext-gen609">Promotion</tspan></text>     <g id="_1376FB12-CF32-45C7-93AF-DDFA54391F7CmanualTask" transform="scale(0.7,0.7) translate(8,8)" display="none">     	<path oryx:anchors="top left" id="_1376FB12-CF32-45C7-93AF-DDFA54391F7Cframe" style="opacity:1;fill:none;fill-opacity:1;stroke-width:1" d="M0.5,3.751l4.083-3.25c0,0,11.166,0.083,12.083,0.083s-2.417,2.917-1.5,2.917     s11.667,0,12.584,0c1.166,1.708-0.168,3.167-0.834,3.667s0.875,1.917-1,4.417c-0.75,0.25,0.75,1.875-1.333,3.333     c-1.167,0.583,0.583,1.542-1.25,2.833c-1.167,0-20.833,0.083-20.833,0.083l-2-1.333V3.751z" stroke="#000000"/> 		<path id="_1376FB12-CF32-45C7-93AF-DDFA54391F7Cframe2" oryx:anchors="top left" style="opacity:1;fill:none;stroke-width:2" d="M 13.5 7 L 27 7" stroke="#000000"/> 		<path id="_1376FB12-CF32-45C7-93AF-DDFA54391F7Cframe3" oryx:anchors="top left" style="opacity:1;fill:none;stroke-width:2" d="M 13.5 11 L 26 11" stroke="#000000"/> 		<path id="_1376FB12-CF32-45C7-93AF-DDFA54391F7Cframe4" oryx:anchors="top left" style="opacity:1;fill:none;stroke-width:1.5" d="M 14 14.5 L 25 14.5" stroke="#000000"/> 		<path id="_1376FB12-CF32-45C7-93AF-DDFA54391F7Cframe5" oryx:anchors="top left" style="opacity:1;fill:none;stroke-width:1.5" d="M 8.2 3.1 L 15 3.1" stroke="#000000"/> 	</g> 	 	<g id="_1376FB12-CF32-45C7-93AF-DDFA54391F7CbusinessRuleTask" transform="scale(0.7,0.7) translate(8,8)" display="inherit"> 		<rect id="_1376FB12-CF32-45C7-93AF-DDFA54391F7Cframe6" oryx:anchors="top left" x="0" y="0" width="22" height="4" style="opacity:1;fill:#B3B1B3;fill-opacity:1;" stroke="#000000"/> 		<rect id="_1376FB12-CF32-45C7-93AF-DDFA54391F7Cframe7" oryx:anchors="top left" x="0" y="4" style="opacity:1;fill:none;" width="22" height="12" stroke="#000000"/> 		<path id="_1376FB12-CF32-45C7-93AF-DDFA54391F7Cframe8" oryx:anchors="top left" style="opacity:1;fill:none;" d="M 0 10 L 22 10" stroke="#000000"/> 		<path id="_1376FB12-CF32-45C7-93AF-DDFA54391F7Cframe9" oryx:anchors="top left" style="opacity:1; fill:none;" d="M 7 4 L 7 16" stroke="#000000"/> 	</g> 	 	<g id="_1376FB12-CF32-45C7-93AF-DDFA54391F7CscriptTask" transform="scale(0.7,0.7) translate(8,8)" display="none"> 		<path oryx:anchors="top left" id="_1376FB12-CF32-45C7-93AF-DDFA54391F7Cframe10" style="opacity:1;fill:none;" stroke="#000000" d="M6.402,0.5h14.5c0,0-5.833,2.833-5.833,5.583s4.417,6,4.417,9.167    s-4.167,5.083-4.167,5.083H0.235c0,0,5-2.667,5-5s-4.583-6.75-4.583-9.25S6.402,0.5,6.402,0.5z"/> 		<path oryx:anchors="top left" id="_1376FB12-CF32-45C7-93AF-DDFA54391F7Cframe11" style="opacity:1;fill:none;stroke-width:1.5" d="M 3.5 4.5 L 13.5 4.5" stroke="#000000"/> 		<path oryx:anchors="top left" id="_1376FB12-CF32-45C7-93AF-DDFA54391F7Cframe12" style="opacity:1;fill:none;stroke-width:1.5" d="M 3.8 8.5 L 13.8 8.5" stroke="#000000"/> 		<path oryx:anchors="top left" id="_1376FB12-CF32-45C7-93AF-DDFA54391F7Cframe13" style="opacity:1;fill:none;stroke-width:1.5" d="M 6.3 12.5 L 16.3 12.5" stroke="#000000"/> 		<path oryx:anchors="top left" id="_1376FB12-CF32-45C7-93AF-DDFA54391F7Cframe14" style="opacity:1;fill:none;stroke-width:1.5" d="M 6.5 16.5 L 16.5 16.5" stroke="#000000"/> 	</g> 	 	<g id="_1376FB12-CF32-45C7-93AF-DDFA54391F7CuserTask" transform="scale(0.7,0.7) translate(8,8)" display="none"> 		<path id="_1376FB12-CF32-45C7-93AF-DDFA54391F7Cframe15" oryx:anchors="top left" style="opacity:1;fill:#F4F6F7" stroke="#000000" d="M0.585,24.167h24.083v-7.833c0,0-2.333-3.917-7.083-5.167h-9.25    c-4.417,1.333-7.833,5.75-7.833,5.75L0.585,24.167z"/> 		<path id="_1376FB12-CF32-45C7-93AF-DDFA54391F7Cframe16" oryx:anchors="top left" style="opacity:1;fill:none" d="M 6 20 L 6 24" stroke="#000000"/> 		<path id="_1376FB12-CF32-45C7-93AF-DDFA54391F7Cframe17" oryx:anchors="top left" style="opacity:1;fill:none" d="M 20 20 L 20 24" stroke="#000000"/> 		<circle id="_1376FB12-CF32-45C7-93AF-DDFA54391F7Cframe18" oryx:anchors="top left" fill="black" cx="13.002" cy="5.916" r="5.417" stroke="#000000"/> 		<path id="_1376FB12-CF32-45C7-93AF-DDFA54391F7Cframe19" oryx:anchors="top left" style="opacity:1;fill:#F0EFF0;" stroke="#000000" d="M8.043,7.083c0,0,2.814-2.426,5.376-1.807s4.624-0.693,4.624-0.693    c0.25,1.688,0.042,3.75-1.458,5.584c0,0,1.083,0.75,1.083,1.5s0.125,1.875-1,3s-5.5,1.25-6.75,0S8.668,12.834,8.668,12    s0.583-1.25,1.25-1.917C8.835,9.5,7.419,7.708,8.043,7.083z"/> 	</g> 	 	<g id="_1376FB12-CF32-45C7-93AF-DDFA54391F7CserviceTask" transform="scale(0.7,0.7) translate(8,8)" display="none"> 		<polygon oryx:anchors="top left" id="_1376FB12-CF32-45C7-93AF-DDFA54391F7Cframe20" style="opacity:1;fill:#ffffff" stroke="#000000" points="15.392,5.064 17.954,2.502 20.347,4.895 17.786,7.455     18.729,9.732 22.353,9.732 22.353,13.115 18.731,13.115 17.788,15.392 20.351,17.955 17.958,20.347 15.397,17.786 13.12,18.729     13.12,22.353 9.737,22.353 9.737,18.731 7.46,17.788 4.897,20.35 2.506,17.958 5.066,15.397 4.124,13.12 0.5,13.12 0.5,9.737     4.121,9.737 5.065,7.461 2.503,4.898 4.895,2.506 7.455,5.066 9.732,4.125 9.732,0.5 13.116,0.5 13.116,4.121 "/> 		<circle oryx:anchors="top left" id="_1376FB12-CF32-45C7-93AF-DDFA54391F7Cframe21" style="opacity:1;fill:none" stroke="#000000" cx="11.427" cy="11.426" r="3.714"/> 		<polygon oryx:anchors="top left" id="_1376FB12-CF32-45C7-93AF-DDFA54391F7Cframe22" style="opacity:1;fill:#ffffff" stroke="#000000" points="21.392,11.064 23.954,8.502 26.347,10.895 23.786,13.455     24.729,15.732 28.353,15.732 28.353,19.115 24.731,19.115 23.788,21.392 26.351,23.955 23.958,26.347 21.397,23.786 19.12,24.729     19.12,28.353 15.737,28.353 15.737,24.731 13.46,23.788 10.897,26.35 8.506,23.958 11.066,21.397 10.124,19.12 6.5,19.12     6.5,15.737 10.121,15.737 11.065,13.461 8.503,10.898 10.895,8.506 13.455,11.066 15.732,10.125 15.732,6.5 19.116,6.5     19.116,10.121 "/> 		<circle oryx:anchors="top left" id="_1376FB12-CF32-45C7-93AF-DDFA54391F7Cframe23" style="opacity:1;fill:none;" stroke="#000000" cx="17.427" cy="17.426" r="3.714"/> 	</g> 	 	<g id="_1376FB12-CF32-45C7-93AF-DDFA54391F7CsendTask" display="none"> 		<path id="_1376FB12-CF32-45C7-93AF-DDFA54391F7Cstframe24" oryx:anchors="left top" stroke="#FFFFFF" fill="black" stroke-width="1" d="M8,11 L8,21 L24,21 L24,11 L16,17z"/> 		<path id="_1376FB12-CF32-45C7-93AF-DDFA54391F7Cstframe25" oryx:anchors="left top" stroke="#FFFFFF" fill="black" stroke-width="1" d="M7,10 L16,17 L25 10z"/> 	</g> 	 	<g id="_1376FB12-CF32-45C7-93AF-DDFA54391F7CreceiveTask" display="none"> 		<path id="_1376FB12-CF32-45C7-93AF-DDFA54391F7Cframe26" oryx:anchors="left top" stroke="#000000" fill="none" stroke-width="1" d="M8,11 L8,21 L24,21 L24,11z M8,11 L16,17 L24,11"/> 	</g> 	 	<g id="_1376FB12-CF32-45C7-93AF-DDFA54391F7Cnone" display="inherit"/>  	<g id="_1376FB12-CF32-45C7-93AF-DDFA54391F7Csequential" display="none">         <path oryx:anchors="bottom" fill="none" stroke="#000000" stroke-width="2" d="M46,76h10M46,72h10 M46,68h10" id="_1376FB12-CF32-45C7-93AF-DDFA54391F7C__1376FB12-CF32-45C7-93AF-DDFA54391F7C_20"/>     </g>   </g></g><g class="children" style="overflow:hidden"/><g class="edge"/></g><g class="controls"><g class="dockers"/><g class="magnets" transform="translate(165, 255)"><g pointer-events="all" display="none" transform="translate(-7, 12)"><circle cx="8" cy="8" r="4" stroke="none" fill="red" fill-opacity="0.3"/></g><g pointer-events="all" display="none" transform="translate(-7, 32)"><circle cx="8" cy="8" r="4" stroke="none" fill="red" fill-opacity="0.3"/></g><g pointer-events="all" display="none" transform="translate(-7, 52)"><circle cx="8" cy="8" r="4" stroke="none" fill="red" fill-opacity="0.3"/></g><g pointer-events="all" display="none" transform="translate(17, 71)"><circle cx="8" cy="8" r="4" stroke="none" fill="red" fill-opacity="0.3"/></g><g pointer-events="all" display="none" transform="translate(42, 71)"><circle cx="8" cy="8" r="4" stroke="none" fill="red" fill-opacity="0.3"/></g><g pointer-events="all" display="none" transform="translate(67, 71)"><circle cx="8" cy="8" r="4" stroke="none" fill="red" fill-opacity="0.3"/></g><g pointer-events="all" display="none" transform="translate(91, 12)"><circle cx="8" cy="8" r="4" stroke="none" fill="red" fill-opacity="0.3"/></g><g pointer-events="all" display="none" transform="translate(91, 32)"><circle cx="8" cy="8" r="4" stroke="none" fill="red" fill-opacity="0.3"/></g><g pointer-events="all" display="none" transform="translate(91, 52)"><circle cx="8" cy="8" r="4" stroke="none" fill="red" fill-opacity="0.3"/></g><g pointer-events="all" display="none" transform="translate(17, -7)"><circle cx="8" cy="8" r="4" stroke="none" fill="red" fill-opacity="0.3"/></g><g pointer-events="all" display="none" transform="translate(42, -7)"><circle cx="8" cy="8" r="4" stroke="none" fill="red" fill-opacity="0.3"/></g><g pointer-events="all" display="none" transform="translate(67, -7)"><circle cx="8" cy="8" r="4" stroke="none" fill="red" fill-opacity="0.3"/></g><g pointer-events="all" display="none" transform="translate(42, 32)"><circle cx="8" cy="8" r="4" stroke="none" fill="red" fill-opacity="0.3"/></g></g></g></g><g id="_F85EF5BB-D9E5-47C5-8E3F-9693A2A6177E" bpmn2nodeid="_A4293288-FA99-45BC-84C2-856916F02AFA"><g class="stencils" transform="translate(300, 255)"><g class="me"><g pointer-events="fill" oryx:minimumSize="50 40" id="_F85EF5BB-D9E5-47C5-8E3F-9693A2A6177E">   	<defs id="_F85EF5BB-D9E5-47C5-8E3F-9693A2A6177E__F85EF5BB-D9E5-47C5-8E3F-9693A2A6177E_17"> 		<radialGradient id="_F85EF5BB-D9E5-47C5-8E3F-9693A2A6177Ebackground" cx="10%" cy="10%" r="100%" fx="10%" fy="10%"> 			<stop offset="0%" stop-color="#ffffff" stop-opacity="1" id="_F85EF5BB-D9E5-47C5-8E3F-9693A2A6177E__F85EF5BB-D9E5-47C5-8E3F-9693A2A6177E_18"/> 			<stop id="_F85EF5BB-D9E5-47C5-8E3F-9693A2A6177Efill_el" offset="100%" stop-color="#fafad2" stop-opacity="1"/> 		</radialGradient> 		<radialGradient id="_F85EF5BB-D9E5-47C5-8E3F-9693A2A6177Eborderbackground" cx="10%" cy="10%" r="100%" fx="10%" fy="10%"> 			<stop offset="0%" stop-color="#ffffff" stop-opacity="1" id="_F85EF5BB-D9E5-47C5-8E3F-9693A2A6177E__F85EF5BB-D9E5-47C5-8E3F-9693A2A6177E_19"/> 			<stop id="_F85EF5BB-D9E5-47C5-8E3F-9693A2A6177Efill_border" offset="100%" stop-color="#000000" stop-opacity="1" stroke="#000000"/> 		</radialGradient> 	</defs> 	 	<rect id="_F85EF5BB-D9E5-47C5-8E3F-9693A2A6177Etext_frame" oryx:anchors="bottom top right left" x="1" y="1" width="94" height="79" rx="10" ry="10" stroke="none" stroke-width="0" fill="none"/> 	<rect id="_F85EF5BB-D9E5-47C5-8E3F-9693A2A6177Ebg_frame" oryx:resize="vertical horizontal" x="0" y="0" width="100" height="80" rx="10" ry="10" stroke="#000000" stroke-width="1" fill="url(#_F85EF5BB-D9E5-47C5-8E3F-9693A2A6177Ebackground) #ffffcc"/> 		<text font-size="12" id="_F85EF5BB-D9E5-47C5-8E3F-9693A2A6177Etext_name" x="50" y="40" oryx:align="middle center" oryx:fittoelem="text_frame" stroke="black" text-anchor="middle" stroke-width="0pt" letter-spacing="-0.01px" fill="#000000" transform="rotate(0 50 40)" visibility="inherit" oryx:fontSize="12"><tspan x="50" y="40" dy="5" id="ext-gen652">Standard</tspan></text>     <g id="_F85EF5BB-D9E5-47C5-8E3F-9693A2A6177EmanualTask" transform="scale(0.7,0.7) translate(8,8)" display="none">     	<path oryx:anchors="top left" id="_F85EF5BB-D9E5-47C5-8E3F-9693A2A6177Eframe" style="opacity:1;fill:none;fill-opacity:1;stroke-width:1" d="M0.5,3.751l4.083-3.25c0,0,11.166,0.083,12.083,0.083s-2.417,2.917-1.5,2.917     s11.667,0,12.584,0c1.166,1.708-0.168,3.167-0.834,3.667s0.875,1.917-1,4.417c-0.75,0.25,0.75,1.875-1.333,3.333     c-1.167,0.583,0.583,1.542-1.25,2.833c-1.167,0-20.833,0.083-20.833,0.083l-2-1.333V3.751z" stroke="#000000"/> 		<path id="_F85EF5BB-D9E5-47C5-8E3F-9693A2A6177Eframe2" oryx:anchors="top left" style="opacity:1;fill:none;stroke-width:2" d="M 13.5 7 L 27 7" stroke="#000000"/> 		<path id="_F85EF5BB-D9E5-47C5-8E3F-9693A2A6177Eframe3" oryx:anchors="top left" style="opacity:1;fill:none;stroke-width:2" d="M 13.5 11 L 26 11" stroke="#000000"/> 		<path id="_F85EF5BB-D9E5-47C5-8E3F-9693A2A6177Eframe4" oryx:anchors="top left" style="opacity:1;fill:none;stroke-width:1.5" d="M 14 14.5 L 25 14.5" stroke="#000000"/> 		<path id="_F85EF5BB-D9E5-47C5-8E3F-9693A2A6177Eframe5" oryx:anchors="top left" style="opacity:1;fill:none;stroke-width:1.5" d="M 8.2 3.1 L 15 3.1" stroke="#000000"/> 	</g> 	 	<g id="_F85EF5BB-D9E5-47C5-8E3F-9693A2A6177EbusinessRuleTask" transform="scale(0.7,0.7) translate(8,8)" display="inherit"> 		<rect id="_F85EF5BB-D9E5-47C5-8E3F-9693A2A6177Eframe6" oryx:anchors="top left" x="0" y="0" width="22" height="4" style="opacity:1;fill:#B3B1B3;fill-opacity:1;" stroke="#000000"/> 		<rect id="_F85EF5BB-D9E5-47C5-8E3F-9693A2A6177Eframe7" oryx:anchors="top left" x="0" y="4" style="opacity:1;fill:none;" width="22" height="12" stroke="#000000"/> 		<path id="_F85EF5BB-D9E5-47C5-8E3F-9693A2A6177Eframe8" oryx:anchors="top left" style="opacity:1;fill:none;" d="M 0 10 L 22 10" stroke="#000000"/> 		<path id="_F85EF5BB-D9E5-47C5-8E3F-9693A2A6177Eframe9" oryx:anchors="top left" style="opacity:1; fill:none;" d="M 7 4 L 7 16" stroke="#000000"/> 	</g> 	 	<g id="_F85EF5BB-D9E5-47C5-8E3F-9693A2A6177EscriptTask" transform="scale(0.7,0.7) translate(8,8)" display="none"> 		<path oryx:anchors="top left" id="_F85EF5BB-D9E5-47C5-8E3F-9693A2A6177Eframe10" style="opacity:1;fill:none;" stroke="#000000" d="M6.402,0.5h14.5c0,0-5.833,2.833-5.833,5.583s4.417,6,4.417,9.167    s-4.167,5.083-4.167,5.083H0.235c0,0,5-2.667,5-5s-4.583-6.75-4.583-9.25S6.402,0.5,6.402,0.5z"/> 		<path oryx:anchors="top left" id="_F85EF5BB-D9E5-47C5-8E3F-9693A2A6177Eframe11" style="opacity:1;fill:none;stroke-width:1.5" d="M 3.5 4.5 L 13.5 4.5" stroke="#000000"/> 		<path oryx:anchors="top left" id="_F85EF5BB-D9E5-47C5-8E3F-9693A2A6177Eframe12" style="opacity:1;fill:none;stroke-width:1.5" d="M 3.8 8.5 L 13.8 8.5" stroke="#000000"/> 		<path oryx:anchors="top left" id="_F85EF5BB-D9E5-47C5-8E3F-9693A2A6177Eframe13" style="opacity:1;fill:none;stroke-width:1.5" d="M 6.3 12.5 L 16.3 12.5" stroke="#000000"/> 		<path oryx:anchors="top left" id="_F85EF5BB-D9E5-47C5-8E3F-9693A2A6177Eframe14" style="opacity:1;fill:none;stroke-width:1.5" d="M 6.5 16.5 L 16.5 16.5" stroke="#000000"/> 	</g> 	 	<g id="_F85EF5BB-D9E5-47C5-8E3F-9693A2A6177EuserTask" transform="scale(0.7,0.7) translate(8,8)" display="none"> 		<path id="_F85EF5BB-D9E5-47C5-8E3F-9693A2A6177Eframe15" oryx:anchors="top left" style="opacity:1;fill:#F4F6F7" stroke="#000000" d="M0.585,24.167h24.083v-7.833c0,0-2.333-3.917-7.083-5.167h-9.25    c-4.417,1.333-7.833,5.75-7.833,5.75L0.585,24.167z"/> 		<path id="_F85EF5BB-D9E5-47C5-8E3F-9693A2A6177Eframe16" oryx:anchors="top left" style="opacity:1;fill:none" d="M 6 20 L 6 24" stroke="#000000"/> 		<path id="_F85EF5BB-D9E5-47C5-8E3F-9693A2A6177Eframe17" oryx:anchors="top left" style="opacity:1;fill:none" d="M 20 20 L 20 24" stroke="#000000"/> 		<circle id="_F85EF5BB-D9E5-47C5-8E3F-9693A2A6177Eframe18" oryx:anchors="top left" fill="black" cx="13.002" cy="5.916" r="5.417" stroke="#000000"/> 		<path id="_F85EF5BB-D9E5-47C5-8E3F-9693A2A6177Eframe19" oryx:anchors="top left" style="opacity:1;fill:#F0EFF0;" stroke="#000000" d="M8.043,7.083c0,0,2.814-2.426,5.376-1.807s4.624-0.693,4.624-0.693    c0.25,1.688,0.042,3.75-1.458,5.584c0,0,1.083,0.75,1.083,1.5s0.125,1.875-1,3s-5.5,1.25-6.75,0S8.668,12.834,8.668,12    s0.583-1.25,1.25-1.917C8.835,9.5,7.419,7.708,8.043,7.083z"/> 	</g> 	 	<g id="_F85EF5BB-D9E5-47C5-8E3F-9693A2A6177EserviceTask" transform="scale(0.7,0.7) translate(8,8)" display="none"> 		<polygon oryx:anchors="top left" id="_F85EF5BB-D9E5-47C5-8E3F-9693A2A6177Eframe20" style="opacity:1;fill:#ffffff" stroke="#000000" points="15.392,5.064 17.954,2.502 20.347,4.895 17.786,7.455     18.729,9.732 22.353,9.732 22.353,13.115 18.731,13.115 17.788,15.392 20.351,17.955 17.958,20.347 15.397,17.786 13.12,18.729     13.12,22.353 9.737,22.353 9.737,18.731 7.46,17.788 4.897,20.35 2.506,17.958 5.066,15.397 4.124,13.12 0.5,13.12 0.5,9.737     4.121,9.737 5.065,7.461 2.503,4.898 4.895,2.506 7.455,5.066 9.732,4.125 9.732,0.5 13.116,0.5 13.116,4.121 "/> 		<circle oryx:anchors="top left" id="_F85EF5BB-D9E5-47C5-8E3F-9693A2A6177Eframe21" style="opacity:1;fill:none" stroke="#000000" cx="11.427" cy="11.426" r="3.714"/> 		<polygon oryx:anchors="top left" id="_F85EF5BB-D9E5-47C5-8E3F-9693A2A6177Eframe22" style="opacity:1;fill:#ffffff" stroke="#000000" points="21.392,11.064 23.954,8.502 26.347,10.895 23.786,13.455     24.729,15.732 28.353,15.732 28.353,19.115 24.731,19.115 23.788,21.392 26.351,23.955 23.958,26.347 21.397,23.786 19.12,24.729     19.12,28.353 15.737,28.353 15.737,24.731 13.46,23.788 10.897,26.35 8.506,23.958 11.066,21.397 10.124,19.12 6.5,19.12     6.5,15.737 10.121,15.737 11.065,13.461 8.503,10.898 10.895,8.506 13.455,11.066 15.732,10.125 15.732,6.5 19.116,6.5     19.116,10.121 "/> 		<circle oryx:anchors="top left" id="_F85EF5BB-D9E5-47C5-8E3F-9693A2A6177Eframe23" style="opacity:1;fill:none;" stroke="#000000" cx="17.427" cy="17.426" r="3.714"/> 	</g> 	 	<g id="_F85EF5BB-D9E5-47C5-8E3F-9693A2A6177EsendTask" display="none"> 		<path id="_F85EF5BB-D9E5-47C5-8E3F-9693A2A6177Estframe24" oryx:anchors="left top" stroke="#FFFFFF" fill="black" stroke-width="1" d="M8,11 L8,21 L24,21 L24,11 L16,17z"/> 		<path id="_F85EF5BB-D9E5-47C5-8E3F-9693A2A6177Estframe25" oryx:anchors="left top" stroke="#FFFFFF" fill="black" stroke-width="1" d="M7,10 L16,17 L25 10z"/> 	</g> 	 	<g id="_F85EF5BB-D9E5-47C5-8E3F-9693A2A6177EreceiveTask" display="none"> 		<path id="_F85EF5BB-D9E5-47C5-8E3F-9693A2A6177Eframe26" oryx:anchors="left top" stroke="#000000" fill="none" stroke-width="1" d="M8,11 L8,21 L24,21 L24,11z M8,11 L16,17 L24,11"/> 	</g> 	 	<g id="_F85EF5BB-D9E5-47C5-8E3F-9693A2A6177Enone" display="inherit"/>  	<g id="_F85EF5BB-D9E5-47C5-8E3F-9693A2A6177Esequential" display="none">         <path oryx:anchors="bottom" fill="none" stroke="#000000" stroke-width="2" d="M46,76h10M46,72h10 M46,68h10" id="_F85EF5BB-D9E5-47C5-8E3F-9693A2A6177E__F85EF5BB-D9E5-47C5-8E3F-9693A2A6177E_20"/>     </g>   </g></g><g class="children" style="overflow:hidden"/><g class="edge"/></g><g class="controls"><g class="dockers"/><g class="magnets" transform="translate(300, 255)"><g pointer-events="all" display="none" transform="translate(-7, 12)"><circle cx="8" cy="8" r="4" stroke="none" fill="red" fill-opacity="0.3"/></g><g pointer-events="all" display="none" transform="translate(-7, 32)"><circle cx="8" cy="8" r="4" stroke="none" fill="red" fill-opacity="0.3"/></g><g pointer-events="all" display="none" transform="translate(-7, 52)"><circle cx="8" cy="8" r="4" stroke="none" fill="red" fill-opacity="0.3"/></g><g pointer-events="all" display="none" transform="translate(17, 71)"><circle cx="8" cy="8" r="4" stroke="none" fill="red" fill-opacity="0.3"/></g><g pointer-events="all" display="none" transform="translate(42, 71)"><circle cx="8" cy="8" r="4" stroke="none" fill="red" fill-opacity="0.3"/></g><g pointer-events="all" display="none" transform="translate(67, 71)"><circle cx="8" cy="8" r="4" stroke="none" fill="red" fill-opacity="0.3"/></g><g pointer-events="all" display="none" transform="translate(91, 12)"><circle cx="8" cy="8" r="4" stroke="none" fill="red" fill-opacity="0.3"/></g><g pointer-events="all" display="none" transform="translate(91, 32)"><circle cx="8" cy="8" r="4" stroke="none" fill="red" fill-opacity="0.3"/></g><g pointer-events="all" display="none" transform="translate(91, 52)"><circle cx="8" cy="8" r="4" stroke="none" fill="red" fill-opacity="0.3"/></g><g pointer-events="all" display="none" transform="translate(17, -7)"><circle cx="8" cy="8" r="4" stroke="none" fill="red" fill-opacity="0.3"/></g><g pointer-events="all" display="none" transform="translate(42, -7)"><circle cx="8" cy="8" r="4" stroke="none" fill="red" fill-opacity="0.3"/></g><g pointer-events="all" display="none" transform="translate(67, -7)"><circle cx="8" cy="8" r="4" stroke="none" fill="red" fill-opacity="0.3"/></g><g pointer-events="all" display="none" transform="translate(42, 32)"><circle cx="8" cy="8" r="4" stroke="none" fill="red" fill-opacity="0.3"/></g></g></g></g><g id="_6F42E717-9DB5-4788-AE50-881AF6122FEE" bpmn2nodeid="_6A27C0FB-0614-49BF-A440-1C303C735B69"><g class="stencils" transform="translate(450, 255)"><g class="me"><g pointer-events="fill" oryx:minimumSize="50 40" id="_6F42E717-9DB5-4788-AE50-881AF6122FEE">   	<defs id="_6F42E717-9DB5-4788-AE50-881AF6122FEE__6F42E717-9DB5-4788-AE50-881AF6122FEE_17"> 		<radialGradient id="_6F42E717-9DB5-4788-AE50-881AF6122FEEbackground" cx="10%" cy="10%" r="100%" fx="10%" fy="10%"> 			<stop offset="0%" stop-color="#ffffff" stop-opacity="1" id="_6F42E717-9DB5-4788-AE50-881AF6122FEE__6F42E717-9DB5-4788-AE50-881AF6122FEE_18"/> 			<stop id="_6F42E717-9DB5-4788-AE50-881AF6122FEEfill_el" offset="100%" stop-color="#fafad2" stop-opacity="1"/> 		</radialGradient> 		<radialGradient id="_6F42E717-9DB5-4788-AE50-881AF6122FEEborderbackground" cx="10%" cy="10%" r="100%" fx="10%" fy="10%"> 			<stop offset="0%" stop-color="#ffffff" stop-opacity="1" id="_6F42E717-9DB5-4788-AE50-881AF6122FEE__6F42E717-9DB5-4788-AE50-881AF6122FEE_19"/> 			<stop id="_6F42E717-9DB5-4788-AE50-881AF6122FEEfill_border" offset="100%" stop-color="#000000" stop-opacity="1" stroke="#000000"/> 		</radialGradient> 	</defs> 	 	<rect id="_6F42E717-9DB5-4788-AE50-881AF6122FEEtext_frame" oryx:anchors="bottom top right left" x="1" y="1" width="94" height="79" rx="10" ry="10" stroke="none" stroke-width="0" fill="none"/> 	<rect id="_6F42E717-9DB5-4788-AE50-881AF6122FEEbg_frame" oryx:resize="vertical horizontal" x="0" y="0" width="100" height="80" rx="10" ry="10" stroke="#000000" stroke-width="1" fill="url(#_6F42E717-9DB5-4788-AE50-881AF6122FEEbackground) #ffffcc"/> 		<text font-size="12" id="_6F42E717-9DB5-4788-AE50-881AF6122FEEtext_name" x="50" y="40" oryx:align="middle center" oryx:fittoelem="text_frame" stroke="black" text-anchor="middle" stroke-width="0pt" letter-spacing="-0.01px" fill="#000000" transform="rotate(0 50 40)" visibility="inherit" oryx:fontSize="12"><tspan x="50" y="40" dy="5" id="ext-gen605">Init</tspan></text>     <g id="_6F42E717-9DB5-4788-AE50-881AF6122FEEmanualTask" transform="scale(0.7,0.7) translate(8,8)" display="none">     	<path oryx:anchors="top left" id="_6F42E717-9DB5-4788-AE50-881AF6122FEEframe" style="opacity:1;fill:none;fill-opacity:1;stroke-width:1" d="M0.5,3.751l4.083-3.25c0,0,11.166,0.083,12.083,0.083s-2.417,2.917-1.5,2.917     s11.667,0,12.584,0c1.166,1.708-0.168,3.167-0.834,3.667s0.875,1.917-1,4.417c-0.75,0.25,0.75,1.875-1.333,3.333     c-1.167,0.583,0.583,1.542-1.25,2.833c-1.167,0-20.833,0.083-20.833,0.083l-2-1.333V3.751z" stroke="#000000"/> 		<path id="_6F42E717-9DB5-4788-AE50-881AF6122FEEframe2" oryx:anchors="top left" style="opacity:1;fill:none;stroke-width:2" d="M 13.5 7 L 27 7" stroke="#000000"/> 		<path id="_6F42E717-9DB5-4788-AE50-881AF6122FEEframe3" oryx:anchors="top left" style="opacity:1;fill:none;stroke-width:2" d="M 13.5 11 L 26 11" stroke="#000000"/> 		<path id="_6F42E717-9DB5-4788-AE50-881AF6122FEEframe4" oryx:anchors="top left" style="opacity:1;fill:none;stroke-width:1.5" d="M 14 14.5 L 25 14.5" stroke="#000000"/> 		<path id="_6F42E717-9DB5-4788-AE50-881AF6122FEEframe5" oryx:anchors="top left" style="opacity:1;fill:none;stroke-width:1.5" d="M 8.2 3.1 L 15 3.1" stroke="#000000"/> 	</g> 	 	<g id="_6F42E717-9DB5-4788-AE50-881AF6122FEEbusinessRuleTask" transform="scale(0.7,0.7) translate(8,8)" display="inherit"> 		<rect id="_6F42E717-9DB5-4788-AE50-881AF6122FEEframe6" oryx:anchors="top left" x="0" y="0" width="22" height="4" style="opacity:1;fill:#B3B1B3;fill-opacity:1;" stroke="#000000"/> 		<rect id="_6F42E717-9DB5-4788-AE50-881AF6122FEEframe7" oryx:anchors="top left" x="0" y="4" style="opacity:1;fill:none;" width="22" height="12" stroke="#000000"/> 		<path id="_6F42E717-9DB5-4788-AE50-881AF6122FEEframe8" oryx:anchors="top left" style="opacity:1;fill:none;" d="M 0 10 L 22 10" stroke="#000000"/> 		<path id="_6F42E717-9DB5-4788-AE50-881AF6122FEEframe9" oryx:anchors="top left" style="opacity:1; fill:none;" d="M 7 4 L 7 16" stroke="#000000"/> 	</g> 	 	<g id="_6F42E717-9DB5-4788-AE50-881AF6122FEEscriptTask" transform="scale(0.7,0.7) translate(8,8)" display="none"> 		<path oryx:anchors="top left" id="_6F42E717-9DB5-4788-AE50-881AF6122FEEframe10" style="opacity:1;fill:none;" stroke="#000000" d="M6.402,0.5h14.5c0,0-5.833,2.833-5.833,5.583s4.417,6,4.417,9.167    s-4.167,5.083-4.167,5.083H0.235c0,0,5-2.667,5-5s-4.583-6.75-4.583-9.25S6.402,0.5,6.402,0.5z"/> 		<path oryx:anchors="top left" id="_6F42E717-9DB5-4788-AE50-881AF6122FEEframe11" style="opacity:1;fill:none;stroke-width:1.5" d="M 3.5 4.5 L 13.5 4.5" stroke="#000000"/> 		<path oryx:anchors="top left" id="_6F42E717-9DB5-4788-AE50-881AF6122FEEframe12" style="opacity:1;fill:none;stroke-width:1.5" d="M 3.8 8.5 L 13.8 8.5" stroke="#000000"/> 		<path oryx:anchors="top left" id="_6F42E717-9DB5-4788-AE50-881AF6122FEEframe13" style="opacity:1;fill:none;stroke-width:1.5" d="M 6.3 12.5 L 16.3 12.5" stroke="#000000"/> 		<path oryx:anchors="top left" id="_6F42E717-9DB5-4788-AE50-881AF6122FEEframe14" style="opacity:1;fill:none;stroke-width:1.5" d="M 6.5 16.5 L 16.5 16.5" stroke="#000000"/> 	</g> 	 	<g id="_6F42E717-9DB5-4788-AE50-881AF6122FEEuserTask" transform="scale(0.7,0.7) translate(8,8)" display="none"> 		<path id="_6F42E717-9DB5-4788-AE50-881AF6122FEEframe15" oryx:anchors="top left" style="opacity:1;fill:#F4F6F7" stroke="#000000" d="M0.585,24.167h24.083v-7.833c0,0-2.333-3.917-7.083-5.167h-9.25    c-4.417,1.333-7.833,5.75-7.833,5.75L0.585,24.167z"/> 		<path id="_6F42E717-9DB5-4788-AE50-881AF6122FEEframe16" oryx:anchors="top left" style="opacity:1;fill:none" d="M 6 20 L 6 24" stroke="#000000"/> 		<path id="_6F42E717-9DB5-4788-AE50-881AF6122FEEframe17" oryx:anchors="top left" style="opacity:1;fill:none" d="M 20 20 L 20 24" stroke="#000000"/> 		<circle id="_6F42E717-9DB5-4788-AE50-881AF6122FEEframe18" oryx:anchors="top left" fill="black" cx="13.002" cy="5.916" r="5.417" stroke="#000000"/> 		<path id="_6F42E717-9DB5-4788-AE50-881AF6122FEEframe19" oryx:anchors="top left" style="opacity:1;fill:#F0EFF0;" stroke="#000000" d="M8.043,7.083c0,0,2.814-2.426,5.376-1.807s4.624-0.693,4.624-0.693    c0.25,1.688,0.042,3.75-1.458,5.584c0,0,1.083,0.75,1.083,1.5s0.125,1.875-1,3s-5.5,1.25-6.75,0S8.668,12.834,8.668,12    s0.583-1.25,1.25-1.917C8.835,9.5,7.419,7.708,8.043,7.083z"/> 	</g> 	 	<g id="_6F42E717-9DB5-4788-AE50-881AF6122FEEserviceTask" transform="scale(0.7,0.7) translate(8,8)" display="none"> 		<polygon oryx:anchors="top left" id="_6F42E717-9DB5-4788-AE50-881AF6122FEEframe20" style="opacity:1;fill:#ffffff" stroke="#000000" points="15.392,5.064 17.954,2.502 20.347,4.895 17.786,7.455     18.729,9.732 22.353,9.732 22.353,13.115 18.731,13.115 17.788,15.392 20.351,17.955 17.958,20.347 15.397,17.786 13.12,18.729     13.12,22.353 9.737,22.353 9.737,18.731 7.46,17.788 4.897,20.35 2.506,17.958 5.066,15.397 4.124,13.12 0.5,13.12 0.5,9.737     4.121,9.737 5.065,7.461 2.503,4.898 4.895,2.506 7.455,5.066 9.732,4.125 9.732,0.5 13.116,0.5 13.116,4.121 "/> 		<circle oryx:anchors="top left" id="_6F42E717-9DB5-4788-AE50-881AF6122FEEframe21" style="opacity:1;fill:none" stroke="#000000" cx="11.427" cy="11.426" r="3.714"/> 		<polygon oryx:anchors="top left" id="_6F42E717-9DB5-4788-AE50-881AF6122FEEframe22" style="opacity:1;fill:#ffffff" stroke="#000000" points="21.392,11.064 23.954,8.502 26.347,10.895 23.786,13.455     24.729,15.732 28.353,15.732 28.353,19.115 24.731,19.115 23.788,21.392 26.351,23.955 23.958,26.347 21.397,23.786 19.12,24.729     19.12,28.353 15.737,28.353 15.737,24.731 13.46,23.788 10.897,26.35 8.506,23.958 11.066,21.397 10.124,19.12 6.5,19.12     6.5,15.737 10.121,15.737 11.065,13.461 8.503,10.898 10.895,8.506 13.455,11.066 15.732,10.125 15.732,6.5 19.116,6.5     19.116,10.121 "/> 		<circle oryx:anchors="top left" id="_6F42E717-9DB5-4788-AE50-881AF6122FEEframe23" style="opacity:1;fill:none;" stroke="#000000" cx="17.427" cy="17.426" r="3.714"/> 	</g> 	 	<g id="_6F42E717-9DB5-4788-AE50-881AF6122FEEsendTask" display="none"> 		<path id="_6F42E717-9DB5-4788-AE50-881AF6122FEEstframe24" oryx:anchors="left top" stroke="#FFFFFF" fill="black" stroke-width="1" d="M8,11 L8,21 L24,21 L24,11 L16,17z"/> 		<path id="_6F42E717-9DB5-4788-AE50-881AF6122FEEstframe25" oryx:anchors="left top" stroke="#FFFFFF" fill="black" stroke-width="1" d="M7,10 L16,17 L25 10z"/> 	</g> 	 	<g id="_6F42E717-9DB5-4788-AE50-881AF6122FEEreceiveTask" display="none"> 		<path id="_6F42E717-9DB5-4788-AE50-881AF6122FEEframe26" oryx:anchors="left top" stroke="#000000" fill="none" stroke-width="1" d="M8,11 L8,21 L24,21 L24,11z M8,11 L16,17 L24,11"/> 	</g> 	 	<g id="_6F42E717-9DB5-4788-AE50-881AF6122FEEnone" display="inherit"/>  	<g id="_6F42E717-9DB5-4788-AE50-881AF6122FEEsequential" display="none">         <path oryx:anchors="bottom" fill="none" stroke="#000000" stroke-width="2" d="M46,76h10M46,72h10 M46,68h10" id="_6F42E717-9DB5-4788-AE50-881AF6122FEE__6F42E717-9DB5-4788-AE50-881AF6122FEE_20"/>     </g>   </g></g><g class="children" style="overflow:hidden"/><g class="edge"/></g><g class="controls"><g class="dockers"/><g class="magnets" transform="translate(450, 255)"><g pointer-events="all" display="none" transform="translate(-7, 12)"><circle cx="8" cy="8" r="4" stroke="none" fill="red" fill-opacity="0.3"/></g><g pointer-events="all" display="none" transform="translate(-7, 32)"><circle cx="8" cy="8" r="4" stroke="none" fill="red" fill-opacity="0.3"/></g><g pointer-events="all" display="none" transform="translate(-7, 52)"><circle cx="8" cy="8" r="4" stroke="none" fill="red" fill-opacity="0.3"/></g><g pointer-events="all" display="none" transform="translate(17, 71)"><circle cx="8" cy="8" r="4" stroke="none" fill="red" fill-opacity="0.3"/></g><g pointer-events="all" display="none" transform="translate(42, 71)"><circle cx="8" cy="8" r="4" stroke="none" fill="red" fill-opacity="0.3"/></g><g pointer-events="all" display="none" transform="translate(67, 71)"><circle cx="8" cy="8" r="4" stroke="none" fill="red" fill-opacity="0.3"/></g><g pointer-events="all" display="none" transform="translate(91, 12)"><circle cx="8" cy="8" r="4" stroke="none" fill="red" fill-opacity="0.3"/></g><g pointer-events="all" display="none" transform="translate(91, 32)"><circle cx="8" cy="8" r="4" stroke="none" fill="red" fill-opacity="0.3"/></g><g pointer-events="all" display="none" transform="translate(91, 52)"><circle cx="8" cy="8" r="4" stroke="none" fill="red" fill-opacity="0.3"/></g><g pointer-events="all" display="none" transform="translate(17, -7)"><circle cx="8" cy="8" r="4" stroke="none" fill="red" fill-opacity="0.3"/></g><g pointer-events="all" display="none" transform="translate(42, -7)"><circle cx="8" cy="8" r="4" stroke="none" fill="red" fill-opacity="0.3"/></g><g pointer-events="all" display="none" transform="translate(67, -7)"><circle cx="8" cy="8" r="4" stroke="none" fill="red" fill-opacity="0.3"/></g><g pointer-events="all" display="none" transform="translate(42, 32)"><circle cx="8" cy="8" r="4" stroke="none" fill="red" fill-opacity="0.3"/></g></g></g></g><g id="_5F45FF29-5290-4998-8458-D45325DDD3F1" bpmn2nodeid="_01353123-5FF0-4773-A0DC-C72764363EB6"><g class="stencils" transform="translate(600, 281)"><g class="me"><g pointer-events="fill" id="_5F45FF29-5290-4998-8458-D45325DDD3F1">      <defs id="_5F45FF29-5290-4998-8458-D45325DDD3F1__5F45FF29-5290-4998-8458-D45325DDD3F1_5"> 		<radialGradient id="_5F45FF29-5290-4998-8458-D45325DDD3F1background" cx="10%" cy="10%" r="100%" fx="10%" fy="10%"> 			<stop offset="0%" stop-color="#ffffff" stop-opacity="1" id="_5F45FF29-5290-4998-8458-D45325DDD3F1__5F45FF29-5290-4998-8458-D45325DDD3F1_6"/> 			<stop id="_5F45FF29-5290-4998-8458-D45325DDD3F1fill_el" offset="100%" stop-color="#ff6347" stop-opacity="1"/> 		</radialGradient> 	</defs> 	     <circle id="_5F45FF29-5290-4998-8458-D45325DDD3F1bg_frame" cx="14" cy="14" r="14" stroke="#000000" fill="url(#_5F45FF29-5290-4998-8458-D45325DDD3F1background) white" stroke-width="3"/> 	<text font-size="11" id="_5F45FF29-5290-4998-8458-D45325DDD3F1text_name" x="14" y="30" oryx:align="top center" stroke="black" stroke-width="0pt" letter-spacing="-0.01px" fill="#000000" text-anchor="middle" transform="rotate(0 14 30)" visibility="inherit" oryx:fontSize="11"/>   </g></g><g class="children" style="overflow:hidden"/><g class="edge"/></g><g class="controls"><g class="dockers"/><g class="magnets" transform="translate(600, 281)"><g pointer-events="all" display="none" transform="translate(6, 6)"><circle cx="8" cy="8" r="4" stroke="none" fill="red" fill-opacity="0.3"/></g></g></g></g></g><g class="edge"><g id="_1570DB90-EAD8-4A1A-BD6E-618F1543E010" bpmn2nodeid="_C81F9B39-145C-411E-8E08-49D36F30744D"><g class="stencils"><g class="me"><g pointer-events="painted" bpmn2nodeid="_05440B43-382C-4830-BE65-2E8CC9132B73"><path id="_1570DB90-EAD8-4A1A-BD6E-618F1543E010_1" d="M75.5307301143397 299.49900870598907L164.3520823856603 296.63380379401093 " stroke="#000000" fill="none" stroke-width="2" stroke-linecap="round" stroke-linejoin="round" marker-start="url(#_1570DB90-EAD8-4A1A-BD6E-618F1543E010start)" marker-end="url(#_1570DB90-EAD8-4A1A-BD6E-618F1543E010end)"/></g><text id="_1570DB90-EAD8-4A1A-BD6E-618F1543E010text_name" font-size="12" x="89.5307301143397" y="285.49900870598907" oryx:edgePosition="startTop" stroke-width="0pt" letter-spacing="-0.01px" fill="#000000" text-anchor="start" transform="rotate(358.1523897340054 75.5307301143397 299.49900870598907)" visibility="inherit" oryx:fontSize="12"/></g><g class="children" style="overflow:hidden"/><g class="edge"/></g><g class="controls"><g class="dockers"/><g class="magnets"/></g></g><g id="_5E818898-70CE-46CB-B393-566C5E220C03" bpmn2nodeid="_E7E3481B-2AA0-4A50-A94B-D6FEE9B547F5"><g class="stencils"><g class="me"><g pointer-events="painted" bpmn2nodeid="_1EFDBC5A-CD0F-4B6E-8964-C6936BF5376B"><path id="_5E818898-70CE-46CB-B393-566C5E220C03_1" d="M265.5703125 295L299.4296875 295 " stroke="#000000" fill="none" stroke-width="2" stroke-linecap="round" stroke-linejoin="round" marker-start="url(#_5E818898-70CE-46CB-B393-566C5E220C03start)" marker-end="url(#_5E818898-70CE-46CB-B393-566C5E220C03end)"/></g><text id="_5E818898-70CE-46CB-B393-566C5E220C03text_name" font-size="12" x="279.5703125" y="281" oryx:edgePosition="startTop" stroke-width="0pt" letter-spacing="-0.01px" fill="#000000" text-anchor="start" transform="rotate(360 265.5703125 295)" visibility="inherit" oryx:fontSize="12"/></g><g class="children" style="overflow:hidden"/><g class="edge"/></g><g class="controls"><g class="dockers"/><g class="magnets"/></g></g><g id="_5B2982C7-3CCD-449A-A28C-E1D4C9E2EEDB" bpmn2nodeid="_B0A5A93A-DEEC-4C0C-B42B-BE5977E189A3"><g class="stencils"><g class="me"><g pointer-events="painted" bpmn2nodeid="_BFDB3EE9-0C06-4876-A054-3BE6A59459CD"><path id="_5B2982C7-3CCD-449A-A28C-E1D4C9E2EEDB_1" d="M400.21875 295L449.78125 295 " stroke="#000000" fill="none" stroke-width="2" stroke-linecap="round" stroke-linejoin="round" marker-start="url(#_5B2982C7-3CCD-449A-A28C-E1D4C9E2EEDBstart)" marker-end="url(#_5B2982C7-3CCD-449A-A28C-E1D4C9E2EEDBend)"/></g><text id="_5B2982C7-3CCD-449A-A28C-E1D4C9E2EEDBtext_name" font-size="12" x="414.21875" y="281" oryx:edgePosition="startTop" stroke-width="0pt" letter-spacing="-0.01px" fill="#000000" text-anchor="start" transform="rotate(360 400.21875 295)" visibility="inherit" oryx:fontSize="12"/></g><g class="children" style="overflow:hidden"/><g class="edge"/></g><g class="controls"><g class="dockers"/><g class="magnets"/></g></g><g id="_8A48DE63-A1F3-4338-BC39-B26FB89FB5CB" bpmn2nodeid="_B123E373-EE55-44CE-8A74-0B6EC341DB18"><g class="stencils"><g class="me"><g pointer-events="painted" bpmn2nodeid="_4DCF53C9-C02F-4879-A217-3D95D1654741"><path id="_8A48DE63-A1F3-4338-BC39-B26FB89FB5CB_1" d="M550.875 295L599.640625 295 " stroke="#000000" fill="none" stroke-width="2" stroke-linecap="round" stroke-linejoin="round" marker-start="url(#_8A48DE63-A1F3-4338-BC39-B26FB89FB5CBstart)" marker-end="url(#_8A48DE63-A1F3-4338-BC39-B26FB89FB5CBend)"/></g><text id="_8A48DE63-A1F3-4338-BC39-B26FB89FB5CBtext_name" font-size="12" x="564.875" y="281" oryx:edgePosition="startTop" stroke-width="0pt" letter-spacing="-0.01px" fill="#000000" text-anchor="start" transform="rotate(360 550.875 295)" visibility="inherit" oryx:fontSize="12"/></g><g class="children" style="overflow:hidden"/><g class="edge"/></g><g class="controls"><g class="dockers"/><g class="magnets"/></g></g></g><text id="_DF5D2A1A-9BAC-47A2-AACD-CE65D1E0C7A9" style="stroke-width:1;fill:rgb(177,194,214);font-family:arial;font-weight:bold" font-size="12" onclick="ORYX.Plugins.CanvasTitle.openTextualAnalysis()" onmouseover="ORYX.Plugins.CanvasTitle.addToolTip('_DF5D2A1A-9BAC-47A2-AACD-CE65D1E0C7A9')" transform="translate(10, 20)">P1111 v.1.0 (src.P1111)</text></g></g></svg>