<svg xmlns="http://www.w3.org/2000/svg" xmlns:oryx="http://oryx-editor.org" id="_13A6C26C-3E7F-4661-A021-E9F18747C251" width="803.0000610351562" height="376.109375" xmlns:xlink="http://www.w3.org/1999/xlink" xmlns:svg="http://www.w3.org/2000/svg"><defs><marker id="_B609543D-73BA-49AD-9496-6942DDE204DEstart" refX="1" refY="5" markerUnits="userSpaceOnUse" markerWidth="17" markerHeight="11" orient="auto" fill="#000000" stroke="#000000"> 	  		<path id="_B609543D-73BA-49AD-9496-6942DDE204DEconditional" d="M 0 5 L 8 0 L 16 5 L 8 10 L 0 5" fill="white" stroke="#000000" stroke-width="1" display="none"/> 			<path id="_B609543D-73BA-49AD-9496-6942DDE204DEdefault" d="M 5 0 L 11 10" fill="white" stroke="#000000" stroke-width="1" display="none"/> 	  	</marker><marker id="_B609543D-73BA-49AD-9496-6942DDE204DEend" refX="15" refY="6" markerUnits="userSpaceOnUse" markerWidth="15" markerHeight="12" orient="auto" fill="#000000" stroke="#000000"> 	  		<path id="_B609543D-73BA-49AD-9496-6942DDE204DEframe2" d="M 0 1 L 15 6 L 0 11z" fill="#000000" stroke="#000000" stroke-linejoin="round" stroke-width="2"/> 	  	</marker><marker id="_C005F234-65D3-4CE1-B0B2-DE18455BF326start" refX="1" refY="5" markerUnits="userSpaceOnUse" markerWidth="17" markerHeight="11" orient="auto" fill="#000000" stroke="#000000"> 	  		<path id="_C005F234-65D3-4CE1-B0B2-DE18455BF326conditional" d="M 0 5 L 8 0 L 16 5 L 8 10 L 0 5" fill="white" stroke="#000000" stroke-width="1" display="none"/> 			<path id="_C005F234-65D3-4CE1-B0B2-DE18455BF326default" d="M 5 0 L 11 10" fill="white" stroke="#000000" stroke-width="1" display="none"/> 	  	</marker><marker id="_C005F234-65D3-4CE1-B0B2-DE18455BF326end" refX="15" refY="6" markerUnits="userSpaceOnUse" markerWidth="15" markerHeight="12" orient="auto" fill="#000000" stroke="#000000"> 	  		<path id="_C005F234-65D3-4CE1-B0B2-DE18455BF326frame2" d="M 0 1 L 15 6 L 0 11z" fill="#000000" stroke="#000000" stroke-linejoin="round" stroke-width="2"/> 	  	</marker><marker id="_28B12981-B2DB-4718-BAD5-329400EB87DCstart" refX="1" refY="5" markerUnits="userSpaceOnUse" markerWidth="17" markerHeight="11" orient="auto" fill="#000000" stroke="#000000"> 	  		<path id="_28B12981-B2DB-4718-BAD5-329400EB87DCconditional" d="M 0 5 L 8 0 L 16 5 L 8 10 L 0 5" fill="white" stroke="#000000" stroke-width="1" display="none"/> 			<path id="_28B12981-B2DB-4718-BAD5-329400EB87DCdefault" d="M 5 0 L 11 10" fill="white" stroke="#000000" stroke-width="1" display="none"/> 	  	</marker><marker id="_28B12981-B2DB-4718-BAD5-329400EB87DCend" refX="15" refY="6" markerUnits="userSpaceOnUse" markerWidth="15" markerHeight="12" orient="auto" fill="#000000" stroke="#000000"> 	  		<path id="_28B12981-B2DB-4718-BAD5-329400EB87DCframe2" d="M 0 1 L 15 6 L 0 11z" fill="#000000" stroke="#000000" stroke-linejoin="round" stroke-width="2"/> 	  	</marker><marker id="_89C3C8CA-858A-45AB-8EC6-4B548D4E4533start" refX="1" refY="5" markerUnits="userSpaceOnUse" markerWidth="17" markerHeight="11" orient="auto" fill="#000000" stroke="#000000"> 	  		<path id="_89C3C8CA-858A-45AB-8EC6-4B548D4E4533conditional" d="M 0 5 L 8 0 L 16 5 L 8 10 L 0 5" fill="white" stroke="#000000" stroke-width="1" display="none"/> 			<path id="_89C3C8CA-858A-45AB-8EC6-4B548D4E4533default" d="M 5 0 L 11 10" fill="white" stroke="#000000" stroke-width="1" display="none"/> 	  	</marker><marker id="_89C3C8CA-858A-45AB-8EC6-4B548D4E4533end" refX="15" refY="6" markerUnits="userSpaceOnUse" markerWidth="15" markerHeight="12" orient="auto" fill="#000000" stroke="#000000"> 	  		<path id="_89C3C8CA-858A-45AB-8EC6-4B548D4E4533frame2" d="M 0 1 L 15 6 L 0 11z" fill="#000000" stroke="#000000" stroke-linejoin="round" stroke-width="2"/> 	  	</marker></defs><g stroke="none" font-family="Verdana, sans-serif" font-size-adjust="none" font-style="normal" font-variant="normal" font-weight="normal" line-heigth="normal" font-size="12"><g class="stencils" transform="translate(15, 16.109375)"><g class="me"/><g class="children"><g id="_8B7D479B-FA76-4EA4-94B1-4A24A53D851F" bpmn2nodeid="processStartEvent"><g class="stencils" transform="translate(45, 285)"><g class="me"><g pointer-events="fill" id="_8B7D479B-FA76-4EA4-94B1-4A24A53D851F">        <defs id="_8B7D479B-FA76-4EA4-94B1-4A24A53D851F__8B7D479B-FA76-4EA4-94B1-4A24A53D851F_5"> 		<radialGradient id="_8B7D479B-FA76-4EA4-94B1-4A24A53D851Fbackground" cx="10%" cy="10%" r="100%" fx="10%" fy="10%"> 			<stop offset="0%" stop-color="#ffffff" stop-opacity="1" id="_8B7D479B-FA76-4EA4-94B1-4A24A53D851F__8B7D479B-FA76-4EA4-94B1-4A24A53D851F_6"/> 			<stop id="_8B7D479B-FA76-4EA4-94B1-4A24A53D851Ffill_el" offset="100%" stop-color="#9acd32" stop-opacity="1"/> 		</radialGradient> 	</defs> 	     <circle id="_8B7D479B-FA76-4EA4-94B1-4A24A53D851Fbg_frame" cx="15" cy="15" r="15" stroke="#000000" fill="url(#_8B7D479B-FA76-4EA4-94B1-4A24A53D851Fbackground) white" stroke-width="1" style="stroke-dasharray: 5.5, 3"/>      <circle id="_8B7D479B-FA76-4EA4-94B1-4A24A53D851Fframe" cx="15" cy="15" r="15" stroke="#000000" fill="none" stroke-width="1" display="inherit"/>  	<text font-size="11" id="_8B7D479B-FA76-4EA4-94B1-4A24A53D851Ftext_name" x="15" y="32" oryx:align="top center" stroke="black" stroke-width="0pt" letter-spacing="-0.01px" fill="#000000" text-anchor="middle" transform="rotate(0 15 32)" visibility="inherit" oryx:fontSize="11"/>   </g></g><g class="children" style="overflow:hidden"/><g class="edge"/></g><g class="controls"><g class="dockers"/><g class="magnets" transform="translate(45, 285)"><g pointer-events="all" display="none" transform="translate(7, 7)"><circle cx="8" cy="8" r="4" stroke="none" fill="red" fill-opacity="0.3"/></g></g></g></g><g id="_556C09E0-40C2-43A0-A150-7FFCAE73E79E" bpmn2nodeid="_2D2647F3-2BF3-4793-A6CC-15DD723CDA5B"><g class="stencils" transform="translate(120.00000000000001, 255.00000000000003)"><g class="me"><g pointer-events="fill" oryx:minimumSize="50 40" id="_556C09E0-40C2-43A0-A150-7FFCAE73E79E">   	<defs id="_556C09E0-40C2-43A0-A150-7FFCAE73E79E__556C09E0-40C2-43A0-A150-7FFCAE73E79E_17"> 		<radialGradient id="_556C09E0-40C2-43A0-A150-7FFCAE73E79Ebackground" cx="10%" cy="10%" r="100%" fx="10%" fy="10%"> 			<stop offset="0%" stop-color="#ffffff" stop-opacity="1" id="_556C09E0-40C2-43A0-A150-7FFCAE73E79E__556C09E0-40C2-43A0-A150-7FFCAE73E79E_18"/> 			<stop id="_556C09E0-40C2-43A0-A150-7FFCAE73E79Efill_el" offset="100%" stop-color="#fafad2" stop-opacity="1"/> 		</radialGradient> 		<radialGradient id="_556C09E0-40C2-43A0-A150-7FFCAE73E79Eborderbackground" cx="10%" cy="10%" r="100%" fx="10%" fy="10%"> 			<stop offset="0%" stop-color="#ffffff" stop-opacity="1" id="_556C09E0-40C2-43A0-A150-7FFCAE73E79E__556C09E0-40C2-43A0-A150-7FFCAE73E79E_19"/> 			<stop id="_556C09E0-40C2-43A0-A150-7FFCAE73E79Efill_border" offset="100%" stop-color="#000000" stop-opacity="1" stroke="#000000"/> 		</radialGradient> 	</defs> 	 	<rect id="_556C09E0-40C2-43A0-A150-7FFCAE73E79Etext_frame" oryx:anchors="bottom top right left" x="1" y="1" width="94" height="79" rx="10" ry="10" stroke="none" stroke-width="0" fill="none"/> 	<rect id="_556C09E0-40C2-43A0-A150-7FFCAE73E79Ebg_frame" oryx:resize="vertical horizontal" x="0" y="0" width="100" height="80" rx="10" ry="10" stroke="#000000" stroke-width="1" fill="url(#_556C09E0-40C2-43A0-A150-7FFCAE73E79Ebackground) #ffffcc"/> 		<text font-size="12" id="_556C09E0-40C2-43A0-A150-7FFCAE73E79Etext_name" x="50" y="40" oryx:align="middle center" oryx:fittoelem="text_frame" stroke="black" text-anchor="middle" stroke-width="0pt" letter-spacing="-0.01px" fill="#000000" transform="rotate(0 50 40)" visibility="inherit" oryx:fontSize="12"><tspan x="50" y="40" dy="5" id="ext-gen1456">Promotion</tspan></text>     <g id="_556C09E0-40C2-43A0-A150-7FFCAE73E79EmanualTask" transform="scale(0.7,0.7) translate(8,8)" display="none">     	<path oryx:anchors="top left" id="_556C09E0-40C2-43A0-A150-7FFCAE73E79Eframe" style="opacity:1;fill:none;fill-opacity:1;stroke-width:1" d="M0.5,3.751l4.083-3.25c0,0,11.166,0.083,12.083,0.083s-2.417,2.917-1.5,2.917     s11.667,0,12.584,0c1.166,1.708-0.168,3.167-0.834,3.667s0.875,1.917-1,4.417c-0.75,0.25,0.75,1.875-1.333,3.333     c-1.167,0.583,0.583,1.542-1.25,2.833c-1.167,0-20.833,0.083-20.833,0.083l-2-1.333V3.751z" stroke="#000000"/> 		<path id="_556C09E0-40C2-43A0-A150-7FFCAE73E79Eframe2" oryx:anchors="top left" style="opacity:1;fill:none;stroke-width:2" d="M 13.5 7 L 27 7" stroke="#000000"/> 		<path id="_556C09E0-40C2-43A0-A150-7FFCAE73E79Eframe3" oryx:anchors="top left" style="opacity:1;fill:none;stroke-width:2" d="M 13.5 11 L 26 11" stroke="#000000"/> 		<path id="_556C09E0-40C2-43A0-A150-7FFCAE73E79Eframe4" oryx:anchors="top left" style="opacity:1;fill:none;stroke-width:1.5" d="M 14 14.5 L 25 14.5" stroke="#000000"/> 		<path id="_556C09E0-40C2-43A0-A150-7FFCAE73E79Eframe5" oryx:anchors="top left" style="opacity:1;fill:none;stroke-width:1.5" d="M 8.2 3.1 L 15 3.1" stroke="#000000"/> 	</g> 	 	<g id="_556C09E0-40C2-43A0-A150-7FFCAE73E79EbusinessRuleTask" transform="scale(0.7,0.7) translate(8,8)" display="inherit"> 		<rect id="_556C09E0-40C2-43A0-A150-7FFCAE73E79Eframe6" oryx:anchors="top left" x="0" y="0" width="22" height="4" style="opacity:1;fill:#B3B1B3;fill-opacity:1;" stroke="#000000"/> 		<rect id="_556C09E0-40C2-43A0-A150-7FFCAE73E79Eframe7" oryx:anchors="top left" x="0" y="4" style="opacity:1;fill:none;" width="22" height="12" stroke="#000000"/> 		<path id="_556C09E0-40C2-43A0-A150-7FFCAE73E79Eframe8" oryx:anchors="top left" style="opacity:1;fill:none;" d="M 0 10 L 22 10" stroke="#000000"/> 		<path id="_556C09E0-40C2-43A0-A150-7FFCAE73E79Eframe9" oryx:anchors="top left" style="opacity:1; fill:none;" d="M 7 4 L 7 16" stroke="#000000"/> 	</g> 	 	<g id="_556C09E0-40C2-43A0-A150-7FFCAE73E79EscriptTask" transform="scale(0.7,0.7) translate(8,8)" display="none"> 		<path oryx:anchors="top left" id="_556C09E0-40C2-43A0-A150-7FFCAE73E79Eframe10" style="opacity:1;fill:none;" stroke="#000000" d="M6.402,0.5h14.5c0,0-5.833,2.833-5.833,5.583s4.417,6,4.417,9.167    s-4.167,5.083-4.167,5.083H0.235c0,0,5-2.667,5-5s-4.583-6.75-4.583-9.25S6.402,0.5,6.402,0.5z"/> 		<path oryx:anchors="top left" id="_556C09E0-40C2-43A0-A150-7FFCAE73E79Eframe11" style="opacity:1;fill:none;stroke-width:1.5" d="M 3.5 4.5 L 13.5 4.5" stroke="#000000"/> 		<path oryx:anchors="top left" id="_556C09E0-40C2-43A0-A150-7FFCAE73E79Eframe12" style="opacity:1;fill:none;stroke-width:1.5" d="M 3.8 8.5 L 13.8 8.5" stroke="#000000"/> 		<path oryx:anchors="top left" id="_556C09E0-40C2-43A0-A150-7FFCAE73E79Eframe13" style="opacity:1;fill:none;stroke-width:1.5" d="M 6.3 12.5 L 16.3 12.5" stroke="#000000"/> 		<path oryx:anchors="top left" id="_556C09E0-40C2-43A0-A150-7FFCAE73E79Eframe14" style="opacity:1;fill:none;stroke-width:1.5" d="M 6.5 16.5 L 16.5 16.5" stroke="#000000"/> 	</g> 	 	<g id="_556C09E0-40C2-43A0-A150-7FFCAE73E79EuserTask" transform="scale(0.7,0.7) translate(8,8)" display="none"> 		<path id="_556C09E0-40C2-43A0-A150-7FFCAE73E79Eframe15" oryx:anchors="top left" style="opacity:1;fill:#F4F6F7" stroke="#000000" d="M0.585,24.167h24.083v-7.833c0,0-2.333-3.917-7.083-5.167h-9.25    c-4.417,1.333-7.833,5.75-7.833,5.75L0.585,24.167z"/> 		<path id="_556C09E0-40C2-43A0-A150-7FFCAE73E79Eframe16" oryx:anchors="top left" style="opacity:1;fill:none" d="M 6 20 L 6 24" stroke="#000000"/> 		<path id="_556C09E0-40C2-43A0-A150-7FFCAE73E79Eframe17" oryx:anchors="top left" style="opacity:1;fill:none" d="M 20 20 L 20 24" stroke="#000000"/> 		<circle id="_556C09E0-40C2-43A0-A150-7FFCAE73E79Eframe18" oryx:anchors="top left" fill="black" cx="13.002" cy="5.916" r="5.417" stroke="#000000"/> 		<path id="_556C09E0-40C2-43A0-A150-7FFCAE73E79Eframe19" oryx:anchors="top left" style="opacity:1;fill:#F0EFF0;" stroke="#000000" d="M8.043,7.083c0,0,2.814-2.426,5.376-1.807s4.624-0.693,4.624-0.693    c0.25,1.688,0.042,3.75-1.458,5.584c0,0,1.083,0.75,1.083,1.5s0.125,1.875-1,3s-5.5,1.25-6.75,0S8.668,12.834,8.668,12    s0.583-1.25,1.25-1.917C8.835,9.5,7.419,7.708,8.043,7.083z"/> 	</g> 	 	<g id="_556C09E0-40C2-43A0-A150-7FFCAE73E79EserviceTask" transform="scale(0.7,0.7) translate(8,8)" display="none"> 		<polygon oryx:anchors="top left" id="_556C09E0-40C2-43A0-A150-7FFCAE73E79Eframe20" style="opacity:1;fill:#ffffff" stroke="#000000" points="15.392,5.064 17.954,2.502 20.347,4.895 17.786,7.455     18.729,9.732 22.353,9.732 22.353,13.115 18.731,13.115 17.788,15.392 20.351,17.955 17.958,20.347 15.397,17.786 13.12,18.729     13.12,22.353 9.737,22.353 9.737,18.731 7.46,17.788 4.897,20.35 2.506,17.958 5.066,15.397 4.124,13.12 0.5,13.12 0.5,9.737     4.121,9.737 5.065,7.461 2.503,4.898 4.895,2.506 7.455,5.066 9.732,4.125 9.732,0.5 13.116,0.5 13.116,4.121 "/> 		<circle oryx:anchors="top left" id="_556C09E0-40C2-43A0-A150-7FFCAE73E79Eframe21" style="opacity:1;fill:none" stroke="#000000" cx="11.427" cy="11.426" r="3.714"/> 		<polygon oryx:anchors="top left" id="_556C09E0-40C2-43A0-A150-7FFCAE73E79Eframe22" style="opacity:1;fill:#ffffff" stroke="#000000" points="21.392,11.064 23.954,8.502 26.347,10.895 23.786,13.455     24.729,15.732 28.353,15.732 28.353,19.115 24.731,19.115 23.788,21.392 26.351,23.955 23.958,26.347 21.397,23.786 19.12,24.729     19.12,28.353 15.737,28.353 15.737,24.731 13.46,23.788 10.897,26.35 8.506,23.958 11.066,21.397 10.124,19.12 6.5,19.12     6.5,15.737 10.121,15.737 11.065,13.461 8.503,10.898 10.895,8.506 13.455,11.066 15.732,10.125 15.732,6.5 19.116,6.5     19.116,10.121 "/> 		<circle oryx:anchors="top left" id="_556C09E0-40C2-43A0-A150-7FFCAE73E79Eframe23" style="opacity:1;fill:none;" stroke="#000000" cx="17.427" cy="17.426" r="3.714"/> 	</g> 	 	<g id="_556C09E0-40C2-43A0-A150-7FFCAE73E79EsendTask" display="none"> 		<path id="_556C09E0-40C2-43A0-A150-7FFCAE73E79Estframe24" oryx:anchors="left top" stroke="#FFFFFF" fill="black" stroke-width="1" d="M8,11 L8,21 L24,21 L24,11 L16,17z"/> 		<path id="_556C09E0-40C2-43A0-A150-7FFCAE73E79Estframe25" oryx:anchors="left top" stroke="#FFFFFF" fill="black" stroke-width="1" d="M7,10 L16,17 L25 10z"/> 	</g> 	 	<g id="_556C09E0-40C2-43A0-A150-7FFCAE73E79EreceiveTask" display="none"> 		<path id="_556C09E0-40C2-43A0-A150-7FFCAE73E79Eframe26" oryx:anchors="left top" stroke="#000000" fill="none" stroke-width="1" d="M8,11 L8,21 L24,21 L24,11z M8,11 L16,17 L24,11"/> 	</g> 	 	<g id="_556C09E0-40C2-43A0-A150-7FFCAE73E79Enone" display="inherit"/>  	<g id="_556C09E0-40C2-43A0-A150-7FFCAE73E79Esequential" display="none">         <path oryx:anchors="bottom" fill="none" stroke="#000000" stroke-width="2" d="M46,76h10M46,72h10 M46,68h10" id="_556C09E0-40C2-43A0-A150-7FFCAE73E79E__556C09E0-40C2-43A0-A150-7FFCAE73E79E_20"/>     </g>   </g></g><g class="children" style="overflow:hidden"/><g class="edge"/></g><g class="controls"><g class="dockers"/><g class="magnets" transform="translate(120.00000000000001, 255.00000000000003)"><g pointer-events="all" display="none" transform="translate(-7, 12)"><circle cx="8" cy="8" r="4" stroke="none" fill="red" fill-opacity="0.3"/></g><g pointer-events="all" display="none" transform="translate(-7, 32)"><circle cx="8" cy="8" r="4" stroke="none" fill="red" fill-opacity="0.3"/></g><g pointer-events="all" display="none" transform="translate(-7, 52)"><circle cx="8" cy="8" r="4" stroke="none" fill="red" fill-opacity="0.3"/></g><g pointer-events="all" display="none" transform="translate(17, 71)"><circle cx="8" cy="8" r="4" stroke="none" fill="red" fill-opacity="0.3"/></g><g pointer-events="all" display="none" transform="translate(42, 71)"><circle cx="8" cy="8" r="4" stroke="none" fill="red" fill-opacity="0.3"/></g><g pointer-events="all" display="none" transform="translate(67, 71)"><circle cx="8" cy="8" r="4" stroke="none" fill="red" fill-opacity="0.3"/></g><g pointer-events="all" display="none" transform="translate(91, 12)"><circle cx="8" cy="8" r="4" stroke="none" fill="red" fill-opacity="0.3"/></g><g pointer-events="all" display="none" transform="translate(91, 32)"><circle cx="8" cy="8" r="4" stroke="none" fill="red" fill-opacity="0.3"/></g><g pointer-events="all" display="none" transform="translate(91, 52)"><circle cx="8" cy="8" r="4" stroke="none" fill="red" fill-opacity="0.3"/></g><g pointer-events="all" display="none" transform="translate(17, -7)"><circle cx="8" cy="8" r="4" stroke="none" fill="red" fill-opacity="0.3"/></g><g pointer-events="all" display="none" transform="translate(42, -7)"><circle cx="8" cy="8" r="4" stroke="none" fill="red" fill-opacity="0.3"/></g><g pointer-events="all" display="none" transform="translate(67, -7)"><circle cx="8" cy="8" r="4" stroke="none" fill="red" fill-opacity="0.3"/></g><g pointer-events="all" display="none" transform="translate(42, 32)"><circle cx="8" cy="8" r="4" stroke="none" fill="red" fill-opacity="0.3"/></g></g></g></g><g id="_7FF44ACF-AAC5-4855-BFE7-0A3E302C84FC" bpmn2nodeid="_DE5332FE-AEA6-4296-B118-D1346F657BE1"><g class="stencils" transform="translate(300.00000000000017, 255.00000000000003)"><g class="me"><g pointer-events="fill" oryx:minimumSize="50 40" id="_7FF44ACF-AAC5-4855-BFE7-0A3E302C84FC">   	<defs id="_7FF44ACF-AAC5-4855-BFE7-0A3E302C84FC__7FF44ACF-AAC5-4855-BFE7-0A3E302C84FC_17"> 		<radialGradient id="_7FF44ACF-AAC5-4855-BFE7-0A3E302C84FCbackground" cx="10%" cy="10%" r="100%" fx="10%" fy="10%"> 			<stop offset="0%" stop-color="#ffffff" stop-opacity="1" id="_7FF44ACF-AAC5-4855-BFE7-0A3E302C84FC__7FF44ACF-AAC5-4855-BFE7-0A3E302C84FC_18"/> 			<stop id="_7FF44ACF-AAC5-4855-BFE7-0A3E302C84FCfill_el" offset="100%" stop-color="#fafad2" stop-opacity="1"/> 		</radialGradient> 		<radialGradient id="_7FF44ACF-AAC5-4855-BFE7-0A3E302C84FCborderbackground" cx="10%" cy="10%" r="100%" fx="10%" fy="10%"> 			<stop offset="0%" stop-color="#ffffff" stop-opacity="1" id="_7FF44ACF-AAC5-4855-BFE7-0A3E302C84FC__7FF44ACF-AAC5-4855-BFE7-0A3E302C84FC_19"/> 			<stop id="_7FF44ACF-AAC5-4855-BFE7-0A3E302C84FCfill_border" offset="100%" stop-color="#000000" stop-opacity="1" stroke="#000000"/> 		</radialGradient> 	</defs> 	 	<rect id="_7FF44ACF-AAC5-4855-BFE7-0A3E302C84FCtext_frame" oryx:anchors="bottom top right left" x="1" y="1" width="94" height="79" rx="10" ry="10" stroke="none" stroke-width="0" fill="none"/> 	<rect id="_7FF44ACF-AAC5-4855-BFE7-0A3E302C84FCbg_frame" oryx:resize="vertical horizontal" x="0" y="0" width="100" height="80" rx="10" ry="10" stroke="#000000" stroke-width="1" fill="url(#_7FF44ACF-AAC5-4855-BFE7-0A3E302C84FCbackground) #ffffcc"/> 		<text font-size="12" id="_7FF44ACF-AAC5-4855-BFE7-0A3E302C84FCtext_name" x="50" y="40" oryx:align="middle center" oryx:fittoelem="text_frame" stroke="black" text-anchor="middle" stroke-width="0pt" letter-spacing="-0.01px" fill="#000000" transform="rotate(0 50 40)" visibility="inherit" oryx:fontSize="12"><tspan x="50" y="40" dy="5">Standard</tspan></text>     <g id="_7FF44ACF-AAC5-4855-BFE7-0A3E302C84FCmanualTask" transform="scale(0.7,0.7) translate(8,8)" display="none">     	<path oryx:anchors="top left" id="_7FF44ACF-AAC5-4855-BFE7-0A3E302C84FCframe" style="opacity:1;fill:none;fill-opacity:1;stroke-width:1" d="M0.5,3.751l4.083-3.25c0,0,11.166,0.083,12.083,0.083s-2.417,2.917-1.5,2.917     s11.667,0,12.584,0c1.166,1.708-0.168,3.167-0.834,3.667s0.875,1.917-1,4.417c-0.75,0.25,0.75,1.875-1.333,3.333     c-1.167,0.583,0.583,1.542-1.25,2.833c-1.167,0-20.833,0.083-20.833,0.083l-2-1.333V3.751z" stroke="#000000"/> 		<path id="_7FF44ACF-AAC5-4855-BFE7-0A3E302C84FCframe2" oryx:anchors="top left" style="opacity:1;fill:none;stroke-width:2" d="M 13.5 7 L 27 7" stroke="#000000"/> 		<path id="_7FF44ACF-AAC5-4855-BFE7-0A3E302C84FCframe3" oryx:anchors="top left" style="opacity:1;fill:none;stroke-width:2" d="M 13.5 11 L 26 11" stroke="#000000"/> 		<path id="_7FF44ACF-AAC5-4855-BFE7-0A3E302C84FCframe4" oryx:anchors="top left" style="opacity:1;fill:none;stroke-width:1.5" d="M 14 14.5 L 25 14.5" stroke="#000000"/> 		<path id="_7FF44ACF-AAC5-4855-BFE7-0A3E302C84FCframe5" oryx:anchors="top left" style="opacity:1;fill:none;stroke-width:1.5" d="M 8.2 3.1 L 15 3.1" stroke="#000000"/> 	</g> 	 	<g id="_7FF44ACF-AAC5-4855-BFE7-0A3E302C84FCbusinessRuleTask" transform="scale(0.7,0.7) translate(8,8)" display="inherit"> 		<rect id="_7FF44ACF-AAC5-4855-BFE7-0A3E302C84FCframe6" oryx:anchors="top left" x="0" y="0" width="22" height="4" style="opacity:1;fill:#B3B1B3;fill-opacity:1;" stroke="#000000"/> 		<rect id="_7FF44ACF-AAC5-4855-BFE7-0A3E302C84FCframe7" oryx:anchors="top left" x="0" y="4" style="opacity:1;fill:none;" width="22" height="12" stroke="#000000"/> 		<path id="_7FF44ACF-AAC5-4855-BFE7-0A3E302C84FCframe8" oryx:anchors="top left" style="opacity:1;fill:none;" d="M 0 10 L 22 10" stroke="#000000"/> 		<path id="_7FF44ACF-AAC5-4855-BFE7-0A3E302C84FCframe9" oryx:anchors="top left" style="opacity:1; fill:none;" d="M 7 4 L 7 16" stroke="#000000"/> 	</g> 	 	<g id="_7FF44ACF-AAC5-4855-BFE7-0A3E302C84FCscriptTask" transform="scale(0.7,0.7) translate(8,8)" display="none"> 		<path oryx:anchors="top left" id="_7FF44ACF-AAC5-4855-BFE7-0A3E302C84FCframe10" style="opacity:1;fill:none;" stroke="#000000" d="M6.402,0.5h14.5c0,0-5.833,2.833-5.833,5.583s4.417,6,4.417,9.167    s-4.167,5.083-4.167,5.083H0.235c0,0,5-2.667,5-5s-4.583-6.75-4.583-9.25S6.402,0.5,6.402,0.5z"/> 		<path oryx:anchors="top left" id="_7FF44ACF-AAC5-4855-BFE7-0A3E302C84FCframe11" style="opacity:1;fill:none;stroke-width:1.5" d="M 3.5 4.5 L 13.5 4.5" stroke="#000000"/> 		<path oryx:anchors="top left" id="_7FF44ACF-AAC5-4855-BFE7-0A3E302C84FCframe12" style="opacity:1;fill:none;stroke-width:1.5" d="M 3.8 8.5 L 13.8 8.5" stroke="#000000"/> 		<path oryx:anchors="top left" id="_7FF44ACF-AAC5-4855-BFE7-0A3E302C84FCframe13" style="opacity:1;fill:none;stroke-width:1.5" d="M 6.3 12.5 L 16.3 12.5" stroke="#000000"/> 		<path oryx:anchors="top left" id="_7FF44ACF-AAC5-4855-BFE7-0A3E302C84FCframe14" style="opacity:1;fill:none;stroke-width:1.5" d="M 6.5 16.5 L 16.5 16.5" stroke="#000000"/> 	</g> 	 	<g id="_7FF44ACF-AAC5-4855-BFE7-0A3E302C84FCuserTask" transform="scale(0.7,0.7) translate(8,8)" display="none"> 		<path id="_7FF44ACF-AAC5-4855-BFE7-0A3E302C84FCframe15" oryx:anchors="top left" style="opacity:1;fill:#F4F6F7" stroke="#000000" d="M0.585,24.167h24.083v-7.833c0,0-2.333-3.917-7.083-5.167h-9.25    c-4.417,1.333-7.833,5.75-7.833,5.75L0.585,24.167z"/> 		<path id="_7FF44ACF-AAC5-4855-BFE7-0A3E302C84FCframe16" oryx:anchors="top left" style="opacity:1;fill:none" d="M 6 20 L 6 24" stroke="#000000"/> 		<path id="_7FF44ACF-AAC5-4855-BFE7-0A3E302C84FCframe17" oryx:anchors="top left" style="opacity:1;fill:none" d="M 20 20 L 20 24" stroke="#000000"/> 		<circle id="_7FF44ACF-AAC5-4855-BFE7-0A3E302C84FCframe18" oryx:anchors="top left" fill="black" cx="13.002" cy="5.916" r="5.417" stroke="#000000"/> 		<path id="_7FF44ACF-AAC5-4855-BFE7-0A3E302C84FCframe19" oryx:anchors="top left" style="opacity:1;fill:#F0EFF0;" stroke="#000000" d="M8.043,7.083c0,0,2.814-2.426,5.376-1.807s4.624-0.693,4.624-0.693    c0.25,1.688,0.042,3.75-1.458,5.584c0,0,1.083,0.75,1.083,1.5s0.125,1.875-1,3s-5.5,1.25-6.75,0S8.668,12.834,8.668,12    s0.583-1.25,1.25-1.917C8.835,9.5,7.419,7.708,8.043,7.083z"/> 	</g> 	 	<g id="_7FF44ACF-AAC5-4855-BFE7-0A3E302C84FCserviceTask" transform="scale(0.7,0.7) translate(8,8)" display="none"> 		<polygon oryx:anchors="top left" id="_7FF44ACF-AAC5-4855-BFE7-0A3E302C84FCframe20" style="opacity:1;fill:#ffffff" stroke="#000000" points="15.392,5.064 17.954,2.502 20.347,4.895 17.786,7.455     18.729,9.732 22.353,9.732 22.353,13.115 18.731,13.115 17.788,15.392 20.351,17.955 17.958,20.347 15.397,17.786 13.12,18.729     13.12,22.353 9.737,22.353 9.737,18.731 7.46,17.788 4.897,20.35 2.506,17.958 5.066,15.397 4.124,13.12 0.5,13.12 0.5,9.737     4.121,9.737 5.065,7.461 2.503,4.898 4.895,2.506 7.455,5.066 9.732,4.125 9.732,0.5 13.116,0.5 13.116,4.121 "/> 		<circle oryx:anchors="top left" id="_7FF44ACF-AAC5-4855-BFE7-0A3E302C84FCframe21" style="opacity:1;fill:none" stroke="#000000" cx="11.427" cy="11.426" r="3.714"/> 		<polygon oryx:anchors="top left" id="_7FF44ACF-AAC5-4855-BFE7-0A3E302C84FCframe22" style="opacity:1;fill:#ffffff" stroke="#000000" points="21.392,11.064 23.954,8.502 26.347,10.895 23.786,13.455     24.729,15.732 28.353,15.732 28.353,19.115 24.731,19.115 23.788,21.392 26.351,23.955 23.958,26.347 21.397,23.786 19.12,24.729     19.12,28.353 15.737,28.353 15.737,24.731 13.46,23.788 10.897,26.35 8.506,23.958 11.066,21.397 10.124,19.12 6.5,19.12     6.5,15.737 10.121,15.737 11.065,13.461 8.503,10.898 10.895,8.506 13.455,11.066 15.732,10.125 15.732,6.5 19.116,6.5     19.116,10.121 "/> 		<circle oryx:anchors="top left" id="_7FF44ACF-AAC5-4855-BFE7-0A3E302C84FCframe23" style="opacity:1;fill:none;" stroke="#000000" cx="17.427" cy="17.426" r="3.714"/> 	</g> 	 	<g id="_7FF44ACF-AAC5-4855-BFE7-0A3E302C84FCsendTask" display="none"> 		<path id="_7FF44ACF-AAC5-4855-BFE7-0A3E302C84FCstframe24" oryx:anchors="left top" stroke="#FFFFFF" fill="black" stroke-width="1" d="M8,11 L8,21 L24,21 L24,11 L16,17z"/> 		<path id="_7FF44ACF-AAC5-4855-BFE7-0A3E302C84FCstframe25" oryx:anchors="left top" stroke="#FFFFFF" fill="black" stroke-width="1" d="M7,10 L16,17 L25 10z"/> 	</g> 	 	<g id="_7FF44ACF-AAC5-4855-BFE7-0A3E302C84FCreceiveTask" display="none"> 		<path id="_7FF44ACF-AAC5-4855-BFE7-0A3E302C84FCframe26" oryx:anchors="left top" stroke="#000000" fill="none" stroke-width="1" d="M8,11 L8,21 L24,21 L24,11z M8,11 L16,17 L24,11"/> 	</g> 	 	<g id="_7FF44ACF-AAC5-4855-BFE7-0A3E302C84FCnone" display="inherit"/>  	<g id="_7FF44ACF-AAC5-4855-BFE7-0A3E302C84FCsequential" display="none">         <path oryx:anchors="bottom" fill="none" stroke="#000000" stroke-width="2" d="M46,76h10M46,72h10 M46,68h10" id="_7FF44ACF-AAC5-4855-BFE7-0A3E302C84FC__7FF44ACF-AAC5-4855-BFE7-0A3E302C84FC_20"/>     </g>   </g></g><g class="children" style="overflow:hidden"/><g class="edge"/></g><g class="controls"><g class="dockers"/><g class="magnets" transform="translate(300.00000000000017, 255.00000000000003)"><g pointer-events="all" display="none" transform="translate(-7, 12)"><circle cx="8" cy="8" r="4" stroke="none" fill="red" fill-opacity="0.3"/></g><g pointer-events="all" display="none" transform="translate(-7, 32)"><circle cx="8" cy="8" r="4" stroke="none" fill="red" fill-opacity="0.3"/></g><g pointer-events="all" display="none" transform="translate(-7, 52)"><circle cx="8" cy="8" r="4" stroke="none" fill="red" fill-opacity="0.3"/></g><g pointer-events="all" display="none" transform="translate(17, 71)"><circle cx="8" cy="8" r="4" stroke="none" fill="red" fill-opacity="0.3"/></g><g pointer-events="all" display="none" transform="translate(42, 71)"><circle cx="8" cy="8" r="4" stroke="none" fill="red" fill-opacity="0.3"/></g><g pointer-events="all" display="none" transform="translate(67, 71)"><circle cx="8" cy="8" r="4" stroke="none" fill="red" fill-opacity="0.3"/></g><g pointer-events="all" display="none" transform="translate(91, 12)"><circle cx="8" cy="8" r="4" stroke="none" fill="red" fill-opacity="0.3"/></g><g pointer-events="all" display="none" transform="translate(91, 32)"><circle cx="8" cy="8" r="4" stroke="none" fill="red" fill-opacity="0.3"/></g><g pointer-events="all" display="none" transform="translate(91, 52)"><circle cx="8" cy="8" r="4" stroke="none" fill="red" fill-opacity="0.3"/></g><g pointer-events="all" display="none" transform="translate(17, -7)"><circle cx="8" cy="8" r="4" stroke="none" fill="red" fill-opacity="0.3"/></g><g pointer-events="all" display="none" transform="translate(42, -7)"><circle cx="8" cy="8" r="4" stroke="none" fill="red" fill-opacity="0.3"/></g><g pointer-events="all" display="none" transform="translate(67, -7)"><circle cx="8" cy="8" r="4" stroke="none" fill="red" fill-opacity="0.3"/></g><g pointer-events="all" display="none" transform="translate(42, 32)"><circle cx="8" cy="8" r="4" stroke="none" fill="red" fill-opacity="0.3"/></g></g></g></g><g id="_3E6B5BA7-CF93-4772-B806-5F3D441456F9" bpmn2nodeid="_C21429E9-02AE-4535-A00E-763C4C7C0617"><g class="stencils" transform="translate(510, 255)"><g class="me"><g pointer-events="fill" oryx:minimumSize="50 40" id="_3E6B5BA7-CF93-4772-B806-5F3D441456F9">   	<defs id="_3E6B5BA7-CF93-4772-B806-5F3D441456F9__3E6B5BA7-CF93-4772-B806-5F3D441456F9_17"> 		<radialGradient id="_3E6B5BA7-CF93-4772-B806-5F3D441456F9background" cx="10%" cy="10%" r="100%" fx="10%" fy="10%"> 			<stop offset="0%" stop-color="#ffffff" stop-opacity="1" id="_3E6B5BA7-CF93-4772-B806-5F3D441456F9__3E6B5BA7-CF93-4772-B806-5F3D441456F9_18"/> 			<stop id="_3E6B5BA7-CF93-4772-B806-5F3D441456F9fill_el" offset="100%" stop-color="#fafad2" stop-opacity="1"/> 		</radialGradient> 		<radialGradient id="_3E6B5BA7-CF93-4772-B806-5F3D441456F9borderbackground" cx="10%" cy="10%" r="100%" fx="10%" fy="10%"> 			<stop offset="0%" stop-color="#ffffff" stop-opacity="1" id="_3E6B5BA7-CF93-4772-B806-5F3D441456F9__3E6B5BA7-CF93-4772-B806-5F3D441456F9_19"/> 			<stop id="_3E6B5BA7-CF93-4772-B806-5F3D441456F9fill_border" offset="100%" stop-color="#000000" stop-opacity="1" stroke="#000000"/> 		</radialGradient> 	</defs> 	 	<rect id="_3E6B5BA7-CF93-4772-B806-5F3D441456F9text_frame" oryx:anchors="bottom top right left" x="1" y="1" width="94" height="79" rx="10" ry="10" stroke="none" stroke-width="0" fill="none"/> 	<rect id="_3E6B5BA7-CF93-4772-B806-5F3D441456F9bg_frame" oryx:resize="vertical horizontal" x="0" y="0" width="100" height="80" rx="10" ry="10" stroke="#000000" stroke-width="1" fill="url(#_3E6B5BA7-CF93-4772-B806-5F3D441456F9background) #ffffcc"/> 		<text font-size="12" id="_3E6B5BA7-CF93-4772-B806-5F3D441456F9text_name" x="50" y="40" oryx:align="middle center" oryx:fittoelem="text_frame" stroke="black" text-anchor="middle" stroke-width="0pt" letter-spacing="-0.01px" fill="#000000" transform="rotate(0 50 40)" visibility="inherit" oryx:fontSize="12"><tspan x="50" y="40" dy="5" id="ext-gen1656">Init</tspan></text>     <g id="_3E6B5BA7-CF93-4772-B806-5F3D441456F9manualTask" transform="scale(0.7,0.7) translate(8,8)" display="none">     	<path oryx:anchors="top left" id="_3E6B5BA7-CF93-4772-B806-5F3D441456F9frame" style="opacity:1;fill:none;fill-opacity:1;stroke-width:1" d="M0.5,3.751l4.083-3.25c0,0,11.166,0.083,12.083,0.083s-2.417,2.917-1.5,2.917     s11.667,0,12.584,0c1.166,1.708-0.168,3.167-0.834,3.667s0.875,1.917-1,4.417c-0.75,0.25,0.75,1.875-1.333,3.333     c-1.167,0.583,0.583,1.542-1.25,2.833c-1.167,0-20.833,0.083-20.833,0.083l-2-1.333V3.751z" stroke="#000000"/> 		<path id="_3E6B5BA7-CF93-4772-B806-5F3D441456F9frame2" oryx:anchors="top left" style="opacity:1;fill:none;stroke-width:2" d="M 13.5 7 L 27 7" stroke="#000000"/> 		<path id="_3E6B5BA7-CF93-4772-B806-5F3D441456F9frame3" oryx:anchors="top left" style="opacity:1;fill:none;stroke-width:2" d="M 13.5 11 L 26 11" stroke="#000000"/> 		<path id="_3E6B5BA7-CF93-4772-B806-5F3D441456F9frame4" oryx:anchors="top left" style="opacity:1;fill:none;stroke-width:1.5" d="M 14 14.5 L 25 14.5" stroke="#000000"/> 		<path id="_3E6B5BA7-CF93-4772-B806-5F3D441456F9frame5" oryx:anchors="top left" style="opacity:1;fill:none;stroke-width:1.5" d="M 8.2 3.1 L 15 3.1" stroke="#000000"/> 	</g> 	 	<g id="_3E6B5BA7-CF93-4772-B806-5F3D441456F9businessRuleTask" transform="scale(0.7,0.7) translate(8,8)" display="inherit"> 		<rect id="_3E6B5BA7-CF93-4772-B806-5F3D441456F9frame6" oryx:anchors="top left" x="0" y="0" width="22" height="4" style="opacity:1;fill:#B3B1B3;fill-opacity:1;" stroke="#000000"/> 		<rect id="_3E6B5BA7-CF93-4772-B806-5F3D441456F9frame7" oryx:anchors="top left" x="0" y="4" style="opacity:1;fill:none;" width="22" height="12" stroke="#000000"/> 		<path id="_3E6B5BA7-CF93-4772-B806-5F3D441456F9frame8" oryx:anchors="top left" style="opacity:1;fill:none;" d="M 0 10 L 22 10" stroke="#000000"/> 		<path id="_3E6B5BA7-CF93-4772-B806-5F3D441456F9frame9" oryx:anchors="top left" style="opacity:1; fill:none;" d="M 7 4 L 7 16" stroke="#000000"/> 	</g> 	 	<g id="_3E6B5BA7-CF93-4772-B806-5F3D441456F9scriptTask" transform="scale(0.7,0.7) translate(8,8)" display="none"> 		<path oryx:anchors="top left" id="_3E6B5BA7-CF93-4772-B806-5F3D441456F9frame10" style="opacity:1;fill:none;" stroke="#000000" d="M6.402,0.5h14.5c0,0-5.833,2.833-5.833,5.583s4.417,6,4.417,9.167    s-4.167,5.083-4.167,5.083H0.235c0,0,5-2.667,5-5s-4.583-6.75-4.583-9.25S6.402,0.5,6.402,0.5z"/> 		<path oryx:anchors="top left" id="_3E6B5BA7-CF93-4772-B806-5F3D441456F9frame11" style="opacity:1;fill:none;stroke-width:1.5" d="M 3.5 4.5 L 13.5 4.5" stroke="#000000"/> 		<path oryx:anchors="top left" id="_3E6B5BA7-CF93-4772-B806-5F3D441456F9frame12" style="opacity:1;fill:none;stroke-width:1.5" d="M 3.8 8.5 L 13.8 8.5" stroke="#000000"/> 		<path oryx:anchors="top left" id="_3E6B5BA7-CF93-4772-B806-5F3D441456F9frame13" style="opacity:1;fill:none;stroke-width:1.5" d="M 6.3 12.5 L 16.3 12.5" stroke="#000000"/> 		<path oryx:anchors="top left" id="_3E6B5BA7-CF93-4772-B806-5F3D441456F9frame14" style="opacity:1;fill:none;stroke-width:1.5" d="M 6.5 16.5 L 16.5 16.5" stroke="#000000"/> 	</g> 	 	<g id="_3E6B5BA7-CF93-4772-B806-5F3D441456F9userTask" transform="scale(0.7,0.7) translate(8,8)" display="none"> 		<path id="_3E6B5BA7-CF93-4772-B806-5F3D441456F9frame15" oryx:anchors="top left" style="opacity:1;fill:#F4F6F7" stroke="#000000" d="M0.585,24.167h24.083v-7.833c0,0-2.333-3.917-7.083-5.167h-9.25    c-4.417,1.333-7.833,5.75-7.833,5.75L0.585,24.167z"/> 		<path id="_3E6B5BA7-CF93-4772-B806-5F3D441456F9frame16" oryx:anchors="top left" style="opacity:1;fill:none" d="M 6 20 L 6 24" stroke="#000000"/> 		<path id="_3E6B5BA7-CF93-4772-B806-5F3D441456F9frame17" oryx:anchors="top left" style="opacity:1;fill:none" d="M 20 20 L 20 24" stroke="#000000"/> 		<circle id="_3E6B5BA7-CF93-4772-B806-5F3D441456F9frame18" oryx:anchors="top left" fill="black" cx="13.002" cy="5.916" r="5.417" stroke="#000000"/> 		<path id="_3E6B5BA7-CF93-4772-B806-5F3D441456F9frame19" oryx:anchors="top left" style="opacity:1;fill:#F0EFF0;" stroke="#000000" d="M8.043,7.083c0,0,2.814-2.426,5.376-1.807s4.624-0.693,4.624-0.693    c0.25,1.688,0.042,3.75-1.458,5.584c0,0,1.083,0.75,1.083,1.5s0.125,1.875-1,3s-5.5,1.25-6.75,0S8.668,12.834,8.668,12    s0.583-1.25,1.25-1.917C8.835,9.5,7.419,7.708,8.043,7.083z"/> 	</g> 	 	<g id="_3E6B5BA7-CF93-4772-B806-5F3D441456F9serviceTask" transform="scale(0.7,0.7) translate(8,8)" display="none"> 		<polygon oryx:anchors="top left" id="_3E6B5BA7-CF93-4772-B806-5F3D441456F9frame20" style="opacity:1;fill:#ffffff" stroke="#000000" points="15.392,5.064 17.954,2.502 20.347,4.895 17.786,7.455     18.729,9.732 22.353,9.732 22.353,13.115 18.731,13.115 17.788,15.392 20.351,17.955 17.958,20.347 15.397,17.786 13.12,18.729     13.12,22.353 9.737,22.353 9.737,18.731 7.46,17.788 4.897,20.35 2.506,17.958 5.066,15.397 4.124,13.12 0.5,13.12 0.5,9.737     4.121,9.737 5.065,7.461 2.503,4.898 4.895,2.506 7.455,5.066 9.732,4.125 9.732,0.5 13.116,0.5 13.116,4.121 "/> 		<circle oryx:anchors="top left" id="_3E6B5BA7-CF93-4772-B806-5F3D441456F9frame21" style="opacity:1;fill:none" stroke="#000000" cx="11.427" cy="11.426" r="3.714"/> 		<polygon oryx:anchors="top left" id="_3E6B5BA7-CF93-4772-B806-5F3D441456F9frame22" style="opacity:1;fill:#ffffff" stroke="#000000" points="21.392,11.064 23.954,8.502 26.347,10.895 23.786,13.455     24.729,15.732 28.353,15.732 28.353,19.115 24.731,19.115 23.788,21.392 26.351,23.955 23.958,26.347 21.397,23.786 19.12,24.729     19.12,28.353 15.737,28.353 15.737,24.731 13.46,23.788 10.897,26.35 8.506,23.958 11.066,21.397 10.124,19.12 6.5,19.12     6.5,15.737 10.121,15.737 11.065,13.461 8.503,10.898 10.895,8.506 13.455,11.066 15.732,10.125 15.732,6.5 19.116,6.5     19.116,10.121 "/> 		<circle oryx:anchors="top left" id="_3E6B5BA7-CF93-4772-B806-5F3D441456F9frame23" style="opacity:1;fill:none;" stroke="#000000" cx="17.427" cy="17.426" r="3.714"/> 	</g> 	 	<g id="_3E6B5BA7-CF93-4772-B806-5F3D441456F9sendTask" display="none"> 		<path id="_3E6B5BA7-CF93-4772-B806-5F3D441456F9stframe24" oryx:anchors="left top" stroke="#FFFFFF" fill="black" stroke-width="1" d="M8,11 L8,21 L24,21 L24,11 L16,17z"/> 		<path id="_3E6B5BA7-CF93-4772-B806-5F3D441456F9stframe25" oryx:anchors="left top" stroke="#FFFFFF" fill="black" stroke-width="1" d="M7,10 L16,17 L25 10z"/> 	</g> 	 	<g id="_3E6B5BA7-CF93-4772-B806-5F3D441456F9receiveTask" display="none"> 		<path id="_3E6B5BA7-CF93-4772-B806-5F3D441456F9frame26" oryx:anchors="left top" stroke="#000000" fill="none" stroke-width="1" d="M8,11 L8,21 L24,21 L24,11z M8,11 L16,17 L24,11"/> 	</g> 	 	<g id="_3E6B5BA7-CF93-4772-B806-5F3D441456F9none" display="inherit"/>  	<g id="_3E6B5BA7-CF93-4772-B806-5F3D441456F9sequential" display="none">         <path oryx:anchors="bottom" fill="none" stroke="#000000" stroke-width="2" d="M46,76h10M46,72h10 M46,68h10" id="_3E6B5BA7-CF93-4772-B806-5F3D441456F9__3E6B5BA7-CF93-4772-B806-5F3D441456F9_20"/>     </g>   </g></g><g class="children" style="overflow:hidden"/><g class="edge"/></g><g class="controls"><g class="dockers"/><g class="magnets" transform="translate(510, 255)"><g pointer-events="all" display="none" transform="translate(-7, 12)"><circle cx="8" cy="8" r="4" stroke="none" fill="red" fill-opacity="0.3"/></g><g pointer-events="all" display="none" transform="translate(-7, 32)"><circle cx="8" cy="8" r="4" stroke="none" fill="red" fill-opacity="0.3"/></g><g pointer-events="all" display="none" transform="translate(-7, 52)"><circle cx="8" cy="8" r="4" stroke="none" fill="red" fill-opacity="0.3"/></g><g pointer-events="all" display="none" transform="translate(17, 71)"><circle cx="8" cy="8" r="4" stroke="none" fill="red" fill-opacity="0.3"/></g><g pointer-events="all" display="none" transform="translate(42, 71)"><circle cx="8" cy="8" r="4" stroke="none" fill="red" fill-opacity="0.3"/></g><g pointer-events="all" display="none" transform="translate(67, 71)"><circle cx="8" cy="8" r="4" stroke="none" fill="red" fill-opacity="0.3"/></g><g pointer-events="all" display="none" transform="translate(91, 12)"><circle cx="8" cy="8" r="4" stroke="none" fill="red" fill-opacity="0.3"/></g><g pointer-events="all" display="none" transform="translate(91, 32)"><circle cx="8" cy="8" r="4" stroke="none" fill="red" fill-opacity="0.3"/></g><g pointer-events="all" display="none" transform="translate(91, 52)"><circle cx="8" cy="8" r="4" stroke="none" fill="red" fill-opacity="0.3"/></g><g pointer-events="all" display="none" transform="translate(17, -7)"><circle cx="8" cy="8" r="4" stroke="none" fill="red" fill-opacity="0.3"/></g><g pointer-events="all" display="none" transform="translate(42, -7)"><circle cx="8" cy="8" r="4" stroke="none" fill="red" fill-opacity="0.3"/></g><g pointer-events="all" display="none" transform="translate(67, -7)"><circle cx="8" cy="8" r="4" stroke="none" fill="red" fill-opacity="0.3"/></g><g pointer-events="all" display="none" transform="translate(42, 32)"><circle cx="8" cy="8" r="4" stroke="none" fill="red" fill-opacity="0.3"/></g></g></g></g><g id="_D82981C0-E96C-48C9-8559-CA42832DA935" bpmn2nodeid="_33560379-4544-4FDE-89FD-530164FBCD0F"><g class="stencils" transform="translate(735, 281)"><g class="me"><g pointer-events="fill" id="_D82981C0-E96C-48C9-8559-CA42832DA935">      <defs id="_D82981C0-E96C-48C9-8559-CA42832DA935__D82981C0-E96C-48C9-8559-CA42832DA935_5"> 		<radialGradient id="_D82981C0-E96C-48C9-8559-CA42832DA935background" cx="10%" cy="10%" r="100%" fx="10%" fy="10%"> 			<stop offset="0%" stop-color="#ffffff" stop-opacity="1" id="_D82981C0-E96C-48C9-8559-CA42832DA935__D82981C0-E96C-48C9-8559-CA42832DA935_6"/> 			<stop id="_D82981C0-E96C-48C9-8559-CA42832DA935fill_el" offset="100%" stop-color="#ff6347" stop-opacity="1"/> 		</radialGradient> 	</defs> 	     <circle id="_D82981C0-E96C-48C9-8559-CA42832DA935bg_frame" cx="14" cy="14" r="14" stroke="#000000" fill="url(#_D82981C0-E96C-48C9-8559-CA42832DA935background) white" stroke-width="3"/> 	<text font-size="11" id="_D82981C0-E96C-48C9-8559-CA42832DA935text_name" x="14" y="30" oryx:align="top center" stroke="black" stroke-width="0pt" letter-spacing="-0.01px" fill="#000000" text-anchor="middle" transform="rotate(0 14 30)" visibility="inherit" oryx:fontSize="11"/>   </g></g><g class="children" style="overflow:hidden"/><g class="edge"/></g><g class="controls"><g class="dockers"/><g class="magnets" transform="translate(735, 281)"><g pointer-events="all" display="none" transform="translate(6, 6)"><circle cx="8" cy="8" r="4" stroke="none" fill="red" fill-opacity="0.3"/></g></g></g></g></g><g class="edge"><g id="_B609543D-73BA-49AD-9496-6942DDE204DE" bpmn2nodeid="_C81F9B39-145C-411E-8E08-49D36F30744D"><g class="stencils"><g class="me"><g pointer-events="painted" bpmn2nodeid="_75A5AC5F-9AF1-4C86-A6EA-74CE9BDB0EB4"><path id="_B609543D-73BA-49AD-9496-6942DDE204DE_1" d="M75.6083435402103 299.29052983908133L119.1572814597897 297.31103266091867 " stroke="#000000" fill="none" stroke-width="2" stroke-linecap="round" stroke-linejoin="round" marker-start="url(#_B609543D-73BA-49AD-9496-6942DDE204DEstart)" marker-end="url(#_B609543D-73BA-49AD-9496-6942DDE204DEend)"/></g><text id="_B609543D-73BA-49AD-9496-6942DDE204DEtext_name" font-size="12" x="89.6083435402103" y="285.29052983908133" oryx:edgePosition="startTop" stroke-width="0pt" letter-spacing="-0.01px" fill="#000000" text-anchor="start" transform="rotate(357.39743779750023 75.6083435402103 299.29052983908133)" visibility="inherit" oryx:fontSize="12"/></g><g class="children" style="overflow:hidden"/><g class="edge"/></g><g class="controls"><g class="dockers"/><g class="magnets"/></g></g><g id="_C005F234-65D3-4CE1-B0B2-DE18455BF326" bpmn2nodeid="_20BA939B-DE54-42C4-8A06-D2BD0EF4FD38"><g class="stencils"><g class="me"><g pointer-events="painted" bpmn2nodeid="_015328D9-1CD1-49EF-9663-D9B20B41CA74"><path id="_C005F234-65D3-4CE1-B0B2-DE18455BF326_1" d="M220.21875000000006 295L299.7812500000001 295 " stroke="#000000" fill="none" stroke-width="2" stroke-linecap="round" stroke-linejoin="round" marker-start="url(#_C005F234-65D3-4CE1-B0B2-DE18455BF326start)" marker-end="url(#_C005F234-65D3-4CE1-B0B2-DE18455BF326end)"/></g><text id="_C005F234-65D3-4CE1-B0B2-DE18455BF326text_name" font-size="12" x="234.21875000000006" y="281" oryx:edgePosition="startTop" stroke-width="0pt" letter-spacing="-0.01px" fill="#000000" text-anchor="start" transform="rotate(360 220.21875000000006 295)" visibility="inherit" oryx:fontSize="12"/></g><g class="children" style="overflow:hidden"/><g class="edge"/></g><g class="controls"><g class="dockers"/><g class="magnets"/></g></g><g id="_28B12981-B2DB-4718-BAD5-329400EB87DC" bpmn2nodeid="_E6FAFEF4-C7A0-4AD4-9BF3-254024A69560"><g class="stencils"><g class="me"><g pointer-events="painted" bpmn2nodeid="_90E9EA21-A8B3-474A-B96A-D93B91A64464"><path id="_28B12981-B2DB-4718-BAD5-329400EB87DC_1" d="M400.2187500000001 295L509.78125 295 " stroke="#000000" fill="none" stroke-width="2" stroke-linecap="round" stroke-linejoin="round" marker-start="url(#_28B12981-B2DB-4718-BAD5-329400EB87DCstart)" marker-end="url(#_28B12981-B2DB-4718-BAD5-329400EB87DCend)"/></g><text id="_28B12981-B2DB-4718-BAD5-329400EB87DCtext_name" font-size="12" x="414.2187500000001" y="281" oryx:edgePosition="startTop" stroke-width="0pt" letter-spacing="-0.01px" fill="#000000" text-anchor="start" transform="rotate(360 400.2187500000001 295)" visibility="inherit" oryx:fontSize="12"/></g><g class="children" style="overflow:hidden"/><g class="edge"/></g><g class="controls"><g class="dockers"/><g class="magnets"/></g></g><g id="_89C3C8CA-858A-45AB-8EC6-4B548D4E4533" bpmn2nodeid="_1BFB57EC-C1AE-4D2C-A480-B4EA3DE9C93A"><g class="stencils"><g class="me"><g pointer-events="painted" bpmn2nodeid="_524B27CC-A24B-4E37-8363-FB22021F190E"><path id="_89C3C8CA-858A-45AB-8EC6-4B548D4E4533_1" d="M610.46484375 295L734.7109375 295 " stroke="#000000" fill="none" stroke-width="2" stroke-linecap="round" stroke-linejoin="round" marker-start="url(#_89C3C8CA-858A-45AB-8EC6-4B548D4E4533start)" marker-end="url(#_89C3C8CA-858A-45AB-8EC6-4B548D4E4533end)"/></g><text id="_89C3C8CA-858A-45AB-8EC6-4B548D4E4533text_name" font-size="12" x="624.46484375" y="281" oryx:edgePosition="startTop" stroke-width="0pt" letter-spacing="-0.01px" fill="#000000" text-anchor="start" transform="rotate(360 610.46484375 295)" visibility="inherit" oryx:fontSize="12"/></g><g class="children" style="overflow:hidden"/><g class="edge"/></g><g class="controls"><g class="dockers"/><g class="magnets"/></g></g></g><text id="_4027241C-D7E9-4C22-BFF8-988E8CD35523" style="stroke-width:1;fill:rgb(177,194,214);font-family:arial;font-weight:bold" font-size="12" onclick="ORYX.Plugins.CanvasTitle.openTextualAnalysis()" onmouseover="ORYX.Plugins.CanvasTitle.addToolTip('_4027241C-D7E9-4C22-BFF8-988E8CD35523')" transform="translate(10, 20)">P1111 v.1.0 (src.P1111)</text></g></g></svg>