<svg xmlns="http://www.w3.org/2000/svg" xmlns:oryx="http://oryx-editor.org" id="_48CCCECC-E06C-48D3-9B06-8DCEA3245B7E" width="729" height="263" xmlns:xlink="http://www.w3.org/1999/xlink" xmlns:svg="http://www.w3.org/2000/svg"><defs><marker id="_6BA1D2C3-942A-4DB4-B63F-4D35473FC7C3start" refX="1" refY="5" markerUnits="userSpaceOnUse" markerWidth="17" markerHeight="11" orient="auto" fill="#000000" stroke="#000000"> 	  		<path id="_6BA1D2C3-942A-4DB4-B63F-4D35473FC7C3conditional" d="M 0 5 L 8 0 L 16 5 L 8 10 L 0 5" fill="white" stroke="#000000" stroke-width="1" display="none"/> 			<path id="_6BA1D2C3-942A-4DB4-B63F-4D35473FC7C3default" d="M 5 0 L 11 10" fill="white" stroke="#000000" stroke-width="1" display="none"/> 	  	</marker><marker id="_6BA1D2C3-942A-4DB4-B63F-4D35473FC7C3end" refX="15" refY="6" markerUnits="userSpaceOnUse" markerWidth="15" markerHeight="12" orient="auto" fill="#000000" stroke="#000000"> 	  		<path id="_6BA1D2C3-942A-4DB4-B63F-4D35473FC7C3frame2" d="M 0 1 L 15 6 L 0 11z" fill="#000000" stroke="#000000" stroke-linejoin="round" stroke-width="2"/> 	  	</marker><marker id="_014050B7-EAFC-448B-985D-8AFEDBBEEAF6start" refX="1" refY="5" markerUnits="userSpaceOnUse" markerWidth="17" markerHeight="11" orient="auto" fill="#000000" stroke="#000000"> 	  		<path id="_014050B7-EAFC-448B-985D-8AFEDBBEEAF6conditional" d="M 0 5 L 8 0 L 16 5 L 8 10 L 0 5" fill="white" stroke="#000000" stroke-width="1" display="none"/> 			<path id="_014050B7-EAFC-448B-985D-8AFEDBBEEAF6default" d="M 5 0 L 11 10" fill="white" stroke="#000000" stroke-width="1" display="none"/> 	  	</marker><marker id="_014050B7-EAFC-448B-985D-8AFEDBBEEAF6end" refX="15" refY="6" markerUnits="userSpaceOnUse" markerWidth="15" markerHeight="12" orient="auto" fill="#000000" stroke="#000000"> 	  		<path id="_014050B7-EAFC-448B-985D-8AFEDBBEEAF6frame2" d="M 0 1 L 15 6 L 0 11z" fill="#000000" stroke="#000000" stroke-linejoin="round" stroke-width="2"/> 	  	</marker><marker id="_7AC53F5E-C82B-4E25-A03B-06918A715A9Fstart" refX="1" refY="5" markerUnits="userSpaceOnUse" markerWidth="17" markerHeight="11" orient="auto" fill="#000000" stroke="#000000"> 	  		<path id="_7AC53F5E-C82B-4E25-A03B-06918A715A9Fconditional" d="M 0 5 L 8 0 L 16 5 L 8 10 L 0 5" fill="white" stroke="#000000" stroke-width="1" display="none"/> 			<path id="_7AC53F5E-C82B-4E25-A03B-06918A715A9Fdefault" d="M 5 0 L 11 10" fill="white" stroke="#000000" stroke-width="1" display="none"/> 	  	</marker><marker id="_7AC53F5E-C82B-4E25-A03B-06918A715A9Fend" refX="15" refY="6" markerUnits="userSpaceOnUse" markerWidth="15" markerHeight="12" orient="auto" fill="#000000" stroke="#000000"> 	  		<path id="_7AC53F5E-C82B-4E25-A03B-06918A715A9Fframe2" d="M 0 1 L 15 6 L 0 11z" fill="#000000" stroke="#000000" stroke-linejoin="round" stroke-width="2"/> 	  	</marker></defs><g stroke="none" font-family="Verdana, sans-serif" font-size-adjust="none" font-style="normal" font-variant="normal" font-weight="normal" line-heigth="normal" font-size="12"><g class="stencils" transform="translate(15, 16)"><g class="me"/><g class="children"><g id="_A59B4427-BC48-4F1C-ADEF-41B307918792" bpmn2nodeid="processStartEvent"><g class="stencils" transform="translate(90, 160)"><g class="me"><g pointer-events="fill" id="_A59B4427-BC48-4F1C-ADEF-41B307918792">        <defs id="_A59B4427-BC48-4F1C-ADEF-41B307918792__A59B4427-BC48-4F1C-ADEF-41B307918792_5"> 		<radialGradient id="_A59B4427-BC48-4F1C-ADEF-41B307918792background" cx="10%" cy="10%" r="100%" fx="10%" fy="10%"> 			<stop offset="0%" stop-color="#ffffff" stop-opacity="1" id="_A59B4427-BC48-4F1C-ADEF-41B307918792__A59B4427-BC48-4F1C-ADEF-41B307918792_6"/> 			<stop id="_A59B4427-BC48-4F1C-ADEF-41B307918792fill_el" offset="100%" stop-color="#9acd32" stop-opacity="1"/> 		</radialGradient> 	</defs> 	     <circle id="_A59B4427-BC48-4F1C-ADEF-41B307918792bg_frame" cx="15" cy="15" r="15" stroke="#000000" fill="url(#_A59B4427-BC48-4F1C-ADEF-41B307918792background) white" stroke-width="1" style="stroke-dasharray: 5.5, 3"/>      <circle id="_A59B4427-BC48-4F1C-ADEF-41B307918792frame" cx="15" cy="15" r="15" stroke="#000000" fill="none" stroke-width="1" display="inherit"/>  	<text font-size="11" id="_A59B4427-BC48-4F1C-ADEF-41B307918792text_name" x="15" y="32" oryx:align="top center" stroke="black" stroke-width="0pt" letter-spacing="-0.01px" fill="#000000" text-anchor="middle" transform="rotate(0 15 32)" visibility="inherit" oryx:fontSize="11"/>   </g></g><g class="children" style="overflow:hidden"/><g class="edge"/></g><g class="controls"><g class="dockers"/><g class="magnets" transform="translate(90, 160)"><g pointer-events="all" display="none" transform="translate(7, 7)"><circle cx="8" cy="8" r="4" stroke="none" fill="red" fill-opacity="0.3"/></g></g></g></g><g id="_C3189159-20E3-4332-AC06-4631EA6CFBD9" bpmn2nodeid="_8D68A39B-636B-4521-9DB4-A6A13D00A50A"><g class="stencils" transform="translate(210, 135)"><g class="me"><g pointer-events="fill" oryx:minimumSize="50 40" id="_C3189159-20E3-4332-AC06-4631EA6CFBD9">   	<defs id="_C3189159-20E3-4332-AC06-4631EA6CFBD9__C3189159-20E3-4332-AC06-4631EA6CFBD9_17"> 		<radialGradient id="_C3189159-20E3-4332-AC06-4631EA6CFBD9background" cx="10%" cy="10%" r="100%" fx="10%" fy="10%"> 			<stop offset="0%" stop-color="#ffffff" stop-opacity="1" id="_C3189159-20E3-4332-AC06-4631EA6CFBD9__C3189159-20E3-4332-AC06-4631EA6CFBD9_18"/> 			<stop id="_C3189159-20E3-4332-AC06-4631EA6CFBD9fill_el" offset="100%" stop-color="#fafad2" stop-opacity="1"/> 		</radialGradient> 		<radialGradient id="_C3189159-20E3-4332-AC06-4631EA6CFBD9borderbackground" cx="10%" cy="10%" r="100%" fx="10%" fy="10%"> 			<stop offset="0%" stop-color="#ffffff" stop-opacity="1" id="_C3189159-20E3-4332-AC06-4631EA6CFBD9__C3189159-20E3-4332-AC06-4631EA6CFBD9_19"/> 			<stop id="_C3189159-20E3-4332-AC06-4631EA6CFBD9fill_border" offset="100%" stop-color="#000000" stop-opacity="1" stroke="#000000"/> 		</radialGradient> 	</defs> 	 	<rect id="_C3189159-20E3-4332-AC06-4631EA6CFBD9text_frame" oryx:anchors="bottom top right left" x="1" y="1" width="128" height="82" rx="10" ry="10" stroke="none" stroke-width="0" fill="none"/> 	<rect id="_C3189159-20E3-4332-AC06-4631EA6CFBD9bg_frame" oryx:resize="vertical horizontal" x="0" y="0" width="134" height="83" rx="10" ry="10" stroke="#000000" stroke-width="1" fill="url(#_C3189159-20E3-4332-AC06-4631EA6CFBD9background) #ffffcc"/> 		<text font-size="12" id="_C3189159-20E3-4332-AC06-4631EA6CFBD9text_name" x="67" y="41.5" oryx:align="middle center" oryx:fittoelem="text_frame" stroke="black" text-anchor="middle" stroke-width="0pt" letter-spacing="-0.01px" fill="#000000" transform="rotate(0 67 41.5)" visibility="inherit" oryx:fontSize="12"><tspan x="67" y="41.5" dy="5">Promotion</tspan></text>     <g id="_C3189159-20E3-4332-AC06-4631EA6CFBD9manualTask" transform="scale(0.7,0.7) translate(8,8)" display="none">     	<path oryx:anchors="top left" id="_C3189159-20E3-4332-AC06-4631EA6CFBD9frame" style="opacity:1;fill:none;fill-opacity:1;stroke-width:1" d="M0.5,3.751l4.083-3.25c0,0,11.166,0.083,12.083,0.083s-2.417,2.917-1.5,2.917     s11.667,0,12.584,0c1.166,1.708-0.168,3.167-0.834,3.667s0.875,1.917-1,4.417c-0.75,0.25,0.75,1.875-1.333,3.333     c-1.167,0.583,0.583,1.542-1.25,2.833c-1.167,0-20.833,0.083-20.833,0.083l-2-1.333V3.751z" stroke="#000000"/> 		<path id="_C3189159-20E3-4332-AC06-4631EA6CFBD9frame2" oryx:anchors="top left" style="opacity:1;fill:none;stroke-width:2" d="M 13.5 7 L 27 7" stroke="#000000"/> 		<path id="_C3189159-20E3-4332-AC06-4631EA6CFBD9frame3" oryx:anchors="top left" style="opacity:1;fill:none;stroke-width:2" d="M 13.5 11 L 26 11" stroke="#000000"/> 		<path id="_C3189159-20E3-4332-AC06-4631EA6CFBD9frame4" oryx:anchors="top left" style="opacity:1;fill:none;stroke-width:1.5" d="M 14 14.5 L 25 14.5" stroke="#000000"/> 		<path id="_C3189159-20E3-4332-AC06-4631EA6CFBD9frame5" oryx:anchors="top left" style="opacity:1;fill:none;stroke-width:1.5" d="M 8.2 3.1 L 15 3.1" stroke="#000000"/> 	</g> 	 	<g id="_C3189159-20E3-4332-AC06-4631EA6CFBD9businessRuleTask" transform="scale(0.7,0.7) translate(8,8)" display="inherit"> 		<rect id="_C3189159-20E3-4332-AC06-4631EA6CFBD9frame6" oryx:anchors="top left" x="0" y="0" width="22" height="4" style="opacity:1;fill:#B3B1B3;fill-opacity:1;" stroke="#000000"/> 		<rect id="_C3189159-20E3-4332-AC06-4631EA6CFBD9frame7" oryx:anchors="top left" x="0" y="4" style="opacity:1;fill:none;" width="22" height="12" stroke="#000000"/> 		<path id="_C3189159-20E3-4332-AC06-4631EA6CFBD9frame8" oryx:anchors="top left" style="opacity:1;fill:none;" d="M 0 10 L 22 10" stroke="#000000"/> 		<path id="_C3189159-20E3-4332-AC06-4631EA6CFBD9frame9" oryx:anchors="top left" style="opacity:1; fill:none;" d="M 7 4 L 7 16" stroke="#000000"/> 	</g> 	 	<g id="_C3189159-20E3-4332-AC06-4631EA6CFBD9scriptTask" transform="scale(0.7,0.7) translate(8,8)" display="none"> 		<path oryx:anchors="top left" id="_C3189159-20E3-4332-AC06-4631EA6CFBD9frame10" style="opacity:1;fill:none;" stroke="#000000" d="M6.402,0.5h14.5c0,0-5.833,2.833-5.833,5.583s4.417,6,4.417,9.167    s-4.167,5.083-4.167,5.083H0.235c0,0,5-2.667,5-5s-4.583-6.75-4.583-9.25S6.402,0.5,6.402,0.5z"/> 		<path oryx:anchors="top left" id="_C3189159-20E3-4332-AC06-4631EA6CFBD9frame11" style="opacity:1;fill:none;stroke-width:1.5" d="M 3.5 4.5 L 13.5 4.5" stroke="#000000"/> 		<path oryx:anchors="top left" id="_C3189159-20E3-4332-AC06-4631EA6CFBD9frame12" style="opacity:1;fill:none;stroke-width:1.5" d="M 3.8 8.5 L 13.8 8.5" stroke="#000000"/> 		<path oryx:anchors="top left" id="_C3189159-20E3-4332-AC06-4631EA6CFBD9frame13" style="opacity:1;fill:none;stroke-width:1.5" d="M 6.3 12.5 L 16.3 12.5" stroke="#000000"/> 		<path oryx:anchors="top left" id="_C3189159-20E3-4332-AC06-4631EA6CFBD9frame14" style="opacity:1;fill:none;stroke-width:1.5" d="M 6.5 16.5 L 16.5 16.5" stroke="#000000"/> 	</g> 	 	<g id="_C3189159-20E3-4332-AC06-4631EA6CFBD9userTask" transform="scale(0.7,0.7) translate(8,8)" display="none"> 		<path id="_C3189159-20E3-4332-AC06-4631EA6CFBD9frame15" oryx:anchors="top left" style="opacity:1;fill:#F4F6F7" stroke="#000000" d="M0.585,24.167h24.083v-7.833c0,0-2.333-3.917-7.083-5.167h-9.25    c-4.417,1.333-7.833,5.75-7.833,5.75L0.585,24.167z"/> 		<path id="_C3189159-20E3-4332-AC06-4631EA6CFBD9frame16" oryx:anchors="top left" style="opacity:1;fill:none" d="M 6 20 L 6 24" stroke="#000000"/> 		<path id="_C3189159-20E3-4332-AC06-4631EA6CFBD9frame17" oryx:anchors="top left" style="opacity:1;fill:none" d="M 20 20 L 20 24" stroke="#000000"/> 		<circle id="_C3189159-20E3-4332-AC06-4631EA6CFBD9frame18" oryx:anchors="top left" fill="black" cx="13.002" cy="5.916" r="5.417" stroke="#000000"/> 		<path id="_C3189159-20E3-4332-AC06-4631EA6CFBD9frame19" oryx:anchors="top left" style="opacity:1;fill:#F0EFF0;" stroke="#000000" d="M8.043,7.083c0,0,2.814-2.426,5.376-1.807s4.624-0.693,4.624-0.693    c0.25,1.688,0.042,3.75-1.458,5.584c0,0,1.083,0.75,1.083,1.5s0.125,1.875-1,3s-5.5,1.25-6.75,0S8.668,12.834,8.668,12    s0.583-1.25,1.25-1.917C8.835,9.5,7.419,7.708,8.043,7.083z"/> 	</g> 	 	<g id="_C3189159-20E3-4332-AC06-4631EA6CFBD9serviceTask" transform="scale(0.7,0.7) translate(8,8)" display="none"> 		<polygon oryx:anchors="top left" id="_C3189159-20E3-4332-AC06-4631EA6CFBD9frame20" style="opacity:1;fill:#ffffff" stroke="#000000" points="15.392,5.064 17.954,2.502 20.347,4.895 17.786,7.455     18.729,9.732 22.353,9.732 22.353,13.115 18.731,13.115 17.788,15.392 20.351,17.955 17.958,20.347 15.397,17.786 13.12,18.729     13.12,22.353 9.737,22.353 9.737,18.731 7.46,17.788 4.897,20.35 2.506,17.958 5.066,15.397 4.124,13.12 0.5,13.12 0.5,9.737     4.121,9.737 5.065,7.461 2.503,4.898 4.895,2.506 7.455,5.066 9.732,4.125 9.732,0.5 13.116,0.5 13.116,4.121 "/> 		<circle oryx:anchors="top left" id="_C3189159-20E3-4332-AC06-4631EA6CFBD9frame21" style="opacity:1;fill:none" stroke="#000000" cx="11.427" cy="11.426" r="3.714"/> 		<polygon oryx:anchors="top left" id="_C3189159-20E3-4332-AC06-4631EA6CFBD9frame22" style="opacity:1;fill:#ffffff" stroke="#000000" points="21.392,11.064 23.954,8.502 26.347,10.895 23.786,13.455     24.729,15.732 28.353,15.732 28.353,19.115 24.731,19.115 23.788,21.392 26.351,23.955 23.958,26.347 21.397,23.786 19.12,24.729     19.12,28.353 15.737,28.353 15.737,24.731 13.46,23.788 10.897,26.35 8.506,23.958 11.066,21.397 10.124,19.12 6.5,19.12     6.5,15.737 10.121,15.737 11.065,13.461 8.503,10.898 10.895,8.506 13.455,11.066 15.732,10.125 15.732,6.5 19.116,6.5     19.116,10.121 "/> 		<circle oryx:anchors="top left" id="_C3189159-20E3-4332-AC06-4631EA6CFBD9frame23" style="opacity:1;fill:none;" stroke="#000000" cx="17.427" cy="17.426" r="3.714"/> 	</g> 	 	<g id="_C3189159-20E3-4332-AC06-4631EA6CFBD9sendTask" display="none"> 		<path id="_C3189159-20E3-4332-AC06-4631EA6CFBD9stframe24" oryx:anchors="left top" stroke="#FFFFFF" fill="black" stroke-width="1" d="M8,11 L8,21 L24,21 L24,11 L16,17z"/> 		<path id="_C3189159-20E3-4332-AC06-4631EA6CFBD9stframe25" oryx:anchors="left top" stroke="#FFFFFF" fill="black" stroke-width="1" d="M7,10 L16,17 L25 10z"/> 	</g> 	 	<g id="_C3189159-20E3-4332-AC06-4631EA6CFBD9receiveTask" display="none"> 		<path id="_C3189159-20E3-4332-AC06-4631EA6CFBD9frame26" oryx:anchors="left top" stroke="#000000" fill="none" stroke-width="1" d="M8,11 L8,21 L24,21 L24,11z M8,11 L16,17 L24,11"/> 	</g> 	 	<g id="_C3189159-20E3-4332-AC06-4631EA6CFBD9none" display="inherit"/>  	<g id="_C3189159-20E3-4332-AC06-4631EA6CFBD9sequential" display="none">         <path oryx:anchors="bottom" fill="none" stroke="#000000" stroke-width="2" d=" M63.34 79  h10  M63.34 75  h10  M63.34 71  h10 " id="_C3189159-20E3-4332-AC06-4631EA6CFBD9__C3189159-20E3-4332-AC06-4631EA6CFBD9_20"/>     </g>   </g></g><g class="children" style="overflow:hidden"/><g class="edge"/></g><g class="controls"><g class="dockers"/><g class="magnets" transform="translate(210, 135)"><g pointer-events="all" display="none" transform="translate(-7, 12.75)"><circle cx="8" cy="8" r="4" stroke="none" fill="red" fill-opacity="0.3"/></g><g pointer-events="all" display="none" transform="translate(-7, 33.5)"><circle cx="8" cy="8" r="4" stroke="none" fill="red" fill-opacity="0.3"/></g><g pointer-events="all" display="none" transform="translate(-7, 54.25000000000001)"><circle cx="8" cy="8" r="4" stroke="none" fill="red" fill-opacity="0.3"/></g><g pointer-events="all" display="none" transform="translate(25.5, 74)"><circle cx="8" cy="8" r="4" stroke="none" fill="red" fill-opacity="0.3"/></g><g pointer-events="all" display="none" transform="translate(59, 74)"><circle cx="8" cy="8" r="4" stroke="none" fill="red" fill-opacity="0.3"/></g><g pointer-events="all" display="none" transform="translate(92.5, 74)"><circle cx="8" cy="8" r="4" stroke="none" fill="red" fill-opacity="0.3"/></g><g pointer-events="all" display="none" transform="translate(125, 12.75)"><circle cx="8" cy="8" r="4" stroke="none" fill="red" fill-opacity="0.3"/></g><g pointer-events="all" display="none" transform="translate(125, 33.5)"><circle cx="8" cy="8" r="4" stroke="none" fill="red" fill-opacity="0.3"/></g><g pointer-events="all" display="none" transform="translate(125, 54.25000000000001)"><circle cx="8" cy="8" r="4" stroke="none" fill="red" fill-opacity="0.3"/></g><g pointer-events="all" display="none" transform="translate(25.5, -7)"><circle cx="8" cy="8" r="4" stroke="none" fill="red" fill-opacity="0.3"/></g><g pointer-events="all" display="none" transform="translate(59, -7)"><circle cx="8" cy="8" r="4" stroke="none" fill="red" fill-opacity="0.3"/></g><g pointer-events="all" display="none" transform="translate(92.5, -7)"><circle cx="8" cy="8" r="4" stroke="none" fill="red" fill-opacity="0.3"/></g><g pointer-events="all" display="none" transform="translate(59, 33.5)"><circle cx="8" cy="8" r="4" stroke="none" fill="red" fill-opacity="0.3"/></g></g></g></g><g id="_198F2A3B-5795-4D15-9BFC-27D0DBCD135B" bpmn2nodeid="_A24FFEB2-52A4-4B1C-A34E-2B7D5484A21C"><g class="stencils" transform="translate(405, 135)"><g class="me"><g pointer-events="fill" oryx:minimumSize="50 40" id="_198F2A3B-5795-4D15-9BFC-27D0DBCD135B">   	<defs id="_198F2A3B-5795-4D15-9BFC-27D0DBCD135B__198F2A3B-5795-4D15-9BFC-27D0DBCD135B_17"> 		<radialGradient id="_198F2A3B-5795-4D15-9BFC-27D0DBCD135Bbackground" cx="10%" cy="10%" r="100%" fx="10%" fy="10%"> 			<stop offset="0%" stop-color="#ffffff" stop-opacity="1" id="_198F2A3B-5795-4D15-9BFC-27D0DBCD135B__198F2A3B-5795-4D15-9BFC-27D0DBCD135B_18"/> 			<stop id="_198F2A3B-5795-4D15-9BFC-27D0DBCD135Bfill_el" offset="100%" stop-color="#fafad2" stop-opacity="1"/> 		</radialGradient> 		<radialGradient id="_198F2A3B-5795-4D15-9BFC-27D0DBCD135Bborderbackground" cx="10%" cy="10%" r="100%" fx="10%" fy="10%"> 			<stop offset="0%" stop-color="#ffffff" stop-opacity="1" id="_198F2A3B-5795-4D15-9BFC-27D0DBCD135B__198F2A3B-5795-4D15-9BFC-27D0DBCD135B_19"/> 			<stop id="_198F2A3B-5795-4D15-9BFC-27D0DBCD135Bfill_border" offset="100%" stop-color="#000000" stop-opacity="1" stroke="#000000"/> 		</radialGradient> 	</defs> 	 	<rect id="_198F2A3B-5795-4D15-9BFC-27D0DBCD135Btext_frame" oryx:anchors="bottom top right left" x="1" y="1" width="99" height="79" rx="10" ry="10" stroke="none" stroke-width="0" fill="none"/> 	<rect id="_198F2A3B-5795-4D15-9BFC-27D0DBCD135Bbg_frame" oryx:resize="vertical horizontal" x="0" y="0" width="105" height="80" rx="10" ry="10" stroke="#000000" stroke-width="1" fill="url(#_198F2A3B-5795-4D15-9BFC-27D0DBCD135Bbackground) #ffffcc"/> 		<text font-size="12" id="_198F2A3B-5795-4D15-9BFC-27D0DBCD135Btext_name" x="52.5" y="40" oryx:align="middle center" oryx:fittoelem="text_frame" stroke="black" text-anchor="middle" stroke-width="0pt" letter-spacing="-0.01px" fill="#000000" transform="rotate(0 52.5 40)" visibility="inherit" oryx:fontSize="12"><tspan x="52.5" y="40" dy="5" id="ext-gen673">Standard</tspan></text>     <g id="_198F2A3B-5795-4D15-9BFC-27D0DBCD135BmanualTask" transform="scale(0.7,0.7) translate(8,8)" display="none">     	<path oryx:anchors="top left" id="_198F2A3B-5795-4D15-9BFC-27D0DBCD135Bframe" style="opacity:1;fill:none;fill-opacity:1;stroke-width:1" d="M0.5,3.751l4.083-3.25c0,0,11.166,0.083,12.083,0.083s-2.417,2.917-1.5,2.917     s11.667,0,12.584,0c1.166,1.708-0.168,3.167-0.834,3.667s0.875,1.917-1,4.417c-0.75,0.25,0.75,1.875-1.333,3.333     c-1.167,0.583,0.583,1.542-1.25,2.833c-1.167,0-20.833,0.083-20.833,0.083l-2-1.333V3.751z" stroke="#000000"/> 		<path id="_198F2A3B-5795-4D15-9BFC-27D0DBCD135Bframe2" oryx:anchors="top left" style="opacity:1;fill:none;stroke-width:2" d="M 13.5 7 L 27 7" stroke="#000000"/> 		<path id="_198F2A3B-5795-4D15-9BFC-27D0DBCD135Bframe3" oryx:anchors="top left" style="opacity:1;fill:none;stroke-width:2" d="M 13.5 11 L 26 11" stroke="#000000"/> 		<path id="_198F2A3B-5795-4D15-9BFC-27D0DBCD135Bframe4" oryx:anchors="top left" style="opacity:1;fill:none;stroke-width:1.5" d="M 14 14.5 L 25 14.5" stroke="#000000"/> 		<path id="_198F2A3B-5795-4D15-9BFC-27D0DBCD135Bframe5" oryx:anchors="top left" style="opacity:1;fill:none;stroke-width:1.5" d="M 8.2 3.1 L 15 3.1" stroke="#000000"/> 	</g> 	 	<g id="_198F2A3B-5795-4D15-9BFC-27D0DBCD135BbusinessRuleTask" transform="scale(0.7,0.7) translate(8,8)" display="inherit"> 		<rect id="_198F2A3B-5795-4D15-9BFC-27D0DBCD135Bframe6" oryx:anchors="top left" x="0" y="0" width="22" height="4" style="opacity:1;fill:#B3B1B3;fill-opacity:1;" stroke="#000000"/> 		<rect id="_198F2A3B-5795-4D15-9BFC-27D0DBCD135Bframe7" oryx:anchors="top left" x="0" y="4" style="opacity:1;fill:none;" width="22" height="12" stroke="#000000"/> 		<path id="_198F2A3B-5795-4D15-9BFC-27D0DBCD135Bframe8" oryx:anchors="top left" style="opacity:1;fill:none;" d="M 0 10 L 22 10" stroke="#000000"/> 		<path id="_198F2A3B-5795-4D15-9BFC-27D0DBCD135Bframe9" oryx:anchors="top left" style="opacity:1; fill:none;" d="M 7 4 L 7 16" stroke="#000000"/> 	</g> 	 	<g id="_198F2A3B-5795-4D15-9BFC-27D0DBCD135BscriptTask" transform="scale(0.7,0.7) translate(8,8)" display="none"> 		<path oryx:anchors="top left" id="_198F2A3B-5795-4D15-9BFC-27D0DBCD135Bframe10" style="opacity:1;fill:none;" stroke="#000000" d="M6.402,0.5h14.5c0,0-5.833,2.833-5.833,5.583s4.417,6,4.417,9.167    s-4.167,5.083-4.167,5.083H0.235c0,0,5-2.667,5-5s-4.583-6.75-4.583-9.25S6.402,0.5,6.402,0.5z"/> 		<path oryx:anchors="top left" id="_198F2A3B-5795-4D15-9BFC-27D0DBCD135Bframe11" style="opacity:1;fill:none;stroke-width:1.5" d="M 3.5 4.5 L 13.5 4.5" stroke="#000000"/> 		<path oryx:anchors="top left" id="_198F2A3B-5795-4D15-9BFC-27D0DBCD135Bframe12" style="opacity:1;fill:none;stroke-width:1.5" d="M 3.8 8.5 L 13.8 8.5" stroke="#000000"/> 		<path oryx:anchors="top left" id="_198F2A3B-5795-4D15-9BFC-27D0DBCD135Bframe13" style="opacity:1;fill:none;stroke-width:1.5" d="M 6.3 12.5 L 16.3 12.5" stroke="#000000"/> 		<path oryx:anchors="top left" id="_198F2A3B-5795-4D15-9BFC-27D0DBCD135Bframe14" style="opacity:1;fill:none;stroke-width:1.5" d="M 6.5 16.5 L 16.5 16.5" stroke="#000000"/> 	</g> 	 	<g id="_198F2A3B-5795-4D15-9BFC-27D0DBCD135BuserTask" transform="scale(0.7,0.7) translate(8,8)" display="none"> 		<path id="_198F2A3B-5795-4D15-9BFC-27D0DBCD135Bframe15" oryx:anchors="top left" style="opacity:1;fill:#F4F6F7" stroke="#000000" d="M0.585,24.167h24.083v-7.833c0,0-2.333-3.917-7.083-5.167h-9.25    c-4.417,1.333-7.833,5.75-7.833,5.75L0.585,24.167z"/> 		<path id="_198F2A3B-5795-4D15-9BFC-27D0DBCD135Bframe16" oryx:anchors="top left" style="opacity:1;fill:none" d="M 6 20 L 6 24" stroke="#000000"/> 		<path id="_198F2A3B-5795-4D15-9BFC-27D0DBCD135Bframe17" oryx:anchors="top left" style="opacity:1;fill:none" d="M 20 20 L 20 24" stroke="#000000"/> 		<circle id="_198F2A3B-5795-4D15-9BFC-27D0DBCD135Bframe18" oryx:anchors="top left" fill="black" cx="13.002" cy="5.916" r="5.417" stroke="#000000"/> 		<path id="_198F2A3B-5795-4D15-9BFC-27D0DBCD135Bframe19" oryx:anchors="top left" style="opacity:1;fill:#F0EFF0;" stroke="#000000" d="M8.043,7.083c0,0,2.814-2.426,5.376-1.807s4.624-0.693,4.624-0.693    c0.25,1.688,0.042,3.75-1.458,5.584c0,0,1.083,0.75,1.083,1.5s0.125,1.875-1,3s-5.5,1.25-6.75,0S8.668,12.834,8.668,12    s0.583-1.25,1.25-1.917C8.835,9.5,7.419,7.708,8.043,7.083z"/> 	</g> 	 	<g id="_198F2A3B-5795-4D15-9BFC-27D0DBCD135BserviceTask" transform="scale(0.7,0.7) translate(8,8)" display="none"> 		<polygon oryx:anchors="top left" id="_198F2A3B-5795-4D15-9BFC-27D0DBCD135Bframe20" style="opacity:1;fill:#ffffff" stroke="#000000" points="15.392,5.064 17.954,2.502 20.347,4.895 17.786,7.455     18.729,9.732 22.353,9.732 22.353,13.115 18.731,13.115 17.788,15.392 20.351,17.955 17.958,20.347 15.397,17.786 13.12,18.729     13.12,22.353 9.737,22.353 9.737,18.731 7.46,17.788 4.897,20.35 2.506,17.958 5.066,15.397 4.124,13.12 0.5,13.12 0.5,9.737     4.121,9.737 5.065,7.461 2.503,4.898 4.895,2.506 7.455,5.066 9.732,4.125 9.732,0.5 13.116,0.5 13.116,4.121 "/> 		<circle oryx:anchors="top left" id="_198F2A3B-5795-4D15-9BFC-27D0DBCD135Bframe21" style="opacity:1;fill:none" stroke="#000000" cx="11.427" cy="11.426" r="3.714"/> 		<polygon oryx:anchors="top left" id="_198F2A3B-5795-4D15-9BFC-27D0DBCD135Bframe22" style="opacity:1;fill:#ffffff" stroke="#000000" points="21.392,11.064 23.954,8.502 26.347,10.895 23.786,13.455     24.729,15.732 28.353,15.732 28.353,19.115 24.731,19.115 23.788,21.392 26.351,23.955 23.958,26.347 21.397,23.786 19.12,24.729     19.12,28.353 15.737,28.353 15.737,24.731 13.46,23.788 10.897,26.35 8.506,23.958 11.066,21.397 10.124,19.12 6.5,19.12     6.5,15.737 10.121,15.737 11.065,13.461 8.503,10.898 10.895,8.506 13.455,11.066 15.732,10.125 15.732,6.5 19.116,6.5     19.116,10.121 "/> 		<circle oryx:anchors="top left" id="_198F2A3B-5795-4D15-9BFC-27D0DBCD135Bframe23" style="opacity:1;fill:none;" stroke="#000000" cx="17.427" cy="17.426" r="3.714"/> 	</g> 	 	<g id="_198F2A3B-5795-4D15-9BFC-27D0DBCD135BsendTask" display="none"> 		<path id="_198F2A3B-5795-4D15-9BFC-27D0DBCD135Bstframe24" oryx:anchors="left top" stroke="#FFFFFF" fill="black" stroke-width="1" d="M8,11 L8,21 L24,21 L24,11 L16,17z"/> 		<path id="_198F2A3B-5795-4D15-9BFC-27D0DBCD135Bstframe25" oryx:anchors="left top" stroke="#FFFFFF" fill="black" stroke-width="1" d="M7,10 L16,17 L25 10z"/> 	</g> 	 	<g id="_198F2A3B-5795-4D15-9BFC-27D0DBCD135BreceiveTask" display="none"> 		<path id="_198F2A3B-5795-4D15-9BFC-27D0DBCD135Bframe26" oryx:anchors="left top" stroke="#000000" fill="none" stroke-width="1" d="M8,11 L8,21 L24,21 L24,11z M8,11 L16,17 L24,11"/> 	</g> 	 	<g id="_198F2A3B-5795-4D15-9BFC-27D0DBCD135Bnone" display="inherit"/>  	<g id="_198F2A3B-5795-4D15-9BFC-27D0DBCD135Bsequential" display="none">         <path oryx:anchors="bottom" fill="none" stroke="#000000" stroke-width="2" d=" M48.550000000000004 76  h10  M48.550000000000004 72  h10  M48.550000000000004 68  h10 " id="_198F2A3B-5795-4D15-9BFC-27D0DBCD135B__198F2A3B-5795-4D15-9BFC-27D0DBCD135B_20"/>     </g>   </g></g><g class="children" style="overflow:hidden"/><g class="edge"/></g><g class="controls"><g class="dockers"/><g class="magnets" transform="translate(405, 135)"><g pointer-events="all" display="none" transform="translate(-7, 12)"><circle cx="8" cy="8" r="4" stroke="none" fill="red" fill-opacity="0.3"/></g><g pointer-events="all" display="none" transform="translate(-7, 32)"><circle cx="8" cy="8" r="4" stroke="none" fill="red" fill-opacity="0.3"/></g><g pointer-events="all" display="none" transform="translate(-7, 52)"><circle cx="8" cy="8" r="4" stroke="none" fill="red" fill-opacity="0.3"/></g><g pointer-events="all" display="none" transform="translate(18.25, 71)"><circle cx="8" cy="8" r="4" stroke="none" fill="red" fill-opacity="0.3"/></g><g pointer-events="all" display="none" transform="translate(44.5, 71)"><circle cx="8" cy="8" r="4" stroke="none" fill="red" fill-opacity="0.3"/></g><g pointer-events="all" display="none" transform="translate(70.75, 71)"><circle cx="8" cy="8" r="4" stroke="none" fill="red" fill-opacity="0.3"/></g><g pointer-events="all" display="none" transform="translate(96, 12)"><circle cx="8" cy="8" r="4" stroke="none" fill="red" fill-opacity="0.3"/></g><g pointer-events="all" display="none" transform="translate(96, 32)"><circle cx="8" cy="8" r="4" stroke="none" fill="red" fill-opacity="0.3"/></g><g pointer-events="all" display="none" transform="translate(96, 52)"><circle cx="8" cy="8" r="4" stroke="none" fill="red" fill-opacity="0.3"/></g><g pointer-events="all" display="none" transform="translate(18.25, -7)"><circle cx="8" cy="8" r="4" stroke="none" fill="red" fill-opacity="0.3"/></g><g pointer-events="all" display="none" transform="translate(44.5, -7)"><circle cx="8" cy="8" r="4" stroke="none" fill="red" fill-opacity="0.3"/></g><g pointer-events="all" display="none" transform="translate(70.75, -7)"><circle cx="8" cy="8" r="4" stroke="none" fill="red" fill-opacity="0.3"/></g><g pointer-events="all" display="none" transform="translate(44.5, 32)"><circle cx="8" cy="8" r="4" stroke="none" fill="red" fill-opacity="0.3"/></g></g></g></g><g id="_A842685A-A840-4A17-A9E3-93B075DE4FF3" bpmn2nodeid="_C7AC269D-8A8D-4B34-8901-369E182B404F"><g class="stencils" transform="translate(589, 135)"><g class="me"><g pointer-events="fill" oryx:minimumSize="50 40" id="_A842685A-A840-4A17-A9E3-93B075DE4FF3">   	<defs id="_A842685A-A840-4A17-A9E3-93B075DE4FF3__A842685A-A840-4A17-A9E3-93B075DE4FF3_17"> 		<radialGradient id="_A842685A-A840-4A17-A9E3-93B075DE4FF3background" cx="10%" cy="10%" r="100%" fx="10%" fy="10%"> 			<stop offset="0%" stop-color="#ffffff" stop-opacity="1" id="_A842685A-A840-4A17-A9E3-93B075DE4FF3__A842685A-A840-4A17-A9E3-93B075DE4FF3_18"/> 			<stop id="_A842685A-A840-4A17-A9E3-93B075DE4FF3fill_el" offset="100%" stop-color="#fafad2" stop-opacity="1"/> 		</radialGradient> 		<radialGradient id="_A842685A-A840-4A17-A9E3-93B075DE4FF3borderbackground" cx="10%" cy="10%" r="100%" fx="10%" fy="10%"> 			<stop offset="0%" stop-color="#ffffff" stop-opacity="1" id="_A842685A-A840-4A17-A9E3-93B075DE4FF3__A842685A-A840-4A17-A9E3-93B075DE4FF3_19"/> 			<stop id="_A842685A-A840-4A17-A9E3-93B075DE4FF3fill_border" offset="100%" stop-color="#000000" stop-opacity="1" stroke="#000000"/> 		</radialGradient> 	</defs> 	 	<rect id="_A842685A-A840-4A17-A9E3-93B075DE4FF3text_frame" oryx:anchors="bottom top right left" x="1" y="1" width="94" height="79" rx="10" ry="10" stroke="none" stroke-width="0" fill="none"/> 	<rect id="_A842685A-A840-4A17-A9E3-93B075DE4FF3bg_frame" oryx:resize="vertical horizontal" x="0" y="0" width="100" height="80" rx="10" ry="10" stroke="#000000" stroke-width="1" fill="url(#_A842685A-A840-4A17-A9E3-93B075DE4FF3background) #ffffcc"/> 		<text font-size="12" id="_A842685A-A840-4A17-A9E3-93B075DE4FF3text_name" x="50" y="40" oryx:align="middle center" oryx:fittoelem="text_frame" stroke="black" text-anchor="middle" stroke-width="0pt" letter-spacing="-0.01px" fill="#000000" transform="rotate(0 50 40)" visibility="inherit" oryx:fontSize="12"><tspan x="50" y="40" dy="5">Init</tspan></text>     <g id="_A842685A-A840-4A17-A9E3-93B075DE4FF3manualTask" transform="scale(0.7,0.7) translate(8,8)" display="none">     	<path oryx:anchors="top left" id="_A842685A-A840-4A17-A9E3-93B075DE4FF3frame" style="opacity:1;fill:none;fill-opacity:1;stroke-width:1" d="M0.5,3.751l4.083-3.25c0,0,11.166,0.083,12.083,0.083s-2.417,2.917-1.5,2.917     s11.667,0,12.584,0c1.166,1.708-0.168,3.167-0.834,3.667s0.875,1.917-1,4.417c-0.75,0.25,0.75,1.875-1.333,3.333     c-1.167,0.583,0.583,1.542-1.25,2.833c-1.167,0-20.833,0.083-20.833,0.083l-2-1.333V3.751z" stroke="#000000"/> 		<path id="_A842685A-A840-4A17-A9E3-93B075DE4FF3frame2" oryx:anchors="top left" style="opacity:1;fill:none;stroke-width:2" d="M 13.5 7 L 27 7" stroke="#000000"/> 		<path id="_A842685A-A840-4A17-A9E3-93B075DE4FF3frame3" oryx:anchors="top left" style="opacity:1;fill:none;stroke-width:2" d="M 13.5 11 L 26 11" stroke="#000000"/> 		<path id="_A842685A-A840-4A17-A9E3-93B075DE4FF3frame4" oryx:anchors="top left" style="opacity:1;fill:none;stroke-width:1.5" d="M 14 14.5 L 25 14.5" stroke="#000000"/> 		<path id="_A842685A-A840-4A17-A9E3-93B075DE4FF3frame5" oryx:anchors="top left" style="opacity:1;fill:none;stroke-width:1.5" d="M 8.2 3.1 L 15 3.1" stroke="#000000"/> 	</g> 	 	<g id="_A842685A-A840-4A17-A9E3-93B075DE4FF3businessRuleTask" transform="scale(0.7,0.7) translate(8,8)" display="inherit"> 		<rect id="_A842685A-A840-4A17-A9E3-93B075DE4FF3frame6" oryx:anchors="top left" x="0" y="0" width="22" height="4" style="opacity:1;fill:#B3B1B3;fill-opacity:1;" stroke="#000000"/> 		<rect id="_A842685A-A840-4A17-A9E3-93B075DE4FF3frame7" oryx:anchors="top left" x="0" y="4" style="opacity:1;fill:none;" width="22" height="12" stroke="#000000"/> 		<path id="_A842685A-A840-4A17-A9E3-93B075DE4FF3frame8" oryx:anchors="top left" style="opacity:1;fill:none;" d="M 0 10 L 22 10" stroke="#000000"/> 		<path id="_A842685A-A840-4A17-A9E3-93B075DE4FF3frame9" oryx:anchors="top left" style="opacity:1; fill:none;" d="M 7 4 L 7 16" stroke="#000000"/> 	</g> 	 	<g id="_A842685A-A840-4A17-A9E3-93B075DE4FF3scriptTask" transform="scale(0.7,0.7) translate(8,8)" display="none"> 		<path oryx:anchors="top left" id="_A842685A-A840-4A17-A9E3-93B075DE4FF3frame10" style="opacity:1;fill:none;" stroke="#000000" d="M6.402,0.5h14.5c0,0-5.833,2.833-5.833,5.583s4.417,6,4.417,9.167    s-4.167,5.083-4.167,5.083H0.235c0,0,5-2.667,5-5s-4.583-6.75-4.583-9.25S6.402,0.5,6.402,0.5z"/> 		<path oryx:anchors="top left" id="_A842685A-A840-4A17-A9E3-93B075DE4FF3frame11" style="opacity:1;fill:none;stroke-width:1.5" d="M 3.5 4.5 L 13.5 4.5" stroke="#000000"/> 		<path oryx:anchors="top left" id="_A842685A-A840-4A17-A9E3-93B075DE4FF3frame12" style="opacity:1;fill:none;stroke-width:1.5" d="M 3.8 8.5 L 13.8 8.5" stroke="#000000"/> 		<path oryx:anchors="top left" id="_A842685A-A840-4A17-A9E3-93B075DE4FF3frame13" style="opacity:1;fill:none;stroke-width:1.5" d="M 6.3 12.5 L 16.3 12.5" stroke="#000000"/> 		<path oryx:anchors="top left" id="_A842685A-A840-4A17-A9E3-93B075DE4FF3frame14" style="opacity:1;fill:none;stroke-width:1.5" d="M 6.5 16.5 L 16.5 16.5" stroke="#000000"/> 	</g> 	 	<g id="_A842685A-A840-4A17-A9E3-93B075DE4FF3userTask" transform="scale(0.7,0.7) translate(8,8)" display="none"> 		<path id="_A842685A-A840-4A17-A9E3-93B075DE4FF3frame15" oryx:anchors="top left" style="opacity:1;fill:#F4F6F7" stroke="#000000" d="M0.585,24.167h24.083v-7.833c0,0-2.333-3.917-7.083-5.167h-9.25    c-4.417,1.333-7.833,5.75-7.833,5.75L0.585,24.167z"/> 		<path id="_A842685A-A840-4A17-A9E3-93B075DE4FF3frame16" oryx:anchors="top left" style="opacity:1;fill:none" d="M 6 20 L 6 24" stroke="#000000"/> 		<path id="_A842685A-A840-4A17-A9E3-93B075DE4FF3frame17" oryx:anchors="top left" style="opacity:1;fill:none" d="M 20 20 L 20 24" stroke="#000000"/> 		<circle id="_A842685A-A840-4A17-A9E3-93B075DE4FF3frame18" oryx:anchors="top left" fill="black" cx="13.002" cy="5.916" r="5.417" stroke="#000000"/> 		<path id="_A842685A-A840-4A17-A9E3-93B075DE4FF3frame19" oryx:anchors="top left" style="opacity:1;fill:#F0EFF0;" stroke="#000000" d="M8.043,7.083c0,0,2.814-2.426,5.376-1.807s4.624-0.693,4.624-0.693    c0.25,1.688,0.042,3.75-1.458,5.584c0,0,1.083,0.75,1.083,1.5s0.125,1.875-1,3s-5.5,1.25-6.75,0S8.668,12.834,8.668,12    s0.583-1.25,1.25-1.917C8.835,9.5,7.419,7.708,8.043,7.083z"/> 	</g> 	 	<g id="_A842685A-A840-4A17-A9E3-93B075DE4FF3serviceTask" transform="scale(0.7,0.7) translate(8,8)" display="none"> 		<polygon oryx:anchors="top left" id="_A842685A-A840-4A17-A9E3-93B075DE4FF3frame20" style="opacity:1;fill:#ffffff" stroke="#000000" points="15.392,5.064 17.954,2.502 20.347,4.895 17.786,7.455     18.729,9.732 22.353,9.732 22.353,13.115 18.731,13.115 17.788,15.392 20.351,17.955 17.958,20.347 15.397,17.786 13.12,18.729     13.12,22.353 9.737,22.353 9.737,18.731 7.46,17.788 4.897,20.35 2.506,17.958 5.066,15.397 4.124,13.12 0.5,13.12 0.5,9.737     4.121,9.737 5.065,7.461 2.503,4.898 4.895,2.506 7.455,5.066 9.732,4.125 9.732,0.5 13.116,0.5 13.116,4.121 "/> 		<circle oryx:anchors="top left" id="_A842685A-A840-4A17-A9E3-93B075DE4FF3frame21" style="opacity:1;fill:none" stroke="#000000" cx="11.427" cy="11.426" r="3.714"/> 		<polygon oryx:anchors="top left" id="_A842685A-A840-4A17-A9E3-93B075DE4FF3frame22" style="opacity:1;fill:#ffffff" stroke="#000000" points="21.392,11.064 23.954,8.502 26.347,10.895 23.786,13.455     24.729,15.732 28.353,15.732 28.353,19.115 24.731,19.115 23.788,21.392 26.351,23.955 23.958,26.347 21.397,23.786 19.12,24.729     19.12,28.353 15.737,28.353 15.737,24.731 13.46,23.788 10.897,26.35 8.506,23.958 11.066,21.397 10.124,19.12 6.5,19.12     6.5,15.737 10.121,15.737 11.065,13.461 8.503,10.898 10.895,8.506 13.455,11.066 15.732,10.125 15.732,6.5 19.116,6.5     19.116,10.121 "/> 		<circle oryx:anchors="top left" id="_A842685A-A840-4A17-A9E3-93B075DE4FF3frame23" style="opacity:1;fill:none;" stroke="#000000" cx="17.427" cy="17.426" r="3.714"/> 	</g> 	 	<g id="_A842685A-A840-4A17-A9E3-93B075DE4FF3sendTask" display="none"> 		<path id="_A842685A-A840-4A17-A9E3-93B075DE4FF3stframe24" oryx:anchors="left top" stroke="#FFFFFF" fill="black" stroke-width="1" d="M8,11 L8,21 L24,21 L24,11 L16,17z"/> 		<path id="_A842685A-A840-4A17-A9E3-93B075DE4FF3stframe25" oryx:anchors="left top" stroke="#FFFFFF" fill="black" stroke-width="1" d="M7,10 L16,17 L25 10z"/> 	</g> 	 	<g id="_A842685A-A840-4A17-A9E3-93B075DE4FF3receiveTask" display="none"> 		<path id="_A842685A-A840-4A17-A9E3-93B075DE4FF3frame26" oryx:anchors="left top" stroke="#000000" fill="none" stroke-width="1" d="M8,11 L8,21 L24,21 L24,11z M8,11 L16,17 L24,11"/> 	</g> 	 	<g id="_A842685A-A840-4A17-A9E3-93B075DE4FF3none" display="none"/>  	<g id="_A842685A-A840-4A17-A9E3-93B075DE4FF3sequential" display="none">         <path oryx:anchors="bottom" fill="none" stroke="#000000" stroke-width="2" d="M46,76h10M46,72h10 M46,68h10" id="_A842685A-A840-4A17-A9E3-93B075DE4FF3__A842685A-A840-4A17-A9E3-93B075DE4FF3_20"/>     </g>   </g></g><g class="children" style="overflow:hidden"/><g class="edge"/></g><g class="controls"><g class="dockers"/><g class="magnets" transform="translate(589, 135)"><g pointer-events="all" display="none" transform="translate(-7, 12)"><circle cx="8" cy="8" r="4" stroke="none" fill="red" fill-opacity="0.3"/></g><g pointer-events="all" display="none" transform="translate(-7, 32)"><circle cx="8" cy="8" r="4" stroke="none" fill="red" fill-opacity="0.3"/></g><g pointer-events="all" display="none" transform="translate(-7, 52)"><circle cx="8" cy="8" r="4" stroke="none" fill="red" fill-opacity="0.3"/></g><g pointer-events="all" display="none" transform="translate(17, 71)"><circle cx="8" cy="8" r="4" stroke="none" fill="red" fill-opacity="0.3"/></g><g pointer-events="all" display="none" transform="translate(42, 71)"><circle cx="8" cy="8" r="4" stroke="none" fill="red" fill-opacity="0.3"/></g><g pointer-events="all" display="none" transform="translate(67, 71)"><circle cx="8" cy="8" r="4" stroke="none" fill="red" fill-opacity="0.3"/></g><g pointer-events="all" display="none" transform="translate(91, 12)"><circle cx="8" cy="8" r="4" stroke="none" fill="red" fill-opacity="0.3"/></g><g pointer-events="all" display="none" transform="translate(91, 32)"><circle cx="8" cy="8" r="4" stroke="none" fill="red" fill-opacity="0.3"/></g><g pointer-events="all" display="none" transform="translate(91, 52)"><circle cx="8" cy="8" r="4" stroke="none" fill="red" fill-opacity="0.3"/></g><g pointer-events="all" display="none" transform="translate(17, -7)"><circle cx="8" cy="8" r="4" stroke="none" fill="red" fill-opacity="0.3"/></g><g pointer-events="all" display="none" transform="translate(42, -7)"><circle cx="8" cy="8" r="4" stroke="none" fill="red" fill-opacity="0.3"/></g><g pointer-events="all" display="none" transform="translate(67, -7)"><circle cx="8" cy="8" r="4" stroke="none" fill="red" fill-opacity="0.3"/></g><g pointer-events="all" display="none" transform="translate(42, 32)"><circle cx="8" cy="8" r="4" stroke="none" fill="red" fill-opacity="0.3"/></g></g></g></g></g><g class="edge"><g id="_6BA1D2C3-942A-4DB4-B63F-4D35473FC7C3" bpmn2nodeid="_DC875EA7-E9C8-4501-9DEB-DE53EDD71C30"><g class="stencils"><g class="me"><g pointer-events="painted" bpmn2nodeid="_B0960CFD-D000-4057-94C6-B86CB3698BC6"><path id="_6BA1D2C3-942A-4DB4-B63F-4D35473FC7C3_1" d="M120.78121197485692 175.13762684861794L209.48441302514308 175.91120127638206 " stroke="#000000" fill="none" stroke-width="2" stroke-linecap="round" stroke-linejoin="round" marker-start="url(#_6BA1D2C3-942A-4DB4-B63F-4D35473FC7C3start)" marker-end="url(#_6BA1D2C3-942A-4DB4-B63F-4D35473FC7C3end)"/></g><text id="_6BA1D2C3-942A-4DB4-B63F-4D35473FC7C3text_name" font-size="12" x="134.78121197485692" y="161.13762684861794" oryx:edgePosition="startTop" stroke-width="0pt" letter-spacing="-0.01px" fill="#000000" text-anchor="start" transform="rotate(0.49965982886368465 120.78121197485692 175.13762684861794)" visibility="inherit" oryx:fontSize="12"/></g><g class="children" style="overflow:hidden"/><g class="edge"/></g><g class="controls"><g class="dockers"/><g class="magnets"/></g></g><g id="_014050B7-EAFC-448B-985D-8AFEDBBEEAF6" bpmn2nodeid="_9410E428-080A-4974-B0D4-AC55C7B62AAA"><g class="stencils"><g class="me"><g pointer-events="painted" bpmn2nodeid="_4FFEBB34-401A-46D9-8A06-F5269E38688E"><path id="_014050B7-EAFC-448B-985D-8AFEDBBEEAF6_1" d="M344.2773092216666 175.94090878763157L404.3242532783334 175.44190371236843 " stroke="#000000" fill="none" stroke-width="2" stroke-linecap="round" stroke-linejoin="round" marker-start="url(#_014050B7-EAFC-448B-985D-8AFEDBBEEAF6start)" marker-end="url(#_014050B7-EAFC-448B-985D-8AFEDBBEEAF6end)"/></g><text id="_014050B7-EAFC-448B-985D-8AFEDBBEEAF6text_name" font-size="12" x="358.2773092216666" y="161.94090878763157" oryx:edgePosition="startTop" stroke-width="0pt" letter-spacing="-0.01px" fill="#000000" text-anchor="start" transform="rotate(359.52386874835815 344.2773092216666 175.94090878763157)" visibility="inherit" oryx:fontSize="12"/></g><g class="children" style="overflow:hidden"/><g class="edge"/></g><g class="controls"><g class="dockers"/><g class="magnets"/></g></g><g id="_7AC53F5E-C82B-4E25-A03B-06918A715A9F" bpmn2nodeid="_26CF26AE-390D-4724-B0A4-AEA47D53577A"><g class="stencils"><g class="me"><g pointer-events="painted" bpmn2nodeid="_26CF26AE-390D-4724-B0A4-AEA47D53577A"><path id="_7AC53F5E-C82B-4E25-A03B-06918A715A9F_1" d="M510.96484375 175L588.37109375 175 " stroke="#000000" fill="none" stroke-width="2" stroke-linecap="round" stroke-linejoin="round" marker-start="url(#_7AC53F5E-C82B-4E25-A03B-06918A715A9Fstart)" marker-end="url(#_7AC53F5E-C82B-4E25-A03B-06918A715A9Fend)"/></g><text id="_7AC53F5E-C82B-4E25-A03B-06918A715A9Ftext_name" font-size="12" x="524.96484375" y="161" oryx:edgePosition="startTop" stroke-width="0pt" letter-spacing="-0.01px" fill="#000000" text-anchor="start" transform="rotate(360 510.96484375 175)" visibility="inherit" oryx:fontSize="12"/></g><g class="children" style="overflow:hidden"/><g class="edge"/></g><g class="controls"><g class="dockers"/><g class="magnets"/></g></g></g><text id="_36D9CE36-7E3D-4DED-B046-C422B88732F7" style="stroke-width:1;fill:rgb(177,194,214);font-family:arial;font-weight:bold" font-size="12" onclick="ORYX.Plugins.CanvasTitle.openTextualAnalysis()" onmouseover="ORYX.Plugins.CanvasTitle.addToolTip('_36D9CE36-7E3D-4DED-B046-C422B88732F7')" transform="translate(10, 20)">P1111 v.1.0 (src.P1111)</text><text id="_36D9CE36-7E3D-4DED-B046-C422B88732F7" style="stroke-width:1;fill:rgb(177,194,214);font-family:arial;font-weight:bold" font-size="12" onclick="ORYX.Plugins.CanvasTitle.openTextualAnalysis()" onmouseover="ORYX.Plugins.CanvasTitle.addToolTip('_36D9CE36-7E3D-4DED-B046-C422B88732F7')" transform="translate(10, 20)">P1111 v.1.0 (src.P1111)</text></g></g></svg>