<svg xmlns="http://www.w3.org/2000/svg" xmlns:oryx="http://oryx-editor.org" id="_4095948C-5686-48CF-9D7D-1B16311CBE40" width="803.0000610351562" height="376.109375" xmlns:xlink="http://www.w3.org/1999/xlink" xmlns:svg="http://www.w3.org/2000/svg"><defs><marker id="_F29E4FE5-58B2-4635-B71B-E50ED0810360start" refX="1" refY="5" markerUnits="userSpaceOnUse" markerWidth="17" markerHeight="11" orient="auto" fill="#000000" stroke="#000000"> 	  		<path id="_F29E4FE5-58B2-4635-B71B-E50ED0810360conditional" d="M 0 5 L 8 0 L 16 5 L 8 10 L 0 5" fill="white" stroke="#000000" stroke-width="1" display="none"/> 			<path id="_F29E4FE5-58B2-4635-B71B-E50ED0810360default" d="M 5 0 L 11 10" fill="white" stroke="#000000" stroke-width="1" display="none"/> 	  	</marker><marker id="_F29E4FE5-58B2-4635-B71B-E50ED0810360end" refX="15" refY="6" markerUnits="userSpaceOnUse" markerWidth="15" markerHeight="12" orient="auto" fill="#000000" stroke="#000000"> 	  		<path id="_F29E4FE5-58B2-4635-B71B-E50ED0810360frame2" d="M 0 1 L 15 6 L 0 11z" fill="#000000" stroke="#000000" stroke-linejoin="round" stroke-width="2"/> 	  	</marker><marker id="_D324926A-1DB1-47CA-A36B-7C7F62969AD6start" refX="1" refY="5" markerUnits="userSpaceOnUse" markerWidth="17" markerHeight="11" orient="auto" fill="#000000" stroke="#000000"> 	  		<path id="_D324926A-1DB1-47CA-A36B-7C7F62969AD6conditional" d="M 0 5 L 8 0 L 16 5 L 8 10 L 0 5" fill="white" stroke="#000000" stroke-width="1" display="none"/> 			<path id="_D324926A-1DB1-47CA-A36B-7C7F62969AD6default" d="M 5 0 L 11 10" fill="white" stroke="#000000" stroke-width="1" display="none"/> 	  	</marker><marker id="_D324926A-1DB1-47CA-A36B-7C7F62969AD6end" refX="15" refY="6" markerUnits="userSpaceOnUse" markerWidth="15" markerHeight="12" orient="auto" fill="#000000" stroke="#000000"> 	  		<path id="_D324926A-1DB1-47CA-A36B-7C7F62969AD6frame2" d="M 0 1 L 15 6 L 0 11z" fill="#000000" stroke="#000000" stroke-linejoin="round" stroke-width="2"/> 	  	</marker><marker id="_EDE18EDE-88FF-4D03-9B75-FE5050B3D5A2start" refX="1" refY="5" markerUnits="userSpaceOnUse" markerWidth="17" markerHeight="11" orient="auto" fill="#000000" stroke="#000000"> 	  		<path id="_EDE18EDE-88FF-4D03-9B75-FE5050B3D5A2conditional" d="M 0 5 L 8 0 L 16 5 L 8 10 L 0 5" fill="white" stroke="#000000" stroke-width="1" display="none"/> 			<path id="_EDE18EDE-88FF-4D03-9B75-FE5050B3D5A2default" d="M 5 0 L 11 10" fill="white" stroke="#000000" stroke-width="1" display="none"/> 	  	</marker><marker id="_EDE18EDE-88FF-4D03-9B75-FE5050B3D5A2end" refX="15" refY="6" markerUnits="userSpaceOnUse" markerWidth="15" markerHeight="12" orient="auto" fill="#000000" stroke="#000000"> 	  		<path id="_EDE18EDE-88FF-4D03-9B75-FE5050B3D5A2frame2" d="M 0 1 L 15 6 L 0 11z" fill="#000000" stroke="#000000" stroke-linejoin="round" stroke-width="2"/> 	  	</marker><marker id="_A0A8D81C-AA59-4673-B0EB-B9FE5CC92EFEstart" refX="1" refY="5" markerUnits="userSpaceOnUse" markerWidth="17" markerHeight="11" orient="auto" fill="#000000" stroke="#000000"> 	  		<path id="_A0A8D81C-AA59-4673-B0EB-B9FE5CC92EFEconditional" d="M 0 5 L 8 0 L 16 5 L 8 10 L 0 5" fill="white" stroke="#000000" stroke-width="1" display="none"/> 			<path id="_A0A8D81C-AA59-4673-B0EB-B9FE5CC92EFEdefault" d="M 5 0 L 11 10" fill="white" stroke="#000000" stroke-width="1" display="none"/> 	  	</marker><marker id="_A0A8D81C-AA59-4673-B0EB-B9FE5CC92EFEend" refX="15" refY="6" markerUnits="userSpaceOnUse" markerWidth="15" markerHeight="12" orient="auto" fill="#000000" stroke="#000000"> 	  		<path id="_A0A8D81C-AA59-4673-B0EB-B9FE5CC92EFEframe2" d="M 0 1 L 15 6 L 0 11z" fill="#000000" stroke="#000000" stroke-linejoin="round" stroke-width="2"/> 	  	</marker></defs><g stroke="none" font-family="Verdana, sans-serif" font-size-adjust="none" font-style="normal" font-variant="normal" font-weight="normal" line-heigth="normal" font-size="12"><g class="stencils" transform="translate(15, 16.109375)"><g class="me"/><g class="children"><g id="_D1CEE715-2F98-418C-9C9C-083AD16ED7BA" bpmn2nodeid="processStartEvent"><g class="stencils" transform="translate(45, 285)"><g class="me"><g pointer-events="fill" id="_D1CEE715-2F98-418C-9C9C-083AD16ED7BA">        <defs id="_D1CEE715-2F98-418C-9C9C-083AD16ED7BA__D1CEE715-2F98-418C-9C9C-083AD16ED7BA_5"> 		<radialGradient id="_D1CEE715-2F98-418C-9C9C-083AD16ED7BAbackground" cx="10%" cy="10%" r="100%" fx="10%" fy="10%"> 			<stop offset="0%" stop-color="#ffffff" stop-opacity="1" id="_D1CEE715-2F98-418C-9C9C-083AD16ED7BA__D1CEE715-2F98-418C-9C9C-083AD16ED7BA_6"/> 			<stop id="_D1CEE715-2F98-418C-9C9C-083AD16ED7BAfill_el" offset="100%" stop-color="#9acd32" stop-opacity="1"/> 		</radialGradient> 	</defs> 	     <circle id="_D1CEE715-2F98-418C-9C9C-083AD16ED7BAbg_frame" cx="15" cy="15" r="15" stroke="#000000" fill="url(#_D1CEE715-2F98-418C-9C9C-083AD16ED7BAbackground) white" stroke-width="1" style="stroke-dasharray: 5.5, 3"/>      <circle id="_D1CEE715-2F98-418C-9C9C-083AD16ED7BAframe" cx="15" cy="15" r="15" stroke="#000000" fill="none" stroke-width="1" display="inherit"/>  	<text font-size="11" id="_D1CEE715-2F98-418C-9C9C-083AD16ED7BAtext_name" x="15" y="32" oryx:align="top center" stroke="black" stroke-width="0pt" letter-spacing="-0.01px" fill="#000000" text-anchor="middle" transform="rotate(0 15 32)" visibility="inherit" oryx:fontSize="11"/>   </g></g><g class="children" style="overflow:hidden"/><g class="edge"/></g><g class="controls"><g class="dockers"/><g class="magnets" transform="translate(45, 285)"><g pointer-events="all" display="none" transform="translate(7, 7)"><circle cx="8" cy="8" r="4" stroke="none" fill="red" fill-opacity="0.3"/></g></g></g></g><g id="_31D42083-25E6-42BB-A672-7D472694E6DD" bpmn2nodeid="_2D2647F3-2BF3-4793-A6CC-15DD723CDA5B"><g class="stencils" transform="translate(135.00000000000006, 255.00000000000003)"><g class="me"><g pointer-events="fill" oryx:minimumSize="50 40" id="_31D42083-25E6-42BB-A672-7D472694E6DD">   	<defs id="_31D42083-25E6-42BB-A672-7D472694E6DD__31D42083-25E6-42BB-A672-7D472694E6DD_17"> 		<radialGradient id="_31D42083-25E6-42BB-A672-7D472694E6DDbackground" cx="10%" cy="10%" r="100%" fx="10%" fy="10%"> 			<stop offset="0%" stop-color="#ffffff" stop-opacity="1" id="_31D42083-25E6-42BB-A672-7D472694E6DD__31D42083-25E6-42BB-A672-7D472694E6DD_18"/> 			<stop id="_31D42083-25E6-42BB-A672-7D472694E6DDfill_el" offset="100%" stop-color="#fafad2" stop-opacity="1"/> 		</radialGradient> 		<radialGradient id="_31D42083-25E6-42BB-A672-7D472694E6DDborderbackground" cx="10%" cy="10%" r="100%" fx="10%" fy="10%"> 			<stop offset="0%" stop-color="#ffffff" stop-opacity="1" id="_31D42083-25E6-42BB-A672-7D472694E6DD__31D42083-25E6-42BB-A672-7D472694E6DD_19"/> 			<stop id="_31D42083-25E6-42BB-A672-7D472694E6DDfill_border" offset="100%" stop-color="#000000" stop-opacity="1" stroke="#000000"/> 		</radialGradient> 	</defs> 	 	<rect id="_31D42083-25E6-42BB-A672-7D472694E6DDtext_frame" oryx:anchors="bottom top right left" x="1" y="1" width="94" height="79" rx="10" ry="10" stroke="none" stroke-width="0" fill="none"/> 	<rect id="_31D42083-25E6-42BB-A672-7D472694E6DDbg_frame" oryx:resize="vertical horizontal" x="0" y="0" width="100" height="80" rx="10" ry="10" stroke="#000000" stroke-width="1" fill="url(#_31D42083-25E6-42BB-A672-7D472694E6DDbackground) #ffffcc"/> 		<text font-size="12" id="_31D42083-25E6-42BB-A672-7D472694E6DDtext_name" x="50" y="40" oryx:align="middle center" oryx:fittoelem="text_frame" stroke="black" text-anchor="middle" stroke-width="0pt" letter-spacing="-0.01px" fill="#000000" transform="rotate(0 50 40)" visibility="inherit" oryx:fontSize="12"><tspan x="50" y="40" dy="5" id="ext-gen678">Promotion</tspan></text>     <g id="_31D42083-25E6-42BB-A672-7D472694E6DDmanualTask" transform="scale(0.7,0.7) translate(8,8)" display="none">     	<path oryx:anchors="top left" id="_31D42083-25E6-42BB-A672-7D472694E6DDframe" style="opacity:1;fill:none;fill-opacity:1;stroke-width:1" d="M0.5,3.751l4.083-3.25c0,0,11.166,0.083,12.083,0.083s-2.417,2.917-1.5,2.917     s11.667,0,12.584,0c1.166,1.708-0.168,3.167-0.834,3.667s0.875,1.917-1,4.417c-0.75,0.25,0.75,1.875-1.333,3.333     c-1.167,0.583,0.583,1.542-1.25,2.833c-1.167,0-20.833,0.083-20.833,0.083l-2-1.333V3.751z" stroke="#000000"/> 		<path id="_31D42083-25E6-42BB-A672-7D472694E6DDframe2" oryx:anchors="top left" style="opacity:1;fill:none;stroke-width:2" d="M 13.5 7 L 27 7" stroke="#000000"/> 		<path id="_31D42083-25E6-42BB-A672-7D472694E6DDframe3" oryx:anchors="top left" style="opacity:1;fill:none;stroke-width:2" d="M 13.5 11 L 26 11" stroke="#000000"/> 		<path id="_31D42083-25E6-42BB-A672-7D472694E6DDframe4" oryx:anchors="top left" style="opacity:1;fill:none;stroke-width:1.5" d="M 14 14.5 L 25 14.5" stroke="#000000"/> 		<path id="_31D42083-25E6-42BB-A672-7D472694E6DDframe5" oryx:anchors="top left" style="opacity:1;fill:none;stroke-width:1.5" d="M 8.2 3.1 L 15 3.1" stroke="#000000"/> 	</g> 	 	<g id="_31D42083-25E6-42BB-A672-7D472694E6DDbusinessRuleTask" transform="scale(0.7,0.7) translate(8,8)" display="inherit"> 		<rect id="_31D42083-25E6-42BB-A672-7D472694E6DDframe6" oryx:anchors="top left" x="0" y="0" width="22" height="4" style="opacity:1;fill:#B3B1B3;fill-opacity:1;" stroke="#000000"/> 		<rect id="_31D42083-25E6-42BB-A672-7D472694E6DDframe7" oryx:anchors="top left" x="0" y="4" style="opacity:1;fill:none;" width="22" height="12" stroke="#000000"/> 		<path id="_31D42083-25E6-42BB-A672-7D472694E6DDframe8" oryx:anchors="top left" style="opacity:1;fill:none;" d="M 0 10 L 22 10" stroke="#000000"/> 		<path id="_31D42083-25E6-42BB-A672-7D472694E6DDframe9" oryx:anchors="top left" style="opacity:1; fill:none;" d="M 7 4 L 7 16" stroke="#000000"/> 	</g> 	 	<g id="_31D42083-25E6-42BB-A672-7D472694E6DDscriptTask" transform="scale(0.7,0.7) translate(8,8)" display="none"> 		<path oryx:anchors="top left" id="_31D42083-25E6-42BB-A672-7D472694E6DDframe10" style="opacity:1;fill:none;" stroke="#000000" d="M6.402,0.5h14.5c0,0-5.833,2.833-5.833,5.583s4.417,6,4.417,9.167    s-4.167,5.083-4.167,5.083H0.235c0,0,5-2.667,5-5s-4.583-6.75-4.583-9.25S6.402,0.5,6.402,0.5z"/> 		<path oryx:anchors="top left" id="_31D42083-25E6-42BB-A672-7D472694E6DDframe11" style="opacity:1;fill:none;stroke-width:1.5" d="M 3.5 4.5 L 13.5 4.5" stroke="#000000"/> 		<path oryx:anchors="top left" id="_31D42083-25E6-42BB-A672-7D472694E6DDframe12" style="opacity:1;fill:none;stroke-width:1.5" d="M 3.8 8.5 L 13.8 8.5" stroke="#000000"/> 		<path oryx:anchors="top left" id="_31D42083-25E6-42BB-A672-7D472694E6DDframe13" style="opacity:1;fill:none;stroke-width:1.5" d="M 6.3 12.5 L 16.3 12.5" stroke="#000000"/> 		<path oryx:anchors="top left" id="_31D42083-25E6-42BB-A672-7D472694E6DDframe14" style="opacity:1;fill:none;stroke-width:1.5" d="M 6.5 16.5 L 16.5 16.5" stroke="#000000"/> 	</g> 	 	<g id="_31D42083-25E6-42BB-A672-7D472694E6DDuserTask" transform="scale(0.7,0.7) translate(8,8)" display="none"> 		<path id="_31D42083-25E6-42BB-A672-7D472694E6DDframe15" oryx:anchors="top left" style="opacity:1;fill:#F4F6F7" stroke="#000000" d="M0.585,24.167h24.083v-7.833c0,0-2.333-3.917-7.083-5.167h-9.25    c-4.417,1.333-7.833,5.75-7.833,5.75L0.585,24.167z"/> 		<path id="_31D42083-25E6-42BB-A672-7D472694E6DDframe16" oryx:anchors="top left" style="opacity:1;fill:none" d="M 6 20 L 6 24" stroke="#000000"/> 		<path id="_31D42083-25E6-42BB-A672-7D472694E6DDframe17" oryx:anchors="top left" style="opacity:1;fill:none" d="M 20 20 L 20 24" stroke="#000000"/> 		<circle id="_31D42083-25E6-42BB-A672-7D472694E6DDframe18" oryx:anchors="top left" fill="black" cx="13.002" cy="5.916" r="5.417" stroke="#000000"/> 		<path id="_31D42083-25E6-42BB-A672-7D472694E6DDframe19" oryx:anchors="top left" style="opacity:1;fill:#F0EFF0;" stroke="#000000" d="M8.043,7.083c0,0,2.814-2.426,5.376-1.807s4.624-0.693,4.624-0.693    c0.25,1.688,0.042,3.75-1.458,5.584c0,0,1.083,0.75,1.083,1.5s0.125,1.875-1,3s-5.5,1.25-6.75,0S8.668,12.834,8.668,12    s0.583-1.25,1.25-1.917C8.835,9.5,7.419,7.708,8.043,7.083z"/> 	</g> 	 	<g id="_31D42083-25E6-42BB-A672-7D472694E6DDserviceTask" transform="scale(0.7,0.7) translate(8,8)" display="none"> 		<polygon oryx:anchors="top left" id="_31D42083-25E6-42BB-A672-7D472694E6DDframe20" style="opacity:1;fill:#ffffff" stroke="#000000" points="15.392,5.064 17.954,2.502 20.347,4.895 17.786,7.455     18.729,9.732 22.353,9.732 22.353,13.115 18.731,13.115 17.788,15.392 20.351,17.955 17.958,20.347 15.397,17.786 13.12,18.729     13.12,22.353 9.737,22.353 9.737,18.731 7.46,17.788 4.897,20.35 2.506,17.958 5.066,15.397 4.124,13.12 0.5,13.12 0.5,9.737     4.121,9.737 5.065,7.461 2.503,4.898 4.895,2.506 7.455,5.066 9.732,4.125 9.732,0.5 13.116,0.5 13.116,4.121 "/> 		<circle oryx:anchors="top left" id="_31D42083-25E6-42BB-A672-7D472694E6DDframe21" style="opacity:1;fill:none" stroke="#000000" cx="11.427" cy="11.426" r="3.714"/> 		<polygon oryx:anchors="top left" id="_31D42083-25E6-42BB-A672-7D472694E6DDframe22" style="opacity:1;fill:#ffffff" stroke="#000000" points="21.392,11.064 23.954,8.502 26.347,10.895 23.786,13.455     24.729,15.732 28.353,15.732 28.353,19.115 24.731,19.115 23.788,21.392 26.351,23.955 23.958,26.347 21.397,23.786 19.12,24.729     19.12,28.353 15.737,28.353 15.737,24.731 13.46,23.788 10.897,26.35 8.506,23.958 11.066,21.397 10.124,19.12 6.5,19.12     6.5,15.737 10.121,15.737 11.065,13.461 8.503,10.898 10.895,8.506 13.455,11.066 15.732,10.125 15.732,6.5 19.116,6.5     19.116,10.121 "/> 		<circle oryx:anchors="top left" id="_31D42083-25E6-42BB-A672-7D472694E6DDframe23" style="opacity:1;fill:none;" stroke="#000000" cx="17.427" cy="17.426" r="3.714"/> 	</g> 	 	<g id="_31D42083-25E6-42BB-A672-7D472694E6DDsendTask" display="none"> 		<path id="_31D42083-25E6-42BB-A672-7D472694E6DDstframe24" oryx:anchors="left top" stroke="#FFFFFF" fill="black" stroke-width="1" d="M8,11 L8,21 L24,21 L24,11 L16,17z"/> 		<path id="_31D42083-25E6-42BB-A672-7D472694E6DDstframe25" oryx:anchors="left top" stroke="#FFFFFF" fill="black" stroke-width="1" d="M7,10 L16,17 L25 10z"/> 	</g> 	 	<g id="_31D42083-25E6-42BB-A672-7D472694E6DDreceiveTask" display="none"> 		<path id="_31D42083-25E6-42BB-A672-7D472694E6DDframe26" oryx:anchors="left top" stroke="#000000" fill="none" stroke-width="1" d="M8,11 L8,21 L24,21 L24,11z M8,11 L16,17 L24,11"/> 	</g> 	 	<g id="_31D42083-25E6-42BB-A672-7D472694E6DDnone" display="inherit"/>  	<g id="_31D42083-25E6-42BB-A672-7D472694E6DDsequential" display="none">         <path oryx:anchors="bottom" fill="none" stroke="#000000" stroke-width="2" d="M46,76h10M46,72h10 M46,68h10" id="_31D42083-25E6-42BB-A672-7D472694E6DD__31D42083-25E6-42BB-A672-7D472694E6DD_20"/>     </g>   </g></g><g class="children" style="overflow:hidden"/><g class="edge"/></g><g class="controls"><g class="dockers"/><g class="magnets" transform="translate(135.00000000000006, 255.00000000000003)"><g pointer-events="all" display="none" transform="translate(-7, 12)"><circle cx="8" cy="8" r="4" stroke="none" fill="red" fill-opacity="0.3"/></g><g pointer-events="all" display="none" transform="translate(-7, 32)"><circle cx="8" cy="8" r="4" stroke="none" fill="red" fill-opacity="0.3"/></g><g pointer-events="all" display="none" transform="translate(-7, 52)"><circle cx="8" cy="8" r="4" stroke="none" fill="red" fill-opacity="0.3"/></g><g pointer-events="all" display="none" transform="translate(17, 71)"><circle cx="8" cy="8" r="4" stroke="none" fill="red" fill-opacity="0.3"/></g><g pointer-events="all" display="none" transform="translate(42, 71)"><circle cx="8" cy="8" r="4" stroke="none" fill="red" fill-opacity="0.3"/></g><g pointer-events="all" display="none" transform="translate(67, 71)"><circle cx="8" cy="8" r="4" stroke="none" fill="red" fill-opacity="0.3"/></g><g pointer-events="all" display="none" transform="translate(91, 12)"><circle cx="8" cy="8" r="4" stroke="none" fill="red" fill-opacity="0.3"/></g><g pointer-events="all" display="none" transform="translate(91, 32)"><circle cx="8" cy="8" r="4" stroke="none" fill="red" fill-opacity="0.3"/></g><g pointer-events="all" display="none" transform="translate(91, 52)"><circle cx="8" cy="8" r="4" stroke="none" fill="red" fill-opacity="0.3"/></g><g pointer-events="all" display="none" transform="translate(17, -7)"><circle cx="8" cy="8" r="4" stroke="none" fill="red" fill-opacity="0.3"/></g><g pointer-events="all" display="none" transform="translate(42, -7)"><circle cx="8" cy="8" r="4" stroke="none" fill="red" fill-opacity="0.3"/></g><g pointer-events="all" display="none" transform="translate(67, -7)"><circle cx="8" cy="8" r="4" stroke="none" fill="red" fill-opacity="0.3"/></g><g pointer-events="all" display="none" transform="translate(42, 32)"><circle cx="8" cy="8" r="4" stroke="none" fill="red" fill-opacity="0.3"/></g></g></g></g><g id="_E7BE1B6C-9B30-496F-951A-B73B3BE537C4" bpmn2nodeid="_DE5332FE-AEA6-4296-B118-D1346F657BE1"><g class="stencils" transform="translate(330, 255)"><g class="me"><g pointer-events="fill" oryx:minimumSize="50 40" id="_E7BE1B6C-9B30-496F-951A-B73B3BE537C4">   	<defs id="_E7BE1B6C-9B30-496F-951A-B73B3BE537C4__E7BE1B6C-9B30-496F-951A-B73B3BE537C4_17"> 		<radialGradient id="_E7BE1B6C-9B30-496F-951A-B73B3BE537C4background" cx="10%" cy="10%" r="100%" fx="10%" fy="10%"> 			<stop offset="0%" stop-color="#ffffff" stop-opacity="1" id="_E7BE1B6C-9B30-496F-951A-B73B3BE537C4__E7BE1B6C-9B30-496F-951A-B73B3BE537C4_18"/> 			<stop id="_E7BE1B6C-9B30-496F-951A-B73B3BE537C4fill_el" offset="100%" stop-color="#fafad2" stop-opacity="1"/> 		</radialGradient> 		<radialGradient id="_E7BE1B6C-9B30-496F-951A-B73B3BE537C4borderbackground" cx="10%" cy="10%" r="100%" fx="10%" fy="10%"> 			<stop offset="0%" stop-color="#ffffff" stop-opacity="1" id="_E7BE1B6C-9B30-496F-951A-B73B3BE537C4__E7BE1B6C-9B30-496F-951A-B73B3BE537C4_19"/> 			<stop id="_E7BE1B6C-9B30-496F-951A-B73B3BE537C4fill_border" offset="100%" stop-color="#000000" stop-opacity="1" stroke="#000000"/> 		</radialGradient> 	</defs> 	 	<rect id="_E7BE1B6C-9B30-496F-951A-B73B3BE537C4text_frame" oryx:anchors="bottom top right left" x="1" y="1" width="94" height="79" rx="10" ry="10" stroke="none" stroke-width="0" fill="none"/> 	<rect id="_E7BE1B6C-9B30-496F-951A-B73B3BE537C4bg_frame" oryx:resize="vertical horizontal" x="0" y="0" width="100" height="80" rx="10" ry="10" stroke="#000000" stroke-width="1" fill="url(#_E7BE1B6C-9B30-496F-951A-B73B3BE537C4background) #ffffcc"/> 		<text font-size="12" id="_E7BE1B6C-9B30-496F-951A-B73B3BE537C4text_name" x="50" y="40" oryx:align="middle center" oryx:fittoelem="text_frame" stroke="black" text-anchor="middle" stroke-width="0pt" letter-spacing="-0.01px" fill="#000000" transform="rotate(0 50 40)" visibility="inherit" oryx:fontSize="12"><tspan x="50" y="40" dy="5" id="ext-gen625">Init</tspan></text>     <g id="_E7BE1B6C-9B30-496F-951A-B73B3BE537C4manualTask" transform="scale(0.7,0.7) translate(8,8)" display="none">     	<path oryx:anchors="top left" id="_E7BE1B6C-9B30-496F-951A-B73B3BE537C4frame" style="opacity:1;fill:none;fill-opacity:1;stroke-width:1" d="M0.5,3.751l4.083-3.25c0,0,11.166,0.083,12.083,0.083s-2.417,2.917-1.5,2.917     s11.667,0,12.584,0c1.166,1.708-0.168,3.167-0.834,3.667s0.875,1.917-1,4.417c-0.75,0.25,0.75,1.875-1.333,3.333     c-1.167,0.583,0.583,1.542-1.25,2.833c-1.167,0-20.833,0.083-20.833,0.083l-2-1.333V3.751z" stroke="#000000"/> 		<path id="_E7BE1B6C-9B30-496F-951A-B73B3BE537C4frame2" oryx:anchors="top left" style="opacity:1;fill:none;stroke-width:2" d="M 13.5 7 L 27 7" stroke="#000000"/> 		<path id="_E7BE1B6C-9B30-496F-951A-B73B3BE537C4frame3" oryx:anchors="top left" style="opacity:1;fill:none;stroke-width:2" d="M 13.5 11 L 26 11" stroke="#000000"/> 		<path id="_E7BE1B6C-9B30-496F-951A-B73B3BE537C4frame4" oryx:anchors="top left" style="opacity:1;fill:none;stroke-width:1.5" d="M 14 14.5 L 25 14.5" stroke="#000000"/> 		<path id="_E7BE1B6C-9B30-496F-951A-B73B3BE537C4frame5" oryx:anchors="top left" style="opacity:1;fill:none;stroke-width:1.5" d="M 8.2 3.1 L 15 3.1" stroke="#000000"/> 	</g> 	 	<g id="_E7BE1B6C-9B30-496F-951A-B73B3BE537C4businessRuleTask" transform="scale(0.7,0.7) translate(8,8)" display="inherit"> 		<rect id="_E7BE1B6C-9B30-496F-951A-B73B3BE537C4frame6" oryx:anchors="top left" x="0" y="0" width="22" height="4" style="opacity:1;fill:#B3B1B3;fill-opacity:1;" stroke="#000000"/> 		<rect id="_E7BE1B6C-9B30-496F-951A-B73B3BE537C4frame7" oryx:anchors="top left" x="0" y="4" style="opacity:1;fill:none;" width="22" height="12" stroke="#000000"/> 		<path id="_E7BE1B6C-9B30-496F-951A-B73B3BE537C4frame8" oryx:anchors="top left" style="opacity:1;fill:none;" d="M 0 10 L 22 10" stroke="#000000"/> 		<path id="_E7BE1B6C-9B30-496F-951A-B73B3BE537C4frame9" oryx:anchors="top left" style="opacity:1; fill:none;" d="M 7 4 L 7 16" stroke="#000000"/> 	</g> 	 	<g id="_E7BE1B6C-9B30-496F-951A-B73B3BE537C4scriptTask" transform="scale(0.7,0.7) translate(8,8)" display="none"> 		<path oryx:anchors="top left" id="_E7BE1B6C-9B30-496F-951A-B73B3BE537C4frame10" style="opacity:1;fill:none;" stroke="#000000" d="M6.402,0.5h14.5c0,0-5.833,2.833-5.833,5.583s4.417,6,4.417,9.167    s-4.167,5.083-4.167,5.083H0.235c0,0,5-2.667,5-5s-4.583-6.75-4.583-9.25S6.402,0.5,6.402,0.5z"/> 		<path oryx:anchors="top left" id="_E7BE1B6C-9B30-496F-951A-B73B3BE537C4frame11" style="opacity:1;fill:none;stroke-width:1.5" d="M 3.5 4.5 L 13.5 4.5" stroke="#000000"/> 		<path oryx:anchors="top left" id="_E7BE1B6C-9B30-496F-951A-B73B3BE537C4frame12" style="opacity:1;fill:none;stroke-width:1.5" d="M 3.8 8.5 L 13.8 8.5" stroke="#000000"/> 		<path oryx:anchors="top left" id="_E7BE1B6C-9B30-496F-951A-B73B3BE537C4frame13" style="opacity:1;fill:none;stroke-width:1.5" d="M 6.3 12.5 L 16.3 12.5" stroke="#000000"/> 		<path oryx:anchors="top left" id="_E7BE1B6C-9B30-496F-951A-B73B3BE537C4frame14" style="opacity:1;fill:none;stroke-width:1.5" d="M 6.5 16.5 L 16.5 16.5" stroke="#000000"/> 	</g> 	 	<g id="_E7BE1B6C-9B30-496F-951A-B73B3BE537C4userTask" transform="scale(0.7,0.7) translate(8,8)" display="none"> 		<path id="_E7BE1B6C-9B30-496F-951A-B73B3BE537C4frame15" oryx:anchors="top left" style="opacity:1;fill:#F4F6F7" stroke="#000000" d="M0.585,24.167h24.083v-7.833c0,0-2.333-3.917-7.083-5.167h-9.25    c-4.417,1.333-7.833,5.75-7.833,5.75L0.585,24.167z"/> 		<path id="_E7BE1B6C-9B30-496F-951A-B73B3BE537C4frame16" oryx:anchors="top left" style="opacity:1;fill:none" d="M 6 20 L 6 24" stroke="#000000"/> 		<path id="_E7BE1B6C-9B30-496F-951A-B73B3BE537C4frame17" oryx:anchors="top left" style="opacity:1;fill:none" d="M 20 20 L 20 24" stroke="#000000"/> 		<circle id="_E7BE1B6C-9B30-496F-951A-B73B3BE537C4frame18" oryx:anchors="top left" fill="black" cx="13.002" cy="5.916" r="5.417" stroke="#000000"/> 		<path id="_E7BE1B6C-9B30-496F-951A-B73B3BE537C4frame19" oryx:anchors="top left" style="opacity:1;fill:#F0EFF0;" stroke="#000000" d="M8.043,7.083c0,0,2.814-2.426,5.376-1.807s4.624-0.693,4.624-0.693    c0.25,1.688,0.042,3.75-1.458,5.584c0,0,1.083,0.75,1.083,1.5s0.125,1.875-1,3s-5.5,1.25-6.75,0S8.668,12.834,8.668,12    s0.583-1.25,1.25-1.917C8.835,9.5,7.419,7.708,8.043,7.083z"/> 	</g> 	 	<g id="_E7BE1B6C-9B30-496F-951A-B73B3BE537C4serviceTask" transform="scale(0.7,0.7) translate(8,8)" display="none"> 		<polygon oryx:anchors="top left" id="_E7BE1B6C-9B30-496F-951A-B73B3BE537C4frame20" style="opacity:1;fill:#ffffff" stroke="#000000" points="15.392,5.064 17.954,2.502 20.347,4.895 17.786,7.455     18.729,9.732 22.353,9.732 22.353,13.115 18.731,13.115 17.788,15.392 20.351,17.955 17.958,20.347 15.397,17.786 13.12,18.729     13.12,22.353 9.737,22.353 9.737,18.731 7.46,17.788 4.897,20.35 2.506,17.958 5.066,15.397 4.124,13.12 0.5,13.12 0.5,9.737     4.121,9.737 5.065,7.461 2.503,4.898 4.895,2.506 7.455,5.066 9.732,4.125 9.732,0.5 13.116,0.5 13.116,4.121 "/> 		<circle oryx:anchors="top left" id="_E7BE1B6C-9B30-496F-951A-B73B3BE537C4frame21" style="opacity:1;fill:none" stroke="#000000" cx="11.427" cy="11.426" r="3.714"/> 		<polygon oryx:anchors="top left" id="_E7BE1B6C-9B30-496F-951A-B73B3BE537C4frame22" style="opacity:1;fill:#ffffff" stroke="#000000" points="21.392,11.064 23.954,8.502 26.347,10.895 23.786,13.455     24.729,15.732 28.353,15.732 28.353,19.115 24.731,19.115 23.788,21.392 26.351,23.955 23.958,26.347 21.397,23.786 19.12,24.729     19.12,28.353 15.737,28.353 15.737,24.731 13.46,23.788 10.897,26.35 8.506,23.958 11.066,21.397 10.124,19.12 6.5,19.12     6.5,15.737 10.121,15.737 11.065,13.461 8.503,10.898 10.895,8.506 13.455,11.066 15.732,10.125 15.732,6.5 19.116,6.5     19.116,10.121 "/> 		<circle oryx:anchors="top left" id="_E7BE1B6C-9B30-496F-951A-B73B3BE537C4frame23" style="opacity:1;fill:none;" stroke="#000000" cx="17.427" cy="17.426" r="3.714"/> 	</g> 	 	<g id="_E7BE1B6C-9B30-496F-951A-B73B3BE537C4sendTask" display="none"> 		<path id="_E7BE1B6C-9B30-496F-951A-B73B3BE537C4stframe24" oryx:anchors="left top" stroke="#FFFFFF" fill="black" stroke-width="1" d="M8,11 L8,21 L24,21 L24,11 L16,17z"/> 		<path id="_E7BE1B6C-9B30-496F-951A-B73B3BE537C4stframe25" oryx:anchors="left top" stroke="#FFFFFF" fill="black" stroke-width="1" d="M7,10 L16,17 L25 10z"/> 	</g> 	 	<g id="_E7BE1B6C-9B30-496F-951A-B73B3BE537C4receiveTask" display="none"> 		<path id="_E7BE1B6C-9B30-496F-951A-B73B3BE537C4frame26" oryx:anchors="left top" stroke="#000000" fill="none" stroke-width="1" d="M8,11 L8,21 L24,21 L24,11z M8,11 L16,17 L24,11"/> 	</g> 	 	<g id="_E7BE1B6C-9B30-496F-951A-B73B3BE537C4none" display="inherit"/>  	<g id="_E7BE1B6C-9B30-496F-951A-B73B3BE537C4sequential" display="none">         <path oryx:anchors="bottom" fill="none" stroke="#000000" stroke-width="2" d="M46,76h10M46,72h10 M46,68h10" id="_E7BE1B6C-9B30-496F-951A-B73B3BE537C4__E7BE1B6C-9B30-496F-951A-B73B3BE537C4_20"/>     </g>   </g></g><g class="children" style="overflow:hidden"/><g class="edge"/></g><g class="controls"><g class="dockers"/><g class="magnets" transform="translate(330, 255)"><g pointer-events="all" display="none" transform="translate(-7, 12)"><circle cx="8" cy="8" r="4" stroke="none" fill="red" fill-opacity="0.3"/></g><g pointer-events="all" display="none" transform="translate(-7, 32)"><circle cx="8" cy="8" r="4" stroke="none" fill="red" fill-opacity="0.3"/></g><g pointer-events="all" display="none" transform="translate(-7, 52)"><circle cx="8" cy="8" r="4" stroke="none" fill="red" fill-opacity="0.3"/></g><g pointer-events="all" display="none" transform="translate(17, 71)"><circle cx="8" cy="8" r="4" stroke="none" fill="red" fill-opacity="0.3"/></g><g pointer-events="all" display="none" transform="translate(42, 71)"><circle cx="8" cy="8" r="4" stroke="none" fill="red" fill-opacity="0.3"/></g><g pointer-events="all" display="none" transform="translate(67, 71)"><circle cx="8" cy="8" r="4" stroke="none" fill="red" fill-opacity="0.3"/></g><g pointer-events="all" display="none" transform="translate(91, 12)"><circle cx="8" cy="8" r="4" stroke="none" fill="red" fill-opacity="0.3"/></g><g pointer-events="all" display="none" transform="translate(91, 32)"><circle cx="8" cy="8" r="4" stroke="none" fill="red" fill-opacity="0.3"/></g><g pointer-events="all" display="none" transform="translate(91, 52)"><circle cx="8" cy="8" r="4" stroke="none" fill="red" fill-opacity="0.3"/></g><g pointer-events="all" display="none" transform="translate(17, -7)"><circle cx="8" cy="8" r="4" stroke="none" fill="red" fill-opacity="0.3"/></g><g pointer-events="all" display="none" transform="translate(42, -7)"><circle cx="8" cy="8" r="4" stroke="none" fill="red" fill-opacity="0.3"/></g><g pointer-events="all" display="none" transform="translate(67, -7)"><circle cx="8" cy="8" r="4" stroke="none" fill="red" fill-opacity="0.3"/></g><g pointer-events="all" display="none" transform="translate(42, 32)"><circle cx="8" cy="8" r="4" stroke="none" fill="red" fill-opacity="0.3"/></g></g></g></g><g id="_81122BED-F9CD-4AC8-A13D-BA46C29B2DAE" bpmn2nodeid="_C21429E9-02AE-4535-A00E-763C4C7C0617"><g class="stencils" transform="translate(525.0000000000001, 255)"><g class="me"><g pointer-events="fill" oryx:minimumSize="50 40" id="_81122BED-F9CD-4AC8-A13D-BA46C29B2DAE">   	<defs id="_81122BED-F9CD-4AC8-A13D-BA46C29B2DAE__81122BED-F9CD-4AC8-A13D-BA46C29B2DAE_17"> 		<radialGradient id="_81122BED-F9CD-4AC8-A13D-BA46C29B2DAEbackground" cx="10%" cy="10%" r="100%" fx="10%" fy="10%"> 			<stop offset="0%" stop-color="#ffffff" stop-opacity="1" id="_81122BED-F9CD-4AC8-A13D-BA46C29B2DAE__81122BED-F9CD-4AC8-A13D-BA46C29B2DAE_18"/> 			<stop id="_81122BED-F9CD-4AC8-A13D-BA46C29B2DAEfill_el" offset="100%" stop-color="#fafad2" stop-opacity="1"/> 		</radialGradient> 		<radialGradient id="_81122BED-F9CD-4AC8-A13D-BA46C29B2DAEborderbackground" cx="10%" cy="10%" r="100%" fx="10%" fy="10%"> 			<stop offset="0%" stop-color="#ffffff" stop-opacity="1" id="_81122BED-F9CD-4AC8-A13D-BA46C29B2DAE__81122BED-F9CD-4AC8-A13D-BA46C29B2DAE_19"/> 			<stop id="_81122BED-F9CD-4AC8-A13D-BA46C29B2DAEfill_border" offset="100%" stop-color="#000000" stop-opacity="1" stroke="#000000"/> 		</radialGradient> 	</defs> 	 	<rect id="_81122BED-F9CD-4AC8-A13D-BA46C29B2DAEtext_frame" oryx:anchors="bottom top right left" x="1" y="1" width="94" height="79" rx="10" ry="10" stroke="none" stroke-width="0" fill="none"/> 	<rect id="_81122BED-F9CD-4AC8-A13D-BA46C29B2DAEbg_frame" oryx:resize="vertical horizontal" x="0" y="0" width="100" height="80" rx="10" ry="10" stroke="#000000" stroke-width="1" fill="url(#_81122BED-F9CD-4AC8-A13D-BA46C29B2DAEbackground) #ffffcc"/> 		<text font-size="12" id="_81122BED-F9CD-4AC8-A13D-BA46C29B2DAEtext_name" x="50" y="40" oryx:align="middle center" oryx:fittoelem="text_frame" stroke="black" text-anchor="middle" stroke-width="0pt" letter-spacing="-0.01px" fill="#000000" transform="rotate(0 50 40)" visibility="inherit" oryx:fontSize="12"><tspan x="50" y="40" dy="5" id="ext-gen641">Standard</tspan></text>     <g id="_81122BED-F9CD-4AC8-A13D-BA46C29B2DAEmanualTask" transform="scale(0.7,0.7) translate(8,8)" display="none">     	<path oryx:anchors="top left" id="_81122BED-F9CD-4AC8-A13D-BA46C29B2DAEframe" style="opacity:1;fill:none;fill-opacity:1;stroke-width:1" d="M0.5,3.751l4.083-3.25c0,0,11.166,0.083,12.083,0.083s-2.417,2.917-1.5,2.917     s11.667,0,12.584,0c1.166,1.708-0.168,3.167-0.834,3.667s0.875,1.917-1,4.417c-0.75,0.25,0.75,1.875-1.333,3.333     c-1.167,0.583,0.583,1.542-1.25,2.833c-1.167,0-20.833,0.083-20.833,0.083l-2-1.333V3.751z" stroke="#000000"/> 		<path id="_81122BED-F9CD-4AC8-A13D-BA46C29B2DAEframe2" oryx:anchors="top left" style="opacity:1;fill:none;stroke-width:2" d="M 13.5 7 L 27 7" stroke="#000000"/> 		<path id="_81122BED-F9CD-4AC8-A13D-BA46C29B2DAEframe3" oryx:anchors="top left" style="opacity:1;fill:none;stroke-width:2" d="M 13.5 11 L 26 11" stroke="#000000"/> 		<path id="_81122BED-F9CD-4AC8-A13D-BA46C29B2DAEframe4" oryx:anchors="top left" style="opacity:1;fill:none;stroke-width:1.5" d="M 14 14.5 L 25 14.5" stroke="#000000"/> 		<path id="_81122BED-F9CD-4AC8-A13D-BA46C29B2DAEframe5" oryx:anchors="top left" style="opacity:1;fill:none;stroke-width:1.5" d="M 8.2 3.1 L 15 3.1" stroke="#000000"/> 	</g> 	 	<g id="_81122BED-F9CD-4AC8-A13D-BA46C29B2DAEbusinessRuleTask" transform="scale(0.7,0.7) translate(8,8)" display="inherit"> 		<rect id="_81122BED-F9CD-4AC8-A13D-BA46C29B2DAEframe6" oryx:anchors="top left" x="0" y="0" width="22" height="4" style="opacity:1;fill:#B3B1B3;fill-opacity:1;" stroke="#000000"/> 		<rect id="_81122BED-F9CD-4AC8-A13D-BA46C29B2DAEframe7" oryx:anchors="top left" x="0" y="4" style="opacity:1;fill:none;" width="22" height="12" stroke="#000000"/> 		<path id="_81122BED-F9CD-4AC8-A13D-BA46C29B2DAEframe8" oryx:anchors="top left" style="opacity:1;fill:none;" d="M 0 10 L 22 10" stroke="#000000"/> 		<path id="_81122BED-F9CD-4AC8-A13D-BA46C29B2DAEframe9" oryx:anchors="top left" style="opacity:1; fill:none;" d="M 7 4 L 7 16" stroke="#000000"/> 	</g> 	 	<g id="_81122BED-F9CD-4AC8-A13D-BA46C29B2DAEscriptTask" transform="scale(0.7,0.7) translate(8,8)" display="none"> 		<path oryx:anchors="top left" id="_81122BED-F9CD-4AC8-A13D-BA46C29B2DAEframe10" style="opacity:1;fill:none;" stroke="#000000" d="M6.402,0.5h14.5c0,0-5.833,2.833-5.833,5.583s4.417,6,4.417,9.167    s-4.167,5.083-4.167,5.083H0.235c0,0,5-2.667,5-5s-4.583-6.75-4.583-9.25S6.402,0.5,6.402,0.5z"/> 		<path oryx:anchors="top left" id="_81122BED-F9CD-4AC8-A13D-BA46C29B2DAEframe11" style="opacity:1;fill:none;stroke-width:1.5" d="M 3.5 4.5 L 13.5 4.5" stroke="#000000"/> 		<path oryx:anchors="top left" id="_81122BED-F9CD-4AC8-A13D-BA46C29B2DAEframe12" style="opacity:1;fill:none;stroke-width:1.5" d="M 3.8 8.5 L 13.8 8.5" stroke="#000000"/> 		<path oryx:anchors="top left" id="_81122BED-F9CD-4AC8-A13D-BA46C29B2DAEframe13" style="opacity:1;fill:none;stroke-width:1.5" d="M 6.3 12.5 L 16.3 12.5" stroke="#000000"/> 		<path oryx:anchors="top left" id="_81122BED-F9CD-4AC8-A13D-BA46C29B2DAEframe14" style="opacity:1;fill:none;stroke-width:1.5" d="M 6.5 16.5 L 16.5 16.5" stroke="#000000"/> 	</g> 	 	<g id="_81122BED-F9CD-4AC8-A13D-BA46C29B2DAEuserTask" transform="scale(0.7,0.7) translate(8,8)" display="none"> 		<path id="_81122BED-F9CD-4AC8-A13D-BA46C29B2DAEframe15" oryx:anchors="top left" style="opacity:1;fill:#F4F6F7" stroke="#000000" d="M0.585,24.167h24.083v-7.833c0,0-2.333-3.917-7.083-5.167h-9.25    c-4.417,1.333-7.833,5.75-7.833,5.75L0.585,24.167z"/> 		<path id="_81122BED-F9CD-4AC8-A13D-BA46C29B2DAEframe16" oryx:anchors="top left" style="opacity:1;fill:none" d="M 6 20 L 6 24" stroke="#000000"/> 		<path id="_81122BED-F9CD-4AC8-A13D-BA46C29B2DAEframe17" oryx:anchors="top left" style="opacity:1;fill:none" d="M 20 20 L 20 24" stroke="#000000"/> 		<circle id="_81122BED-F9CD-4AC8-A13D-BA46C29B2DAEframe18" oryx:anchors="top left" fill="black" cx="13.002" cy="5.916" r="5.417" stroke="#000000"/> 		<path id="_81122BED-F9CD-4AC8-A13D-BA46C29B2DAEframe19" oryx:anchors="top left" style="opacity:1;fill:#F0EFF0;" stroke="#000000" d="M8.043,7.083c0,0,2.814-2.426,5.376-1.807s4.624-0.693,4.624-0.693    c0.25,1.688,0.042,3.75-1.458,5.584c0,0,1.083,0.75,1.083,1.5s0.125,1.875-1,3s-5.5,1.25-6.75,0S8.668,12.834,8.668,12    s0.583-1.25,1.25-1.917C8.835,9.5,7.419,7.708,8.043,7.083z"/> 	</g> 	 	<g id="_81122BED-F9CD-4AC8-A13D-BA46C29B2DAEserviceTask" transform="scale(0.7,0.7) translate(8,8)" display="none"> 		<polygon oryx:anchors="top left" id="_81122BED-F9CD-4AC8-A13D-BA46C29B2DAEframe20" style="opacity:1;fill:#ffffff" stroke="#000000" points="15.392,5.064 17.954,2.502 20.347,4.895 17.786,7.455     18.729,9.732 22.353,9.732 22.353,13.115 18.731,13.115 17.788,15.392 20.351,17.955 17.958,20.347 15.397,17.786 13.12,18.729     13.12,22.353 9.737,22.353 9.737,18.731 7.46,17.788 4.897,20.35 2.506,17.958 5.066,15.397 4.124,13.12 0.5,13.12 0.5,9.737     4.121,9.737 5.065,7.461 2.503,4.898 4.895,2.506 7.455,5.066 9.732,4.125 9.732,0.5 13.116,0.5 13.116,4.121 "/> 		<circle oryx:anchors="top left" id="_81122BED-F9CD-4AC8-A13D-BA46C29B2DAEframe21" style="opacity:1;fill:none" stroke="#000000" cx="11.427" cy="11.426" r="3.714"/> 		<polygon oryx:anchors="top left" id="_81122BED-F9CD-4AC8-A13D-BA46C29B2DAEframe22" style="opacity:1;fill:#ffffff" stroke="#000000" points="21.392,11.064 23.954,8.502 26.347,10.895 23.786,13.455     24.729,15.732 28.353,15.732 28.353,19.115 24.731,19.115 23.788,21.392 26.351,23.955 23.958,26.347 21.397,23.786 19.12,24.729     19.12,28.353 15.737,28.353 15.737,24.731 13.46,23.788 10.897,26.35 8.506,23.958 11.066,21.397 10.124,19.12 6.5,19.12     6.5,15.737 10.121,15.737 11.065,13.461 8.503,10.898 10.895,8.506 13.455,11.066 15.732,10.125 15.732,6.5 19.116,6.5     19.116,10.121 "/> 		<circle oryx:anchors="top left" id="_81122BED-F9CD-4AC8-A13D-BA46C29B2DAEframe23" style="opacity:1;fill:none;" stroke="#000000" cx="17.427" cy="17.426" r="3.714"/> 	</g> 	 	<g id="_81122BED-F9CD-4AC8-A13D-BA46C29B2DAEsendTask" display="none"> 		<path id="_81122BED-F9CD-4AC8-A13D-BA46C29B2DAEstframe24" oryx:anchors="left top" stroke="#FFFFFF" fill="black" stroke-width="1" d="M8,11 L8,21 L24,21 L24,11 L16,17z"/> 		<path id="_81122BED-F9CD-4AC8-A13D-BA46C29B2DAEstframe25" oryx:anchors="left top" stroke="#FFFFFF" fill="black" stroke-width="1" d="M7,10 L16,17 L25 10z"/> 	</g> 	 	<g id="_81122BED-F9CD-4AC8-A13D-BA46C29B2DAEreceiveTask" display="none"> 		<path id="_81122BED-F9CD-4AC8-A13D-BA46C29B2DAEframe26" oryx:anchors="left top" stroke="#000000" fill="none" stroke-width="1" d="M8,11 L8,21 L24,21 L24,11z M8,11 L16,17 L24,11"/> 	</g> 	 	<g id="_81122BED-F9CD-4AC8-A13D-BA46C29B2DAEnone" display="inherit"/>  	<g id="_81122BED-F9CD-4AC8-A13D-BA46C29B2DAEsequential" display="none">         <path oryx:anchors="bottom" fill="none" stroke="#000000" stroke-width="2" d="M46,76h10M46,72h10 M46,68h10" id="_81122BED-F9CD-4AC8-A13D-BA46C29B2DAE__81122BED-F9CD-4AC8-A13D-BA46C29B2DAE_20"/>     </g>   </g></g><g class="children" style="overflow:hidden"/><g class="edge"/></g><g class="controls"><g class="dockers"/><g class="magnets" transform="translate(525.0000000000001, 255)"><g pointer-events="all" display="none" transform="translate(-7, 12)"><circle cx="8" cy="8" r="4" stroke="none" fill="red" fill-opacity="0.3"/></g><g pointer-events="all" display="none" transform="translate(-7, 32)"><circle cx="8" cy="8" r="4" stroke="none" fill="red" fill-opacity="0.3"/></g><g pointer-events="all" display="none" transform="translate(-7, 52)"><circle cx="8" cy="8" r="4" stroke="none" fill="red" fill-opacity="0.3"/></g><g pointer-events="all" display="none" transform="translate(17, 71)"><circle cx="8" cy="8" r="4" stroke="none" fill="red" fill-opacity="0.3"/></g><g pointer-events="all" display="none" transform="translate(42, 71)"><circle cx="8" cy="8" r="4" stroke="none" fill="red" fill-opacity="0.3"/></g><g pointer-events="all" display="none" transform="translate(67, 71)"><circle cx="8" cy="8" r="4" stroke="none" fill="red" fill-opacity="0.3"/></g><g pointer-events="all" display="none" transform="translate(91, 12)"><circle cx="8" cy="8" r="4" stroke="none" fill="red" fill-opacity="0.3"/></g><g pointer-events="all" display="none" transform="translate(91, 32)"><circle cx="8" cy="8" r="4" stroke="none" fill="red" fill-opacity="0.3"/></g><g pointer-events="all" display="none" transform="translate(91, 52)"><circle cx="8" cy="8" r="4" stroke="none" fill="red" fill-opacity="0.3"/></g><g pointer-events="all" display="none" transform="translate(17, -7)"><circle cx="8" cy="8" r="4" stroke="none" fill="red" fill-opacity="0.3"/></g><g pointer-events="all" display="none" transform="translate(42, -7)"><circle cx="8" cy="8" r="4" stroke="none" fill="red" fill-opacity="0.3"/></g><g pointer-events="all" display="none" transform="translate(67, -7)"><circle cx="8" cy="8" r="4" stroke="none" fill="red" fill-opacity="0.3"/></g><g pointer-events="all" display="none" transform="translate(42, 32)"><circle cx="8" cy="8" r="4" stroke="none" fill="red" fill-opacity="0.3"/></g></g></g></g><g id="_18775D12-8E9A-40B0-AF22-A90AA4078FE2" bpmn2nodeid="_33560379-4544-4FDE-89FD-530164FBCD0F"><g class="stencils" transform="translate(735.0000000000001, 281.00000000000006)"><g class="me"><g pointer-events="fill" id="_18775D12-8E9A-40B0-AF22-A90AA4078FE2">      <defs id="_18775D12-8E9A-40B0-AF22-A90AA4078FE2__18775D12-8E9A-40B0-AF22-A90AA4078FE2_5"> 		<radialGradient id="_18775D12-8E9A-40B0-AF22-A90AA4078FE2background" cx="10%" cy="10%" r="100%" fx="10%" fy="10%"> 			<stop offset="0%" stop-color="#ffffff" stop-opacity="1" id="_18775D12-8E9A-40B0-AF22-A90AA4078FE2__18775D12-8E9A-40B0-AF22-A90AA4078FE2_6"/> 			<stop id="_18775D12-8E9A-40B0-AF22-A90AA4078FE2fill_el" offset="100%" stop-color="#ff6347" stop-opacity="1"/> 		</radialGradient> 	</defs> 	     <circle id="_18775D12-8E9A-40B0-AF22-A90AA4078FE2bg_frame" cx="14" cy="14" r="14" stroke="#000000" fill="url(#_18775D12-8E9A-40B0-AF22-A90AA4078FE2background) white" stroke-width="3"/> 	<text font-size="11" id="_18775D12-8E9A-40B0-AF22-A90AA4078FE2text_name" x="14" y="30" oryx:align="top center" stroke="black" stroke-width="0pt" letter-spacing="-0.01px" fill="#000000" text-anchor="middle" transform="rotate(0 14 30)" visibility="inherit" oryx:fontSize="11"/>   </g></g><g class="children" style="overflow:hidden"/><g class="edge"/></g><g class="controls"><g class="dockers"/><g class="magnets" transform="translate(735.0000000000001, 281.00000000000006)"><g pointer-events="all" display="none" transform="translate(6, 6)"><circle cx="8" cy="8" r="4" stroke="none" fill="red" fill-opacity="0.3"/></g></g></g></g></g><g class="edge"><g id="_F29E4FE5-58B2-4635-B71B-E50ED0810360" bpmn2nodeid="_C81F9B39-145C-411E-8E08-49D36F30744D"><g class="stencils"><g class="me"><g pointer-events="painted" bpmn2nodeid="_4DE592C4-239C-48D4-8A35-90B1608263AE"><path id="_F29E4FE5-58B2-4635-B71B-E50ED0810360_1" d="M75.64763845872179 299.3740944616511L134.19611154127827 297.0321555383489 " stroke="#000000" fill="none" stroke-width="2" stroke-linecap="round" stroke-linejoin="round" marker-start="url(#_F29E4FE5-58B2-4635-B71B-E50ED0810360start)" marker-end="url(#_F29E4FE5-58B2-4635-B71B-E50ED0810360end)"/></g><text id="_F29E4FE5-58B2-4635-B71B-E50ED0810360text_name" font-size="12" x="89.64763845872179" y="285.3740944616511" oryx:edgePosition="startTop" stroke-width="0pt" letter-spacing="-0.01px" fill="#000000" text-anchor="start" transform="rotate(357.7093899573615 75.64763845872179 299.3740944616511)" visibility="inherit" oryx:fontSize="12"/></g><g class="children" style="overflow:hidden"/><g class="edge"/></g><g class="controls"><g class="dockers"/><g class="magnets"/></g></g><g id="_D324926A-1DB1-47CA-A36B-7C7F62969AD6" bpmn2nodeid="_20BA939B-DE54-42C4-8A06-D2BD0EF4FD38"><g class="stencils"><g class="me"><g pointer-events="painted" bpmn2nodeid="_B920B20C-854E-4AC9-ADC1-820D5955187E"><path id="_D324926A-1DB1-47CA-A36B-7C7F62969AD6_1" d="M235.51171875 295L329.48828125 295 " stroke="#000000" fill="none" stroke-width="2" stroke-linecap="round" stroke-linejoin="round" marker-start="url(#_D324926A-1DB1-47CA-A36B-7C7F62969AD6start)" marker-end="url(#_D324926A-1DB1-47CA-A36B-7C7F62969AD6end)"/></g><text id="_D324926A-1DB1-47CA-A36B-7C7F62969AD6text_name" font-size="12" x="249.51171875" y="281" oryx:edgePosition="startTop" stroke-width="0pt" letter-spacing="-0.01px" fill="#000000" text-anchor="start" transform="rotate(360 235.51171875 295)" visibility="inherit" oryx:fontSize="12"/></g><g class="children" style="overflow:hidden"/><g class="edge"/></g><g class="controls"><g class="dockers"/><g class="magnets"/></g></g><g id="_EDE18EDE-88FF-4D03-9B75-FE5050B3D5A2" bpmn2nodeid="_E6FAFEF4-C7A0-4AD4-9BF3-254024A69560"><g class="stencils"><g class="me"><g pointer-events="painted" bpmn2nodeid="_B8190CCC-A30D-46B5-A3EC-4323EC9E8BFA"><path id="_EDE18EDE-88FF-4D03-9B75-FE5050B3D5A2_1" d="M430.51171875 295L524.4882812500001 295 " stroke="#000000" fill="none" stroke-width="2" stroke-linecap="round" stroke-linejoin="round" marker-start="url(#_EDE18EDE-88FF-4D03-9B75-FE5050B3D5A2start)" marker-end="url(#_EDE18EDE-88FF-4D03-9B75-FE5050B3D5A2end)"/></g><text id="_EDE18EDE-88FF-4D03-9B75-FE5050B3D5A2text_name" font-size="12" x="444.51171875" y="281" oryx:edgePosition="startTop" stroke-width="0pt" letter-spacing="-0.01px" fill="#000000" text-anchor="start" transform="rotate(360 430.51171875 295)" visibility="inherit" oryx:fontSize="12"/></g><g class="children" style="overflow:hidden"/><g class="edge"/></g><g class="controls"><g class="dockers"/><g class="magnets"/></g></g><g id="_A0A8D81C-AA59-4673-B0EB-B9FE5CC92EFE" bpmn2nodeid="_1BFB57EC-C1AE-4D2C-A480-B4EA3DE9C93A"><g class="stencils"><g class="me"><g pointer-events="painted" bpmn2nodeid="_D9BD4FC0-C787-49B0-8A5A-5B798D2FD49C"><path id="_A0A8D81C-AA59-4673-B0EB-B9FE5CC92EFE_1" d="M625.6171875000001 295L734.4062500000001 295 " stroke="#000000" fill="none" stroke-width="2" stroke-linecap="round" stroke-linejoin="round" marker-start="url(#_A0A8D81C-AA59-4673-B0EB-B9FE5CC92EFEstart)" marker-end="url(#_A0A8D81C-AA59-4673-B0EB-B9FE5CC92EFEend)"/></g><text id="_A0A8D81C-AA59-4673-B0EB-B9FE5CC92EFEtext_name" font-size="12" x="639.6171875000001" y="281" oryx:edgePosition="startTop" stroke-width="0pt" letter-spacing="-0.01px" fill="#000000" text-anchor="start" transform="rotate(360 625.6171875000001 295)" visibility="inherit" oryx:fontSize="12"/></g><g class="children" style="overflow:hidden"/><g class="edge"/></g><g class="controls"><g class="dockers"/><g class="magnets"/></g></g></g><text id="_F548E3B3-46C5-430E-8972-F459DB4D9190" style="stroke-width:1;fill:rgb(177,194,214);font-family:arial;font-weight:bold" font-size="12" onclick="ORYX.Plugins.CanvasTitle.openTextualAnalysis()" onmouseover="ORYX.Plugins.CanvasTitle.addToolTip('_F548E3B3-46C5-430E-8972-F459DB4D9190')" transform="translate(10, 20)">P1111 v.1.0 (src.P1111)</text></g></g></svg>