<svg xmlns="http://www.w3.org/2000/svg" xmlns:oryx="http://oryx-editor.org" id="_01B54A40-23C4-4507-9275-C29CED9FBA90" width="795" height="260" xmlns:xlink="http://www.w3.org/1999/xlink" xmlns:svg="http://www.w3.org/2000/svg"><defs><marker id="_1B8FA9E1-0F5D-43EC-9B42-958F22BCE897start" refX="1" refY="5" markerUnits="userSpaceOnUse" markerWidth="17" markerHeight="11" orient="auto" fill="#000000" stroke="#000000"> 	  		<path id="_1B8FA9E1-0F5D-43EC-9B42-958F22BCE897conditional" d="M 0 5 L 8 0 L 16 5 L 8 10 L 0 5" fill="white" stroke="#000000" stroke-width="1" display="none"/> 			<path id="_1B8FA9E1-0F5D-43EC-9B42-958F22BCE897default" d="M 5 0 L 11 10" fill="white" stroke="#000000" stroke-width="1" display="none"/> 	  	</marker><marker id="_1B8FA9E1-0F5D-43EC-9B42-958F22BCE897end" refX="15" refY="6" markerUnits="userSpaceOnUse" markerWidth="15" markerHeight="12" orient="auto" fill="#000000" stroke="#000000"> 	  		<path id="_1B8FA9E1-0F5D-43EC-9B42-958F22BCE897frame2" d="M 0 1 L 15 6 L 0 11z" fill="#000000" stroke="#000000" stroke-linejoin="round" stroke-width="2"/> 	  	</marker><marker id="_B057C6C1-FD8C-4B96-B62C-BCA4DDC1DD13start" refX="1" refY="5" markerUnits="userSpaceOnUse" markerWidth="17" markerHeight="11" orient="auto" fill="#000000" stroke="#000000"> 	  		<path id="_B057C6C1-FD8C-4B96-B62C-BCA4DDC1DD13conditional" d="M 0 5 L 8 0 L 16 5 L 8 10 L 0 5" fill="white" stroke="#000000" stroke-width="1" display="none"/> 			<path id="_B057C6C1-FD8C-4B96-B62C-BCA4DDC1DD13default" d="M 5 0 L 11 10" fill="white" stroke="#000000" stroke-width="1" display="none"/> 	  	</marker><marker id="_B057C6C1-FD8C-4B96-B62C-BCA4DDC1DD13end" refX="15" refY="6" markerUnits="userSpaceOnUse" markerWidth="15" markerHeight="12" orient="auto" fill="#000000" stroke="#000000"> 	  		<path id="_B057C6C1-FD8C-4B96-B62C-BCA4DDC1DD13frame2" d="M 0 1 L 15 6 L 0 11z" fill="#000000" stroke="#000000" stroke-linejoin="round" stroke-width="2"/> 	  	</marker><marker id="_53BDC15E-007B-4127-889E-DE8920F91ADFstart" refX="1" refY="5" markerUnits="userSpaceOnUse" markerWidth="17" markerHeight="11" orient="auto" fill="#000000" stroke="#000000"> 	  		<path id="_53BDC15E-007B-4127-889E-DE8920F91ADFconditional" d="M 0 5 L 8 0 L 16 5 L 8 10 L 0 5" fill="white" stroke="#000000" stroke-width="1" display="none"/> 			<path id="_53BDC15E-007B-4127-889E-DE8920F91ADFdefault" d="M 5 0 L 11 10" fill="white" stroke="#000000" stroke-width="1" display="none"/> 	  	</marker><marker id="_53BDC15E-007B-4127-889E-DE8920F91ADFend" refX="15" refY="6" markerUnits="userSpaceOnUse" markerWidth="15" markerHeight="12" orient="auto" fill="#000000" stroke="#000000"> 	  		<path id="_53BDC15E-007B-4127-889E-DE8920F91ADFframe2" d="M 0 1 L 15 6 L 0 11z" fill="#000000" stroke="#000000" stroke-linejoin="round" stroke-width="2"/> 	  	</marker></defs><g stroke="none" font-family="Verdana, sans-serif" font-size-adjust="none" font-style="normal" font-variant="normal" font-weight="normal" line-heigth="normal" font-size="12"><g class="stencils" transform="translate(15, 16)"><g class="me"/><g class="children"><g id="_14FFFB1C-FCC1-4907-A3F7-344F866BBC1E" bpmn2nodeid="processStartEvent"><g class="stencils" transform="translate(120, 165)"><g class="me"><g pointer-events="fill" id="_14FFFB1C-FCC1-4907-A3F7-344F866BBC1E">        <defs id="_14FFFB1C-FCC1-4907-A3F7-344F866BBC1E__14FFFB1C-FCC1-4907-A3F7-344F866BBC1E_5"> 		<radialGradient id="_14FFFB1C-FCC1-4907-A3F7-344F866BBC1Ebackground" cx="10%" cy="10%" r="100%" fx="10%" fy="10%"> 			<stop offset="0%" stop-color="#ffffff" stop-opacity="1" id="_14FFFB1C-FCC1-4907-A3F7-344F866BBC1E__14FFFB1C-FCC1-4907-A3F7-344F866BBC1E_6"/> 			<stop id="_14FFFB1C-FCC1-4907-A3F7-344F866BBC1Efill_el" offset="100%" stop-color="#9acd32" stop-opacity="1"/> 		</radialGradient> 	</defs> 	     <circle id="_14FFFB1C-FCC1-4907-A3F7-344F866BBC1Ebg_frame" cx="15" cy="15" r="15" stroke="#000000" fill="url(#_14FFFB1C-FCC1-4907-A3F7-344F866BBC1Ebackground) white" stroke-width="1" style="stroke-dasharray: 5.5, 3"/>      <circle id="_14FFFB1C-FCC1-4907-A3F7-344F866BBC1Eframe" cx="15" cy="15" r="15" stroke="#000000" fill="none" stroke-width="1" display="inherit"/>  	<text font-size="11" id="_14FFFB1C-FCC1-4907-A3F7-344F866BBC1Etext_name" x="15" y="32" oryx:align="top center" stroke="black" stroke-width="0pt" letter-spacing="-0.01px" fill="#000000" text-anchor="middle" transform="rotate(0 15 32)" visibility="inherit" oryx:fontSize="11"/>   </g></g><g class="children" style="overflow:hidden"/><g class="edge"/></g><g class="controls"><g class="dockers"/><g class="magnets" transform="translate(120, 165)"><g pointer-events="all" display="none" transform="translate(7, 7)"><circle cx="8" cy="8" r="4" stroke="none" fill="red" fill-opacity="0.3"/></g></g></g></g><g id="_89DBA39B-5350-49EA-988B-5CA20BB67DA1" bpmn2nodeid="_86A94FE8-3CF1-450C-823F-970ED6EEDDEE"><g class="stencils" transform="translate(270, 135)"><g class="me"><g pointer-events="fill" oryx:minimumSize="50 40" id="_89DBA39B-5350-49EA-988B-5CA20BB67DA1">   	<defs id="_89DBA39B-5350-49EA-988B-5CA20BB67DA1__89DBA39B-5350-49EA-988B-5CA20BB67DA1_17"> 		<radialGradient id="_89DBA39B-5350-49EA-988B-5CA20BB67DA1background" cx="10%" cy="10%" r="100%" fx="10%" fy="10%"> 			<stop offset="0%" stop-color="#ffffff" stop-opacity="1" id="_89DBA39B-5350-49EA-988B-5CA20BB67DA1__89DBA39B-5350-49EA-988B-5CA20BB67DA1_18"/> 			<stop id="_89DBA39B-5350-49EA-988B-5CA20BB67DA1fill_el" offset="100%" stop-color="#fafad2" stop-opacity="1"/> 		</radialGradient> 		<radialGradient id="_89DBA39B-5350-49EA-988B-5CA20BB67DA1borderbackground" cx="10%" cy="10%" r="100%" fx="10%" fy="10%"> 			<stop offset="0%" stop-color="#ffffff" stop-opacity="1" id="_89DBA39B-5350-49EA-988B-5CA20BB67DA1__89DBA39B-5350-49EA-988B-5CA20BB67DA1_19"/> 			<stop id="_89DBA39B-5350-49EA-988B-5CA20BB67DA1fill_border" offset="100%" stop-color="#000000" stop-opacity="1" stroke="#000000"/> 		</radialGradient> 	</defs> 	 	<rect id="_89DBA39B-5350-49EA-988B-5CA20BB67DA1text_frame" oryx:anchors="bottom top right left" x="1" y="1" width="94" height="79" rx="10" ry="10" stroke="none" stroke-width="0" fill="none"/> 	<rect id="_89DBA39B-5350-49EA-988B-5CA20BB67DA1bg_frame" oryx:resize="vertical horizontal" x="0" y="0" width="100" height="80" rx="10" ry="10" stroke="#000000" stroke-width="1" fill="url(#_89DBA39B-5350-49EA-988B-5CA20BB67DA1background) #ffffcc"/> 		<text font-size="12" id="_89DBA39B-5350-49EA-988B-5CA20BB67DA1text_name" x="50" y="40" oryx:align="middle center" oryx:fittoelem="text_frame" stroke="black" text-anchor="middle" stroke-width="0pt" letter-spacing="-0.01px" fill="#000000" transform="rotate(0 50 40)" visibility="inherit" oryx:fontSize="12"><tspan x="50" y="40" dy="5">Init</tspan></text>     <g id="_89DBA39B-5350-49EA-988B-5CA20BB67DA1manualTask" transform="scale(0.7,0.7) translate(8,8)" display="none">     	<path oryx:anchors="top left" id="_89DBA39B-5350-49EA-988B-5CA20BB67DA1frame" style="opacity:1;fill:none;fill-opacity:1;stroke-width:1" d="M0.5,3.751l4.083-3.25c0,0,11.166,0.083,12.083,0.083s-2.417,2.917-1.5,2.917     s11.667,0,12.584,0c1.166,1.708-0.168,3.167-0.834,3.667s0.875,1.917-1,4.417c-0.75,0.25,0.75,1.875-1.333,3.333     c-1.167,0.583,0.583,1.542-1.25,2.833c-1.167,0-20.833,0.083-20.833,0.083l-2-1.333V3.751z" stroke="#000000"/> 		<path id="_89DBA39B-5350-49EA-988B-5CA20BB67DA1frame2" oryx:anchors="top left" style="opacity:1;fill:none;stroke-width:2" d="M 13.5 7 L 27 7" stroke="#000000"/> 		<path id="_89DBA39B-5350-49EA-988B-5CA20BB67DA1frame3" oryx:anchors="top left" style="opacity:1;fill:none;stroke-width:2" d="M 13.5 11 L 26 11" stroke="#000000"/> 		<path id="_89DBA39B-5350-49EA-988B-5CA20BB67DA1frame4" oryx:anchors="top left" style="opacity:1;fill:none;stroke-width:1.5" d="M 14 14.5 L 25 14.5" stroke="#000000"/> 		<path id="_89DBA39B-5350-49EA-988B-5CA20BB67DA1frame5" oryx:anchors="top left" style="opacity:1;fill:none;stroke-width:1.5" d="M 8.2 3.1 L 15 3.1" stroke="#000000"/> 	</g> 	 	<g id="_89DBA39B-5350-49EA-988B-5CA20BB67DA1businessRuleTask" transform="scale(0.7,0.7) translate(8,8)" display="inherit"> 		<rect id="_89DBA39B-5350-49EA-988B-5CA20BB67DA1frame6" oryx:anchors="top left" x="0" y="0" width="22" height="4" style="opacity:1;fill:#B3B1B3;fill-opacity:1;" stroke="#000000"/> 		<rect id="_89DBA39B-5350-49EA-988B-5CA20BB67DA1frame7" oryx:anchors="top left" x="0" y="4" style="opacity:1;fill:none;" width="22" height="12" stroke="#000000"/> 		<path id="_89DBA39B-5350-49EA-988B-5CA20BB67DA1frame8" oryx:anchors="top left" style="opacity:1;fill:none;" d="M 0 10 L 22 10" stroke="#000000"/> 		<path id="_89DBA39B-5350-49EA-988B-5CA20BB67DA1frame9" oryx:anchors="top left" style="opacity:1; fill:none;" d="M 7 4 L 7 16" stroke="#000000"/> 	</g> 	 	<g id="_89DBA39B-5350-49EA-988B-5CA20BB67DA1scriptTask" transform="scale(0.7,0.7) translate(8,8)" display="none"> 		<path oryx:anchors="top left" id="_89DBA39B-5350-49EA-988B-5CA20BB67DA1frame10" style="opacity:1;fill:none;" stroke="#000000" d="M6.402,0.5h14.5c0,0-5.833,2.833-5.833,5.583s4.417,6,4.417,9.167    s-4.167,5.083-4.167,5.083H0.235c0,0,5-2.667,5-5s-4.583-6.75-4.583-9.25S6.402,0.5,6.402,0.5z"/> 		<path oryx:anchors="top left" id="_89DBA39B-5350-49EA-988B-5CA20BB67DA1frame11" style="opacity:1;fill:none;stroke-width:1.5" d="M 3.5 4.5 L 13.5 4.5" stroke="#000000"/> 		<path oryx:anchors="top left" id="_89DBA39B-5350-49EA-988B-5CA20BB67DA1frame12" style="opacity:1;fill:none;stroke-width:1.5" d="M 3.8 8.5 L 13.8 8.5" stroke="#000000"/> 		<path oryx:anchors="top left" id="_89DBA39B-5350-49EA-988B-5CA20BB67DA1frame13" style="opacity:1;fill:none;stroke-width:1.5" d="M 6.3 12.5 L 16.3 12.5" stroke="#000000"/> 		<path oryx:anchors="top left" id="_89DBA39B-5350-49EA-988B-5CA20BB67DA1frame14" style="opacity:1;fill:none;stroke-width:1.5" d="M 6.5 16.5 L 16.5 16.5" stroke="#000000"/> 	</g> 	 	<g id="_89DBA39B-5350-49EA-988B-5CA20BB67DA1userTask" transform="scale(0.7,0.7) translate(8,8)" display="none"> 		<path id="_89DBA39B-5350-49EA-988B-5CA20BB67DA1frame15" oryx:anchors="top left" style="opacity:1;fill:#F4F6F7" stroke="#000000" d="M0.585,24.167h24.083v-7.833c0,0-2.333-3.917-7.083-5.167h-9.25    c-4.417,1.333-7.833,5.75-7.833,5.75L0.585,24.167z"/> 		<path id="_89DBA39B-5350-49EA-988B-5CA20BB67DA1frame16" oryx:anchors="top left" style="opacity:1;fill:none" d="M 6 20 L 6 24" stroke="#000000"/> 		<path id="_89DBA39B-5350-49EA-988B-5CA20BB67DA1frame17" oryx:anchors="top left" style="opacity:1;fill:none" d="M 20 20 L 20 24" stroke="#000000"/> 		<circle id="_89DBA39B-5350-49EA-988B-5CA20BB67DA1frame18" oryx:anchors="top left" fill="black" cx="13.002" cy="5.916" r="5.417" stroke="#000000"/> 		<path id="_89DBA39B-5350-49EA-988B-5CA20BB67DA1frame19" oryx:anchors="top left" style="opacity:1;fill:#F0EFF0;" stroke="#000000" d="M8.043,7.083c0,0,2.814-2.426,5.376-1.807s4.624-0.693,4.624-0.693    c0.25,1.688,0.042,3.75-1.458,5.584c0,0,1.083,0.75,1.083,1.5s0.125,1.875-1,3s-5.5,1.25-6.75,0S8.668,12.834,8.668,12    s0.583-1.25,1.25-1.917C8.835,9.5,7.419,7.708,8.043,7.083z"/> 	</g> 	 	<g id="_89DBA39B-5350-49EA-988B-5CA20BB67DA1serviceTask" transform="scale(0.7,0.7) translate(8,8)" display="none"> 		<polygon oryx:anchors="top left" id="_89DBA39B-5350-49EA-988B-5CA20BB67DA1frame20" style="opacity:1;fill:#ffffff" stroke="#000000" points="15.392,5.064 17.954,2.502 20.347,4.895 17.786,7.455     18.729,9.732 22.353,9.732 22.353,13.115 18.731,13.115 17.788,15.392 20.351,17.955 17.958,20.347 15.397,17.786 13.12,18.729     13.12,22.353 9.737,22.353 9.737,18.731 7.46,17.788 4.897,20.35 2.506,17.958 5.066,15.397 4.124,13.12 0.5,13.12 0.5,9.737     4.121,9.737 5.065,7.461 2.503,4.898 4.895,2.506 7.455,5.066 9.732,4.125 9.732,0.5 13.116,0.5 13.116,4.121 "/> 		<circle oryx:anchors="top left" id="_89DBA39B-5350-49EA-988B-5CA20BB67DA1frame21" style="opacity:1;fill:none" stroke="#000000" cx="11.427" cy="11.426" r="3.714"/> 		<polygon oryx:anchors="top left" id="_89DBA39B-5350-49EA-988B-5CA20BB67DA1frame22" style="opacity:1;fill:#ffffff" stroke="#000000" points="21.392,11.064 23.954,8.502 26.347,10.895 23.786,13.455     24.729,15.732 28.353,15.732 28.353,19.115 24.731,19.115 23.788,21.392 26.351,23.955 23.958,26.347 21.397,23.786 19.12,24.729     19.12,28.353 15.737,28.353 15.737,24.731 13.46,23.788 10.897,26.35 8.506,23.958 11.066,21.397 10.124,19.12 6.5,19.12     6.5,15.737 10.121,15.737 11.065,13.461 8.503,10.898 10.895,8.506 13.455,11.066 15.732,10.125 15.732,6.5 19.116,6.5     19.116,10.121 "/> 		<circle oryx:anchors="top left" id="_89DBA39B-5350-49EA-988B-5CA20BB67DA1frame23" style="opacity:1;fill:none;" stroke="#000000" cx="17.427" cy="17.426" r="3.714"/> 	</g> 	 	<g id="_89DBA39B-5350-49EA-988B-5CA20BB67DA1sendTask" display="none"> 		<path id="_89DBA39B-5350-49EA-988B-5CA20BB67DA1stframe24" oryx:anchors="left top" stroke="#FFFFFF" fill="black" stroke-width="1" d="M8,11 L8,21 L24,21 L24,11 L16,17z"/> 		<path id="_89DBA39B-5350-49EA-988B-5CA20BB67DA1stframe25" oryx:anchors="left top" stroke="#FFFFFF" fill="black" stroke-width="1" d="M7,10 L16,17 L25 10z"/> 	</g> 	 	<g id="_89DBA39B-5350-49EA-988B-5CA20BB67DA1receiveTask" display="none"> 		<path id="_89DBA39B-5350-49EA-988B-5CA20BB67DA1frame26" oryx:anchors="left top" stroke="#000000" fill="none" stroke-width="1" d="M8,11 L8,21 L24,21 L24,11z M8,11 L16,17 L24,11"/> 	</g> 	 	<g id="_89DBA39B-5350-49EA-988B-5CA20BB67DA1none" display="none"/>  	<g id="_89DBA39B-5350-49EA-988B-5CA20BB67DA1sequential" display="none">         <path oryx:anchors="bottom" fill="none" stroke="#000000" stroke-width="2" d="M46,76h10M46,72h10 M46,68h10" id="_89DBA39B-5350-49EA-988B-5CA20BB67DA1__89DBA39B-5350-49EA-988B-5CA20BB67DA1_20"/>     </g>   </g></g><g class="children" style="overflow:hidden"/><g class="edge"/></g><g class="controls"><g class="dockers"/><g class="magnets" transform="translate(270, 135)"><g pointer-events="all" display="none" transform="translate(-7, 12)"><circle cx="8" cy="8" r="4" stroke="none" fill="red" fill-opacity="0.3"/></g><g pointer-events="all" display="none" transform="translate(-7, 32)"><circle cx="8" cy="8" r="4" stroke="none" fill="red" fill-opacity="0.3"/></g><g pointer-events="all" display="none" transform="translate(-7, 52)"><circle cx="8" cy="8" r="4" stroke="none" fill="red" fill-opacity="0.3"/></g><g pointer-events="all" display="none" transform="translate(17, 71)"><circle cx="8" cy="8" r="4" stroke="none" fill="red" fill-opacity="0.3"/></g><g pointer-events="all" display="none" transform="translate(42, 71)"><circle cx="8" cy="8" r="4" stroke="none" fill="red" fill-opacity="0.3"/></g><g pointer-events="all" display="none" transform="translate(67, 71)"><circle cx="8" cy="8" r="4" stroke="none" fill="red" fill-opacity="0.3"/></g><g pointer-events="all" display="none" transform="translate(91, 12)"><circle cx="8" cy="8" r="4" stroke="none" fill="red" fill-opacity="0.3"/></g><g pointer-events="all" display="none" transform="translate(91, 32)"><circle cx="8" cy="8" r="4" stroke="none" fill="red" fill-opacity="0.3"/></g><g pointer-events="all" display="none" transform="translate(91, 52)"><circle cx="8" cy="8" r="4" stroke="none" fill="red" fill-opacity="0.3"/></g><g pointer-events="all" display="none" transform="translate(17, -7)"><circle cx="8" cy="8" r="4" stroke="none" fill="red" fill-opacity="0.3"/></g><g pointer-events="all" display="none" transform="translate(42, -7)"><circle cx="8" cy="8" r="4" stroke="none" fill="red" fill-opacity="0.3"/></g><g pointer-events="all" display="none" transform="translate(67, -7)"><circle cx="8" cy="8" r="4" stroke="none" fill="red" fill-opacity="0.3"/></g><g pointer-events="all" display="none" transform="translate(42, 32)"><circle cx="8" cy="8" r="4" stroke="none" fill="red" fill-opacity="0.3"/></g></g></g></g><g id="_8C2CD384-1890-40D8-8C8D-B8EA9F5BF37E" bpmn2nodeid="_B15AEFE8-B450-41FD-921B-6C5C1A7B63D5"><g class="stencils" transform="translate(525, 135)"><g class="me"><g pointer-events="fill" oryx:minimumSize="50 40" id="_8C2CD384-1890-40D8-8C8D-B8EA9F5BF37E">   	<defs id="_8C2CD384-1890-40D8-8C8D-B8EA9F5BF37E__8C2CD384-1890-40D8-8C8D-B8EA9F5BF37E_17"> 		<radialGradient id="_8C2CD384-1890-40D8-8C8D-B8EA9F5BF37Ebackground" cx="10%" cy="10%" r="100%" fx="10%" fy="10%"> 			<stop offset="0%" stop-color="#ffffff" stop-opacity="1" id="_8C2CD384-1890-40D8-8C8D-B8EA9F5BF37E__8C2CD384-1890-40D8-8C8D-B8EA9F5BF37E_18"/> 			<stop id="_8C2CD384-1890-40D8-8C8D-B8EA9F5BF37Efill_el" offset="100%" stop-color="#fafad2" stop-opacity="1"/> 		</radialGradient> 		<radialGradient id="_8C2CD384-1890-40D8-8C8D-B8EA9F5BF37Eborderbackground" cx="10%" cy="10%" r="100%" fx="10%" fy="10%"> 			<stop offset="0%" stop-color="#ffffff" stop-opacity="1" id="_8C2CD384-1890-40D8-8C8D-B8EA9F5BF37E__8C2CD384-1890-40D8-8C8D-B8EA9F5BF37E_19"/> 			<stop id="_8C2CD384-1890-40D8-8C8D-B8EA9F5BF37Efill_border" offset="100%" stop-color="#000000" stop-opacity="1" stroke="#000000"/> 		</radialGradient> 	</defs> 	 	<rect id="_8C2CD384-1890-40D8-8C8D-B8EA9F5BF37Etext_frame" oryx:anchors="bottom top right left" x="1" y="1" width="94" height="79" rx="10" ry="10" stroke="none" stroke-width="0" fill="none"/> 	<rect id="_8C2CD384-1890-40D8-8C8D-B8EA9F5BF37Ebg_frame" oryx:resize="vertical horizontal" x="0" y="0" width="100" height="80" rx="10" ry="10" stroke="#000000" stroke-width="1" fill="url(#_8C2CD384-1890-40D8-8C8D-B8EA9F5BF37Ebackground) #ffffcc"/> 		<text font-size="12" id="_8C2CD384-1890-40D8-8C8D-B8EA9F5BF37Etext_name" x="50" y="40" oryx:align="middle center" oryx:fittoelem="text_frame" stroke="black" text-anchor="middle" stroke-width="0pt" letter-spacing="-0.01px" fill="#000000" transform="rotate(0 50 40)" visibility="inherit" oryx:fontSize="12"><tspan x="50" y="40" dy="5">Promotion</tspan></text>     <g id="_8C2CD384-1890-40D8-8C8D-B8EA9F5BF37EmanualTask" transform="scale(0.7,0.7) translate(8,8)" display="none">     	<path oryx:anchors="top left" id="_8C2CD384-1890-40D8-8C8D-B8EA9F5BF37Eframe" style="opacity:1;fill:none;fill-opacity:1;stroke-width:1" d="M0.5,3.751l4.083-3.25c0,0,11.166,0.083,12.083,0.083s-2.417,2.917-1.5,2.917     s11.667,0,12.584,0c1.166,1.708-0.168,3.167-0.834,3.667s0.875,1.917-1,4.417c-0.75,0.25,0.75,1.875-1.333,3.333     c-1.167,0.583,0.583,1.542-1.25,2.833c-1.167,0-20.833,0.083-20.833,0.083l-2-1.333V3.751z" stroke="#000000"/> 		<path id="_8C2CD384-1890-40D8-8C8D-B8EA9F5BF37Eframe2" oryx:anchors="top left" style="opacity:1;fill:none;stroke-width:2" d="M 13.5 7 L 27 7" stroke="#000000"/> 		<path id="_8C2CD384-1890-40D8-8C8D-B8EA9F5BF37Eframe3" oryx:anchors="top left" style="opacity:1;fill:none;stroke-width:2" d="M 13.5 11 L 26 11" stroke="#000000"/> 		<path id="_8C2CD384-1890-40D8-8C8D-B8EA9F5BF37Eframe4" oryx:anchors="top left" style="opacity:1;fill:none;stroke-width:1.5" d="M 14 14.5 L 25 14.5" stroke="#000000"/> 		<path id="_8C2CD384-1890-40D8-8C8D-B8EA9F5BF37Eframe5" oryx:anchors="top left" style="opacity:1;fill:none;stroke-width:1.5" d="M 8.2 3.1 L 15 3.1" stroke="#000000"/> 	</g> 	 	<g id="_8C2CD384-1890-40D8-8C8D-B8EA9F5BF37EbusinessRuleTask" transform="scale(0.7,0.7) translate(8,8)" display="inherit"> 		<rect id="_8C2CD384-1890-40D8-8C8D-B8EA9F5BF37Eframe6" oryx:anchors="top left" x="0" y="0" width="22" height="4" style="opacity:1;fill:#B3B1B3;fill-opacity:1;" stroke="#000000"/> 		<rect id="_8C2CD384-1890-40D8-8C8D-B8EA9F5BF37Eframe7" oryx:anchors="top left" x="0" y="4" style="opacity:1;fill:none;" width="22" height="12" stroke="#000000"/> 		<path id="_8C2CD384-1890-40D8-8C8D-B8EA9F5BF37Eframe8" oryx:anchors="top left" style="opacity:1;fill:none;" d="M 0 10 L 22 10" stroke="#000000"/> 		<path id="_8C2CD384-1890-40D8-8C8D-B8EA9F5BF37Eframe9" oryx:anchors="top left" style="opacity:1; fill:none;" d="M 7 4 L 7 16" stroke="#000000"/> 	</g> 	 	<g id="_8C2CD384-1890-40D8-8C8D-B8EA9F5BF37EscriptTask" transform="scale(0.7,0.7) translate(8,8)" display="none"> 		<path oryx:anchors="top left" id="_8C2CD384-1890-40D8-8C8D-B8EA9F5BF37Eframe10" style="opacity:1;fill:none;" stroke="#000000" d="M6.402,0.5h14.5c0,0-5.833,2.833-5.833,5.583s4.417,6,4.417,9.167    s-4.167,5.083-4.167,5.083H0.235c0,0,5-2.667,5-5s-4.583-6.75-4.583-9.25S6.402,0.5,6.402,0.5z"/> 		<path oryx:anchors="top left" id="_8C2CD384-1890-40D8-8C8D-B8EA9F5BF37Eframe11" style="opacity:1;fill:none;stroke-width:1.5" d="M 3.5 4.5 L 13.5 4.5" stroke="#000000"/> 		<path oryx:anchors="top left" id="_8C2CD384-1890-40D8-8C8D-B8EA9F5BF37Eframe12" style="opacity:1;fill:none;stroke-width:1.5" d="M 3.8 8.5 L 13.8 8.5" stroke="#000000"/> 		<path oryx:anchors="top left" id="_8C2CD384-1890-40D8-8C8D-B8EA9F5BF37Eframe13" style="opacity:1;fill:none;stroke-width:1.5" d="M 6.3 12.5 L 16.3 12.5" stroke="#000000"/> 		<path oryx:anchors="top left" id="_8C2CD384-1890-40D8-8C8D-B8EA9F5BF37Eframe14" style="opacity:1;fill:none;stroke-width:1.5" d="M 6.5 16.5 L 16.5 16.5" stroke="#000000"/> 	</g> 	 	<g id="_8C2CD384-1890-40D8-8C8D-B8EA9F5BF37EuserTask" transform="scale(0.7,0.7) translate(8,8)" display="none"> 		<path id="_8C2CD384-1890-40D8-8C8D-B8EA9F5BF37Eframe15" oryx:anchors="top left" style="opacity:1;fill:#F4F6F7" stroke="#000000" d="M0.585,24.167h24.083v-7.833c0,0-2.333-3.917-7.083-5.167h-9.25    c-4.417,1.333-7.833,5.75-7.833,5.75L0.585,24.167z"/> 		<path id="_8C2CD384-1890-40D8-8C8D-B8EA9F5BF37Eframe16" oryx:anchors="top left" style="opacity:1;fill:none" d="M 6 20 L 6 24" stroke="#000000"/> 		<path id="_8C2CD384-1890-40D8-8C8D-B8EA9F5BF37Eframe17" oryx:anchors="top left" style="opacity:1;fill:none" d="M 20 20 L 20 24" stroke="#000000"/> 		<circle id="_8C2CD384-1890-40D8-8C8D-B8EA9F5BF37Eframe18" oryx:anchors="top left" fill="black" cx="13.002" cy="5.916" r="5.417" stroke="#000000"/> 		<path id="_8C2CD384-1890-40D8-8C8D-B8EA9F5BF37Eframe19" oryx:anchors="top left" style="opacity:1;fill:#F0EFF0;" stroke="#000000" d="M8.043,7.083c0,0,2.814-2.426,5.376-1.807s4.624-0.693,4.624-0.693    c0.25,1.688,0.042,3.75-1.458,5.584c0,0,1.083,0.75,1.083,1.5s0.125,1.875-1,3s-5.5,1.25-6.75,0S8.668,12.834,8.668,12    s0.583-1.25,1.25-1.917C8.835,9.5,7.419,7.708,8.043,7.083z"/> 	</g> 	 	<g id="_8C2CD384-1890-40D8-8C8D-B8EA9F5BF37EserviceTask" transform="scale(0.7,0.7) translate(8,8)" display="none"> 		<polygon oryx:anchors="top left" id="_8C2CD384-1890-40D8-8C8D-B8EA9F5BF37Eframe20" style="opacity:1;fill:#ffffff" stroke="#000000" points="15.392,5.064 17.954,2.502 20.347,4.895 17.786,7.455     18.729,9.732 22.353,9.732 22.353,13.115 18.731,13.115 17.788,15.392 20.351,17.955 17.958,20.347 15.397,17.786 13.12,18.729     13.12,22.353 9.737,22.353 9.737,18.731 7.46,17.788 4.897,20.35 2.506,17.958 5.066,15.397 4.124,13.12 0.5,13.12 0.5,9.737     4.121,9.737 5.065,7.461 2.503,4.898 4.895,2.506 7.455,5.066 9.732,4.125 9.732,0.5 13.116,0.5 13.116,4.121 "/> 		<circle oryx:anchors="top left" id="_8C2CD384-1890-40D8-8C8D-B8EA9F5BF37Eframe21" style="opacity:1;fill:none" stroke="#000000" cx="11.427" cy="11.426" r="3.714"/> 		<polygon oryx:anchors="top left" id="_8C2CD384-1890-40D8-8C8D-B8EA9F5BF37Eframe22" style="opacity:1;fill:#ffffff" stroke="#000000" points="21.392,11.064 23.954,8.502 26.347,10.895 23.786,13.455     24.729,15.732 28.353,15.732 28.353,19.115 24.731,19.115 23.788,21.392 26.351,23.955 23.958,26.347 21.397,23.786 19.12,24.729     19.12,28.353 15.737,28.353 15.737,24.731 13.46,23.788 10.897,26.35 8.506,23.958 11.066,21.397 10.124,19.12 6.5,19.12     6.5,15.737 10.121,15.737 11.065,13.461 8.503,10.898 10.895,8.506 13.455,11.066 15.732,10.125 15.732,6.5 19.116,6.5     19.116,10.121 "/> 		<circle oryx:anchors="top left" id="_8C2CD384-1890-40D8-8C8D-B8EA9F5BF37Eframe23" style="opacity:1;fill:none;" stroke="#000000" cx="17.427" cy="17.426" r="3.714"/> 	</g> 	 	<g id="_8C2CD384-1890-40D8-8C8D-B8EA9F5BF37EsendTask" display="none"> 		<path id="_8C2CD384-1890-40D8-8C8D-B8EA9F5BF37Estframe24" oryx:anchors="left top" stroke="#FFFFFF" fill="black" stroke-width="1" d="M8,11 L8,21 L24,21 L24,11 L16,17z"/> 		<path id="_8C2CD384-1890-40D8-8C8D-B8EA9F5BF37Estframe25" oryx:anchors="left top" stroke="#FFFFFF" fill="black" stroke-width="1" d="M7,10 L16,17 L25 10z"/> 	</g> 	 	<g id="_8C2CD384-1890-40D8-8C8D-B8EA9F5BF37EreceiveTask" display="none"> 		<path id="_8C2CD384-1890-40D8-8C8D-B8EA9F5BF37Eframe26" oryx:anchors="left top" stroke="#000000" fill="none" stroke-width="1" d="M8,11 L8,21 L24,21 L24,11z M8,11 L16,17 L24,11"/> 	</g> 	 	<g id="_8C2CD384-1890-40D8-8C8D-B8EA9F5BF37Enone" display="none"/>  	<g id="_8C2CD384-1890-40D8-8C8D-B8EA9F5BF37Esequential" display="none">         <path oryx:anchors="bottom" fill="none" stroke="#000000" stroke-width="2" d="M46,76h10M46,72h10 M46,68h10" id="_8C2CD384-1890-40D8-8C8D-B8EA9F5BF37E__8C2CD384-1890-40D8-8C8D-B8EA9F5BF37E_20"/>     </g>   </g></g><g class="children" style="overflow:hidden"/><g class="edge"/></g><g class="controls"><g class="dockers"/><g class="magnets" transform="translate(525, 135)"><g pointer-events="all" display="none" transform="translate(-7, 12)"><circle cx="8" cy="8" r="4" stroke="none" fill="red" fill-opacity="0.3"/></g><g pointer-events="all" display="none" transform="translate(-7, 32)"><circle cx="8" cy="8" r="4" stroke="none" fill="red" fill-opacity="0.3"/></g><g pointer-events="all" display="none" transform="translate(-7, 52)"><circle cx="8" cy="8" r="4" stroke="none" fill="red" fill-opacity="0.3"/></g><g pointer-events="all" display="none" transform="translate(17, 71)"><circle cx="8" cy="8" r="4" stroke="none" fill="red" fill-opacity="0.3"/></g><g pointer-events="all" display="none" transform="translate(42, 71)"><circle cx="8" cy="8" r="4" stroke="none" fill="red" fill-opacity="0.3"/></g><g pointer-events="all" display="none" transform="translate(67, 71)"><circle cx="8" cy="8" r="4" stroke="none" fill="red" fill-opacity="0.3"/></g><g pointer-events="all" display="none" transform="translate(91, 12)"><circle cx="8" cy="8" r="4" stroke="none" fill="red" fill-opacity="0.3"/></g><g pointer-events="all" display="none" transform="translate(91, 32)"><circle cx="8" cy="8" r="4" stroke="none" fill="red" fill-opacity="0.3"/></g><g pointer-events="all" display="none" transform="translate(91, 52)"><circle cx="8" cy="8" r="4" stroke="none" fill="red" fill-opacity="0.3"/></g><g pointer-events="all" display="none" transform="translate(17, -7)"><circle cx="8" cy="8" r="4" stroke="none" fill="red" fill-opacity="0.3"/></g><g pointer-events="all" display="none" transform="translate(42, -7)"><circle cx="8" cy="8" r="4" stroke="none" fill="red" fill-opacity="0.3"/></g><g pointer-events="all" display="none" transform="translate(67, -7)"><circle cx="8" cy="8" r="4" stroke="none" fill="red" fill-opacity="0.3"/></g><g pointer-events="all" display="none" transform="translate(42, 32)"><circle cx="8" cy="8" r="4" stroke="none" fill="red" fill-opacity="0.3"/></g></g></g></g><g id="_324F7C14-7097-4866-825C-C44B27D90F32" bpmn2nodeid="_2B5B374D-A48E-4DCC-A2F0-A0195859146E"><g class="stencils" transform="translate(727, 161)"><g class="me"><g pointer-events="fill" id="_324F7C14-7097-4866-825C-C44B27D90F32">      <defs id="_324F7C14-7097-4866-825C-C44B27D90F32__324F7C14-7097-4866-825C-C44B27D90F32_5"> 		<radialGradient id="_324F7C14-7097-4866-825C-C44B27D90F32background" cx="10%" cy="10%" r="100%" fx="10%" fy="10%"> 			<stop offset="0%" stop-color="#ffffff" stop-opacity="1" id="_324F7C14-7097-4866-825C-C44B27D90F32__324F7C14-7097-4866-825C-C44B27D90F32_6"/> 			<stop id="_324F7C14-7097-4866-825C-C44B27D90F32fill_el" offset="100%" stop-color="#ff6347" stop-opacity="1"/> 		</radialGradient> 	</defs> 	     <circle id="_324F7C14-7097-4866-825C-C44B27D90F32bg_frame" cx="14" cy="14" r="14" stroke="#000000" fill="url(#_324F7C14-7097-4866-825C-C44B27D90F32background) white" stroke-width="3"/> 	<text font-size="11" id="_324F7C14-7097-4866-825C-C44B27D90F32text_name" x="14" y="30" oryx:align="top center" stroke="black" stroke-width="0pt" letter-spacing="-0.01px" fill="#000000" text-anchor="middle" transform="rotate(0 14 30)" visibility="inherit" oryx:fontSize="11"/>   </g></g><g class="children" style="overflow:hidden"/><g class="edge"/></g><g class="controls"><g class="dockers"/><g class="magnets" transform="translate(727, 161)"><g pointer-events="all" display="none" transform="translate(6, 6)"><circle cx="8" cy="8" r="4" stroke="none" fill="red" fill-opacity="0.3"/></g></g></g></g></g><g class="edge"><g id="_1B8FA9E1-0F5D-43EC-9B42-958F22BCE897" bpmn2nodeid="_DDDEB8C0-7DA2-446A-9C55-2348EAE96D8E"><g class="stencils"><g class="me"><g pointer-events="painted" bpmn2nodeid="_27AB5D00-F43B-4C31-8123-ADBEF38A25D4"><path id="_1B8FA9E1-0F5D-43EC-9B42-958F22BCE897_1" d="M150.45275996987286 179.5823578386521L269.85974003012717 176.3551421613479 " stroke="#000000" fill="none" stroke-width="2" stroke-linecap="round" stroke-linejoin="round" marker-start="url(#_1B8FA9E1-0F5D-43EC-9B42-958F22BCE897start)" marker-end="url(#_1B8FA9E1-0F5D-43EC-9B42-958F22BCE897end)"/></g><text id="_1B8FA9E1-0F5D-43EC-9B42-958F22BCE897text_name" font-size="12" x="164.45275996987286" y="165.5823578386521" oryx:edgePosition="startTop" stroke-width="0pt" letter-spacing="-0.01px" fill="#000000" text-anchor="start" transform="rotate(358.45184230102205 150.45275996987286 179.5823578386521)" visibility="inherit" oryx:fontSize="12"/></g><g class="children" style="overflow:hidden"/><g class="edge"/></g><g class="controls"><g class="dockers"/><g class="magnets"/></g></g><g id="_B057C6C1-FD8C-4B96-B62C-BCA4DDC1DD13" bpmn2nodeid="_ADB89C05-EDAB-4A74-B8A7-9E0E8E62C44D"><g class="stencils"><g class="me"><g pointer-events="painted" bpmn2nodeid="_E9734C37-B383-454B-87FE-C6240951C6E4"><path id="_B057C6C1-FD8C-4B96-B62C-BCA4DDC1DD13_1" d="M370.8046875 175L524.1953125 175 " stroke="#000000" fill="none" stroke-width="2" stroke-linecap="round" stroke-linejoin="round" marker-start="url(#_B057C6C1-FD8C-4B96-B62C-BCA4DDC1DD13start)" marker-end="url(#_B057C6C1-FD8C-4B96-B62C-BCA4DDC1DD13end)"/></g><text id="_B057C6C1-FD8C-4B96-B62C-BCA4DDC1DD13text_name" font-size="12" x="384.8046875" y="161" oryx:edgePosition="startTop" stroke-width="0pt" letter-spacing="-0.01px" fill="#000000" text-anchor="start" transform="rotate(360 370.8046875 175)" visibility="inherit" oryx:fontSize="12"/></g><g class="children" style="overflow:hidden"/><g class="edge"/></g><g class="controls"><g class="dockers"/><g class="magnets"/></g></g><g id="_53BDC15E-007B-4127-889E-DE8920F91ADF" bpmn2nodeid="_3C66FDD0-9C9F-4DD7-9FEE-5C316F37333C"><g class="stencils"><g class="me"><g pointer-events="painted" bpmn2nodeid="_63D640EA-9DDA-4302-A1F0-BAAA45325A0D"><path id="_53BDC15E-007B-4127-889E-DE8920F91ADF_1" d="M625.28125 175L726.3828125 175 " stroke="#000000" fill="none" stroke-width="2" stroke-linecap="round" stroke-linejoin="round" marker-start="url(#_53BDC15E-007B-4127-889E-DE8920F91ADFstart)" marker-end="url(#_53BDC15E-007B-4127-889E-DE8920F91ADFend)"/></g><text id="_53BDC15E-007B-4127-889E-DE8920F91ADFtext_name" font-size="12" x="639.28125" y="161" oryx:edgePosition="startTop" stroke-width="0pt" letter-spacing="-0.01px" fill="#000000" text-anchor="start" transform="rotate(360 625.28125 175)" visibility="inherit" oryx:fontSize="12"/></g><g class="children" style="overflow:hidden"/><g class="edge"/></g><g class="controls"><g class="dockers"/><g class="magnets"/></g></g></g><text id="_8B0B7851-6E84-4ED0-AF1F-5085532E4466" style="stroke-width:1;fill:rgb(177,194,214);font-family:arial;font-weight:bold" font-size="12" onclick="ORYX.Plugins.CanvasTitle.openTextualAnalysis()" onmouseover="ORYX.Plugins.CanvasTitle.addToolTip('_8B0B7851-6E84-4ED0-AF1F-5085532E4466')" transform="translate(10, 20)">P1000 v.1.0 (src.P1000)</text><text id="_8B0B7851-6E84-4ED0-AF1F-5085532E4466" style="stroke-width:1;fill:rgb(177,194,214);font-family:arial;font-weight:bold" font-size="12" onclick="ORYX.Plugins.CanvasTitle.openTextualAnalysis()" onmouseover="ORYX.Plugins.CanvasTitle.addToolTip('_8B0B7851-6E84-4ED0-AF1F-5085532E4466')" transform="translate(10, 20)">P1000 v.1.0 (src.P1000)</text></g></g></svg>