<svg xmlns="http://www.w3.org/2000/svg" xmlns:oryx="http://oryx-editor.org" id="_01002F5E-5CB4-4A9B-AB78-4D8DA2FB6EA2" width="959" height="259" xmlns:xlink="http://www.w3.org/1999/xlink" xmlns:svg="http://www.w3.org/2000/svg"><defs><marker id="_EE5649F6-7094-4A46-AB16-13B2CB3E71C5start" refX="1" refY="5" markerUnits="userSpaceOnUse" markerWidth="17" markerHeight="11" orient="auto" fill="#000000" stroke="#000000"> 	  		<path id="_EE5649F6-7094-4A46-AB16-13B2CB3E71C5conditional" d="M 0 5 L 8 0 L 16 5 L 8 10 L 0 5" fill="white" stroke="#000000" stroke-width="1" display="none"/> 			<path id="_EE5649F6-7094-4A46-AB16-13B2CB3E71C5default" d="M 5 0 L 11 10" fill="white" stroke="#000000" stroke-width="1" display="none"/> 	  	</marker><marker id="_EE5649F6-7094-4A46-AB16-13B2CB3E71C5end" refX="15" refY="6" markerUnits="userSpaceOnUse" markerWidth="15" markerHeight="12" orient="auto" fill="#000000" stroke="#000000"> 	  		<path id="_EE5649F6-7094-4A46-AB16-13B2CB3E71C5frame2" d="M 0 1 L 15 6 L 0 11z" fill="#000000" stroke="#000000" stroke-linejoin="round" stroke-width="2"/> 	  	</marker><marker id="_8E04D7B3-87B8-462B-B131-568ADB48A18Bstart" refX="1" refY="5" markerUnits="userSpaceOnUse" markerWidth="17" markerHeight="11" orient="auto" fill="#000000" stroke="#000000"> 	  		<path id="_8E04D7B3-87B8-462B-B131-568ADB48A18Bconditional" d="M 0 5 L 8 0 L 16 5 L 8 10 L 0 5" fill="white" stroke="#000000" stroke-width="1" display="none"/> 			<path id="_8E04D7B3-87B8-462B-B131-568ADB48A18Bdefault" d="M 5 0 L 11 10" fill="white" stroke="#000000" stroke-width="1" display="none"/> 	  	</marker><marker id="_8E04D7B3-87B8-462B-B131-568ADB48A18Bend" refX="15" refY="6" markerUnits="userSpaceOnUse" markerWidth="15" markerHeight="12" orient="auto" fill="#000000" stroke="#000000"> 	  		<path id="_8E04D7B3-87B8-462B-B131-568ADB48A18Bframe2" d="M 0 1 L 15 6 L 0 11z" fill="#000000" stroke="#000000" stroke-linejoin="round" stroke-width="2"/> 	  	</marker><marker id="_466D41B8-1002-4425-8235-9AA1FEE1C127start" refX="1" refY="5" markerUnits="userSpaceOnUse" markerWidth="17" markerHeight="11" orient="auto" fill="#000000" stroke="#000000"> 	  		<path id="_466D41B8-1002-4425-8235-9AA1FEE1C127conditional" d="M 0 5 L 8 0 L 16 5 L 8 10 L 0 5" fill="white" stroke="#000000" stroke-width="1" display="none"/> 			<path id="_466D41B8-1002-4425-8235-9AA1FEE1C127default" d="M 5 0 L 11 10" fill="white" stroke="#000000" stroke-width="1" display="none"/> 	  	</marker><marker id="_466D41B8-1002-4425-8235-9AA1FEE1C127end" refX="15" refY="6" markerUnits="userSpaceOnUse" markerWidth="15" markerHeight="12" orient="auto" fill="#000000" stroke="#000000"> 	  		<path id="_466D41B8-1002-4425-8235-9AA1FEE1C127frame2" d="M 0 1 L 15 6 L 0 11z" fill="#000000" stroke="#000000" stroke-linejoin="round" stroke-width="2"/> 	  	</marker><marker id="_684E8402-B797-4AE1-A3FA-9CBAF572545Dstart" refX="1" refY="5" markerUnits="userSpaceOnUse" markerWidth="17" markerHeight="11" orient="auto" fill="#000000" stroke="#000000"> 	  		<path id="_684E8402-B797-4AE1-A3FA-9CBAF572545Dconditional" d="M 0 5 L 8 0 L 16 5 L 8 10 L 0 5" fill="white" stroke="#000000" stroke-width="1" display="none"/> 			<path id="_684E8402-B797-4AE1-A3FA-9CBAF572545Ddefault" d="M 5 0 L 11 10" fill="white" stroke="#000000" stroke-width="1" display="none"/> 	  	</marker><marker id="_684E8402-B797-4AE1-A3FA-9CBAF572545Dend" refX="15" refY="6" markerUnits="userSpaceOnUse" markerWidth="15" markerHeight="12" orient="auto" fill="#000000" stroke="#000000"> 	  		<path id="_684E8402-B797-4AE1-A3FA-9CBAF572545Dframe2" d="M 0 1 L 15 6 L 0 11z" fill="#000000" stroke="#000000" stroke-linejoin="round" stroke-width="2"/> 	  	</marker></defs><g stroke="none" font-family="Verdana, sans-serif" font-size-adjust="none" font-style="normal" font-variant="normal" font-weight="normal" line-heigth="normal" font-size="12"><g class="stencils" transform="translate(15, 16)"><g class="me"/><g class="children"><g id="_53769C7F-A0CB-4A88-9F20-35450719DFE2" bpmn2nodeid="processStartEvent"><g class="stencils" transform="translate(60, 160)"><g class="me"><g pointer-events="fill" id="_53769C7F-A0CB-4A88-9F20-35450719DFE2">        <defs id="_53769C7F-A0CB-4A88-9F20-35450719DFE2__53769C7F-A0CB-4A88-9F20-35450719DFE2_5"> 		<radialGradient id="_53769C7F-A0CB-4A88-9F20-35450719DFE2background" cx="10%" cy="10%" r="100%" fx="10%" fy="10%"> 			<stop offset="0%" stop-color="#ffffff" stop-opacity="1" id="_53769C7F-A0CB-4A88-9F20-35450719DFE2__53769C7F-A0CB-4A88-9F20-35450719DFE2_6"/> 			<stop id="_53769C7F-A0CB-4A88-9F20-35450719DFE2fill_el" offset="100%" stop-color="#9acd32" stop-opacity="1"/> 		</radialGradient> 	</defs> 	     <circle id="_53769C7F-A0CB-4A88-9F20-35450719DFE2bg_frame" cx="15" cy="15" r="15" stroke="#000000" fill="url(#_53769C7F-A0CB-4A88-9F20-35450719DFE2background) white" stroke-width="1" style="stroke-dasharray: 5.5, 3"/>      <circle id="_53769C7F-A0CB-4A88-9F20-35450719DFE2frame" cx="15" cy="15" r="15" stroke="#000000" fill="none" stroke-width="1" display="inherit"/>  	<text font-size="11" id="_53769C7F-A0CB-4A88-9F20-35450719DFE2text_name" x="15" y="32" oryx:align="top center" stroke="black" stroke-width="0pt" letter-spacing="-0.01px" fill="#000000" text-anchor="middle" transform="rotate(0 15 32)" visibility="inherit" oryx:fontSize="11"/>   </g></g><g class="children" style="overflow:hidden"/><g class="edge"/></g><g class="controls"><g class="dockers"/><g class="magnets" transform="translate(60, 160)"><g pointer-events="all" display="none" transform="translate(7, 7)"><circle cx="8" cy="8" r="4" stroke="none" fill="red" fill-opacity="0.3"/></g></g></g></g><g id="_6AE10D3F-5DF4-44C6-B5D1-1C3BDE878235" bpmn2nodeid="_8D68A39B-636B-4521-9DB4-A6A13D00A50A"><g class="stencils" transform="translate(195, 135)"><g class="me"><g pointer-events="fill" oryx:minimumSize="50 40" id="_6AE10D3F-5DF4-44C6-B5D1-1C3BDE878235">   	<defs id="_6AE10D3F-5DF4-44C6-B5D1-1C3BDE878235__6AE10D3F-5DF4-44C6-B5D1-1C3BDE878235_17"> 		<radialGradient id="_6AE10D3F-5DF4-44C6-B5D1-1C3BDE878235background" cx="10%" cy="10%" r="100%" fx="10%" fy="10%"> 			<stop offset="0%" stop-color="#ffffff" stop-opacity="1" id="_6AE10D3F-5DF4-44C6-B5D1-1C3BDE878235__6AE10D3F-5DF4-44C6-B5D1-1C3BDE878235_18"/> 			<stop id="_6AE10D3F-5DF4-44C6-B5D1-1C3BDE878235fill_el" offset="100%" stop-color="#fafad2" stop-opacity="1"/> 		</radialGradient> 		<radialGradient id="_6AE10D3F-5DF4-44C6-B5D1-1C3BDE878235borderbackground" cx="10%" cy="10%" r="100%" fx="10%" fy="10%"> 			<stop offset="0%" stop-color="#ffffff" stop-opacity="1" id="_6AE10D3F-5DF4-44C6-B5D1-1C3BDE878235__6AE10D3F-5DF4-44C6-B5D1-1C3BDE878235_19"/> 			<stop id="_6AE10D3F-5DF4-44C6-B5D1-1C3BDE878235fill_border" offset="100%" stop-color="#000000" stop-opacity="1" stroke="#000000"/> 		</radialGradient> 	</defs> 	 	<rect id="_6AE10D3F-5DF4-44C6-B5D1-1C3BDE878235text_frame" oryx:anchors="bottom top right left" x="1" y="1" width="138" height="82" rx="10" ry="10" stroke="none" stroke-width="0" fill="none"/> 	<rect id="_6AE10D3F-5DF4-44C6-B5D1-1C3BDE878235bg_frame" oryx:resize="vertical horizontal" x="0" y="0" width="144" height="83" rx="10" ry="10" stroke="#000000" stroke-width="1" fill="url(#_6AE10D3F-5DF4-44C6-B5D1-1C3BDE878235background) #ffffcc"/> 		<text font-size="12" id="_6AE10D3F-5DF4-44C6-B5D1-1C3BDE878235text_name" x="72" y="41.5" oryx:align="middle center" oryx:fittoelem="text_frame" stroke="black" text-anchor="middle" stroke-width="0pt" letter-spacing="-0.01px" fill="#000000" transform="rotate(0 72 41.5)" visibility="inherit" oryx:fontSize="12"><tspan x="72" y="41.5" dy="5" id="ext-gen1632">Promotion</tspan></text>     <g id="_6AE10D3F-5DF4-44C6-B5D1-1C3BDE878235manualTask" transform="scale(0.7,0.7) translate(8,8)" display="none">     	<path oryx:anchors="top left" id="_6AE10D3F-5DF4-44C6-B5D1-1C3BDE878235frame" style="opacity:1;fill:none;fill-opacity:1;stroke-width:1" d="M0.5,3.751l4.083-3.25c0,0,11.166,0.083,12.083,0.083s-2.417,2.917-1.5,2.917     s11.667,0,12.584,0c1.166,1.708-0.168,3.167-0.834,3.667s0.875,1.917-1,4.417c-0.75,0.25,0.75,1.875-1.333,3.333     c-1.167,0.583,0.583,1.542-1.25,2.833c-1.167,0-20.833,0.083-20.833,0.083l-2-1.333V3.751z" stroke="#000000"/> 		<path id="_6AE10D3F-5DF4-44C6-B5D1-1C3BDE878235frame2" oryx:anchors="top left" style="opacity:1;fill:none;stroke-width:2" d="M 13.5 7 L 27 7" stroke="#000000"/> 		<path id="_6AE10D3F-5DF4-44C6-B5D1-1C3BDE878235frame3" oryx:anchors="top left" style="opacity:1;fill:none;stroke-width:2" d="M 13.5 11 L 26 11" stroke="#000000"/> 		<path id="_6AE10D3F-5DF4-44C6-B5D1-1C3BDE878235frame4" oryx:anchors="top left" style="opacity:1;fill:none;stroke-width:1.5" d="M 14 14.5 L 25 14.5" stroke="#000000"/> 		<path id="_6AE10D3F-5DF4-44C6-B5D1-1C3BDE878235frame5" oryx:anchors="top left" style="opacity:1;fill:none;stroke-width:1.5" d="M 8.2 3.1 L 15 3.1" stroke="#000000"/> 	</g> 	 	<g id="_6AE10D3F-5DF4-44C6-B5D1-1C3BDE878235businessRuleTask" transform="scale(0.7,0.7) translate(8,8)" display="inherit"> 		<rect id="_6AE10D3F-5DF4-44C6-B5D1-1C3BDE878235frame6" oryx:anchors="top left" x="0" y="0" width="22" height="4" style="opacity:1;fill:#B3B1B3;fill-opacity:1;" stroke="#000000"/> 		<rect id="_6AE10D3F-5DF4-44C6-B5D1-1C3BDE878235frame7" oryx:anchors="top left" x="0" y="4" style="opacity:1;fill:none;" width="22" height="12" stroke="#000000"/> 		<path id="_6AE10D3F-5DF4-44C6-B5D1-1C3BDE878235frame8" oryx:anchors="top left" style="opacity:1;fill:none;" d="M 0 10 L 22 10" stroke="#000000"/> 		<path id="_6AE10D3F-5DF4-44C6-B5D1-1C3BDE878235frame9" oryx:anchors="top left" style="opacity:1; fill:none;" d="M 7 4 L 7 16" stroke="#000000"/> 	</g> 	 	<g id="_6AE10D3F-5DF4-44C6-B5D1-1C3BDE878235scriptTask" transform="scale(0.7,0.7) translate(8,8)" display="none"> 		<path oryx:anchors="top left" id="_6AE10D3F-5DF4-44C6-B5D1-1C3BDE878235frame10" style="opacity:1;fill:none;" stroke="#000000" d="M6.402,0.5h14.5c0,0-5.833,2.833-5.833,5.583s4.417,6,4.417,9.167    s-4.167,5.083-4.167,5.083H0.235c0,0,5-2.667,5-5s-4.583-6.75-4.583-9.25S6.402,0.5,6.402,0.5z"/> 		<path oryx:anchors="top left" id="_6AE10D3F-5DF4-44C6-B5D1-1C3BDE878235frame11" style="opacity:1;fill:none;stroke-width:1.5" d="M 3.5 4.5 L 13.5 4.5" stroke="#000000"/> 		<path oryx:anchors="top left" id="_6AE10D3F-5DF4-44C6-B5D1-1C3BDE878235frame12" style="opacity:1;fill:none;stroke-width:1.5" d="M 3.8 8.5 L 13.8 8.5" stroke="#000000"/> 		<path oryx:anchors="top left" id="_6AE10D3F-5DF4-44C6-B5D1-1C3BDE878235frame13" style="opacity:1;fill:none;stroke-width:1.5" d="M 6.3 12.5 L 16.3 12.5" stroke="#000000"/> 		<path oryx:anchors="top left" id="_6AE10D3F-5DF4-44C6-B5D1-1C3BDE878235frame14" style="opacity:1;fill:none;stroke-width:1.5" d="M 6.5 16.5 L 16.5 16.5" stroke="#000000"/> 	</g> 	 	<g id="_6AE10D3F-5DF4-44C6-B5D1-1C3BDE878235userTask" transform="scale(0.7,0.7) translate(8,8)" display="none"> 		<path id="_6AE10D3F-5DF4-44C6-B5D1-1C3BDE878235frame15" oryx:anchors="top left" style="opacity:1;fill:#F4F6F7" stroke="#000000" d="M0.585,24.167h24.083v-7.833c0,0-2.333-3.917-7.083-5.167h-9.25    c-4.417,1.333-7.833,5.75-7.833,5.75L0.585,24.167z"/> 		<path id="_6AE10D3F-5DF4-44C6-B5D1-1C3BDE878235frame16" oryx:anchors="top left" style="opacity:1;fill:none" d="M 6 20 L 6 24" stroke="#000000"/> 		<path id="_6AE10D3F-5DF4-44C6-B5D1-1C3BDE878235frame17" oryx:anchors="top left" style="opacity:1;fill:none" d="M 20 20 L 20 24" stroke="#000000"/> 		<circle id="_6AE10D3F-5DF4-44C6-B5D1-1C3BDE878235frame18" oryx:anchors="top left" fill="black" cx="13.002" cy="5.916" r="5.417" stroke="#000000"/> 		<path id="_6AE10D3F-5DF4-44C6-B5D1-1C3BDE878235frame19" oryx:anchors="top left" style="opacity:1;fill:#F0EFF0;" stroke="#000000" d="M8.043,7.083c0,0,2.814-2.426,5.376-1.807s4.624-0.693,4.624-0.693    c0.25,1.688,0.042,3.75-1.458,5.584c0,0,1.083,0.75,1.083,1.5s0.125,1.875-1,3s-5.5,1.25-6.75,0S8.668,12.834,8.668,12    s0.583-1.25,1.25-1.917C8.835,9.5,7.419,7.708,8.043,7.083z"/> 	</g> 	 	<g id="_6AE10D3F-5DF4-44C6-B5D1-1C3BDE878235serviceTask" transform="scale(0.7,0.7) translate(8,8)" display="none"> 		<polygon oryx:anchors="top left" id="_6AE10D3F-5DF4-44C6-B5D1-1C3BDE878235frame20" style="opacity:1;fill:#ffffff" stroke="#000000" points="15.392,5.064 17.954,2.502 20.347,4.895 17.786,7.455     18.729,9.732 22.353,9.732 22.353,13.115 18.731,13.115 17.788,15.392 20.351,17.955 17.958,20.347 15.397,17.786 13.12,18.729     13.12,22.353 9.737,22.353 9.737,18.731 7.46,17.788 4.897,20.35 2.506,17.958 5.066,15.397 4.124,13.12 0.5,13.12 0.5,9.737     4.121,9.737 5.065,7.461 2.503,4.898 4.895,2.506 7.455,5.066 9.732,4.125 9.732,0.5 13.116,0.5 13.116,4.121 "/> 		<circle oryx:anchors="top left" id="_6AE10D3F-5DF4-44C6-B5D1-1C3BDE878235frame21" style="opacity:1;fill:none" stroke="#000000" cx="11.427" cy="11.426" r="3.714"/> 		<polygon oryx:anchors="top left" id="_6AE10D3F-5DF4-44C6-B5D1-1C3BDE878235frame22" style="opacity:1;fill:#ffffff" stroke="#000000" points="21.392,11.064 23.954,8.502 26.347,10.895 23.786,13.455     24.729,15.732 28.353,15.732 28.353,19.115 24.731,19.115 23.788,21.392 26.351,23.955 23.958,26.347 21.397,23.786 19.12,24.729     19.12,28.353 15.737,28.353 15.737,24.731 13.46,23.788 10.897,26.35 8.506,23.958 11.066,21.397 10.124,19.12 6.5,19.12     6.5,15.737 10.121,15.737 11.065,13.461 8.503,10.898 10.895,8.506 13.455,11.066 15.732,10.125 15.732,6.5 19.116,6.5     19.116,10.121 "/> 		<circle oryx:anchors="top left" id="_6AE10D3F-5DF4-44C6-B5D1-1C3BDE878235frame23" style="opacity:1;fill:none;" stroke="#000000" cx="17.427" cy="17.426" r="3.714"/> 	</g> 	 	<g id="_6AE10D3F-5DF4-44C6-B5D1-1C3BDE878235sendTask" display="none"> 		<path id="_6AE10D3F-5DF4-44C6-B5D1-1C3BDE878235stframe24" oryx:anchors="left top" stroke="#FFFFFF" fill="black" stroke-width="1" d="M8,11 L8,21 L24,21 L24,11 L16,17z"/> 		<path id="_6AE10D3F-5DF4-44C6-B5D1-1C3BDE878235stframe25" oryx:anchors="left top" stroke="#FFFFFF" fill="black" stroke-width="1" d="M7,10 L16,17 L25 10z"/> 	</g> 	 	<g id="_6AE10D3F-5DF4-44C6-B5D1-1C3BDE878235receiveTask" display="none"> 		<path id="_6AE10D3F-5DF4-44C6-B5D1-1C3BDE878235frame26" oryx:anchors="left top" stroke="#000000" fill="none" stroke-width="1" d="M8,11 L8,21 L24,21 L24,11z M8,11 L16,17 L24,11"/> 	</g> 	 	<g id="_6AE10D3F-5DF4-44C6-B5D1-1C3BDE878235none" display="inherit"/>  	<g id="_6AE10D3F-5DF4-44C6-B5D1-1C3BDE878235sequential" display="none">         <path oryx:anchors="bottom" fill="none" stroke="#000000" stroke-width="2" d=" M68.44 79  h10  M68.44 75  h10  M68.44 71  h10 " id="_6AE10D3F-5DF4-44C6-B5D1-1C3BDE878235__6AE10D3F-5DF4-44C6-B5D1-1C3BDE878235_20"/>     </g>   </g></g><g class="children" style="overflow:hidden"/><g class="edge"/></g><g class="controls"><g class="dockers"/><g class="magnets" transform="translate(195, 135)"><g pointer-events="all" display="none" transform="translate(-7, 12.75)"><circle cx="8" cy="8" r="4" stroke="none" fill="red" fill-opacity="0.3"/></g><g pointer-events="all" display="none" transform="translate(-7, 33.5)"><circle cx="8" cy="8" r="4" stroke="none" fill="red" fill-opacity="0.3"/></g><g pointer-events="all" display="none" transform="translate(-7, 54.25000000000001)"><circle cx="8" cy="8" r="4" stroke="none" fill="red" fill-opacity="0.3"/></g><g pointer-events="all" display="none" transform="translate(28, 74)"><circle cx="8" cy="8" r="4" stroke="none" fill="red" fill-opacity="0.3"/></g><g pointer-events="all" display="none" transform="translate(64, 74)"><circle cx="8" cy="8" r="4" stroke="none" fill="red" fill-opacity="0.3"/></g><g pointer-events="all" display="none" transform="translate(100, 74)"><circle cx="8" cy="8" r="4" stroke="none" fill="red" fill-opacity="0.3"/></g><g pointer-events="all" display="none" transform="translate(135, 12.75)"><circle cx="8" cy="8" r="4" stroke="none" fill="red" fill-opacity="0.3"/></g><g pointer-events="all" display="none" transform="translate(135, 33.5)"><circle cx="8" cy="8" r="4" stroke="none" fill="red" fill-opacity="0.3"/></g><g pointer-events="all" display="none" transform="translate(135, 54.25000000000001)"><circle cx="8" cy="8" r="4" stroke="none" fill="red" fill-opacity="0.3"/></g><g pointer-events="all" display="none" transform="translate(28, -7)"><circle cx="8" cy="8" r="4" stroke="none" fill="red" fill-opacity="0.3"/></g><g pointer-events="all" display="none" transform="translate(64, -7)"><circle cx="8" cy="8" r="4" stroke="none" fill="red" fill-opacity="0.3"/></g><g pointer-events="all" display="none" transform="translate(100, -7)"><circle cx="8" cy="8" r="4" stroke="none" fill="red" fill-opacity="0.3"/></g><g pointer-events="all" display="none" transform="translate(64, 33.5)"><circle cx="8" cy="8" r="4" stroke="none" fill="red" fill-opacity="0.3"/></g></g></g></g><g id="_7214CA90-B096-4703-B347-B560A9E1D15A" bpmn2nodeid="_A24FFEB2-52A4-4B1C-A34E-2B7D5484A21C"><g class="stencils" transform="translate(405, 135)"><g class="me"><g pointer-events="fill" oryx:minimumSize="50 40" id="_7214CA90-B096-4703-B347-B560A9E1D15A">   	<defs id="_7214CA90-B096-4703-B347-B560A9E1D15A__7214CA90-B096-4703-B347-B560A9E1D15A_17"> 		<radialGradient id="_7214CA90-B096-4703-B347-B560A9E1D15Abackground" cx="10%" cy="10%" r="100%" fx="10%" fy="10%"> 			<stop offset="0%" stop-color="#ffffff" stop-opacity="1" id="_7214CA90-B096-4703-B347-B560A9E1D15A__7214CA90-B096-4703-B347-B560A9E1D15A_18"/> 			<stop id="_7214CA90-B096-4703-B347-B560A9E1D15Afill_el" offset="100%" stop-color="#fafad2" stop-opacity="1"/> 		</radialGradient> 		<radialGradient id="_7214CA90-B096-4703-B347-B560A9E1D15Aborderbackground" cx="10%" cy="10%" r="100%" fx="10%" fy="10%"> 			<stop offset="0%" stop-color="#ffffff" stop-opacity="1" id="_7214CA90-B096-4703-B347-B560A9E1D15A__7214CA90-B096-4703-B347-B560A9E1D15A_19"/> 			<stop id="_7214CA90-B096-4703-B347-B560A9E1D15Afill_border" offset="100%" stop-color="#000000" stop-opacity="1" stroke="#000000"/> 		</radialGradient> 	</defs> 	 	<rect id="_7214CA90-B096-4703-B347-B560A9E1D15Atext_frame" oryx:anchors="bottom top right left" x="1" y="1" width="99" height="79" rx="10" ry="10" stroke="none" stroke-width="0" fill="none"/> 	<rect id="_7214CA90-B096-4703-B347-B560A9E1D15Abg_frame" oryx:resize="vertical horizontal" x="0" y="0" width="105" height="80" rx="10" ry="10" stroke="#000000" stroke-width="1" fill="url(#_7214CA90-B096-4703-B347-B560A9E1D15Abackground) #ffffcc"/> 		<text font-size="12" id="_7214CA90-B096-4703-B347-B560A9E1D15Atext_name" x="52.5" y="40" oryx:align="middle center" oryx:fittoelem="text_frame" stroke="black" text-anchor="middle" stroke-width="0pt" letter-spacing="-0.01px" fill="#000000" transform="rotate(0 52.5 40)" visibility="inherit" oryx:fontSize="12"><tspan x="52.5" y="40" dy="5" id="ext-gen1634">Standard</tspan></text>     <g id="_7214CA90-B096-4703-B347-B560A9E1D15AmanualTask" transform="scale(0.7,0.7) translate(8,8)" display="none">     	<path oryx:anchors="top left" id="_7214CA90-B096-4703-B347-B560A9E1D15Aframe" style="opacity:1;fill:none;fill-opacity:1;stroke-width:1" d="M0.5,3.751l4.083-3.25c0,0,11.166,0.083,12.083,0.083s-2.417,2.917-1.5,2.917     s11.667,0,12.584,0c1.166,1.708-0.168,3.167-0.834,3.667s0.875,1.917-1,4.417c-0.75,0.25,0.75,1.875-1.333,3.333     c-1.167,0.583,0.583,1.542-1.25,2.833c-1.167,0-20.833,0.083-20.833,0.083l-2-1.333V3.751z" stroke="#000000"/> 		<path id="_7214CA90-B096-4703-B347-B560A9E1D15Aframe2" oryx:anchors="top left" style="opacity:1;fill:none;stroke-width:2" d="M 13.5 7 L 27 7" stroke="#000000"/> 		<path id="_7214CA90-B096-4703-B347-B560A9E1D15Aframe3" oryx:anchors="top left" style="opacity:1;fill:none;stroke-width:2" d="M 13.5 11 L 26 11" stroke="#000000"/> 		<path id="_7214CA90-B096-4703-B347-B560A9E1D15Aframe4" oryx:anchors="top left" style="opacity:1;fill:none;stroke-width:1.5" d="M 14 14.5 L 25 14.5" stroke="#000000"/> 		<path id="_7214CA90-B096-4703-B347-B560A9E1D15Aframe5" oryx:anchors="top left" style="opacity:1;fill:none;stroke-width:1.5" d="M 8.2 3.1 L 15 3.1" stroke="#000000"/> 	</g> 	 	<g id="_7214CA90-B096-4703-B347-B560A9E1D15AbusinessRuleTask" transform="scale(0.7,0.7) translate(8,8)" display="inherit"> 		<rect id="_7214CA90-B096-4703-B347-B560A9E1D15Aframe6" oryx:anchors="top left" x="0" y="0" width="22" height="4" style="opacity:1;fill:#B3B1B3;fill-opacity:1;" stroke="#000000"/> 		<rect id="_7214CA90-B096-4703-B347-B560A9E1D15Aframe7" oryx:anchors="top left" x="0" y="4" style="opacity:1;fill:none;" width="22" height="12" stroke="#000000"/> 		<path id="_7214CA90-B096-4703-B347-B560A9E1D15Aframe8" oryx:anchors="top left" style="opacity:1;fill:none;" d="M 0 10 L 22 10" stroke="#000000"/> 		<path id="_7214CA90-B096-4703-B347-B560A9E1D15Aframe9" oryx:anchors="top left" style="opacity:1; fill:none;" d="M 7 4 L 7 16" stroke="#000000"/> 	</g> 	 	<g id="_7214CA90-B096-4703-B347-B560A9E1D15AscriptTask" transform="scale(0.7,0.7) translate(8,8)" display="none"> 		<path oryx:anchors="top left" id="_7214CA90-B096-4703-B347-B560A9E1D15Aframe10" style="opacity:1;fill:none;" stroke="#000000" d="M6.402,0.5h14.5c0,0-5.833,2.833-5.833,5.583s4.417,6,4.417,9.167    s-4.167,5.083-4.167,5.083H0.235c0,0,5-2.667,5-5s-4.583-6.75-4.583-9.25S6.402,0.5,6.402,0.5z"/> 		<path oryx:anchors="top left" id="_7214CA90-B096-4703-B347-B560A9E1D15Aframe11" style="opacity:1;fill:none;stroke-width:1.5" d="M 3.5 4.5 L 13.5 4.5" stroke="#000000"/> 		<path oryx:anchors="top left" id="_7214CA90-B096-4703-B347-B560A9E1D15Aframe12" style="opacity:1;fill:none;stroke-width:1.5" d="M 3.8 8.5 L 13.8 8.5" stroke="#000000"/> 		<path oryx:anchors="top left" id="_7214CA90-B096-4703-B347-B560A9E1D15Aframe13" style="opacity:1;fill:none;stroke-width:1.5" d="M 6.3 12.5 L 16.3 12.5" stroke="#000000"/> 		<path oryx:anchors="top left" id="_7214CA90-B096-4703-B347-B560A9E1D15Aframe14" style="opacity:1;fill:none;stroke-width:1.5" d="M 6.5 16.5 L 16.5 16.5" stroke="#000000"/> 	</g> 	 	<g id="_7214CA90-B096-4703-B347-B560A9E1D15AuserTask" transform="scale(0.7,0.7) translate(8,8)" display="none"> 		<path id="_7214CA90-B096-4703-B347-B560A9E1D15Aframe15" oryx:anchors="top left" style="opacity:1;fill:#F4F6F7" stroke="#000000" d="M0.585,24.167h24.083v-7.833c0,0-2.333-3.917-7.083-5.167h-9.25    c-4.417,1.333-7.833,5.75-7.833,5.75L0.585,24.167z"/> 		<path id="_7214CA90-B096-4703-B347-B560A9E1D15Aframe16" oryx:anchors="top left" style="opacity:1;fill:none" d="M 6 20 L 6 24" stroke="#000000"/> 		<path id="_7214CA90-B096-4703-B347-B560A9E1D15Aframe17" oryx:anchors="top left" style="opacity:1;fill:none" d="M 20 20 L 20 24" stroke="#000000"/> 		<circle id="_7214CA90-B096-4703-B347-B560A9E1D15Aframe18" oryx:anchors="top left" fill="black" cx="13.002" cy="5.916" r="5.417" stroke="#000000"/> 		<path id="_7214CA90-B096-4703-B347-B560A9E1D15Aframe19" oryx:anchors="top left" style="opacity:1;fill:#F0EFF0;" stroke="#000000" d="M8.043,7.083c0,0,2.814-2.426,5.376-1.807s4.624-0.693,4.624-0.693    c0.25,1.688,0.042,3.75-1.458,5.584c0,0,1.083,0.75,1.083,1.5s0.125,1.875-1,3s-5.5,1.25-6.75,0S8.668,12.834,8.668,12    s0.583-1.25,1.25-1.917C8.835,9.5,7.419,7.708,8.043,7.083z"/> 	</g> 	 	<g id="_7214CA90-B096-4703-B347-B560A9E1D15AserviceTask" transform="scale(0.7,0.7) translate(8,8)" display="none"> 		<polygon oryx:anchors="top left" id="_7214CA90-B096-4703-B347-B560A9E1D15Aframe20" style="opacity:1;fill:#ffffff" stroke="#000000" points="15.392,5.064 17.954,2.502 20.347,4.895 17.786,7.455     18.729,9.732 22.353,9.732 22.353,13.115 18.731,13.115 17.788,15.392 20.351,17.955 17.958,20.347 15.397,17.786 13.12,18.729     13.12,22.353 9.737,22.353 9.737,18.731 7.46,17.788 4.897,20.35 2.506,17.958 5.066,15.397 4.124,13.12 0.5,13.12 0.5,9.737     4.121,9.737 5.065,7.461 2.503,4.898 4.895,2.506 7.455,5.066 9.732,4.125 9.732,0.5 13.116,0.5 13.116,4.121 "/> 		<circle oryx:anchors="top left" id="_7214CA90-B096-4703-B347-B560A9E1D15Aframe21" style="opacity:1;fill:none" stroke="#000000" cx="11.427" cy="11.426" r="3.714"/> 		<polygon oryx:anchors="top left" id="_7214CA90-B096-4703-B347-B560A9E1D15Aframe22" style="opacity:1;fill:#ffffff" stroke="#000000" points="21.392,11.064 23.954,8.502 26.347,10.895 23.786,13.455     24.729,15.732 28.353,15.732 28.353,19.115 24.731,19.115 23.788,21.392 26.351,23.955 23.958,26.347 21.397,23.786 19.12,24.729     19.12,28.353 15.737,28.353 15.737,24.731 13.46,23.788 10.897,26.35 8.506,23.958 11.066,21.397 10.124,19.12 6.5,19.12     6.5,15.737 10.121,15.737 11.065,13.461 8.503,10.898 10.895,8.506 13.455,11.066 15.732,10.125 15.732,6.5 19.116,6.5     19.116,10.121 "/> 		<circle oryx:anchors="top left" id="_7214CA90-B096-4703-B347-B560A9E1D15Aframe23" style="opacity:1;fill:none;" stroke="#000000" cx="17.427" cy="17.426" r="3.714"/> 	</g> 	 	<g id="_7214CA90-B096-4703-B347-B560A9E1D15AsendTask" display="none"> 		<path id="_7214CA90-B096-4703-B347-B560A9E1D15Astframe24" oryx:anchors="left top" stroke="#FFFFFF" fill="black" stroke-width="1" d="M8,11 L8,21 L24,21 L24,11 L16,17z"/> 		<path id="_7214CA90-B096-4703-B347-B560A9E1D15Astframe25" oryx:anchors="left top" stroke="#FFFFFF" fill="black" stroke-width="1" d="M7,10 L16,17 L25 10z"/> 	</g> 	 	<g id="_7214CA90-B096-4703-B347-B560A9E1D15AreceiveTask" display="none"> 		<path id="_7214CA90-B096-4703-B347-B560A9E1D15Aframe26" oryx:anchors="left top" stroke="#000000" fill="none" stroke-width="1" d="M8,11 L8,21 L24,21 L24,11z M8,11 L16,17 L24,11"/> 	</g> 	 	<g id="_7214CA90-B096-4703-B347-B560A9E1D15Anone" display="inherit"/>  	<g id="_7214CA90-B096-4703-B347-B560A9E1D15Asequential" display="none">         <path oryx:anchors="bottom" fill="none" stroke="#000000" stroke-width="2" d=" M48.550000000000004 76  h10  M48.550000000000004 72  h10  M48.550000000000004 68  h10 " id="_7214CA90-B096-4703-B347-B560A9E1D15A__7214CA90-B096-4703-B347-B560A9E1D15A_20"/>     </g>   </g></g><g class="children" style="overflow:hidden"/><g class="edge"/></g><g class="controls"><g class="dockers"/><g class="magnets" transform="translate(405, 135)"><g pointer-events="all" display="none" transform="translate(-7, 12)"><circle cx="8" cy="8" r="4" stroke="none" fill="red" fill-opacity="0.3"/></g><g pointer-events="all" display="none" transform="translate(-7, 32)"><circle cx="8" cy="8" r="4" stroke="none" fill="red" fill-opacity="0.3"/></g><g pointer-events="all" display="none" transform="translate(-7, 52)"><circle cx="8" cy="8" r="4" stroke="none" fill="red" fill-opacity="0.3"/></g><g pointer-events="all" display="none" transform="translate(18.25, 71)"><circle cx="8" cy="8" r="4" stroke="none" fill="red" fill-opacity="0.3"/></g><g pointer-events="all" display="none" transform="translate(44.5, 71)"><circle cx="8" cy="8" r="4" stroke="none" fill="red" fill-opacity="0.3"/></g><g pointer-events="all" display="none" transform="translate(70.75, 71)"><circle cx="8" cy="8" r="4" stroke="none" fill="red" fill-opacity="0.3"/></g><g pointer-events="all" display="none" transform="translate(96, 12)"><circle cx="8" cy="8" r="4" stroke="none" fill="red" fill-opacity="0.3"/></g><g pointer-events="all" display="none" transform="translate(96, 32)"><circle cx="8" cy="8" r="4" stroke="none" fill="red" fill-opacity="0.3"/></g><g pointer-events="all" display="none" transform="translate(96, 52)"><circle cx="8" cy="8" r="4" stroke="none" fill="red" fill-opacity="0.3"/></g><g pointer-events="all" display="none" transform="translate(18.25, -7)"><circle cx="8" cy="8" r="4" stroke="none" fill="red" fill-opacity="0.3"/></g><g pointer-events="all" display="none" transform="translate(44.5, -7)"><circle cx="8" cy="8" r="4" stroke="none" fill="red" fill-opacity="0.3"/></g><g pointer-events="all" display="none" transform="translate(70.75, -7)"><circle cx="8" cy="8" r="4" stroke="none" fill="red" fill-opacity="0.3"/></g><g pointer-events="all" display="none" transform="translate(44.5, 32)"><circle cx="8" cy="8" r="4" stroke="none" fill="red" fill-opacity="0.3"/></g></g></g></g><g id="_43EACB0D-9A2E-4353-B256-6D14B5DBE21B" bpmn2nodeid="_C7AC269D-8A8D-4B34-8901-369E182B404F"><g class="stencils" transform="translate(585, 135)"><g class="me"><g pointer-events="fill" oryx:minimumSize="50 40" id="_43EACB0D-9A2E-4353-B256-6D14B5DBE21B">   	<defs id="_43EACB0D-9A2E-4353-B256-6D14B5DBE21B__43EACB0D-9A2E-4353-B256-6D14B5DBE21B_17"> 		<radialGradient id="_43EACB0D-9A2E-4353-B256-6D14B5DBE21Bbackground" cx="10%" cy="10%" r="100%" fx="10%" fy="10%"> 			<stop offset="0%" stop-color="#ffffff" stop-opacity="1" id="_43EACB0D-9A2E-4353-B256-6D14B5DBE21B__43EACB0D-9A2E-4353-B256-6D14B5DBE21B_18"/> 			<stop id="_43EACB0D-9A2E-4353-B256-6D14B5DBE21Bfill_el" offset="100%" stop-color="#fafad2" stop-opacity="1"/> 		</radialGradient> 		<radialGradient id="_43EACB0D-9A2E-4353-B256-6D14B5DBE21Bborderbackground" cx="10%" cy="10%" r="100%" fx="10%" fy="10%"> 			<stop offset="0%" stop-color="#ffffff" stop-opacity="1" id="_43EACB0D-9A2E-4353-B256-6D14B5DBE21B__43EACB0D-9A2E-4353-B256-6D14B5DBE21B_19"/> 			<stop id="_43EACB0D-9A2E-4353-B256-6D14B5DBE21Bfill_border" offset="100%" stop-color="#000000" stop-opacity="1" stroke="#000000"/> 		</radialGradient> 	</defs> 	 	<rect id="_43EACB0D-9A2E-4353-B256-6D14B5DBE21Btext_frame" oryx:anchors="bottom top right left" x="1" y="1" width="94" height="79" rx="10" ry="10" stroke="none" stroke-width="0" fill="none"/> 	<rect id="_43EACB0D-9A2E-4353-B256-6D14B5DBE21Bbg_frame" oryx:resize="vertical horizontal" x="0" y="0" width="100" height="80" rx="10" ry="10" stroke="#000000" stroke-width="1" fill="url(#_43EACB0D-9A2E-4353-B256-6D14B5DBE21Bbackground) #ffffcc"/> 		<text font-size="12" id="_43EACB0D-9A2E-4353-B256-6D14B5DBE21Btext_name" x="50" y="40" oryx:align="middle center" oryx:fittoelem="text_frame" stroke="black" text-anchor="middle" stroke-width="0pt" letter-spacing="-0.01px" fill="#000000" transform="rotate(0 50 40)" visibility="inherit" oryx:fontSize="12"><tspan x="50" y="40" dy="5">Init</tspan></text>     <g id="_43EACB0D-9A2E-4353-B256-6D14B5DBE21BmanualTask" transform="scale(0.7,0.7) translate(8,8)" display="none">     	<path oryx:anchors="top left" id="_43EACB0D-9A2E-4353-B256-6D14B5DBE21Bframe" style="opacity:1;fill:none;fill-opacity:1;stroke-width:1" d="M0.5,3.751l4.083-3.25c0,0,11.166,0.083,12.083,0.083s-2.417,2.917-1.5,2.917     s11.667,0,12.584,0c1.166,1.708-0.168,3.167-0.834,3.667s0.875,1.917-1,4.417c-0.75,0.25,0.75,1.875-1.333,3.333     c-1.167,0.583,0.583,1.542-1.25,2.833c-1.167,0-20.833,0.083-20.833,0.083l-2-1.333V3.751z" stroke="#000000"/> 		<path id="_43EACB0D-9A2E-4353-B256-6D14B5DBE21Bframe2" oryx:anchors="top left" style="opacity:1;fill:none;stroke-width:2" d="M 13.5 7 L 27 7" stroke="#000000"/> 		<path id="_43EACB0D-9A2E-4353-B256-6D14B5DBE21Bframe3" oryx:anchors="top left" style="opacity:1;fill:none;stroke-width:2" d="M 13.5 11 L 26 11" stroke="#000000"/> 		<path id="_43EACB0D-9A2E-4353-B256-6D14B5DBE21Bframe4" oryx:anchors="top left" style="opacity:1;fill:none;stroke-width:1.5" d="M 14 14.5 L 25 14.5" stroke="#000000"/> 		<path id="_43EACB0D-9A2E-4353-B256-6D14B5DBE21Bframe5" oryx:anchors="top left" style="opacity:1;fill:none;stroke-width:1.5" d="M 8.2 3.1 L 15 3.1" stroke="#000000"/> 	</g> 	 	<g id="_43EACB0D-9A2E-4353-B256-6D14B5DBE21BbusinessRuleTask" transform="scale(0.7,0.7) translate(8,8)" display="inherit"> 		<rect id="_43EACB0D-9A2E-4353-B256-6D14B5DBE21Bframe6" oryx:anchors="top left" x="0" y="0" width="22" height="4" style="opacity:1;fill:#B3B1B3;fill-opacity:1;" stroke="#000000"/> 		<rect id="_43EACB0D-9A2E-4353-B256-6D14B5DBE21Bframe7" oryx:anchors="top left" x="0" y="4" style="opacity:1;fill:none;" width="22" height="12" stroke="#000000"/> 		<path id="_43EACB0D-9A2E-4353-B256-6D14B5DBE21Bframe8" oryx:anchors="top left" style="opacity:1;fill:none;" d="M 0 10 L 22 10" stroke="#000000"/> 		<path id="_43EACB0D-9A2E-4353-B256-6D14B5DBE21Bframe9" oryx:anchors="top left" style="opacity:1; fill:none;" d="M 7 4 L 7 16" stroke="#000000"/> 	</g> 	 	<g id="_43EACB0D-9A2E-4353-B256-6D14B5DBE21BscriptTask" transform="scale(0.7,0.7) translate(8,8)" display="none"> 		<path oryx:anchors="top left" id="_43EACB0D-9A2E-4353-B256-6D14B5DBE21Bframe10" style="opacity:1;fill:none;" stroke="#000000" d="M6.402,0.5h14.5c0,0-5.833,2.833-5.833,5.583s4.417,6,4.417,9.167    s-4.167,5.083-4.167,5.083H0.235c0,0,5-2.667,5-5s-4.583-6.75-4.583-9.25S6.402,0.5,6.402,0.5z"/> 		<path oryx:anchors="top left" id="_43EACB0D-9A2E-4353-B256-6D14B5DBE21Bframe11" style="opacity:1;fill:none;stroke-width:1.5" d="M 3.5 4.5 L 13.5 4.5" stroke="#000000"/> 		<path oryx:anchors="top left" id="_43EACB0D-9A2E-4353-B256-6D14B5DBE21Bframe12" style="opacity:1;fill:none;stroke-width:1.5" d="M 3.8 8.5 L 13.8 8.5" stroke="#000000"/> 		<path oryx:anchors="top left" id="_43EACB0D-9A2E-4353-B256-6D14B5DBE21Bframe13" style="opacity:1;fill:none;stroke-width:1.5" d="M 6.3 12.5 L 16.3 12.5" stroke="#000000"/> 		<path oryx:anchors="top left" id="_43EACB0D-9A2E-4353-B256-6D14B5DBE21Bframe14" style="opacity:1;fill:none;stroke-width:1.5" d="M 6.5 16.5 L 16.5 16.5" stroke="#000000"/> 	</g> 	 	<g id="_43EACB0D-9A2E-4353-B256-6D14B5DBE21BuserTask" transform="scale(0.7,0.7) translate(8,8)" display="none"> 		<path id="_43EACB0D-9A2E-4353-B256-6D14B5DBE21Bframe15" oryx:anchors="top left" style="opacity:1;fill:#F4F6F7" stroke="#000000" d="M0.585,24.167h24.083v-7.833c0,0-2.333-3.917-7.083-5.167h-9.25    c-4.417,1.333-7.833,5.75-7.833,5.75L0.585,24.167z"/> 		<path id="_43EACB0D-9A2E-4353-B256-6D14B5DBE21Bframe16" oryx:anchors="top left" style="opacity:1;fill:none" d="M 6 20 L 6 24" stroke="#000000"/> 		<path id="_43EACB0D-9A2E-4353-B256-6D14B5DBE21Bframe17" oryx:anchors="top left" style="opacity:1;fill:none" d="M 20 20 L 20 24" stroke="#000000"/> 		<circle id="_43EACB0D-9A2E-4353-B256-6D14B5DBE21Bframe18" oryx:anchors="top left" fill="black" cx="13.002" cy="5.916" r="5.417" stroke="#000000"/> 		<path id="_43EACB0D-9A2E-4353-B256-6D14B5DBE21Bframe19" oryx:anchors="top left" style="opacity:1;fill:#F0EFF0;" stroke="#000000" d="M8.043,7.083c0,0,2.814-2.426,5.376-1.807s4.624-0.693,4.624-0.693    c0.25,1.688,0.042,3.75-1.458,5.584c0,0,1.083,0.75,1.083,1.5s0.125,1.875-1,3s-5.5,1.25-6.75,0S8.668,12.834,8.668,12    s0.583-1.25,1.25-1.917C8.835,9.5,7.419,7.708,8.043,7.083z"/> 	</g> 	 	<g id="_43EACB0D-9A2E-4353-B256-6D14B5DBE21BserviceTask" transform="scale(0.7,0.7) translate(8,8)" display="none"> 		<polygon oryx:anchors="top left" id="_43EACB0D-9A2E-4353-B256-6D14B5DBE21Bframe20" style="opacity:1;fill:#ffffff" stroke="#000000" points="15.392,5.064 17.954,2.502 20.347,4.895 17.786,7.455     18.729,9.732 22.353,9.732 22.353,13.115 18.731,13.115 17.788,15.392 20.351,17.955 17.958,20.347 15.397,17.786 13.12,18.729     13.12,22.353 9.737,22.353 9.737,18.731 7.46,17.788 4.897,20.35 2.506,17.958 5.066,15.397 4.124,13.12 0.5,13.12 0.5,9.737     4.121,9.737 5.065,7.461 2.503,4.898 4.895,2.506 7.455,5.066 9.732,4.125 9.732,0.5 13.116,0.5 13.116,4.121 "/> 		<circle oryx:anchors="top left" id="_43EACB0D-9A2E-4353-B256-6D14B5DBE21Bframe21" style="opacity:1;fill:none" stroke="#000000" cx="11.427" cy="11.426" r="3.714"/> 		<polygon oryx:anchors="top left" id="_43EACB0D-9A2E-4353-B256-6D14B5DBE21Bframe22" style="opacity:1;fill:#ffffff" stroke="#000000" points="21.392,11.064 23.954,8.502 26.347,10.895 23.786,13.455     24.729,15.732 28.353,15.732 28.353,19.115 24.731,19.115 23.788,21.392 26.351,23.955 23.958,26.347 21.397,23.786 19.12,24.729     19.12,28.353 15.737,28.353 15.737,24.731 13.46,23.788 10.897,26.35 8.506,23.958 11.066,21.397 10.124,19.12 6.5,19.12     6.5,15.737 10.121,15.737 11.065,13.461 8.503,10.898 10.895,8.506 13.455,11.066 15.732,10.125 15.732,6.5 19.116,6.5     19.116,10.121 "/> 		<circle oryx:anchors="top left" id="_43EACB0D-9A2E-4353-B256-6D14B5DBE21Bframe23" style="opacity:1;fill:none;" stroke="#000000" cx="17.427" cy="17.426" r="3.714"/> 	</g> 	 	<g id="_43EACB0D-9A2E-4353-B256-6D14B5DBE21BsendTask" display="none"> 		<path id="_43EACB0D-9A2E-4353-B256-6D14B5DBE21Bstframe24" oryx:anchors="left top" stroke="#FFFFFF" fill="black" stroke-width="1" d="M8,11 L8,21 L24,21 L24,11 L16,17z"/> 		<path id="_43EACB0D-9A2E-4353-B256-6D14B5DBE21Bstframe25" oryx:anchors="left top" stroke="#FFFFFF" fill="black" stroke-width="1" d="M7,10 L16,17 L25 10z"/> 	</g> 	 	<g id="_43EACB0D-9A2E-4353-B256-6D14B5DBE21BreceiveTask" display="none"> 		<path id="_43EACB0D-9A2E-4353-B256-6D14B5DBE21Bframe26" oryx:anchors="left top" stroke="#000000" fill="none" stroke-width="1" d="M8,11 L8,21 L24,21 L24,11z M8,11 L16,17 L24,11"/> 	</g> 	 	<g id="_43EACB0D-9A2E-4353-B256-6D14B5DBE21Bnone" display="inherit"/>  	<g id="_43EACB0D-9A2E-4353-B256-6D14B5DBE21Bsequential" display="none">         <path oryx:anchors="bottom" fill="none" stroke="#000000" stroke-width="2" d="M46,76h10M46,72h10 M46,68h10" id="_43EACB0D-9A2E-4353-B256-6D14B5DBE21B__43EACB0D-9A2E-4353-B256-6D14B5DBE21B_20"/>     </g>   </g></g><g class="children" style="overflow:hidden"/><g class="edge"/></g><g class="controls"><g class="dockers"/><g class="magnets" transform="translate(585, 135)"><g pointer-events="all" display="none" transform="translate(-7, 12)"><circle cx="8" cy="8" r="4" stroke="none" fill="red" fill-opacity="0.3"/></g><g pointer-events="all" display="none" transform="translate(-7, 32)"><circle cx="8" cy="8" r="4" stroke="none" fill="red" fill-opacity="0.3"/></g><g pointer-events="all" display="none" transform="translate(-7, 52)"><circle cx="8" cy="8" r="4" stroke="none" fill="red" fill-opacity="0.3"/></g><g pointer-events="all" display="none" transform="translate(17, 71)"><circle cx="8" cy="8" r="4" stroke="none" fill="red" fill-opacity="0.3"/></g><g pointer-events="all" display="none" transform="translate(42, 71)"><circle cx="8" cy="8" r="4" stroke="none" fill="red" fill-opacity="0.3"/></g><g pointer-events="all" display="none" transform="translate(67, 71)"><circle cx="8" cy="8" r="4" stroke="none" fill="red" fill-opacity="0.3"/></g><g pointer-events="all" display="none" transform="translate(91, 12)"><circle cx="8" cy="8" r="4" stroke="none" fill="red" fill-opacity="0.3"/></g><g pointer-events="all" display="none" transform="translate(91, 32)"><circle cx="8" cy="8" r="4" stroke="none" fill="red" fill-opacity="0.3"/></g><g pointer-events="all" display="none" transform="translate(91, 52)"><circle cx="8" cy="8" r="4" stroke="none" fill="red" fill-opacity="0.3"/></g><g pointer-events="all" display="none" transform="translate(17, -7)"><circle cx="8" cy="8" r="4" stroke="none" fill="red" fill-opacity="0.3"/></g><g pointer-events="all" display="none" transform="translate(42, -7)"><circle cx="8" cy="8" r="4" stroke="none" fill="red" fill-opacity="0.3"/></g><g pointer-events="all" display="none" transform="translate(67, -7)"><circle cx="8" cy="8" r="4" stroke="none" fill="red" fill-opacity="0.3"/></g><g pointer-events="all" display="none" transform="translate(42, 32)"><circle cx="8" cy="8" r="4" stroke="none" fill="red" fill-opacity="0.3"/></g></g></g></g><g id="_2E2A3552-F693-4E4C-8D5C-AAEEA9AD38EB" bpmn2nodeid="_B3028EB0-45A5-45C7-B311-84359C3E18BB"><g class="stencils" transform="translate(891, 161)"><g class="me"><g pointer-events="fill" id="_2E2A3552-F693-4E4C-8D5C-AAEEA9AD38EB">      <defs id="_2E2A3552-F693-4E4C-8D5C-AAEEA9AD38EB__2E2A3552-F693-4E4C-8D5C-AAEEA9AD38EB_5"> 		<radialGradient id="_2E2A3552-F693-4E4C-8D5C-AAEEA9AD38EBbackground" cx="10%" cy="10%" r="100%" fx="10%" fy="10%"> 			<stop offset="0%" stop-color="#ffffff" stop-opacity="1" id="_2E2A3552-F693-4E4C-8D5C-AAEEA9AD38EB__2E2A3552-F693-4E4C-8D5C-AAEEA9AD38EB_6"/> 			<stop id="_2E2A3552-F693-4E4C-8D5C-AAEEA9AD38EBfill_el" offset="100%" stop-color="#ff6347" stop-opacity="1"/> 		</radialGradient> 	</defs> 	     <circle id="_2E2A3552-F693-4E4C-8D5C-AAEEA9AD38EBbg_frame" cx="14" cy="14" r="14" stroke="#000000" fill="url(#_2E2A3552-F693-4E4C-8D5C-AAEEA9AD38EBbackground) white" stroke-width="3"/> 	<text font-size="11" id="_2E2A3552-F693-4E4C-8D5C-AAEEA9AD38EBtext_name" x="14" y="30" oryx:align="top center" stroke="black" stroke-width="0pt" letter-spacing="-0.01px" fill="#000000" text-anchor="middle" transform="rotate(0 14 30)" visibility="inherit" oryx:fontSize="11"/>   </g></g><g class="children" style="overflow:hidden"/><g class="edge"/></g><g class="controls"><g class="dockers"/><g class="magnets" transform="translate(891, 161)"><g pointer-events="all" display="none" transform="translate(6, 6)"><circle cx="8" cy="8" r="4" stroke="none" fill="red" fill-opacity="0.3"/></g></g></g></g></g><g class="edge"><g id="_EE5649F6-7094-4A46-AB16-13B2CB3E71C5" bpmn2nodeid="_DC875EA7-E9C8-4501-9DEB-DE53EDD71C30"><g class="stencils"><g class="me"><g pointer-events="painted" bpmn2nodeid="_D42B5FB4-E7D2-4ADC-8CCD-B4E85863B442"><path id="_EE5649F6-7094-4A46-AB16-13B2CB3E71C5_1" d="M90.64840550153592 174.8748127559877L200 174 " stroke="#000000" fill="none" stroke-width="2" stroke-linecap="round" stroke-linejoin="round" marker-start="url(#_EE5649F6-7094-4A46-AB16-13B2CB3E71C5start)" marker-end="url(#_EE5649F6-7094-4A46-AB16-13B2CB3E71C5end)"/></g><text id="_EE5649F6-7094-4A46-AB16-13B2CB3E71C5text_name" font-size="12" x="104.64840550153592" y="160.8748127559877" oryx:edgePosition="startTop" stroke-width="0pt" letter-spacing="-0.01px" fill="#000000" text-anchor="start" transform="rotate(359.5416435419996 90.64840550153592 174.8748127559877)" visibility="inherit" oryx:fontSize="12"/></g><g class="children" style="overflow:hidden"/><g class="edge"/></g><g class="controls"><g class="dockers"/><g class="magnets"/></g></g><g id="_8E04D7B3-87B8-462B-B131-568ADB48A18B" bpmn2nodeid="_9410E428-080A-4974-B0D4-AC55C7B62AAA"><g class="stencils"><g class="me"><g pointer-events="painted" bpmn2nodeid="_D4E0B8F4-A996-4549-9B73-43004A575DA9"><path id="_8E04D7B3-87B8-462B-B131-568ADB48A18B_1" d="M339.43746900137944 175.9296262283356L404.41018724862056 175.4180300216644 " stroke="#000000" fill="none" stroke-width="2" stroke-linecap="round" stroke-linejoin="round" marker-start="url(#_8E04D7B3-87B8-462B-B131-568ADB48A18Bstart)" marker-end="url(#_8E04D7B3-87B8-462B-B131-568ADB48A18Bend)"/></g><text id="_8E04D7B3-87B8-462B-B131-568ADB48A18Btext_name" font-size="12" x="353.43746900137944" y="161.9296262283356" oryx:edgePosition="startTop" stroke-width="0pt" letter-spacing="-0.01px" fill="#000000" text-anchor="start" transform="rotate(359.54886145321274 339.43746900137944 175.9296262283356)" visibility="inherit" oryx:fontSize="12"/></g><g class="children" style="overflow:hidden"/><g class="edge"/></g><g class="controls"><g class="dockers"/><g class="magnets"/></g></g><g id="_466D41B8-1002-4425-8235-9AA1FEE1C127" bpmn2nodeid="_26CF26AE-390D-4724-B0A4-AEA47D53577A"><g class="stencils"><g class="me"><g pointer-events="painted" bpmn2nodeid="_FAAFD0D6-6E63-4D54-A943-8715FDC3202E"><path id="_466D41B8-1002-4425-8235-9AA1FEE1C127_1" d="M510.501953125 175L584.078125 175 " stroke="#000000" fill="none" stroke-width="2" stroke-linecap="round" stroke-linejoin="round" marker-start="url(#_466D41B8-1002-4425-8235-9AA1FEE1C127start)" marker-end="url(#_466D41B8-1002-4425-8235-9AA1FEE1C127end)"/></g><text id="_466D41B8-1002-4425-8235-9AA1FEE1C127text_name" font-size="12" x="524.501953125" y="161" oryx:edgePosition="startTop" stroke-width="0pt" letter-spacing="-0.01px" fill="#000000" text-anchor="start" transform="rotate(360 510.501953125 175)" visibility="inherit" oryx:fontSize="12"/></g><g class="children" style="overflow:hidden"/><g class="edge"/></g><g class="controls"><g class="dockers"/><g class="magnets"/></g></g><g id="_684E8402-B797-4AE1-A3FA-9CBAF572545D" bpmn2nodeid="_BF82F4B9-D79F-491D-9212-0B5A03C7A6C3"><g class="stencils"><g class="me"><g pointer-events="painted" bpmn2nodeid="_BF82F4B9-D79F-491D-9212-0B5A03C7A6C3"><path id="_684E8402-B797-4AE1-A3FA-9CBAF572545D_1" d="M685.5703125 175L890.2890625 175 " stroke="#000000" fill="none" stroke-width="2" stroke-linecap="round" stroke-linejoin="round" marker-start="url(#_684E8402-B797-4AE1-A3FA-9CBAF572545Dstart)" marker-end="url(#_684E8402-B797-4AE1-A3FA-9CBAF572545Dend)"/></g><text id="_684E8402-B797-4AE1-A3FA-9CBAF572545Dtext_name" font-size="12" x="699.5703125" y="161" oryx:edgePosition="startTop" stroke-width="0pt" letter-spacing="-0.01px" fill="#000000" text-anchor="start" transform="rotate(360 685.5703125 175)" visibility="inherit" oryx:fontSize="12"/></g><g class="children" style="overflow:hidden"/><g class="edge"/></g><g class="controls"><g class="dockers"/><g class="magnets"/></g></g></g><text id="_9D0FE5E6-7BC4-4988-86DD-EB14D5D2E73E" style="stroke-width:1;fill:rgb(177,194,214);font-family:arial;font-weight:bold" font-size="12" onclick="ORYX.Plugins.CanvasTitle.openTextualAnalysis()" onmouseover="ORYX.Plugins.CanvasTitle.addToolTip('_9D0FE5E6-7BC4-4988-86DD-EB14D5D2E73E')" transform="translate(10, 20)">P1111 v.1.0 (src.P1111)</text></g></g></svg>