<svg xmlns="http://www.w3.org/2000/svg" xmlns:oryx="http://oryx-editor.org" id="_A15B0F4E-67E5-434B-91D8-C6572533B710" width="803.0000610351562" height="376.109375" xmlns:xlink="http://www.w3.org/1999/xlink" xmlns:svg="http://www.w3.org/2000/svg"><defs><marker id="_3A565B7F-1DBB-47FB-8E49-143A617BB4F4start" refX="1" refY="5" markerUnits="userSpaceOnUse" markerWidth="17" markerHeight="11" orient="auto" fill="#000000" stroke="#000000"> 	  		<path id="_3A565B7F-1DBB-47FB-8E49-143A617BB4F4conditional" d="M 0 5 L 8 0 L 16 5 L 8 10 L 0 5" fill="white" stroke="#000000" stroke-width="1" display="none"/> 			<path id="_3A565B7F-1DBB-47FB-8E49-143A617BB4F4default" d="M 5 0 L 11 10" fill="white" stroke="#000000" stroke-width="1" display="none"/> 	  	</marker><marker id="_3A565B7F-1DBB-47FB-8E49-143A617BB4F4end" refX="15" refY="6" markerUnits="userSpaceOnUse" markerWidth="15" markerHeight="12" orient="auto" fill="#000000" stroke="#000000"> 	  		<path id="_3A565B7F-1DBB-47FB-8E49-143A617BB4F4frame2" d="M 0 1 L 15 6 L 0 11z" fill="#000000" stroke="#000000" stroke-linejoin="round" stroke-width="2"/> 	  	</marker><marker id="_798EC85F-BE85-407C-ACF6-C89D26ED59B3start" refX="1" refY="5" markerUnits="userSpaceOnUse" markerWidth="17" markerHeight="11" orient="auto" fill="#000000" stroke="#000000"> 	  		<path id="_798EC85F-BE85-407C-ACF6-C89D26ED59B3conditional" d="M 0 5 L 8 0 L 16 5 L 8 10 L 0 5" fill="white" stroke="#000000" stroke-width="1" display="none"/> 			<path id="_798EC85F-BE85-407C-ACF6-C89D26ED59B3default" d="M 5 0 L 11 10" fill="white" stroke="#000000" stroke-width="1" display="none"/> 	  	</marker><marker id="_798EC85F-BE85-407C-ACF6-C89D26ED59B3end" refX="15" refY="6" markerUnits="userSpaceOnUse" markerWidth="15" markerHeight="12" orient="auto" fill="#000000" stroke="#000000"> 	  		<path id="_798EC85F-BE85-407C-ACF6-C89D26ED59B3frame2" d="M 0 1 L 15 6 L 0 11z" fill="#000000" stroke="#000000" stroke-linejoin="round" stroke-width="2"/> 	  	</marker><marker id="_8CA49078-7FA3-40E0-A51C-3643B99308E6start" refX="1" refY="5" markerUnits="userSpaceOnUse" markerWidth="17" markerHeight="11" orient="auto" fill="#000000" stroke="#000000"> 	  		<path id="_8CA49078-7FA3-40E0-A51C-3643B99308E6conditional" d="M 0 5 L 8 0 L 16 5 L 8 10 L 0 5" fill="white" stroke="#000000" stroke-width="1" display="none"/> 			<path id="_8CA49078-7FA3-40E0-A51C-3643B99308E6default" d="M 5 0 L 11 10" fill="white" stroke="#000000" stroke-width="1" display="none"/> 	  	</marker><marker id="_8CA49078-7FA3-40E0-A51C-3643B99308E6end" refX="15" refY="6" markerUnits="userSpaceOnUse" markerWidth="15" markerHeight="12" orient="auto" fill="#000000" stroke="#000000"> 	  		<path id="_8CA49078-7FA3-40E0-A51C-3643B99308E6frame2" d="M 0 1 L 15 6 L 0 11z" fill="#000000" stroke="#000000" stroke-linejoin="round" stroke-width="2"/> 	  	</marker><marker id="_B045ADCE-CD26-4108-83F2-21900C91B5C3start" refX="1" refY="5" markerUnits="userSpaceOnUse" markerWidth="17" markerHeight="11" orient="auto" fill="#000000" stroke="#000000"> 	  		<path id="_B045ADCE-CD26-4108-83F2-21900C91B5C3conditional" d="M 0 5 L 8 0 L 16 5 L 8 10 L 0 5" fill="white" stroke="#000000" stroke-width="1" display="none"/> 			<path id="_B045ADCE-CD26-4108-83F2-21900C91B5C3default" d="M 5 0 L 11 10" fill="white" stroke="#000000" stroke-width="1" display="none"/> 	  	</marker><marker id="_B045ADCE-CD26-4108-83F2-21900C91B5C3end" refX="15" refY="6" markerUnits="userSpaceOnUse" markerWidth="15" markerHeight="12" orient="auto" fill="#000000" stroke="#000000"> 	  		<path id="_B045ADCE-CD26-4108-83F2-21900C91B5C3frame2" d="M 0 1 L 15 6 L 0 11z" fill="#000000" stroke="#000000" stroke-linejoin="round" stroke-width="2"/> 	  	</marker></defs><g stroke="none" font-family="Verdana, sans-serif" font-size-adjust="none" font-style="normal" font-variant="normal" font-weight="normal" line-heigth="normal" font-size="12"><g class="stencils" transform="translate(15, 16.109375)"><g class="me"/><g class="children"><g id="_10BA02AE-1D45-4D95-9BBF-CF07C767E07B" bpmn2nodeid="processStartEvent"><g class="stencils" transform="translate(45, 285)"><g class="me"><g pointer-events="fill" id="_10BA02AE-1D45-4D95-9BBF-CF07C767E07B">        <defs id="_10BA02AE-1D45-4D95-9BBF-CF07C767E07B__10BA02AE-1D45-4D95-9BBF-CF07C767E07B_5"> 		<radialGradient id="_10BA02AE-1D45-4D95-9BBF-CF07C767E07Bbackground" cx="10%" cy="10%" r="100%" fx="10%" fy="10%"> 			<stop offset="0%" stop-color="#ffffff" stop-opacity="1" id="_10BA02AE-1D45-4D95-9BBF-CF07C767E07B__10BA02AE-1D45-4D95-9BBF-CF07C767E07B_6"/> 			<stop id="_10BA02AE-1D45-4D95-9BBF-CF07C767E07Bfill_el" offset="100%" stop-color="#9acd32" stop-opacity="1"/> 		</radialGradient> 	</defs> 	     <circle id="_10BA02AE-1D45-4D95-9BBF-CF07C767E07Bbg_frame" cx="15" cy="15" r="15" stroke="#000000" fill="url(#_10BA02AE-1D45-4D95-9BBF-CF07C767E07Bbackground) white" stroke-width="1" style="stroke-dasharray: 5.5, 3"/>      <circle id="_10BA02AE-1D45-4D95-9BBF-CF07C767E07Bframe" cx="15" cy="15" r="15" stroke="#000000" fill="none" stroke-width="1" display="inherit"/>  	<text font-size="11" id="_10BA02AE-1D45-4D95-9BBF-CF07C767E07Btext_name" x="15" y="32" oryx:align="top center" stroke="black" stroke-width="0pt" letter-spacing="-0.01px" fill="#000000" text-anchor="middle" transform="rotate(0 15 32)" visibility="inherit" oryx:fontSize="11"/>   </g></g><g class="children" style="overflow:hidden"/><g class="edge"/></g><g class="controls"><g class="dockers"/><g class="magnets" transform="translate(45, 285)"><g pointer-events="all" display="none" transform="translate(7, 7)"><circle cx="8" cy="8" r="4" stroke="none" fill="red" fill-opacity="0.3"/></g></g></g></g><g id="_51999BDA-79FF-4D63-9892-337DE2327CBC" bpmn2nodeid="_2D2647F3-2BF3-4793-A6CC-15DD723CDA5B"><g class="stencils" transform="translate(135, 255)"><g class="me"><g pointer-events="fill" oryx:minimumSize="50 40" id="_51999BDA-79FF-4D63-9892-337DE2327CBC">   	<defs id="_51999BDA-79FF-4D63-9892-337DE2327CBC__51999BDA-79FF-4D63-9892-337DE2327CBC_17"> 		<radialGradient id="_51999BDA-79FF-4D63-9892-337DE2327CBCbackground" cx="10%" cy="10%" r="100%" fx="10%" fy="10%"> 			<stop offset="0%" stop-color="#ffffff" stop-opacity="1" id="_51999BDA-79FF-4D63-9892-337DE2327CBC__51999BDA-79FF-4D63-9892-337DE2327CBC_18"/> 			<stop id="_51999BDA-79FF-4D63-9892-337DE2327CBCfill_el" offset="100%" stop-color="#fafad2" stop-opacity="1"/> 		</radialGradient> 		<radialGradient id="_51999BDA-79FF-4D63-9892-337DE2327CBCborderbackground" cx="10%" cy="10%" r="100%" fx="10%" fy="10%"> 			<stop offset="0%" stop-color="#ffffff" stop-opacity="1" id="_51999BDA-79FF-4D63-9892-337DE2327CBC__51999BDA-79FF-4D63-9892-337DE2327CBC_19"/> 			<stop id="_51999BDA-79FF-4D63-9892-337DE2327CBCfill_border" offset="100%" stop-color="#000000" stop-opacity="1" stroke="#000000"/> 		</radialGradient> 	</defs> 	 	<rect id="_51999BDA-79FF-4D63-9892-337DE2327CBCtext_frame" oryx:anchors="bottom top right left" x="1" y="1" width="94" height="79" rx="10" ry="10" stroke="none" stroke-width="0" fill="none"/> 	<rect id="_51999BDA-79FF-4D63-9892-337DE2327CBCbg_frame" oryx:resize="vertical horizontal" x="0" y="0" width="100" height="80" rx="10" ry="10" stroke="#000000" stroke-width="1" fill="url(#_51999BDA-79FF-4D63-9892-337DE2327CBCbackground) #ffffcc"/> 		<text font-size="12" id="_51999BDA-79FF-4D63-9892-337DE2327CBCtext_name" x="50" y="40" oryx:align="middle center" oryx:fittoelem="text_frame" stroke="black" text-anchor="middle" stroke-width="0pt" letter-spacing="-0.01px" fill="#000000" transform="rotate(0 50 40)" visibility="inherit" oryx:fontSize="12"><tspan x="50" y="40" dy="5">Init</tspan></text>     <g id="_51999BDA-79FF-4D63-9892-337DE2327CBCmanualTask" transform="scale(0.7,0.7) translate(8,8)" display="none">     	<path oryx:anchors="top left" id="_51999BDA-79FF-4D63-9892-337DE2327CBCframe" style="opacity:1;fill:none;fill-opacity:1;stroke-width:1" d="M0.5,3.751l4.083-3.25c0,0,11.166,0.083,12.083,0.083s-2.417,2.917-1.5,2.917     s11.667,0,12.584,0c1.166,1.708-0.168,3.167-0.834,3.667s0.875,1.917-1,4.417c-0.75,0.25,0.75,1.875-1.333,3.333     c-1.167,0.583,0.583,1.542-1.25,2.833c-1.167,0-20.833,0.083-20.833,0.083l-2-1.333V3.751z" stroke="#000000"/> 		<path id="_51999BDA-79FF-4D63-9892-337DE2327CBCframe2" oryx:anchors="top left" style="opacity:1;fill:none;stroke-width:2" d="M 13.5 7 L 27 7" stroke="#000000"/> 		<path id="_51999BDA-79FF-4D63-9892-337DE2327CBCframe3" oryx:anchors="top left" style="opacity:1;fill:none;stroke-width:2" d="M 13.5 11 L 26 11" stroke="#000000"/> 		<path id="_51999BDA-79FF-4D63-9892-337DE2327CBCframe4" oryx:anchors="top left" style="opacity:1;fill:none;stroke-width:1.5" d="M 14 14.5 L 25 14.5" stroke="#000000"/> 		<path id="_51999BDA-79FF-4D63-9892-337DE2327CBCframe5" oryx:anchors="top left" style="opacity:1;fill:none;stroke-width:1.5" d="M 8.2 3.1 L 15 3.1" stroke="#000000"/> 	</g> 	 	<g id="_51999BDA-79FF-4D63-9892-337DE2327CBCbusinessRuleTask" transform="scale(0.7,0.7) translate(8,8)" display="inherit"> 		<rect id="_51999BDA-79FF-4D63-9892-337DE2327CBCframe6" oryx:anchors="top left" x="0" y="0" width="22" height="4" style="opacity:1;fill:#B3B1B3;fill-opacity:1;" stroke="#000000"/> 		<rect id="_51999BDA-79FF-4D63-9892-337DE2327CBCframe7" oryx:anchors="top left" x="0" y="4" style="opacity:1;fill:none;" width="22" height="12" stroke="#000000"/> 		<path id="_51999BDA-79FF-4D63-9892-337DE2327CBCframe8" oryx:anchors="top left" style="opacity:1;fill:none;" d="M 0 10 L 22 10" stroke="#000000"/> 		<path id="_51999BDA-79FF-4D63-9892-337DE2327CBCframe9" oryx:anchors="top left" style="opacity:1; fill:none;" d="M 7 4 L 7 16" stroke="#000000"/> 	</g> 	 	<g id="_51999BDA-79FF-4D63-9892-337DE2327CBCscriptTask" transform="scale(0.7,0.7) translate(8,8)" display="none"> 		<path oryx:anchors="top left" id="_51999BDA-79FF-4D63-9892-337DE2327CBCframe10" style="opacity:1;fill:none;" stroke="#000000" d="M6.402,0.5h14.5c0,0-5.833,2.833-5.833,5.583s4.417,6,4.417,9.167    s-4.167,5.083-4.167,5.083H0.235c0,0,5-2.667,5-5s-4.583-6.75-4.583-9.25S6.402,0.5,6.402,0.5z"/> 		<path oryx:anchors="top left" id="_51999BDA-79FF-4D63-9892-337DE2327CBCframe11" style="opacity:1;fill:none;stroke-width:1.5" d="M 3.5 4.5 L 13.5 4.5" stroke="#000000"/> 		<path oryx:anchors="top left" id="_51999BDA-79FF-4D63-9892-337DE2327CBCframe12" style="opacity:1;fill:none;stroke-width:1.5" d="M 3.8 8.5 L 13.8 8.5" stroke="#000000"/> 		<path oryx:anchors="top left" id="_51999BDA-79FF-4D63-9892-337DE2327CBCframe13" style="opacity:1;fill:none;stroke-width:1.5" d="M 6.3 12.5 L 16.3 12.5" stroke="#000000"/> 		<path oryx:anchors="top left" id="_51999BDA-79FF-4D63-9892-337DE2327CBCframe14" style="opacity:1;fill:none;stroke-width:1.5" d="M 6.5 16.5 L 16.5 16.5" stroke="#000000"/> 	</g> 	 	<g id="_51999BDA-79FF-4D63-9892-337DE2327CBCuserTask" transform="scale(0.7,0.7) translate(8,8)" display="none"> 		<path id="_51999BDA-79FF-4D63-9892-337DE2327CBCframe15" oryx:anchors="top left" style="opacity:1;fill:#F4F6F7" stroke="#000000" d="M0.585,24.167h24.083v-7.833c0,0-2.333-3.917-7.083-5.167h-9.25    c-4.417,1.333-7.833,5.75-7.833,5.75L0.585,24.167z"/> 		<path id="_51999BDA-79FF-4D63-9892-337DE2327CBCframe16" oryx:anchors="top left" style="opacity:1;fill:none" d="M 6 20 L 6 24" stroke="#000000"/> 		<path id="_51999BDA-79FF-4D63-9892-337DE2327CBCframe17" oryx:anchors="top left" style="opacity:1;fill:none" d="M 20 20 L 20 24" stroke="#000000"/> 		<circle id="_51999BDA-79FF-4D63-9892-337DE2327CBCframe18" oryx:anchors="top left" fill="black" cx="13.002" cy="5.916" r="5.417" stroke="#000000"/> 		<path id="_51999BDA-79FF-4D63-9892-337DE2327CBCframe19" oryx:anchors="top left" style="opacity:1;fill:#F0EFF0;" stroke="#000000" d="M8.043,7.083c0,0,2.814-2.426,5.376-1.807s4.624-0.693,4.624-0.693    c0.25,1.688,0.042,3.75-1.458,5.584c0,0,1.083,0.75,1.083,1.5s0.125,1.875-1,3s-5.5,1.25-6.75,0S8.668,12.834,8.668,12    s0.583-1.25,1.25-1.917C8.835,9.5,7.419,7.708,8.043,7.083z"/> 	</g> 	 	<g id="_51999BDA-79FF-4D63-9892-337DE2327CBCserviceTask" transform="scale(0.7,0.7) translate(8,8)" display="none"> 		<polygon oryx:anchors="top left" id="_51999BDA-79FF-4D63-9892-337DE2327CBCframe20" style="opacity:1;fill:#ffffff" stroke="#000000" points="15.392,5.064 17.954,2.502 20.347,4.895 17.786,7.455     18.729,9.732 22.353,9.732 22.353,13.115 18.731,13.115 17.788,15.392 20.351,17.955 17.958,20.347 15.397,17.786 13.12,18.729     13.12,22.353 9.737,22.353 9.737,18.731 7.46,17.788 4.897,20.35 2.506,17.958 5.066,15.397 4.124,13.12 0.5,13.12 0.5,9.737     4.121,9.737 5.065,7.461 2.503,4.898 4.895,2.506 7.455,5.066 9.732,4.125 9.732,0.5 13.116,0.5 13.116,4.121 "/> 		<circle oryx:anchors="top left" id="_51999BDA-79FF-4D63-9892-337DE2327CBCframe21" style="opacity:1;fill:none" stroke="#000000" cx="11.427" cy="11.426" r="3.714"/> 		<polygon oryx:anchors="top left" id="_51999BDA-79FF-4D63-9892-337DE2327CBCframe22" style="opacity:1;fill:#ffffff" stroke="#000000" points="21.392,11.064 23.954,8.502 26.347,10.895 23.786,13.455     24.729,15.732 28.353,15.732 28.353,19.115 24.731,19.115 23.788,21.392 26.351,23.955 23.958,26.347 21.397,23.786 19.12,24.729     19.12,28.353 15.737,28.353 15.737,24.731 13.46,23.788 10.897,26.35 8.506,23.958 11.066,21.397 10.124,19.12 6.5,19.12     6.5,15.737 10.121,15.737 11.065,13.461 8.503,10.898 10.895,8.506 13.455,11.066 15.732,10.125 15.732,6.5 19.116,6.5     19.116,10.121 "/> 		<circle oryx:anchors="top left" id="_51999BDA-79FF-4D63-9892-337DE2327CBCframe23" style="opacity:1;fill:none;" stroke="#000000" cx="17.427" cy="17.426" r="3.714"/> 	</g> 	 	<g id="_51999BDA-79FF-4D63-9892-337DE2327CBCsendTask" display="none"> 		<path id="_51999BDA-79FF-4D63-9892-337DE2327CBCstframe24" oryx:anchors="left top" stroke="#FFFFFF" fill="black" stroke-width="1" d="M8,11 L8,21 L24,21 L24,11 L16,17z"/> 		<path id="_51999BDA-79FF-4D63-9892-337DE2327CBCstframe25" oryx:anchors="left top" stroke="#FFFFFF" fill="black" stroke-width="1" d="M7,10 L16,17 L25 10z"/> 	</g> 	 	<g id="_51999BDA-79FF-4D63-9892-337DE2327CBCreceiveTask" display="none"> 		<path id="_51999BDA-79FF-4D63-9892-337DE2327CBCframe26" oryx:anchors="left top" stroke="#000000" fill="none" stroke-width="1" d="M8,11 L8,21 L24,21 L24,11z M8,11 L16,17 L24,11"/> 	</g> 	 	<g id="_51999BDA-79FF-4D63-9892-337DE2327CBCnone" display="inherit"/>  	<g id="_51999BDA-79FF-4D63-9892-337DE2327CBCsequential" display="none">         <path oryx:anchors="bottom" fill="none" stroke="#000000" stroke-width="2" d="M46,76h10M46,72h10 M46,68h10" id="_51999BDA-79FF-4D63-9892-337DE2327CBC__51999BDA-79FF-4D63-9892-337DE2327CBC_20"/>     </g>   </g></g><g class="children" style="overflow:hidden"/><g class="edge"/></g><g class="controls"><g class="dockers"/><g class="magnets" transform="translate(135, 255)"><g pointer-events="all" display="none" transform="translate(-7, 12)"><circle cx="8" cy="8" r="4" stroke="none" fill="red" fill-opacity="0.3"/></g><g pointer-events="all" display="none" transform="translate(-7, 32)"><circle cx="8" cy="8" r="4" stroke="none" fill="red" fill-opacity="0.3"/></g><g pointer-events="all" display="none" transform="translate(-7, 52)"><circle cx="8" cy="8" r="4" stroke="none" fill="red" fill-opacity="0.3"/></g><g pointer-events="all" display="none" transform="translate(17, 71)"><circle cx="8" cy="8" r="4" stroke="none" fill="red" fill-opacity="0.3"/></g><g pointer-events="all" display="none" transform="translate(42, 71)"><circle cx="8" cy="8" r="4" stroke="none" fill="red" fill-opacity="0.3"/></g><g pointer-events="all" display="none" transform="translate(67, 71)"><circle cx="8" cy="8" r="4" stroke="none" fill="red" fill-opacity="0.3"/></g><g pointer-events="all" display="none" transform="translate(91, 12)"><circle cx="8" cy="8" r="4" stroke="none" fill="red" fill-opacity="0.3"/></g><g pointer-events="all" display="none" transform="translate(91, 32)"><circle cx="8" cy="8" r="4" stroke="none" fill="red" fill-opacity="0.3"/></g><g pointer-events="all" display="none" transform="translate(91, 52)"><circle cx="8" cy="8" r="4" stroke="none" fill="red" fill-opacity="0.3"/></g><g pointer-events="all" display="none" transform="translate(17, -7)"><circle cx="8" cy="8" r="4" stroke="none" fill="red" fill-opacity="0.3"/></g><g pointer-events="all" display="none" transform="translate(42, -7)"><circle cx="8" cy="8" r="4" stroke="none" fill="red" fill-opacity="0.3"/></g><g pointer-events="all" display="none" transform="translate(67, -7)"><circle cx="8" cy="8" r="4" stroke="none" fill="red" fill-opacity="0.3"/></g><g pointer-events="all" display="none" transform="translate(42, 32)"><circle cx="8" cy="8" r="4" stroke="none" fill="red" fill-opacity="0.3"/></g></g></g></g><g id="_12DFB70D-80A5-49F7-82B2-2CB537ABFCB9" bpmn2nodeid="_DE5332FE-AEA6-4296-B118-D1346F657BE1"><g class="stencils" transform="translate(315.00000000000006, 240.00000000000003)"><g class="me"><g pointer-events="fill" oryx:minimumSize="50 40" id="_12DFB70D-80A5-49F7-82B2-2CB537ABFCB9">   	<defs id="_12DFB70D-80A5-49F7-82B2-2CB537ABFCB9__12DFB70D-80A5-49F7-82B2-2CB537ABFCB9_17"> 		<radialGradient id="_12DFB70D-80A5-49F7-82B2-2CB537ABFCB9background" cx="10%" cy="10%" r="100%" fx="10%" fy="10%"> 			<stop offset="0%" stop-color="#ffffff" stop-opacity="1" id="_12DFB70D-80A5-49F7-82B2-2CB537ABFCB9__12DFB70D-80A5-49F7-82B2-2CB537ABFCB9_18"/> 			<stop id="_12DFB70D-80A5-49F7-82B2-2CB537ABFCB9fill_el" offset="100%" stop-color="#fafad2" stop-opacity="1"/> 		</radialGradient> 		<radialGradient id="_12DFB70D-80A5-49F7-82B2-2CB537ABFCB9borderbackground" cx="10%" cy="10%" r="100%" fx="10%" fy="10%"> 			<stop offset="0%" stop-color="#ffffff" stop-opacity="1" id="_12DFB70D-80A5-49F7-82B2-2CB537ABFCB9__12DFB70D-80A5-49F7-82B2-2CB537ABFCB9_19"/> 			<stop id="_12DFB70D-80A5-49F7-82B2-2CB537ABFCB9fill_border" offset="100%" stop-color="#000000" stop-opacity="1" stroke="#000000"/> 		</radialGradient> 	</defs> 	 	<rect id="_12DFB70D-80A5-49F7-82B2-2CB537ABFCB9text_frame" oryx:anchors="bottom top right left" x="1" y="1" width="94" height="79" rx="10" ry="10" stroke="none" stroke-width="0" fill="none"/> 	<rect id="_12DFB70D-80A5-49F7-82B2-2CB537ABFCB9bg_frame" oryx:resize="vertical horizontal" x="0" y="0" width="100" height="80" rx="10" ry="10" stroke="#000000" stroke-width="1" fill="url(#_12DFB70D-80A5-49F7-82B2-2CB537ABFCB9background) #ffffcc"/> 		<text font-size="12" id="_12DFB70D-80A5-49F7-82B2-2CB537ABFCB9text_name" x="50" y="40" oryx:align="middle center" oryx:fittoelem="text_frame" stroke="black" text-anchor="middle" stroke-width="0pt" letter-spacing="-0.01px" fill="#000000" transform="rotate(0 50 40)" visibility="inherit" oryx:fontSize="12"><tspan x="50" y="40" dy="5">Standard</tspan></text>     <g id="_12DFB70D-80A5-49F7-82B2-2CB537ABFCB9manualTask" transform="scale(0.7,0.7) translate(8,8)" display="none">     	<path oryx:anchors="top left" id="_12DFB70D-80A5-49F7-82B2-2CB537ABFCB9frame" style="opacity:1;fill:none;fill-opacity:1;stroke-width:1" d="M0.5,3.751l4.083-3.25c0,0,11.166,0.083,12.083,0.083s-2.417,2.917-1.5,2.917     s11.667,0,12.584,0c1.166,1.708-0.168,3.167-0.834,3.667s0.875,1.917-1,4.417c-0.75,0.25,0.75,1.875-1.333,3.333     c-1.167,0.583,0.583,1.542-1.25,2.833c-1.167,0-20.833,0.083-20.833,0.083l-2-1.333V3.751z" stroke="#000000"/> 		<path id="_12DFB70D-80A5-49F7-82B2-2CB537ABFCB9frame2" oryx:anchors="top left" style="opacity:1;fill:none;stroke-width:2" d="M 13.5 7 L 27 7" stroke="#000000"/> 		<path id="_12DFB70D-80A5-49F7-82B2-2CB537ABFCB9frame3" oryx:anchors="top left" style="opacity:1;fill:none;stroke-width:2" d="M 13.5 11 L 26 11" stroke="#000000"/> 		<path id="_12DFB70D-80A5-49F7-82B2-2CB537ABFCB9frame4" oryx:anchors="top left" style="opacity:1;fill:none;stroke-width:1.5" d="M 14 14.5 L 25 14.5" stroke="#000000"/> 		<path id="_12DFB70D-80A5-49F7-82B2-2CB537ABFCB9frame5" oryx:anchors="top left" style="opacity:1;fill:none;stroke-width:1.5" d="M 8.2 3.1 L 15 3.1" stroke="#000000"/> 	</g> 	 	<g id="_12DFB70D-80A5-49F7-82B2-2CB537ABFCB9businessRuleTask" transform="scale(0.7,0.7) translate(8,8)" display="inherit"> 		<rect id="_12DFB70D-80A5-49F7-82B2-2CB537ABFCB9frame6" oryx:anchors="top left" x="0" y="0" width="22" height="4" style="opacity:1;fill:#B3B1B3;fill-opacity:1;" stroke="#000000"/> 		<rect id="_12DFB70D-80A5-49F7-82B2-2CB537ABFCB9frame7" oryx:anchors="top left" x="0" y="4" style="opacity:1;fill:none;" width="22" height="12" stroke="#000000"/> 		<path id="_12DFB70D-80A5-49F7-82B2-2CB537ABFCB9frame8" oryx:anchors="top left" style="opacity:1;fill:none;" d="M 0 10 L 22 10" stroke="#000000"/> 		<path id="_12DFB70D-80A5-49F7-82B2-2CB537ABFCB9frame9" oryx:anchors="top left" style="opacity:1; fill:none;" d="M 7 4 L 7 16" stroke="#000000"/> 	</g> 	 	<g id="_12DFB70D-80A5-49F7-82B2-2CB537ABFCB9scriptTask" transform="scale(0.7,0.7) translate(8,8)" display="none"> 		<path oryx:anchors="top left" id="_12DFB70D-80A5-49F7-82B2-2CB537ABFCB9frame10" style="opacity:1;fill:none;" stroke="#000000" d="M6.402,0.5h14.5c0,0-5.833,2.833-5.833,5.583s4.417,6,4.417,9.167    s-4.167,5.083-4.167,5.083H0.235c0,0,5-2.667,5-5s-4.583-6.75-4.583-9.25S6.402,0.5,6.402,0.5z"/> 		<path oryx:anchors="top left" id="_12DFB70D-80A5-49F7-82B2-2CB537ABFCB9frame11" style="opacity:1;fill:none;stroke-width:1.5" d="M 3.5 4.5 L 13.5 4.5" stroke="#000000"/> 		<path oryx:anchors="top left" id="_12DFB70D-80A5-49F7-82B2-2CB537ABFCB9frame12" style="opacity:1;fill:none;stroke-width:1.5" d="M 3.8 8.5 L 13.8 8.5" stroke="#000000"/> 		<path oryx:anchors="top left" id="_12DFB70D-80A5-49F7-82B2-2CB537ABFCB9frame13" style="opacity:1;fill:none;stroke-width:1.5" d="M 6.3 12.5 L 16.3 12.5" stroke="#000000"/> 		<path oryx:anchors="top left" id="_12DFB70D-80A5-49F7-82B2-2CB537ABFCB9frame14" style="opacity:1;fill:none;stroke-width:1.5" d="M 6.5 16.5 L 16.5 16.5" stroke="#000000"/> 	</g> 	 	<g id="_12DFB70D-80A5-49F7-82B2-2CB537ABFCB9userTask" transform="scale(0.7,0.7) translate(8,8)" display="none"> 		<path id="_12DFB70D-80A5-49F7-82B2-2CB537ABFCB9frame15" oryx:anchors="top left" style="opacity:1;fill:#F4F6F7" stroke="#000000" d="M0.585,24.167h24.083v-7.833c0,0-2.333-3.917-7.083-5.167h-9.25    c-4.417,1.333-7.833,5.75-7.833,5.75L0.585,24.167z"/> 		<path id="_12DFB70D-80A5-49F7-82B2-2CB537ABFCB9frame16" oryx:anchors="top left" style="opacity:1;fill:none" d="M 6 20 L 6 24" stroke="#000000"/> 		<path id="_12DFB70D-80A5-49F7-82B2-2CB537ABFCB9frame17" oryx:anchors="top left" style="opacity:1;fill:none" d="M 20 20 L 20 24" stroke="#000000"/> 		<circle id="_12DFB70D-80A5-49F7-82B2-2CB537ABFCB9frame18" oryx:anchors="top left" fill="black" cx="13.002" cy="5.916" r="5.417" stroke="#000000"/> 		<path id="_12DFB70D-80A5-49F7-82B2-2CB537ABFCB9frame19" oryx:anchors="top left" style="opacity:1;fill:#F0EFF0;" stroke="#000000" d="M8.043,7.083c0,0,2.814-2.426,5.376-1.807s4.624-0.693,4.624-0.693    c0.25,1.688,0.042,3.75-1.458,5.584c0,0,1.083,0.75,1.083,1.5s0.125,1.875-1,3s-5.5,1.25-6.75,0S8.668,12.834,8.668,12    s0.583-1.25,1.25-1.917C8.835,9.5,7.419,7.708,8.043,7.083z"/> 	</g> 	 	<g id="_12DFB70D-80A5-49F7-82B2-2CB537ABFCB9serviceTask" transform="scale(0.7,0.7) translate(8,8)" display="none"> 		<polygon oryx:anchors="top left" id="_12DFB70D-80A5-49F7-82B2-2CB537ABFCB9frame20" style="opacity:1;fill:#ffffff" stroke="#000000" points="15.392,5.064 17.954,2.502 20.347,4.895 17.786,7.455     18.729,9.732 22.353,9.732 22.353,13.115 18.731,13.115 17.788,15.392 20.351,17.955 17.958,20.347 15.397,17.786 13.12,18.729     13.12,22.353 9.737,22.353 9.737,18.731 7.46,17.788 4.897,20.35 2.506,17.958 5.066,15.397 4.124,13.12 0.5,13.12 0.5,9.737     4.121,9.737 5.065,7.461 2.503,4.898 4.895,2.506 7.455,5.066 9.732,4.125 9.732,0.5 13.116,0.5 13.116,4.121 "/> 		<circle oryx:anchors="top left" id="_12DFB70D-80A5-49F7-82B2-2CB537ABFCB9frame21" style="opacity:1;fill:none" stroke="#000000" cx="11.427" cy="11.426" r="3.714"/> 		<polygon oryx:anchors="top left" id="_12DFB70D-80A5-49F7-82B2-2CB537ABFCB9frame22" style="opacity:1;fill:#ffffff" stroke="#000000" points="21.392,11.064 23.954,8.502 26.347,10.895 23.786,13.455     24.729,15.732 28.353,15.732 28.353,19.115 24.731,19.115 23.788,21.392 26.351,23.955 23.958,26.347 21.397,23.786 19.12,24.729     19.12,28.353 15.737,28.353 15.737,24.731 13.46,23.788 10.897,26.35 8.506,23.958 11.066,21.397 10.124,19.12 6.5,19.12     6.5,15.737 10.121,15.737 11.065,13.461 8.503,10.898 10.895,8.506 13.455,11.066 15.732,10.125 15.732,6.5 19.116,6.5     19.116,10.121 "/> 		<circle oryx:anchors="top left" id="_12DFB70D-80A5-49F7-82B2-2CB537ABFCB9frame23" style="opacity:1;fill:none;" stroke="#000000" cx="17.427" cy="17.426" r="3.714"/> 	</g> 	 	<g id="_12DFB70D-80A5-49F7-82B2-2CB537ABFCB9sendTask" display="none"> 		<path id="_12DFB70D-80A5-49F7-82B2-2CB537ABFCB9stframe24" oryx:anchors="left top" stroke="#FFFFFF" fill="black" stroke-width="1" d="M8,11 L8,21 L24,21 L24,11 L16,17z"/> 		<path id="_12DFB70D-80A5-49F7-82B2-2CB537ABFCB9stframe25" oryx:anchors="left top" stroke="#FFFFFF" fill="black" stroke-width="1" d="M7,10 L16,17 L25 10z"/> 	</g> 	 	<g id="_12DFB70D-80A5-49F7-82B2-2CB537ABFCB9receiveTask" display="none"> 		<path id="_12DFB70D-80A5-49F7-82B2-2CB537ABFCB9frame26" oryx:anchors="left top" stroke="#000000" fill="none" stroke-width="1" d="M8,11 L8,21 L24,21 L24,11z M8,11 L16,17 L24,11"/> 	</g> 	 	<g id="_12DFB70D-80A5-49F7-82B2-2CB537ABFCB9none" display="inherit"/>  	<g id="_12DFB70D-80A5-49F7-82B2-2CB537ABFCB9sequential" display="none">         <path oryx:anchors="bottom" fill="none" stroke="#000000" stroke-width="2" d="M46,76h10M46,72h10 M46,68h10" id="_12DFB70D-80A5-49F7-82B2-2CB537ABFCB9__12DFB70D-80A5-49F7-82B2-2CB537ABFCB9_20"/>     </g>   </g></g><g class="children" style="overflow:hidden"/><g class="edge"/></g><g class="controls"><g class="dockers"/><g class="magnets" transform="translate(315.00000000000006, 240.00000000000003)"><g pointer-events="all" display="none" transform="translate(-7, 12)"><circle cx="8" cy="8" r="4" stroke="none" fill="red" fill-opacity="0.3"/></g><g pointer-events="all" display="none" transform="translate(-7, 32)"><circle cx="8" cy="8" r="4" stroke="none" fill="red" fill-opacity="0.3"/></g><g pointer-events="all" display="none" transform="translate(-7, 52)"><circle cx="8" cy="8" r="4" stroke="none" fill="red" fill-opacity="0.3"/></g><g pointer-events="all" display="none" transform="translate(17, 71)"><circle cx="8" cy="8" r="4" stroke="none" fill="red" fill-opacity="0.3"/></g><g pointer-events="all" display="none" transform="translate(42, 71)"><circle cx="8" cy="8" r="4" stroke="none" fill="red" fill-opacity="0.3"/></g><g pointer-events="all" display="none" transform="translate(67, 71)"><circle cx="8" cy="8" r="4" stroke="none" fill="red" fill-opacity="0.3"/></g><g pointer-events="all" display="none" transform="translate(91, 12)"><circle cx="8" cy="8" r="4" stroke="none" fill="red" fill-opacity="0.3"/></g><g pointer-events="all" display="none" transform="translate(91, 32)"><circle cx="8" cy="8" r="4" stroke="none" fill="red" fill-opacity="0.3"/></g><g pointer-events="all" display="none" transform="translate(91, 52)"><circle cx="8" cy="8" r="4" stroke="none" fill="red" fill-opacity="0.3"/></g><g pointer-events="all" display="none" transform="translate(17, -7)"><circle cx="8" cy="8" r="4" stroke="none" fill="red" fill-opacity="0.3"/></g><g pointer-events="all" display="none" transform="translate(42, -7)"><circle cx="8" cy="8" r="4" stroke="none" fill="red" fill-opacity="0.3"/></g><g pointer-events="all" display="none" transform="translate(67, -7)"><circle cx="8" cy="8" r="4" stroke="none" fill="red" fill-opacity="0.3"/></g><g pointer-events="all" display="none" transform="translate(42, 32)"><circle cx="8" cy="8" r="4" stroke="none" fill="red" fill-opacity="0.3"/></g></g></g></g><g id="_D16EDFD5-2612-46AC-A4C1-86E8ACD32F71" bpmn2nodeid="_C21429E9-02AE-4535-A00E-763C4C7C0617"><g class="stencils" transform="translate(510.00000000000006, 240.00000000000003)"><g class="me"><g pointer-events="fill" oryx:minimumSize="50 40" id="_D16EDFD5-2612-46AC-A4C1-86E8ACD32F71">   	<defs id="_D16EDFD5-2612-46AC-A4C1-86E8ACD32F71__D16EDFD5-2612-46AC-A4C1-86E8ACD32F71_17"> 		<radialGradient id="_D16EDFD5-2612-46AC-A4C1-86E8ACD32F71background" cx="10%" cy="10%" r="100%" fx="10%" fy="10%"> 			<stop offset="0%" stop-color="#ffffff" stop-opacity="1" id="_D16EDFD5-2612-46AC-A4C1-86E8ACD32F71__D16EDFD5-2612-46AC-A4C1-86E8ACD32F71_18"/> 			<stop id="_D16EDFD5-2612-46AC-A4C1-86E8ACD32F71fill_el" offset="100%" stop-color="#fafad2" stop-opacity="1"/> 		</radialGradient> 		<radialGradient id="_D16EDFD5-2612-46AC-A4C1-86E8ACD32F71borderbackground" cx="10%" cy="10%" r="100%" fx="10%" fy="10%"> 			<stop offset="0%" stop-color="#ffffff" stop-opacity="1" id="_D16EDFD5-2612-46AC-A4C1-86E8ACD32F71__D16EDFD5-2612-46AC-A4C1-86E8ACD32F71_19"/> 			<stop id="_D16EDFD5-2612-46AC-A4C1-86E8ACD32F71fill_border" offset="100%" stop-color="#000000" stop-opacity="1" stroke="#000000"/> 		</radialGradient> 	</defs> 	 	<rect id="_D16EDFD5-2612-46AC-A4C1-86E8ACD32F71text_frame" oryx:anchors="bottom top right left" x="1" y="1" width="94" height="79" rx="10" ry="10" stroke="none" stroke-width="0" fill="none"/> 	<rect id="_D16EDFD5-2612-46AC-A4C1-86E8ACD32F71bg_frame" oryx:resize="vertical horizontal" x="0" y="0" width="100" height="80" rx="10" ry="10" stroke="#000000" stroke-width="1" fill="url(#_D16EDFD5-2612-46AC-A4C1-86E8ACD32F71background) #ffffcc"/> 		<text font-size="12" id="_D16EDFD5-2612-46AC-A4C1-86E8ACD32F71text_name" x="50" y="40" oryx:align="middle center" oryx:fittoelem="text_frame" stroke="black" text-anchor="middle" stroke-width="0pt" letter-spacing="-0.01px" fill="#000000" transform="rotate(0 50 40)" visibility="inherit" oryx:fontSize="12"><tspan x="50" y="40" dy="5" id="ext-gen2218">Promotion</tspan></text>     <g id="_D16EDFD5-2612-46AC-A4C1-86E8ACD32F71manualTask" transform="scale(0.7,0.7) translate(8,8)" display="none">     	<path oryx:anchors="top left" id="_D16EDFD5-2612-46AC-A4C1-86E8ACD32F71frame" style="opacity:1;fill:none;fill-opacity:1;stroke-width:1" d="M0.5,3.751l4.083-3.25c0,0,11.166,0.083,12.083,0.083s-2.417,2.917-1.5,2.917     s11.667,0,12.584,0c1.166,1.708-0.168,3.167-0.834,3.667s0.875,1.917-1,4.417c-0.75,0.25,0.75,1.875-1.333,3.333     c-1.167,0.583,0.583,1.542-1.25,2.833c-1.167,0-20.833,0.083-20.833,0.083l-2-1.333V3.751z" stroke="#000000"/> 		<path id="_D16EDFD5-2612-46AC-A4C1-86E8ACD32F71frame2" oryx:anchors="top left" style="opacity:1;fill:none;stroke-width:2" d="M 13.5 7 L 27 7" stroke="#000000"/> 		<path id="_D16EDFD5-2612-46AC-A4C1-86E8ACD32F71frame3" oryx:anchors="top left" style="opacity:1;fill:none;stroke-width:2" d="M 13.5 11 L 26 11" stroke="#000000"/> 		<path id="_D16EDFD5-2612-46AC-A4C1-86E8ACD32F71frame4" oryx:anchors="top left" style="opacity:1;fill:none;stroke-width:1.5" d="M 14 14.5 L 25 14.5" stroke="#000000"/> 		<path id="_D16EDFD5-2612-46AC-A4C1-86E8ACD32F71frame5" oryx:anchors="top left" style="opacity:1;fill:none;stroke-width:1.5" d="M 8.2 3.1 L 15 3.1" stroke="#000000"/> 	</g> 	 	<g id="_D16EDFD5-2612-46AC-A4C1-86E8ACD32F71businessRuleTask" transform="scale(0.7,0.7) translate(8,8)" display="inherit"> 		<rect id="_D16EDFD5-2612-46AC-A4C1-86E8ACD32F71frame6" oryx:anchors="top left" x="0" y="0" width="22" height="4" style="opacity:1;fill:#B3B1B3;fill-opacity:1;" stroke="#000000"/> 		<rect id="_D16EDFD5-2612-46AC-A4C1-86E8ACD32F71frame7" oryx:anchors="top left" x="0" y="4" style="opacity:1;fill:none;" width="22" height="12" stroke="#000000"/> 		<path id="_D16EDFD5-2612-46AC-A4C1-86E8ACD32F71frame8" oryx:anchors="top left" style="opacity:1;fill:none;" d="M 0 10 L 22 10" stroke="#000000"/> 		<path id="_D16EDFD5-2612-46AC-A4C1-86E8ACD32F71frame9" oryx:anchors="top left" style="opacity:1; fill:none;" d="M 7 4 L 7 16" stroke="#000000"/> 	</g> 	 	<g id="_D16EDFD5-2612-46AC-A4C1-86E8ACD32F71scriptTask" transform="scale(0.7,0.7) translate(8,8)" display="none"> 		<path oryx:anchors="top left" id="_D16EDFD5-2612-46AC-A4C1-86E8ACD32F71frame10" style="opacity:1;fill:none;" stroke="#000000" d="M6.402,0.5h14.5c0,0-5.833,2.833-5.833,5.583s4.417,6,4.417,9.167    s-4.167,5.083-4.167,5.083H0.235c0,0,5-2.667,5-5s-4.583-6.75-4.583-9.25S6.402,0.5,6.402,0.5z"/> 		<path oryx:anchors="top left" id="_D16EDFD5-2612-46AC-A4C1-86E8ACD32F71frame11" style="opacity:1;fill:none;stroke-width:1.5" d="M 3.5 4.5 L 13.5 4.5" stroke="#000000"/> 		<path oryx:anchors="top left" id="_D16EDFD5-2612-46AC-A4C1-86E8ACD32F71frame12" style="opacity:1;fill:none;stroke-width:1.5" d="M 3.8 8.5 L 13.8 8.5" stroke="#000000"/> 		<path oryx:anchors="top left" id="_D16EDFD5-2612-46AC-A4C1-86E8ACD32F71frame13" style="opacity:1;fill:none;stroke-width:1.5" d="M 6.3 12.5 L 16.3 12.5" stroke="#000000"/> 		<path oryx:anchors="top left" id="_D16EDFD5-2612-46AC-A4C1-86E8ACD32F71frame14" style="opacity:1;fill:none;stroke-width:1.5" d="M 6.5 16.5 L 16.5 16.5" stroke="#000000"/> 	</g> 	 	<g id="_D16EDFD5-2612-46AC-A4C1-86E8ACD32F71userTask" transform="scale(0.7,0.7) translate(8,8)" display="none"> 		<path id="_D16EDFD5-2612-46AC-A4C1-86E8ACD32F71frame15" oryx:anchors="top left" style="opacity:1;fill:#F4F6F7" stroke="#000000" d="M0.585,24.167h24.083v-7.833c0,0-2.333-3.917-7.083-5.167h-9.25    c-4.417,1.333-7.833,5.75-7.833,5.75L0.585,24.167z"/> 		<path id="_D16EDFD5-2612-46AC-A4C1-86E8ACD32F71frame16" oryx:anchors="top left" style="opacity:1;fill:none" d="M 6 20 L 6 24" stroke="#000000"/> 		<path id="_D16EDFD5-2612-46AC-A4C1-86E8ACD32F71frame17" oryx:anchors="top left" style="opacity:1;fill:none" d="M 20 20 L 20 24" stroke="#000000"/> 		<circle id="_D16EDFD5-2612-46AC-A4C1-86E8ACD32F71frame18" oryx:anchors="top left" fill="black" cx="13.002" cy="5.916" r="5.417" stroke="#000000"/> 		<path id="_D16EDFD5-2612-46AC-A4C1-86E8ACD32F71frame19" oryx:anchors="top left" style="opacity:1;fill:#F0EFF0;" stroke="#000000" d="M8.043,7.083c0,0,2.814-2.426,5.376-1.807s4.624-0.693,4.624-0.693    c0.25,1.688,0.042,3.75-1.458,5.584c0,0,1.083,0.75,1.083,1.5s0.125,1.875-1,3s-5.5,1.25-6.75,0S8.668,12.834,8.668,12    s0.583-1.25,1.25-1.917C8.835,9.5,7.419,7.708,8.043,7.083z"/> 	</g> 	 	<g id="_D16EDFD5-2612-46AC-A4C1-86E8ACD32F71serviceTask" transform="scale(0.7,0.7) translate(8,8)" display="none"> 		<polygon oryx:anchors="top left" id="_D16EDFD5-2612-46AC-A4C1-86E8ACD32F71frame20" style="opacity:1;fill:#ffffff" stroke="#000000" points="15.392,5.064 17.954,2.502 20.347,4.895 17.786,7.455     18.729,9.732 22.353,9.732 22.353,13.115 18.731,13.115 17.788,15.392 20.351,17.955 17.958,20.347 15.397,17.786 13.12,18.729     13.12,22.353 9.737,22.353 9.737,18.731 7.46,17.788 4.897,20.35 2.506,17.958 5.066,15.397 4.124,13.12 0.5,13.12 0.5,9.737     4.121,9.737 5.065,7.461 2.503,4.898 4.895,2.506 7.455,5.066 9.732,4.125 9.732,0.5 13.116,0.5 13.116,4.121 "/> 		<circle oryx:anchors="top left" id="_D16EDFD5-2612-46AC-A4C1-86E8ACD32F71frame21" style="opacity:1;fill:none" stroke="#000000" cx="11.427" cy="11.426" r="3.714"/> 		<polygon oryx:anchors="top left" id="_D16EDFD5-2612-46AC-A4C1-86E8ACD32F71frame22" style="opacity:1;fill:#ffffff" stroke="#000000" points="21.392,11.064 23.954,8.502 26.347,10.895 23.786,13.455     24.729,15.732 28.353,15.732 28.353,19.115 24.731,19.115 23.788,21.392 26.351,23.955 23.958,26.347 21.397,23.786 19.12,24.729     19.12,28.353 15.737,28.353 15.737,24.731 13.46,23.788 10.897,26.35 8.506,23.958 11.066,21.397 10.124,19.12 6.5,19.12     6.5,15.737 10.121,15.737 11.065,13.461 8.503,10.898 10.895,8.506 13.455,11.066 15.732,10.125 15.732,6.5 19.116,6.5     19.116,10.121 "/> 		<circle oryx:anchors="top left" id="_D16EDFD5-2612-46AC-A4C1-86E8ACD32F71frame23" style="opacity:1;fill:none;" stroke="#000000" cx="17.427" cy="17.426" r="3.714"/> 	</g> 	 	<g id="_D16EDFD5-2612-46AC-A4C1-86E8ACD32F71sendTask" display="none"> 		<path id="_D16EDFD5-2612-46AC-A4C1-86E8ACD32F71stframe24" oryx:anchors="left top" stroke="#FFFFFF" fill="black" stroke-width="1" d="M8,11 L8,21 L24,21 L24,11 L16,17z"/> 		<path id="_D16EDFD5-2612-46AC-A4C1-86E8ACD32F71stframe25" oryx:anchors="left top" stroke="#FFFFFF" fill="black" stroke-width="1" d="M7,10 L16,17 L25 10z"/> 	</g> 	 	<g id="_D16EDFD5-2612-46AC-A4C1-86E8ACD32F71receiveTask" display="none"> 		<path id="_D16EDFD5-2612-46AC-A4C1-86E8ACD32F71frame26" oryx:anchors="left top" stroke="#000000" fill="none" stroke-width="1" d="M8,11 L8,21 L24,21 L24,11z M8,11 L16,17 L24,11"/> 	</g> 	 	<g id="_D16EDFD5-2612-46AC-A4C1-86E8ACD32F71none" display="inherit"/>  	<g id="_D16EDFD5-2612-46AC-A4C1-86E8ACD32F71sequential" display="none">         <path oryx:anchors="bottom" fill="none" stroke="#000000" stroke-width="2" d="M46,76h10M46,72h10 M46,68h10" id="_D16EDFD5-2612-46AC-A4C1-86E8ACD32F71__D16EDFD5-2612-46AC-A4C1-86E8ACD32F71_20"/>     </g>   </g></g><g class="children" style="overflow:hidden"/><g class="edge"/></g><g class="controls"><g class="dockers"/><g class="magnets" transform="translate(510.00000000000006, 240.00000000000003)"><g pointer-events="all" display="none" transform="translate(-7, 12)"><circle cx="8" cy="8" r="4" stroke="none" fill="red" fill-opacity="0.3"/></g><g pointer-events="all" display="none" transform="translate(-7, 32)"><circle cx="8" cy="8" r="4" stroke="none" fill="red" fill-opacity="0.3"/></g><g pointer-events="all" display="none" transform="translate(-7, 52)"><circle cx="8" cy="8" r="4" stroke="none" fill="red" fill-opacity="0.3"/></g><g pointer-events="all" display="none" transform="translate(17, 71)"><circle cx="8" cy="8" r="4" stroke="none" fill="red" fill-opacity="0.3"/></g><g pointer-events="all" display="none" transform="translate(42, 71)"><circle cx="8" cy="8" r="4" stroke="none" fill="red" fill-opacity="0.3"/></g><g pointer-events="all" display="none" transform="translate(67, 71)"><circle cx="8" cy="8" r="4" stroke="none" fill="red" fill-opacity="0.3"/></g><g pointer-events="all" display="none" transform="translate(91, 12)"><circle cx="8" cy="8" r="4" stroke="none" fill="red" fill-opacity="0.3"/></g><g pointer-events="all" display="none" transform="translate(91, 32)"><circle cx="8" cy="8" r="4" stroke="none" fill="red" fill-opacity="0.3"/></g><g pointer-events="all" display="none" transform="translate(91, 52)"><circle cx="8" cy="8" r="4" stroke="none" fill="red" fill-opacity="0.3"/></g><g pointer-events="all" display="none" transform="translate(17, -7)"><circle cx="8" cy="8" r="4" stroke="none" fill="red" fill-opacity="0.3"/></g><g pointer-events="all" display="none" transform="translate(42, -7)"><circle cx="8" cy="8" r="4" stroke="none" fill="red" fill-opacity="0.3"/></g><g pointer-events="all" display="none" transform="translate(67, -7)"><circle cx="8" cy="8" r="4" stroke="none" fill="red" fill-opacity="0.3"/></g><g pointer-events="all" display="none" transform="translate(42, 32)"><circle cx="8" cy="8" r="4" stroke="none" fill="red" fill-opacity="0.3"/></g></g></g></g><g id="_D4989A26-8F18-4A44-A881-50AB9F1C470A" bpmn2nodeid="_33560379-4544-4FDE-89FD-530164FBCD0F"><g class="stencils" transform="translate(735, 281)"><g class="me"><g pointer-events="fill" id="_D4989A26-8F18-4A44-A881-50AB9F1C470A">      <defs id="_D4989A26-8F18-4A44-A881-50AB9F1C470A__D4989A26-8F18-4A44-A881-50AB9F1C470A_5"> 		<radialGradient id="_D4989A26-8F18-4A44-A881-50AB9F1C470Abackground" cx="10%" cy="10%" r="100%" fx="10%" fy="10%"> 			<stop offset="0%" stop-color="#ffffff" stop-opacity="1" id="_D4989A26-8F18-4A44-A881-50AB9F1C470A__D4989A26-8F18-4A44-A881-50AB9F1C470A_6"/> 			<stop id="_D4989A26-8F18-4A44-A881-50AB9F1C470Afill_el" offset="100%" stop-color="#ff6347" stop-opacity="1"/> 		</radialGradient> 	</defs> 	     <circle id="_D4989A26-8F18-4A44-A881-50AB9F1C470Abg_frame" cx="14" cy="14" r="14" stroke="#000000" fill="url(#_D4989A26-8F18-4A44-A881-50AB9F1C470Abackground) white" stroke-width="3"/> 	<text font-size="11" id="_D4989A26-8F18-4A44-A881-50AB9F1C470Atext_name" x="14" y="30" oryx:align="top center" stroke="black" stroke-width="0pt" letter-spacing="-0.01px" fill="#000000" text-anchor="middle" transform="rotate(0 14 30)" visibility="inherit" oryx:fontSize="11"/>   </g></g><g class="children" style="overflow:hidden"/><g class="edge"/></g><g class="controls"><g class="dockers"/><g class="magnets" transform="translate(735, 281)"><g pointer-events="all" display="none" transform="translate(6, 6)"><circle cx="8" cy="8" r="4" stroke="none" fill="red" fill-opacity="0.3"/></g></g></g></g></g><g class="edge"><g id="_3A565B7F-1DBB-47FB-8E49-143A617BB4F4" bpmn2nodeid="_C81F9B39-145C-411E-8E08-49D36F30744D"><g class="stencils"><g class="me"><g pointer-events="painted" bpmn2nodeid="_EB4DC68E-FC20-411C-AF6D-7620FB2C056A"><path id="_3A565B7F-1DBB-47FB-8E49-143A617BB4F4_1" d="M75.64763845872179 299.3740944616511L134.1961115412782 297.0321555383489 " stroke="#000000" fill="none" stroke-width="2" stroke-linecap="round" stroke-linejoin="round" marker-start="url(#_3A565B7F-1DBB-47FB-8E49-143A617BB4F4start)" marker-end="url(#_3A565B7F-1DBB-47FB-8E49-143A617BB4F4end)"/></g><text id="_3A565B7F-1DBB-47FB-8E49-143A617BB4F4text_name" font-size="12" x="89.64763845872179" y="285.3740944616511" oryx:edgePosition="startTop" stroke-width="0pt" letter-spacing="-0.01px" fill="#000000" text-anchor="start" transform="rotate(357.7093899573615 75.64763845872179 299.3740944616511)" visibility="inherit" oryx:fontSize="12"/></g><g class="children" style="overflow:hidden"/><g class="edge"/></g><g class="controls"><g class="dockers"/><g class="magnets"/></g></g><g id="_798EC85F-BE85-407C-ACF6-C89D26ED59B3" bpmn2nodeid="_20BA939B-DE54-42C4-8A06-D2BD0EF4FD38"><g class="stencils"><g class="me"><g pointer-events="painted" bpmn2nodeid="_A5B66761-AE7B-4671-B771-14E0C0CAC477"><path id="_798EC85F-BE85-407C-ACF6-C89D26ED59B3_1" d="M235.21529575824488 290.81539202014625L314.7847042417551 284.18460797985375 " stroke="#000000" fill="none" stroke-width="2" stroke-linecap="round" stroke-linejoin="round" marker-start="url(#_798EC85F-BE85-407C-ACF6-C89D26ED59B3start)" marker-end="url(#_798EC85F-BE85-407C-ACF6-C89D26ED59B3end)"/></g><text id="_798EC85F-BE85-407C-ACF6-C89D26ED59B3text_name" font-size="12" x="249.21529575824488" y="276.81539202014625" oryx:edgePosition="startTop" stroke-width="0pt" letter-spacing="-0.01px" fill="#000000" text-anchor="start" transform="rotate(355.23635830927384 235.21529575824488 290.81539202014625)" visibility="inherit" oryx:fontSize="12"/></g><g class="children" style="overflow:hidden"/><g class="edge"/></g><g class="controls"><g class="dockers"/><g class="magnets"/></g></g><g id="_8CA49078-7FA3-40E0-A51C-3643B99308E6" bpmn2nodeid="_E6FAFEF4-C7A0-4AD4-9BF3-254024A69560"><g class="stencils"><g class="me"><g pointer-events="painted" bpmn2nodeid="_72493C0C-47D3-4291-9246-05545767CE43"><path id="_8CA49078-7FA3-40E0-A51C-3643B99308E6_1" d="M415.51171875 280L509.48828125 280 " stroke="#000000" fill="none" stroke-width="2" stroke-linecap="round" stroke-linejoin="round" marker-start="url(#_8CA49078-7FA3-40E0-A51C-3643B99308E6start)" marker-end="url(#_8CA49078-7FA3-40E0-A51C-3643B99308E6end)"/></g><text id="_8CA49078-7FA3-40E0-A51C-3643B99308E6text_name" font-size="12" x="429.51171875" y="266" oryx:edgePosition="startTop" stroke-width="0pt" letter-spacing="-0.01px" fill="#000000" text-anchor="start" transform="rotate(360 415.51171875 280)" visibility="inherit" oryx:fontSize="12"/></g><g class="children" style="overflow:hidden"/><g class="edge"/></g><g class="controls"><g class="dockers"/><g class="magnets"/></g></g><g id="_B045ADCE-CD26-4108-83F2-21900C91B5C3" bpmn2nodeid="_1BFB57EC-C1AE-4D2C-A480-B4EA3DE9C93A"><g class="stencils"><g class="me"><g pointer-events="painted" bpmn2nodeid="_CCD19F62-C91B-4581-B825-710C4FA7E71D"><path id="_B045ADCE-CD26-4108-83F2-21900C91B5C3_1" d="M610.4617091425763 284.0048975509981L734.7140721074237 293.8661961990019 " stroke="#000000" fill="none" stroke-width="2" stroke-linecap="round" stroke-linejoin="round" marker-start="url(#_B045ADCE-CD26-4108-83F2-21900C91B5C3start)" marker-end="url(#_B045ADCE-CD26-4108-83F2-21900C91B5C3end)"/></g><text id="_B045ADCE-CD26-4108-83F2-21900C91B5C3text_name" font-size="12" x="624.4617091425763" y="270.0048975509981" oryx:edgePosition="startTop" stroke-width="0pt" letter-spacing="-0.01px" fill="#000000" text-anchor="start" transform="rotate(4.537772507906652 610.4617091425763 284.0048975509981)" visibility="inherit" oryx:fontSize="12"/></g><g class="children" style="overflow:hidden"/><g class="edge"/></g><g class="controls"><g class="dockers"/><g class="magnets"/></g></g></g><text id="_69D5A769-2D51-4E17-BE54-89AFAB931A24" style="stroke-width:1;fill:rgb(177,194,214);font-family:arial;font-weight:bold" font-size="12" onclick="ORYX.Plugins.CanvasTitle.openTextualAnalysis()" onmouseover="ORYX.Plugins.CanvasTitle.addToolTip('_69D5A769-2D51-4E17-BE54-89AFAB931A24')" transform="translate(10, 20)">P1111 v.1.0 (src.P1111)</text></g></g></svg>